<svg xmlns="http://www.w3.org/2000/svg" xmlns:xlink="http://www.w3.org/1999/xlink" width="416" zoomAndPan="magnify" viewBox="0 0 312 122.249994" height="163" preserveAspectRatio="xMidYMid meet" version="1.0"><defs><filter x="0%" y="0%" width="100%" height="100%" id="b92afc80cd"><feColorMatrix values="0 0 0 0 1 0 0 0 0 1 0 0 0 0 1 0 0 0 1 0" color-interpolation-filters="sRGB"/></filter><g/><mask id="d77a796d0b"><g filter="url(#b92afc80cd)"><rect x="-31.2" width="374.4" fill="#000000" y="-12.224999" height="146.699993" fill-opacity="0.41"/></g></mask><clipPath id="ab97707750"><path d="M 2 2 L 37 2 L 37 24 L 2 24 Z M 2 2 " clip-rule="nonzero"/></clipPath><clipPath id="ad3b4d41fe"><path d="M 34.097656 0.476562 L 38.570312 10.328125 L 4.824219 25.648438 L 0.351562 15.796875 Z M 34.097656 0.476562 " clip-rule="nonzero"/></clipPath><clipPath id="02d300b0ce"><path d="M 36.335938 5.402344 C 36.925781 6.707031 36.976562 8.195312 36.472656 9.539062 C 35.96875 10.882812 34.953125 11.96875 33.644531 12.5625 L 9.753906 23.410156 C 8.449219 24.003906 6.960938 24.054688 5.617188 23.550781 C 4.273438 23.042969 3.1875 22.027344 2.59375 20.722656 C 2 19.414062 1.949219 17.925781 2.453125 16.582031 C 2.960938 15.238281 3.976562 14.152344 5.28125 13.558594 L 29.171875 2.710938 C 30.480469 2.121094 31.96875 2.070312 33.308594 2.574219 C 34.652344 3.078125 35.742188 4.09375 36.335938 5.402344 Z M 36.335938 5.402344 " clip-rule="nonzero"/></clipPath><clipPath id="a691f2c54f"><path d="M 0 0.0117188 L 35 0.0117188 L 35 22 L 0 22 Z M 0 0.0117188 " clip-rule="nonzero"/></clipPath><clipPath id="b2c33ab45d"><path d="M 32.097656 -1.523438 L 36.570312 8.328125 L 2.824219 23.648438 L -1.648438 13.796875 Z M 32.097656 -1.523438 " clip-rule="nonzero"/></clipPath><clipPath id="5f33d127e2"><path d="M 34.335938 3.402344 C 34.925781 4.707031 34.976562 6.195312 34.472656 7.539062 C 33.96875 8.882812 32.953125 9.96875 31.644531 10.5625 L 7.753906 21.410156 C 6.449219 22.003906 4.960938 22.054688 3.617188 21.550781 C 2.273438 21.042969 1.1875 20.027344 0.59375 18.722656 C 0 17.414062 -0.0507812 15.925781 0.453125 14.582031 C 0.960938 13.238281 1.976562 12.152344 3.28125 11.558594 L 27.171875 0.710938 C 28.480469 0.121094 29.96875 0.0703125 31.308594 0.574219 C 32.652344 1.078125 33.742188 2.09375 34.335938 3.402344 Z M 34.335938 3.402344 " clip-rule="nonzero"/></clipPath><clipPath id="44ae21b42f"><rect x="0" width="35" y="0" height="22"/></clipPath><clipPath id="cec32c91e1"><rect x="0" width="39" y="0" height="26"/></clipPath><clipPath id="bd7af48b39"><path d="M 19 52 L 60 52 L 60 78 L 19 78 Z M 19 52 " clip-rule="nonzero"/></clipPath><clipPath id="80cfdb2a87"><path d="M 56.71875 50.496094 L 61.945312 62.015625 L 22.492188 79.929688 L 17.261719 68.410156 Z M 56.71875 50.496094 " clip-rule="nonzero"/></clipPath><clipPath id="b73271356c"><path d="M 59.332031 56.253906 C 60.027344 57.78125 60.085938 59.523438 59.496094 61.09375 C 58.90625 62.664062 57.714844 63.933594 56.1875 64.628906 L 28.257812 77.308594 C 26.730469 78.003906 24.988281 78.0625 23.417969 77.472656 C 21.847656 76.882812 20.578125 75.691406 19.882812 74.164062 C 19.191406 72.636719 19.132812 70.898438 19.722656 69.328125 C 20.3125 67.757812 21.5 66.484375 23.027344 65.792969 L 50.960938 53.109375 C 52.488281 52.417969 54.226562 52.359375 55.796875 52.949219 C 57.367188 53.539062 58.640625 54.726562 59.332031 56.253906 Z M 59.332031 56.253906 " clip-rule="nonzero"/></clipPath><clipPath id="63d3bbc6b0"><path d="M 0.078125 0.238281 L 41 0.238281 L 41 26 L 0.078125 26 Z M 0.078125 0.238281 " clip-rule="nonzero"/></clipPath><clipPath id="9f9e2c2439"><path d="M 37.71875 -1.503906 L 42.945312 10.015625 L 3.492188 27.929688 L -1.738281 16.410156 Z M 37.71875 -1.503906 " clip-rule="nonzero"/></clipPath><clipPath id="c68b939288"><path d="M 40.332031 4.253906 C 41.027344 5.78125 41.085938 7.523438 40.496094 9.09375 C 39.90625 10.664062 38.714844 11.933594 37.1875 12.628906 L 9.257812 25.308594 C 7.730469 26.003906 5.988281 26.0625 4.417969 25.472656 C 2.847656 24.882812 1.578125 23.691406 0.882812 22.164062 C 0.191406 20.636719 0.132812 18.898438 0.722656 17.328125 C 1.3125 15.757812 2.5 14.484375 4.027344 13.792969 L 31.960938 1.109375 C 33.488281 0.417969 35.226562 0.359375 36.796875 0.949219 C 38.367188 1.539062 39.640625 2.726562 40.332031 4.253906 Z M 40.332031 4.253906 " clip-rule="nonzero"/></clipPath><clipPath id="3ec72620f2"><rect x="0" width="41" y="0" height="26"/></clipPath><clipPath id="62bc9d931b"><path d="M 1 8 L 79 8 L 79 59 L 1 59 Z M 1 8 " clip-rule="nonzero"/></clipPath><clipPath id="6bd043e46d"><path d="M 72.023438 4.082031 L 83.429688 29.199219 L 8.476562 63.226562 L -2.925781 38.113281 Z M 72.023438 4.082031 " clip-rule="nonzero"/></clipPath><clipPath id="3b66845d1e"><path d="M 77.726562 16.640625 C 79.238281 19.96875 79.367188 23.765625 78.078125 27.1875 C 76.792969 30.613281 74.199219 33.386719 70.871094 34.898438 L 21.113281 57.488281 C 17.785156 59 13.988281 59.128906 10.566406 57.84375 C 7.140625 56.558594 4.367188 53.964844 2.855469 50.632812 C 1.34375 47.300781 1.214844 43.507812 2.5 40.082031 C 3.789062 36.660156 6.382812 33.886719 9.710938 32.375 L 59.46875 9.785156 C 62.796875 8.273438 66.59375 8.144531 70.015625 9.429688 C 73.441406 10.714844 76.214844 13.308594 77.726562 16.640625 Z M 77.726562 16.640625 " clip-rule="nonzero"/></clipPath><clipPath id="8c73589d3b"><path d="M 0.191406 0.109375 L 78 0.109375 L 78 51 L 0.191406 51 Z M 0.191406 0.109375 " clip-rule="nonzero"/></clipPath><clipPath id="6e898803a1"><path d="M 71.023438 -3.917969 L 82.429688 21.199219 L 7.476562 55.226562 L -3.925781 30.113281 Z M 71.023438 -3.917969 " clip-rule="nonzero"/></clipPath><clipPath id="40a8d03738"><path d="M 76.726562 8.640625 C 78.238281 11.96875 78.367188 15.765625 77.078125 19.1875 C 75.792969 22.613281 73.199219 25.386719 69.871094 26.898438 L 20.113281 49.488281 C 16.785156 51 12.988281 51.128906 9.566406 49.84375 C 6.140625 48.558594 3.367188 45.964844 1.855469 42.632812 C 0.34375 39.300781 0.214844 35.507812 1.5 32.082031 C 2.789062 28.660156 5.382812 25.886719 8.710938 24.375 L 58.46875 1.785156 C 61.796875 0.273438 65.59375 0.144531 69.015625 1.429688 C 72.441406 2.714844 75.214844 5.308594 76.726562 8.640625 Z M 76.726562 8.640625 " clip-rule="nonzero"/></clipPath><clipPath id="a4b7036e84"><rect x="0" width="78" y="0" height="51"/></clipPath><clipPath id="107c9904ab"><path d="M 16 47 L 63 47 L 63 77 L 16 77 Z M 16 47 " clip-rule="nonzero"/></clipPath><clipPath id="485edc2575"><path d="M 59.027344 44.820312 L 65.042969 58.066406 L 19.667969 78.664062 L 13.65625 65.421875 Z M 59.027344 44.820312 " clip-rule="nonzero"/></clipPath><clipPath id="aac6f6718c"><path d="M 62.035156 51.441406 C 63.695312 55.101562 62.078125 59.410156 58.421875 61.070312 L 26.300781 75.65625 C 22.640625 77.316406 18.332031 75.695312 16.671875 72.039062 C 15.011719 68.382812 16.628906 64.070312 20.285156 62.410156 L 52.40625 47.828125 C 56.0625 46.167969 60.375 47.785156 62.035156 51.441406 Z M 62.035156 51.441406 " clip-rule="nonzero"/></clipPath><clipPath id="bfae6acf95"><path d="M 0 0 L 47 0 L 47 30 L 0 30 Z M 0 0 " clip-rule="nonzero"/></clipPath><clipPath id="ef1063a3b3"><path d="M 43.027344 -2.179688 L 49.042969 11.066406 L 3.667969 31.664062 L -2.34375 18.421875 Z M 43.027344 -2.179688 " clip-rule="nonzero"/></clipPath><clipPath id="e91d2198a3"><path d="M 46.035156 4.441406 C 47.695312 8.101562 46.078125 12.410156 42.421875 14.070312 L 10.300781 28.65625 C 6.640625 30.316406 2.332031 28.695312 0.671875 25.039062 C -0.988281 21.382812 0.628906 17.070312 4.285156 15.410156 L 36.40625 0.828125 C 40.0625 -0.832031 44.375 0.785156 46.035156 4.441406 Z M 46.035156 4.441406 " clip-rule="nonzero"/></clipPath><clipPath id="3715a731c6"><rect x="0" width="47" y="0" height="30"/></clipPath><clipPath id="04e631b0ec"><path d="M 12 62 L 90 62 L 90 113 L 12 113 Z M 12 62 " clip-rule="nonzero"/></clipPath><clipPath id="954e9a6a9e"><path d="M 82.953125 58.414062 L 94.308594 83.429688 L 19.359375 117.457031 L 8.003906 92.441406 Z M 82.953125 58.414062 " clip-rule="nonzero"/></clipPath><clipPath id="3fa78aa1c8"><path d="M 88.632812 70.921875 C 90.136719 74.238281 90.265625 78.019531 88.984375 81.429688 C 87.703125 84.839844 85.121094 87.601562 81.800781 89.109375 L 31.945312 111.742188 C 28.628906 113.25 24.851562 113.375 21.4375 112.09375 C 18.027344 110.816406 15.265625 108.230469 13.761719 104.914062 C 12.253906 101.597656 12.128906 97.816406 13.40625 94.40625 C 14.6875 90.996094 17.273438 88.234375 20.589844 86.726562 L 70.445312 64.09375 C 73.761719 62.585938 77.542969 62.460938 80.953125 63.738281 C 84.363281 65.019531 87.125 67.605469 88.632812 70.921875 Z M 88.632812 70.921875 " clip-rule="nonzero"/></clipPath><clipPath id="166658263b"><path d="M 0 0.257812 L 78 0.257812 L 78 51 L 0 51 Z M 0 0.257812 " clip-rule="nonzero"/></clipPath><clipPath id="64233d3dbb"><path d="M 70.953125 -3.585938 L 82.308594 21.429688 L 7.359375 55.457031 L -3.996094 30.441406 Z M 70.953125 -3.585938 " clip-rule="nonzero"/></clipPath><clipPath id="48f27fd7dd"><path d="M 76.632812 8.921875 C 78.136719 12.238281 78.265625 16.019531 76.984375 19.429688 C 75.703125 22.839844 73.121094 25.601562 69.800781 27.109375 L 19.945312 49.742188 C 16.628906 51.25 12.851562 51.375 9.4375 50.09375 C 6.027344 48.816406 3.265625 46.230469 1.761719 42.914062 C 0.253906 39.597656 0.128906 35.816406 1.40625 32.40625 C 2.6875 28.996094 5.273438 26.234375 8.589844 24.726562 L 58.445312 2.09375 C 61.761719 0.585938 65.542969 0.460938 68.953125 1.738281 C 72.363281 3.019531 75.125 5.605469 76.632812 8.921875 Z M 76.632812 8.921875 " clip-rule="nonzero"/></clipPath><clipPath id="97725ba121"><rect x="0" width="78" y="0" height="51"/></clipPath><clipPath id="af2a0718b2"><path d="M 93 18 L 311.046875 18 L 311.046875 103 L 93 103 Z M 93 18 " clip-rule="nonzero"/></clipPath><clipPath id="f86a3a9178"><rect x="0" width="219" y="0" height="85"/></clipPath><mask id="7fc3f7059f"><g filter="url(#b92afc80cd)"><rect x="-31.2" width="374.4" fill="#000000" y="-12.224999" height="146.699993" fill-opacity="0.7"/></g></mask><clipPath id="47cf0b23f0"><path d="M 0.660156 0.789062 L 157.378906 0.789062 L 157.378906 22.976562 L 0.660156 22.976562 Z M 0.660156 0.789062 " clip-rule="nonzero"/></clipPath><clipPath id="c115c6195f"><rect x="0" width="158" y="0" height="23"/></clipPath><clipPath id="8c86e55f7f"><rect x="0" width="158" y="0" height="23"/></clipPath></defs><g mask="url(#d77a796d0b)"><g transform="matrix(1, 0, 0, 1, 21, 55)"><g clip-path="url(#cec32c91e1)"><g clip-path="url(#ab97707750)"><g clip-path="url(#ad3b4d41fe)"><g clip-path="url(#02d300b0ce)"><g transform="matrix(1, 0, 0, 1, 2, 2)"><g clip-path="url(#44ae21b42f)"><g clip-path="url(#a691f2c54f)"><g clip-path="url(#b2c33ab45d)"><g clip-path="url(#5f33d127e2)"><path fill="#ffffff" d="M 32.097656 -1.523438 L 36.570312 8.328125 L 2.824219 23.648438 L -1.648438 13.796875 Z M 32.097656 -1.523438 " fill-opacity="1" fill-rule="nonzero"/></g></g></g></g></g></g></g></g></g></g></g><g clip-path="url(#bd7af48b39)"><g clip-path="url(#80cfdb2a87)"><g clip-path="url(#b73271356c)"><g transform="matrix(1, 0, 0, 1, 19, 52)"><g clip-path="url(#3ec72620f2)"><g clip-path="url(#63d3bbc6b0)"><g clip-path="url(#9f9e2c2439)"><g clip-path="url(#c68b939288)"><path fill="#bad4f9" d="M 37.71875 -1.503906 L 42.945312 10.015625 L 3.492188 27.929688 L -1.738281 16.410156 Z M 37.71875 -1.503906 " fill-opacity="1" fill-rule="nonzero"/></g></g></g></g></g></g></g></g><g clip-path="url(#62bc9d931b)"><g clip-path="url(#6bd043e46d)"><g clip-path="url(#3b66845d1e)"><g transform="matrix(1, 0, 0, 1, 1, 8)"><g clip-path="url(#a4b7036e84)"><g clip-path="url(#8c73589d3b)"><g clip-path="url(#6e898803a1)"><g clip-path="url(#40a8d03738)"><path fill="#ffffff" d="M 71.023438 -3.917969 L 82.429688 21.199219 L 7.574219 55.183594 L -3.828125 30.066406 Z M 71.023438 -3.917969 " fill-opacity="1" fill-rule="nonzero"/></g></g></g></g></g></g></g></g><g clip-path="url(#107c9904ab)"><g clip-path="url(#485edc2575)"><g clip-path="url(#aac6f6718c)"><g transform="matrix(1, 0, 0, 1, 16, 47)"><g clip-path="url(#3715a731c6)"><g clip-path="url(#bfae6acf95)"><g clip-path="url(#ef1063a3b3)"><g clip-path="url(#e91d2198a3)"><path fill="#ffffff" d="M 43.027344 -2.179688 L 49.042969 11.066406 L 3.667969 31.664062 L -2.34375 18.421875 Z M 43.027344 -2.179688 " fill-opacity="1" fill-rule="nonzero"/></g></g></g></g></g></g></g></g><g clip-path="url(#04e631b0ec)"><g clip-path="url(#954e9a6a9e)"><g clip-path="url(#3fa78aa1c8)"><g transform="matrix(1, 0, 0, 1, 12, 62)"><g clip-path="url(#97725ba121)"><g clip-path="url(#166658263b)"><g clip-path="url(#64233d3dbb)"><g clip-path="url(#48f27fd7dd)"><path fill="#ffffff" d="M 70.953125 -3.585938 L 82.308594 21.429688 L 7.457031 55.414062 L -3.898438 30.398438 Z M 70.953125 -3.585938 " fill-opacity="1" fill-rule="nonzero"/></g></g></g></g></g></g></g></g><g clip-path="url(#af2a0718b2)"><g transform="matrix(1, 0, 0, 1, 93, 18)"><g clip-path="url(#f86a3a9178)"><g fill="#ffffff" fill-opacity="1"><g transform="translate(0.757767, 68.971741)"><g><path d="M 8.03125 0 L 8.03125 -27.59375 L 1.921875 -27.59375 L 1.921875 -36.21875 L 8.03125 -36.21875 L 8.03125 -36.75 C 8.03125 -39.625 8.59375 -42.054688 9.71875 -44.046875 C 10.84375 -46.035156 12.46875 -47.5625 14.59375 -48.625 C 16.71875 -49.6875 19.285156 -50.21875 22.296875 -50.21875 C 22.867188 -50.21875 23.484375 -50.179688 24.140625 -50.109375 C 24.804688 -50.046875 25.363281 -49.972656 25.8125 -49.890625 L 25.8125 -41.40625 C 25.363281 -41.488281 24.972656 -41.539062 24.640625 -41.5625 C 24.316406 -41.582031 23.976562 -41.59375 23.625 -41.59375 C 21.757812 -41.59375 20.351562 -41.179688 19.40625 -40.359375 C 18.457031 -39.546875 17.984375 -38.34375 17.984375 -36.75 L 17.984375 -36.21875 L 25.734375 -36.21875 L 25.734375 -27.59375 L 17.984375 -27.59375 L 17.984375 0 Z M 8.03125 0 "/></g></g></g><g fill="#ffffff" fill-opacity="1"><g transform="translate(29.28203, 68.971741)"><g><path d="M 8.03125 0 L 8.03125 -27.59375 L 1.921875 -27.59375 L 1.921875 -36.21875 L 8.03125 -36.21875 L 8.03125 -36.75 C 8.03125 -39.625 8.59375 -42.054688 9.71875 -44.046875 C 10.84375 -46.035156 12.46875 -47.5625 14.59375 -48.625 C 16.71875 -49.6875 19.285156 -50.21875 22.296875 -50.21875 C 22.867188 -50.21875 23.484375 -50.179688 24.140625 -50.109375 C 24.804688 -50.046875 25.363281 -49.972656 25.8125 -49.890625 L 25.8125 -41.40625 C 25.363281 -41.488281 24.972656 -41.539062 24.640625 -41.5625 C 24.316406 -41.582031 23.976562 -41.59375 23.625 -41.59375 C 21.757812 -41.59375 20.351562 -41.179688 19.40625 -40.359375 C 18.457031 -39.546875 17.984375 -38.34375 17.984375 -36.75 L 17.984375 -36.21875 L 25.734375 -36.21875 L 25.734375 -27.59375 L 17.984375 -27.59375 L 17.984375 0 Z M 8.03125 0 "/></g></g></g><g fill="#ffffff" fill-opacity="1"><g transform="translate(58.469758, 68.971741)"><g><path d="M 14.859375 0.796875 C 12.253906 0.796875 10 0.378906 8.09375 -0.453125 C 6.1875 -1.296875 4.722656 -2.503906 3.703125 -4.078125 C 2.691406 -5.648438 2.1875 -7.519531 2.1875 -9.6875 C 2.1875 -11.71875 2.648438 -13.519531 3.578125 -15.09375 C 4.503906 -16.664062 5.929688 -17.984375 7.859375 -19.046875 C 9.785156 -20.109375 12.1875 -20.859375 15.0625 -21.296875 L 26.140625 -23.09375 L 26.140625 -15.796875 L 16.84375 -14.125 C 15.4375 -13.863281 14.351562 -13.410156 13.59375 -12.765625 C 12.84375 -12.128906 12.46875 -11.210938 12.46875 -10.015625 C 12.46875 -8.910156 12.890625 -8.046875 13.734375 -7.421875 C 14.578125 -6.804688 15.613281 -6.5 16.84375 -6.5 C 18.488281 -6.5 19.925781 -6.851562 21.15625 -7.5625 C 22.394531 -8.269531 23.359375 -9.234375 24.046875 -10.453125 C 24.734375 -11.671875 25.078125 -13.007812 25.078125 -14.46875 L 25.078125 -23.890625 C 25.078125 -25.253906 24.535156 -26.398438 23.453125 -27.328125 C 22.367188 -28.265625 20.898438 -28.734375 19.046875 -28.734375 C 17.273438 -28.734375 15.710938 -28.242188 14.359375 -27.265625 C 13.015625 -26.296875 12.03125 -25.015625 11.40625 -23.421875 L 3.453125 -27.203125 C 4.160156 -29.234375 5.285156 -30.976562 6.828125 -32.4375 C 8.378906 -33.894531 10.238281 -35.019531 12.40625 -35.8125 C 14.570312 -36.613281 16.9375 -37.015625 19.5 -37.015625 C 22.550781 -37.015625 25.25 -36.460938 27.59375 -35.359375 C 29.9375 -34.253906 31.757812 -32.71875 33.0625 -30.75 C 34.375 -28.78125 35.03125 -26.492188 35.03125 -23.890625 L 35.03125 0 L 25.734375 0 L 25.734375 -5.84375 L 28 -6.234375 C 26.9375 -4.640625 25.765625 -3.320312 24.484375 -2.28125 C 23.203125 -1.25 21.765625 -0.476562 20.171875 0.03125 C 18.578125 0.539062 16.804688 0.796875 14.859375 0.796875 Z M 14.859375 0.796875 "/></g></g></g><g fill="#ffffff" fill-opacity="1"><g transform="translate(98.469878, 68.971741)"><g><path d="M 21.09375 0.390625 C 16.71875 0.390625 13.320312 -0.789062 10.90625 -3.15625 C 8.5 -5.519531 7.296875 -8.820312 7.296875 -13.0625 L 7.296875 -27.59375 L 1.1875 -27.59375 L 1.1875 -36.21875 L 1.53125 -36.21875 C 3.382812 -36.21875 4.804688 -36.679688 5.796875 -37.609375 C 6.796875 -38.546875 7.296875 -39.941406 7.296875 -41.796875 L 7.296875 -44.453125 L 17.25 -44.453125 L 17.25 -36.21875 L 25.734375 -36.21875 L 25.734375 -27.59375 L 17.25 -27.59375 L 17.25 -13.734375 C 17.25 -12.492188 17.46875 -11.460938 17.90625 -10.640625 C 18.351562 -9.828125 19.039062 -9.222656 19.96875 -8.828125 C 20.894531 -8.429688 22.046875 -8.234375 23.421875 -8.234375 C 23.734375 -8.234375 24.085938 -8.253906 24.484375 -8.296875 C 24.878906 -8.335938 25.296875 -8.378906 25.734375 -8.421875 L 25.734375 0 C 25.078125 0.0820312 24.328125 0.164062 23.484375 0.25 C 22.640625 0.34375 21.84375 0.390625 21.09375 0.390625 Z M 21.09375 0.390625 "/></g></g></g><g fill="#ffffff" fill-opacity="1"><g transform="translate(128.387289, 68.971741)"><g><path d="M 21.09375 0.390625 C 16.71875 0.390625 13.320312 -0.789062 10.90625 -3.15625 C 8.5 -5.519531 7.296875 -8.820312 7.296875 -13.0625 L 7.296875 -27.59375 L 1.1875 -27.59375 L 1.1875 -36.21875 L 1.53125 -36.21875 C 3.382812 -36.21875 4.804688 -36.679688 5.796875 -37.609375 C 6.796875 -38.546875 7.296875 -39.941406 7.296875 -41.796875 L 7.296875 -44.453125 L 17.25 -44.453125 L 17.25 -36.21875 L 25.734375 -36.21875 L 25.734375 -27.59375 L 17.25 -27.59375 L 17.25 -13.734375 C 17.25 -12.492188 17.46875 -11.460938 17.90625 -10.640625 C 18.351562 -9.828125 19.039062 -9.222656 19.96875 -8.828125 C 20.894531 -8.429688 22.046875 -8.234375 23.421875 -8.234375 C 23.734375 -8.234375 24.085938 -8.253906 24.484375 -8.296875 C 24.878906 -8.335938 25.296875 -8.378906 25.734375 -8.421875 L 25.734375 0 C 25.078125 0.0820312 24.328125 0.164062 23.484375 0.25 C 22.640625 0.34375 21.84375 0.390625 21.09375 0.390625 Z M 21.09375 0.390625 "/></g></g></g><g fill="#ffffff" fill-opacity="1"><g transform="translate(158.3047, 68.971741)"><g><path d="M 14.859375 0.796875 C 12.253906 0.796875 10 0.378906 8.09375 -0.453125 C 6.1875 -1.296875 4.722656 -2.503906 3.703125 -4.078125 C 2.691406 -5.648438 2.1875 -7.519531 2.1875 -9.6875 C 2.1875 -11.71875 2.648438 -13.519531 3.578125 -15.09375 C 4.503906 -16.664062 5.929688 -17.984375 7.859375 -19.046875 C 9.785156 -20.109375 12.1875 -20.859375 15.0625 -21.296875 L 26.140625 -23.09375 L 26.140625 -15.796875 L 16.84375 -14.125 C 15.4375 -13.863281 14.351562 -13.410156 13.59375 -12.765625 C 12.84375 -12.128906 12.46875 -11.210938 12.46875 -10.015625 C 12.46875 -8.910156 12.890625 -8.046875 13.734375 -7.421875 C 14.578125 -6.804688 15.613281 -6.5 16.84375 -6.5 C 18.488281 -6.5 19.925781 -6.851562 21.15625 -7.5625 C 22.394531 -8.269531 23.359375 -9.234375 24.046875 -10.453125 C 24.734375 -11.671875 25.078125 -13.007812 25.078125 -14.46875 L 25.078125 -23.890625 C 25.078125 -25.253906 24.535156 -26.398438 23.453125 -27.328125 C 22.367188 -28.265625 20.898438 -28.734375 19.046875 -28.734375 C 17.273438 -28.734375 15.710938 -28.242188 14.359375 -27.265625 C 13.015625 -26.296875 12.03125 -25.015625 11.40625 -23.421875 L 3.453125 -27.203125 C 4.160156 -29.234375 5.285156 -30.976562 6.828125 -32.4375 C 8.378906 -33.894531 10.238281 -35.019531 12.40625 -35.8125 C 14.570312 -36.613281 16.9375 -37.015625 19.5 -37.015625 C 22.550781 -37.015625 25.25 -36.460938 27.59375 -35.359375 C 29.9375 -34.253906 31.757812 -32.71875 33.0625 -30.75 C 34.375 -28.78125 35.03125 -26.492188 35.03125 -23.890625 L 35.03125 0 L 25.734375 0 L 25.734375 -5.84375 L 28 -6.234375 C 26.9375 -4.640625 25.765625 -3.320312 24.484375 -2.28125 C 23.203125 -1.25 21.765625 -0.476562 20.171875 0.03125 C 18.578125 0.539062 16.804688 0.796875 14.859375 0.796875 Z M 14.859375 0.796875 "/></g></g></g><g fill="#ffffff" fill-opacity="1"><g transform="translate(198.968285, 68.971741)"><g><path d="M 8.5625 0 L 8.5625 -9.953125 L 18.515625 -9.953125 L 18.515625 0 Z M 8.5625 0 "/></g></g></g></g></g></g><g mask="url(#7fc3f7059f)"><g transform="matrix(1, 0, 0, 1, 100, 92)"><g clip-path="url(#8c86e55f7f)"><g clip-path="url(#47cf0b23f0)"><g><g clip-path="url(#c115c6195f)"><g fill="#ffffff" fill-opacity="1"><g transform="translate(0.668151, 18.938157)"><g><path d="M 0.9375 0 L 0.9375 -12.9375 L 3.5 -12.9375 L 3.5 0 Z M 0.9375 0 "/></g></g></g><g fill="#ffffff" fill-opacity="1"><g transform="translate(5.625877, 18.938157)"><g><path d="M 3.828125 0.203125 C 3.160156 0.203125 2.578125 0.0976562 2.078125 -0.109375 C 1.585938 -0.328125 1.210938 -0.640625 0.953125 -1.046875 C 0.691406 -1.453125 0.5625 -1.9375 0.5625 -2.5 C 0.5625 -3.019531 0.679688 -3.484375 0.921875 -3.890625 C 1.160156 -4.296875 1.523438 -4.632812 2.015625 -4.90625 C 2.515625 -5.175781 3.132812 -5.367188 3.875 -5.484375 L 6.734375 -5.953125 L 6.734375 -4.0625 L 4.34375 -3.640625 C 3.976562 -3.566406 3.695312 -3.445312 3.5 -3.28125 C 3.3125 -3.125 3.21875 -2.890625 3.21875 -2.578125 C 3.21875 -2.296875 3.320312 -2.070312 3.53125 -1.90625 C 3.75 -1.75 4.019531 -1.671875 4.34375 -1.671875 C 4.757812 -1.671875 5.128906 -1.757812 5.453125 -1.9375 C 5.773438 -2.125 6.023438 -2.375 6.203125 -2.6875 C 6.378906 -3 6.46875 -3.34375 6.46875 -3.71875 L 6.46875 -6.15625 C 6.46875 -6.507812 6.328125 -6.804688 6.046875 -7.046875 C 5.765625 -7.285156 5.382812 -7.40625 4.90625 -7.40625 C 4.445312 -7.40625 4.039062 -7.28125 3.6875 -7.03125 C 3.34375 -6.78125 3.09375 -6.445312 2.9375 -6.03125 L 0.890625 -7.015625 C 1.066406 -7.535156 1.351562 -7.984375 1.75 -8.359375 C 2.15625 -8.734375 2.632812 -9.019531 3.1875 -9.21875 C 3.75 -9.425781 4.363281 -9.53125 5.03125 -9.53125 C 5.8125 -9.53125 6.503906 -9.390625 7.109375 -9.109375 C 7.710938 -8.828125 8.179688 -8.429688 8.515625 -7.921875 C 8.859375 -7.410156 9.03125 -6.820312 9.03125 -6.15625 L 9.03125 0 L 6.625 0 L 6.625 -1.5 L 7.21875 -1.609375 C 6.9375 -1.191406 6.628906 -0.847656 6.296875 -0.578125 C 5.972656 -0.316406 5.601562 -0.125 5.1875 0 C 4.78125 0.132812 4.328125 0.203125 3.828125 0.203125 Z M 3.828125 0.203125 "/></g></g></g><g fill="#ffffff" fill-opacity="1"><g transform="translate(16.105256, 18.938157)"><g/></g></g><g fill="#ffffff" fill-opacity="1"><g transform="translate(19.695378, 18.938157)"><g><path d="M 2.0625 0 L 2.0625 -7.109375 L 0.5 -7.109375 L 0.5 -9.328125 L 2.0625 -9.328125 L 2.0625 -9.46875 C 2.0625 -10.207031 2.207031 -10.832031 2.5 -11.34375 C 2.789062 -11.863281 3.207031 -12.257812 3.75 -12.53125 C 4.300781 -12.800781 4.96875 -12.9375 5.75 -12.9375 C 5.894531 -12.9375 6.050781 -12.925781 6.21875 -12.90625 C 6.394531 -12.894531 6.539062 -12.878906 6.65625 -12.859375 L 6.65625 -10.671875 C 6.539062 -10.691406 6.4375 -10.703125 6.34375 -10.703125 C 6.257812 -10.710938 6.171875 -10.71875 6.078125 -10.71875 C 5.609375 -10.71875 5.25 -10.609375 5 -10.390625 C 4.75 -10.179688 4.625 -9.875 4.625 -9.46875 L 4.625 -9.328125 L 6.625 -9.328125 L 6.625 -7.109375 L 4.625 -7.109375 L 4.625 0 Z M 2.0625 0 "/></g></g></g><g fill="#ffffff" fill-opacity="1"><g transform="translate(27.217337, 18.938157)"><g><path d="M 3.828125 0.203125 C 3.160156 0.203125 2.578125 0.0976562 2.078125 -0.109375 C 1.585938 -0.328125 1.210938 -0.640625 0.953125 -1.046875 C 0.691406 -1.453125 0.5625 -1.9375 0.5625 -2.5 C 0.5625 -3.019531 0.679688 -3.484375 0.921875 -3.890625 C 1.160156 -4.296875 1.523438 -4.632812 2.015625 -4.90625 C 2.515625 -5.175781 3.132812 -5.367188 3.875 -5.484375 L 6.734375 -5.953125 L 6.734375 -4.0625 L 4.34375 -3.640625 C 3.976562 -3.566406 3.695312 -3.445312 3.5 -3.28125 C 3.3125 -3.125 3.21875 -2.890625 3.21875 -2.578125 C 3.21875 -2.296875 3.320312 -2.070312 3.53125 -1.90625 C 3.75 -1.75 4.019531 -1.671875 4.34375 -1.671875 C 4.757812 -1.671875 5.128906 -1.757812 5.453125 -1.9375 C 5.773438 -2.125 6.023438 -2.375 6.203125 -2.6875 C 6.378906 -3 6.46875 -3.34375 6.46875 -3.71875 L 6.46875 -6.15625 C 6.46875 -6.507812 6.328125 -6.804688 6.046875 -7.046875 C 5.765625 -7.285156 5.382812 -7.40625 4.90625 -7.40625 C 4.445312 -7.40625 4.039062 -7.28125 3.6875 -7.03125 C 3.34375 -6.78125 3.09375 -6.445312 2.9375 -6.03125 L 0.890625 -7.015625 C 1.066406 -7.535156 1.351562 -7.984375 1.75 -8.359375 C 2.15625 -8.734375 2.632812 -9.019531 3.1875 -9.21875 C 3.75 -9.425781 4.363281 -9.53125 5.03125 -9.53125 C 5.8125 -9.53125 6.503906 -9.390625 7.109375 -9.109375 C 7.710938 -8.828125 8.179688 -8.429688 8.515625 -7.921875 C 8.859375 -7.410156 9.03125 -6.820312 9.03125 -6.15625 L 9.03125 0 L 6.625 0 L 6.625 -1.5 L 7.21875 -1.609375 C 6.9375 -1.191406 6.628906 -0.847656 6.296875 -0.578125 C 5.972656 -0.316406 5.601562 -0.125 5.1875 0 C 4.78125 0.132812 4.328125 0.203125 3.828125 0.203125 Z M 3.828125 0.203125 "/></g></g></g><g fill="#ffffff" fill-opacity="1"><g transform="translate(37.696716, 18.938157)"><g><path d="M 5.515625 0.203125 C 4.585938 0.203125 3.75 -0.0078125 3 -0.4375 C 2.25 -0.863281 1.65625 -1.445312 1.21875 -2.1875 C 0.78125 -2.925781 0.5625 -3.757812 0.5625 -4.6875 C 0.5625 -5.601562 0.773438 -6.425781 1.203125 -7.15625 C 1.640625 -7.894531 2.234375 -8.472656 2.984375 -8.890625 C 3.742188 -9.316406 4.585938 -9.53125 5.515625 -9.53125 C 6.210938 -9.53125 6.859375 -9.410156 7.453125 -9.171875 C 8.046875 -8.941406 8.550781 -8.609375 8.96875 -8.171875 C 9.394531 -7.742188 9.695312 -7.242188 9.875 -6.671875 L 7.65625 -5.703125 C 7.5 -6.171875 7.226562 -6.539062 6.84375 -6.8125 C 6.457031 -7.09375 6.015625 -7.234375 5.515625 -7.234375 C 5.078125 -7.234375 4.679688 -7.125 4.328125 -6.90625 C 3.984375 -6.6875 3.710938 -6.382812 3.515625 -6 C 3.316406 -5.613281 3.21875 -5.171875 3.21875 -4.671875 C 3.21875 -4.171875 3.316406 -3.722656 3.515625 -3.328125 C 3.710938 -2.941406 3.984375 -2.640625 4.328125 -2.421875 C 4.679688 -2.210938 5.078125 -2.109375 5.515625 -2.109375 C 6.035156 -2.109375 6.484375 -2.242188 6.859375 -2.515625 C 7.234375 -2.785156 7.5 -3.15625 7.65625 -3.625 L 9.875 -2.65625 C 9.707031 -2.101562 9.410156 -1.609375 8.984375 -1.171875 C 8.566406 -0.742188 8.0625 -0.40625 7.46875 -0.15625 C 6.875 0.0820312 6.222656 0.203125 5.515625 0.203125 Z M 5.515625 0.203125 "/></g></g></g><g fill="#ffffff" fill-opacity="1"><g transform="translate(48.65475, 18.938157)"><g><path d="M 5.515625 0.203125 C 4.585938 0.203125 3.75 -0.0078125 3 -0.4375 C 2.25 -0.863281 1.65625 -1.445312 1.21875 -2.1875 C 0.78125 -2.925781 0.5625 -3.757812 0.5625 -4.6875 C 0.5625 -5.601562 0.773438 -6.425781 1.203125 -7.15625 C 1.640625 -7.894531 2.234375 -8.472656 2.984375 -8.890625 C 3.742188 -9.316406 4.585938 -9.53125 5.515625 -9.53125 C 6.210938 -9.53125 6.859375 -9.410156 7.453125 -9.171875 C 8.046875 -8.941406 8.550781 -8.609375 8.96875 -8.171875 C 9.394531 -7.742188 9.695312 -7.242188 9.875 -6.671875 L 7.65625 -5.703125 C 7.5 -6.171875 7.226562 -6.539062 6.84375 -6.8125 C 6.457031 -7.09375 6.015625 -7.234375 5.515625 -7.234375 C 5.078125 -7.234375 4.679688 -7.125 4.328125 -6.90625 C 3.984375 -6.6875 3.710938 -6.382812 3.515625 -6 C 3.316406 -5.613281 3.21875 -5.171875 3.21875 -4.671875 C 3.21875 -4.171875 3.316406 -3.722656 3.515625 -3.328125 C 3.710938 -2.941406 3.984375 -2.640625 4.328125 -2.421875 C 4.679688 -2.210938 5.078125 -2.109375 5.515625 -2.109375 C 6.035156 -2.109375 6.484375 -2.242188 6.859375 -2.515625 C 7.234375 -2.785156 7.5 -3.15625 7.65625 -3.625 L 9.875 -2.65625 C 9.707031 -2.101562 9.410156 -1.609375 8.984375 -1.171875 C 8.566406 -0.742188 8.0625 -0.40625 7.46875 -0.15625 C 6.875 0.0820312 6.222656 0.203125 5.515625 0.203125 Z M 5.515625 0.203125 "/></g></g></g><g fill="#ffffff" fill-opacity="1"><g transform="translate(59.612785, 18.938157)"><g><path d="M 0.9375 0 L 0.9375 -9.328125 L 3.5 -9.328125 L 3.5 0 Z M 0.9375 -10.171875 L 0.9375 -12.734375 L 3.5 -12.734375 L 3.5 -10.171875 Z M 0.9375 -10.171875 "/></g></g></g><g fill="#ffffff" fill-opacity="1"><g transform="translate(64.570511, 18.938157)"><g><path d="M 3.828125 0.203125 C 3.160156 0.203125 2.578125 0.0976562 2.078125 -0.109375 C 1.585938 -0.328125 1.210938 -0.640625 0.953125 -1.046875 C 0.691406 -1.453125 0.5625 -1.9375 0.5625 -2.5 C 0.5625 -3.019531 0.679688 -3.484375 0.921875 -3.890625 C 1.160156 -4.296875 1.523438 -4.632812 2.015625 -4.90625 C 2.515625 -5.175781 3.132812 -5.367188 3.875 -5.484375 L 6.734375 -5.953125 L 6.734375 -4.0625 L 4.34375 -3.640625 C 3.976562 -3.566406 3.695312 -3.445312 3.5 -3.28125 C 3.3125 -3.125 3.21875 -2.890625 3.21875 -2.578125 C 3.21875 -2.296875 3.320312 -2.070312 3.53125 -1.90625 C 3.75 -1.75 4.019531 -1.671875 4.34375 -1.671875 C 4.757812 -1.671875 5.128906 -1.757812 5.453125 -1.9375 C 5.773438 -2.125 6.023438 -2.375 6.203125 -2.6875 C 6.378906 -3 6.46875 -3.34375 6.46875 -3.71875 L 6.46875 -6.15625 C 6.46875 -6.507812 6.328125 -6.804688 6.046875 -7.046875 C 5.765625 -7.285156 5.382812 -7.40625 4.90625 -7.40625 C 4.445312 -7.40625 4.039062 -7.28125 3.6875 -7.03125 C 3.34375 -6.78125 3.09375 -6.445312 2.9375 -6.03125 L 0.890625 -7.015625 C 1.066406 -7.535156 1.351562 -7.984375 1.75 -8.359375 C 2.15625 -8.734375 2.632812 -9.019531 3.1875 -9.21875 C 3.75 -9.425781 4.363281 -9.53125 5.03125 -9.53125 C 5.8125 -9.53125 6.503906 -9.390625 7.109375 -9.109375 C 7.710938 -8.828125 8.179688 -8.429688 8.515625 -7.921875 C 8.859375 -7.410156 9.03125 -6.820312 9.03125 -6.15625 L 9.03125 0 L 6.625 0 L 6.625 -1.5 L 7.21875 -1.609375 C 6.9375 -1.191406 6.628906 -0.847656 6.296875 -0.578125 C 5.972656 -0.316406 5.601562 -0.125 5.1875 0 C 4.78125 0.132812 4.328125 0.203125 3.828125 0.203125 Z M 3.828125 0.203125 "/></g></g></g><g fill="#ffffff" fill-opacity="1"><g transform="translate(75.04989, 18.938157)"><g><path d="M 0.9375 0 L 0.9375 -9.328125 L 3.328125 -9.328125 L 3.328125 -7.0625 L 3.078125 -7.4375 C 3.210938 -8.15625 3.539062 -8.679688 4.0625 -9.015625 C 4.59375 -9.359375 5.222656 -9.53125 5.953125 -9.53125 C 6.722656 -9.53125 7.398438 -9.332031 7.984375 -8.9375 C 8.578125 -8.550781 8.945312 -8.03125 9.09375 -7.375 L 8.359375 -7.296875 C 8.671875 -8.054688 9.109375 -8.617188 9.671875 -8.984375 C 10.242188 -9.347656 10.910156 -9.53125 11.671875 -9.53125 C 12.347656 -9.53125 12.941406 -9.382812 13.453125 -9.09375 C 13.972656 -8.800781 14.378906 -8.390625 14.671875 -7.859375 C 14.972656 -7.328125 15.125 -6.707031 15.125 -6 L 15.125 0 L 12.5625 0 L 12.5625 -5.453125 C 12.5625 -5.816406 12.492188 -6.128906 12.359375 -6.390625 C 12.234375 -6.648438 12.050781 -6.851562 11.8125 -7 C 11.570312 -7.15625 11.28125 -7.234375 10.9375 -7.234375 C 10.601562 -7.234375 10.3125 -7.15625 10.0625 -7 C 9.820312 -6.851562 9.632812 -6.648438 9.5 -6.390625 C 9.375 -6.128906 9.3125 -5.816406 9.3125 -5.453125 L 9.3125 0 L 6.75 0 L 6.75 -5.453125 C 6.75 -5.816406 6.679688 -6.128906 6.546875 -6.390625 C 6.421875 -6.648438 6.238281 -6.851562 6 -7 C 5.757812 -7.15625 5.46875 -7.234375 5.125 -7.234375 C 4.789062 -7.234375 4.5 -7.15625 4.25 -7 C 4.007812 -6.851562 3.820312 -6.648438 3.6875 -6.390625 C 3.5625 -6.128906 3.5 -5.816406 3.5 -5.453125 L 3.5 0 Z M 0.9375 0 "/></g></g></g><g fill="#ffffff" fill-opacity="1"><g transform="translate(91.44411, 18.938157)"><g><path d="M 5.578125 0.203125 C 4.648438 0.203125 3.804688 -0.00390625 3.046875 -0.421875 C 2.296875 -0.847656 1.691406 -1.425781 1.234375 -2.15625 C 0.785156 -2.894531 0.5625 -3.734375 0.5625 -4.671875 C 0.5625 -5.609375 0.785156 -6.441406 1.234375 -7.171875 C 1.691406 -7.898438 2.296875 -8.472656 3.046875 -8.890625 C 3.804688 -9.316406 4.648438 -9.53125 5.578125 -9.53125 C 6.492188 -9.53125 7.328125 -9.316406 8.078125 -8.890625 C 8.835938 -8.472656 9.441406 -7.898438 9.890625 -7.171875 C 10.335938 -6.441406 10.5625 -5.609375 10.5625 -4.671875 C 10.5625 -3.734375 10.335938 -2.894531 9.890625 -2.15625 C 9.441406 -1.425781 8.835938 -0.847656 8.078125 -0.421875 C 7.328125 -0.00390625 6.492188 0.203125 5.578125 0.203125 Z M 5.578125 -2.109375 C 6.035156 -2.109375 6.4375 -2.210938 6.78125 -2.421875 C 7.132812 -2.640625 7.410156 -2.941406 7.609375 -3.328125 C 7.816406 -3.722656 7.921875 -4.171875 7.921875 -4.671875 C 7.921875 -5.171875 7.816406 -5.609375 7.609375 -5.984375 C 7.410156 -6.367188 7.132812 -6.671875 6.78125 -6.890625 C 6.4375 -7.117188 6.035156 -7.234375 5.578125 -7.234375 C 5.109375 -7.234375 4.695312 -7.117188 4.34375 -6.890625 C 3.988281 -6.671875 3.710938 -6.367188 3.515625 -5.984375 C 3.316406 -5.609375 3.21875 -5.171875 3.21875 -4.671875 C 3.21875 -4.171875 3.316406 -3.722656 3.515625 -3.328125 C 3.710938 -2.941406 3.988281 -2.640625 4.34375 -2.421875 C 4.695312 -2.210938 5.109375 -2.109375 5.578125 -2.109375 Z M 5.578125 -2.109375 "/></g></g></g><g fill="#ffffff" fill-opacity="1"><g transform="translate(103.085946, 18.938157)"><g/></g></g><g fill="#ffffff" fill-opacity="1"><g transform="translate(106.676068, 18.938157)"><g><path d="M 2.0625 0 L 2.0625 -7.109375 L 0.5 -7.109375 L 0.5 -9.328125 L 2.0625 -9.328125 L 2.0625 -9.46875 C 2.0625 -10.207031 2.207031 -10.832031 2.5 -11.34375 C 2.789062 -11.863281 3.207031 -12.257812 3.75 -12.53125 C 4.300781 -12.800781 4.96875 -12.9375 5.75 -12.9375 C 5.894531 -12.9375 6.050781 -12.925781 6.21875 -12.90625 C 6.394531 -12.894531 6.539062 -12.878906 6.65625 -12.859375 L 6.65625 -10.671875 C 6.539062 -10.691406 6.4375 -10.703125 6.34375 -10.703125 C 6.257812 -10.710938 6.171875 -10.71875 6.078125 -10.71875 C 5.609375 -10.71875 5.25 -10.609375 5 -10.390625 C 4.75 -10.179688 4.625 -9.875 4.625 -9.46875 L 4.625 -9.328125 L 6.625 -9.328125 L 6.625 -7.109375 L 4.625 -7.109375 L 4.625 0 Z M 2.0625 0 "/></g></g></g><g fill="#ffffff" fill-opacity="1"><g transform="translate(114.198027, 18.938157)"><g><path d="M 3.828125 0.203125 C 3.160156 0.203125 2.578125 0.0976562 2.078125 -0.109375 C 1.585938 -0.328125 1.210938 -0.640625 0.953125 -1.046875 C 0.691406 -1.453125 0.5625 -1.9375 0.5625 -2.5 C 0.5625 -3.019531 0.679688 -3.484375 0.921875 -3.890625 C 1.160156 -4.296875 1.523438 -4.632812 2.015625 -4.90625 C 2.515625 -5.175781 3.132812 -5.367188 3.875 -5.484375 L 6.734375 -5.953125 L 6.734375 -4.0625 L 4.34375 -3.640625 C 3.976562 -3.566406 3.695312 -3.445312 3.5 -3.28125 C 3.3125 -3.125 3.21875 -2.890625 3.21875 -2.578125 C 3.21875 -2.296875 3.320312 -2.070312 3.53125 -1.90625 C 3.75 -1.75 4.019531 -1.671875 4.34375 -1.671875 C 4.757812 -1.671875 5.128906 -1.757812 5.453125 -1.9375 C 5.773438 -2.125 6.023438 -2.375 6.203125 -2.6875 C 6.378906 -3 6.46875 -3.34375 6.46875 -3.71875 L 6.46875 -6.15625 C 6.46875 -6.507812 6.328125 -6.804688 6.046875 -7.046875 C 5.765625 -7.285156 5.382812 -7.40625 4.90625 -7.40625 C 4.445312 -7.40625 4.039062 -7.28125 3.6875 -7.03125 C 3.34375 -6.78125 3.09375 -6.445312 2.9375 -6.03125 L 0.890625 -7.015625 C 1.066406 -7.535156 1.351562 -7.984375 1.75 -8.359375 C 2.15625 -8.734375 2.632812 -9.019531 3.1875 -9.21875 C 3.75 -9.425781 4.363281 -9.53125 5.03125 -9.53125 C 5.8125 -9.53125 6.503906 -9.390625 7.109375 -9.109375 C 7.710938 -8.828125 8.179688 -8.429688 8.515625 -7.921875 C 8.859375 -7.410156 9.03125 -6.820312 9.03125 -6.15625 L 9.03125 0 L 6.625 0 L 6.625 -1.5 L 7.21875 -1.609375 C 6.9375 -1.191406 6.628906 -0.847656 6.296875 -0.578125 C 5.972656 -0.316406 5.601562 -0.125 5.1875 0 C 4.78125 0.132812 4.328125 0.203125 3.828125 0.203125 Z M 3.828125 0.203125 "/></g></g></g><g fill="#ffffff" fill-opacity="1"><g transform="translate(124.677406, 18.938157)"><g><path d="M 5.515625 0.203125 C 4.585938 0.203125 3.75 -0.0078125 3 -0.4375 C 2.25 -0.863281 1.65625 -1.445312 1.21875 -2.1875 C 0.78125 -2.925781 0.5625 -3.757812 0.5625 -4.6875 C 0.5625 -5.601562 0.773438 -6.425781 1.203125 -7.15625 C 1.640625 -7.894531 2.234375 -8.472656 2.984375 -8.890625 C 3.742188 -9.316406 4.585938 -9.53125 5.515625 -9.53125 C 6.210938 -9.53125 6.859375 -9.410156 7.453125 -9.171875 C 8.046875 -8.941406 8.550781 -8.609375 8.96875 -8.171875 C 9.394531 -7.742188 9.695312 -7.242188 9.875 -6.671875 L 7.65625 -5.703125 C 7.5 -6.171875 7.226562 -6.539062 6.84375 -6.8125 C 6.457031 -7.09375 6.015625 -7.234375 5.515625 -7.234375 C 5.078125 -7.234375 4.679688 -7.125 4.328125 -6.90625 C 3.984375 -6.6875 3.710938 -6.382812 3.515625 -6 C 3.316406 -5.613281 3.21875 -5.171875 3.21875 -4.671875 C 3.21875 -4.171875 3.316406 -3.722656 3.515625 -3.328125 C 3.710938 -2.941406 3.984375 -2.640625 4.328125 -2.421875 C 4.679688 -2.210938 5.078125 -2.109375 5.515625 -2.109375 C 6.035156 -2.109375 6.484375 -2.242188 6.859375 -2.515625 C 7.234375 -2.785156 7.5 -3.15625 7.65625 -3.625 L 9.875 -2.65625 C 9.707031 -2.101562 9.410156 -1.609375 8.984375 -1.171875 C 8.566406 -0.742188 8.0625 -0.40625 7.46875 -0.15625 C 6.875 0.0820312 6.222656 0.203125 5.515625 0.203125 Z M 5.515625 0.203125 "/></g></g></g><g fill="#ffffff" fill-opacity="1"><g transform="translate(135.63544, 18.938157)"><g><path d="M 0.9375 0 L 0.9375 -9.328125 L 3.5 -9.328125 L 3.5 0 Z M 0.9375 -10.171875 L 0.9375 -12.734375 L 3.5 -12.734375 L 3.5 -10.171875 Z M 0.9375 -10.171875 "/></g></g></g><g fill="#ffffff" fill-opacity="1"><g transform="translate(140.593166, 18.938157)"><g><path d="M 0.9375 0 L 0.9375 -12.9375 L 3.5 -12.9375 L 3.5 0 Z M 0.9375 0 "/></g></g></g><g fill="#ffffff" fill-opacity="1"><g transform="translate(145.550892, 18.938157)"><g><path d="M 5.4375 0.203125 C 4.445312 0.203125 3.585938 -0.015625 2.859375 -0.453125 C 2.128906 -0.890625 1.5625 -1.476562 1.15625 -2.21875 C 0.757812 -2.957031 0.5625 -3.78125 0.5625 -4.6875 C 0.5625 -5.613281 0.769531 -6.441406 1.1875 -7.171875 C 1.601562 -7.898438 2.164062 -8.472656 2.875 -8.890625 C 3.582031 -9.316406 4.378906 -9.53125 5.265625 -9.53125 C 6.003906 -9.53125 6.65625 -9.414062 7.21875 -9.1875 C 7.789062 -8.957031 8.273438 -8.628906 8.671875 -8.203125 C 9.066406 -7.785156 9.363281 -7.300781 9.5625 -6.75 C 9.769531 -6.195312 9.875 -5.59375 9.875 -4.9375 C 9.875 -4.757812 9.863281 -4.582031 9.84375 -4.40625 C 9.832031 -4.226562 9.804688 -4.078125 9.765625 -3.953125 L 2.765625 -3.953125 L 2.765625 -5.828125 L 8.3125 -5.828125 L 7.09375 -4.9375 C 7.207031 -5.425781 7.203125 -5.863281 7.078125 -6.25 C 6.953125 -6.632812 6.734375 -6.9375 6.421875 -7.15625 C 6.109375 -7.375 5.722656 -7.484375 5.265625 -7.484375 C 4.816406 -7.484375 4.429688 -7.375 4.109375 -7.15625 C 3.796875 -6.945312 3.554688 -6.628906 3.390625 -6.203125 C 3.234375 -5.785156 3.175781 -5.273438 3.21875 -4.671875 C 3.164062 -4.140625 3.222656 -3.675781 3.390625 -3.28125 C 3.566406 -2.882812 3.832031 -2.570312 4.1875 -2.34375 C 4.539062 -2.125 4.96875 -2.015625 5.46875 -2.015625 C 5.925781 -2.015625 6.316406 -2.101562 6.640625 -2.28125 C 6.960938 -2.46875 7.21875 -2.722656 7.40625 -3.046875 L 9.453125 -2.0625 C 9.265625 -1.613281 8.972656 -1.21875 8.578125 -0.875 C 8.191406 -0.53125 7.726562 -0.265625 7.1875 -0.078125 C 6.65625 0.105469 6.070312 0.203125 5.4375 0.203125 Z M 5.4375 0.203125 "/></g></g></g></g></g></g></g></g></g></svg>