<svg xmlns="http://www.w3.org/2000/svg" xmlns:xlink="http://www.w3.org/1999/xlink" width="416" zoomAndPan="magnify" viewBox="0 0 312 122.249994" height="163" preserveAspectRatio="xMidYMid meet" version="1.0"><defs><filter x="0%" y="0%" width="100%" height="100%" id="dd0dcc527d"><feColorMatrix values="0 0 0 0 1 0 0 0 0 1 0 0 0 0 1 0 0 0 1 0" color-interpolation-filters="sRGB"/></filter><g/><mask id="321979ea94"><g filter="url(#dd0dcc527d)"><rect x="-31.2" width="374.4" fill="#000000" y="-12.224999" height="146.699993" fill-opacity="0.41"/></g></mask><clipPath id="e126e84eff"><path d="M 2 2 L 37 2 L 37 24 L 2 24 Z M 2 2 " clip-rule="nonzero"/></clipPath><clipPath id="64336e4bf0"><path d="M 34.152344 0.476562 L 38.621094 10.324219 L 4.890625 25.640625 L 0.421875 15.792969 Z M 34.152344 0.476562 " clip-rule="nonzero"/></clipPath><clipPath id="7eb4883fab"><path d="M 36.386719 5.402344 C 36.980469 6.707031 37.03125 8.195312 36.527344 9.539062 C 36.023438 10.878906 35.003906 11.96875 33.699219 12.558594 L 9.820312 23.402344 C 8.515625 23.996094 7.027344 24.042969 5.683594 23.539062 C 4.34375 23.035156 3.253906 22.019531 2.664062 20.714844 C 2.070312 19.40625 2.019531 17.921875 2.523438 16.578125 C 3.027344 15.234375 4.042969 14.148438 5.351562 13.554688 L 29.230469 2.714844 C 30.535156 2.121094 32.023438 2.070312 33.363281 2.574219 C 34.707031 3.078125 35.792969 4.09375 36.386719 5.402344 Z M 36.386719 5.402344 " clip-rule="nonzero"/></clipPath><clipPath id="e5b0e83356"><path d="M 0 0.0117188 L 35 0.0117188 L 35 22 L 0 22 Z M 0 0.0117188 " clip-rule="nonzero"/></clipPath><clipPath id="c65d16141e"><path d="M 32.152344 -1.523438 L 36.621094 8.324219 L 2.890625 23.640625 L -1.578125 13.792969 Z M 32.152344 -1.523438 " clip-rule="nonzero"/></clipPath><clipPath id="3668523714"><path d="M 34.386719 3.402344 C 34.980469 4.707031 35.03125 6.195312 34.527344 7.539062 C 34.023438 8.878906 33.003906 9.96875 31.699219 10.558594 L 7.820312 21.402344 C 6.515625 21.996094 5.027344 22.042969 3.683594 21.539062 C 2.34375 21.035156 1.253906 20.019531 0.664062 18.714844 C 0.0703125 17.40625 0.0195312 15.921875 0.523438 14.578125 C 1.027344 13.234375 2.042969 12.148438 3.351562 11.554688 L 27.230469 0.714844 C 28.535156 0.121094 30.023438 0.0703125 31.363281 0.574219 C 32.707031 1.078125 33.792969 2.09375 34.386719 3.402344 Z M 34.386719 3.402344 " clip-rule="nonzero"/></clipPath><clipPath id="912a627d26"><rect x="0" width="35" y="0" height="22"/></clipPath><clipPath id="775effe0d5"><rect x="0" width="39" y="0" height="26"/></clipPath><clipPath id="b904f943d0"><path d="M 19 52 L 60 52 L 60 78 L 19 78 Z M 19 52 " clip-rule="nonzero"/></clipPath><clipPath id="ca344bcbc1"><path d="M 56.769531 50.496094 L 61.996094 62.007812 L 22.554688 79.914062 L 17.328125 68.402344 Z M 56.769531 50.496094 " clip-rule="nonzero"/></clipPath><clipPath id="728ce3f791"><path d="M 59.382812 56.253906 C 60.074219 57.78125 60.132812 59.519531 59.542969 61.089844 C 58.953125 62.660156 57.765625 63.929688 56.238281 64.621094 L 28.320312 77.296875 C 26.792969 77.992188 25.054688 78.050781 23.484375 77.460938 C 21.914062 76.871094 20.644531 75.683594 19.949219 74.15625 C 19.257812 72.628906 19.199219 70.890625 19.789062 69.320312 C 20.378906 67.75 21.566406 66.480469 23.09375 65.785156 L 51.011719 53.109375 C 52.539062 52.417969 54.277344 52.359375 55.847656 52.949219 C 57.417969 53.539062 58.6875 54.726562 59.382812 56.253906 Z M 59.382812 56.253906 " clip-rule="nonzero"/></clipPath><clipPath id="1c0c53a244"><path d="M 0.078125 0.238281 L 41 0.238281 L 41 26 L 0.078125 26 Z M 0.078125 0.238281 " clip-rule="nonzero"/></clipPath><clipPath id="bd02333402"><path d="M 37.769531 -1.503906 L 42.996094 10.007812 L 3.554688 27.914062 L -1.671875 16.402344 Z M 37.769531 -1.503906 " clip-rule="nonzero"/></clipPath><clipPath id="9989e2569b"><path d="M 40.382812 4.253906 C 41.074219 5.78125 41.132812 7.519531 40.542969 9.089844 C 39.953125 10.660156 38.765625 11.929688 37.238281 12.621094 L 9.320312 25.296875 C 7.792969 25.992188 6.054688 26.050781 4.484375 25.460938 C 2.914062 24.871094 1.644531 23.683594 0.949219 22.15625 C 0.257812 20.628906 0.199219 18.890625 0.789062 17.320312 C 1.378906 15.75 2.566406 14.480469 4.09375 13.785156 L 32.011719 1.109375 C 33.539062 0.417969 35.277344 0.359375 36.847656 0.949219 C 38.417969 1.539062 39.6875 2.726562 40.382812 4.253906 Z M 40.382812 4.253906 " clip-rule="nonzero"/></clipPath><clipPath id="07e59322d7"><rect x="0" width="41" y="0" height="26"/></clipPath><clipPath id="dfc6f8b817"><path d="M 1 8 L 79 8 L 79 59 L 1 59 Z M 1 8 " clip-rule="nonzero"/></clipPath><clipPath id="5961d79974"><path d="M 72.070312 4.109375 L 83.46875 29.210938 L 8.546875 63.226562 L -2.847656 38.121094 Z M 72.070312 4.109375 " clip-rule="nonzero"/></clipPath><clipPath id="85b81f2402"><path d="M 77.769531 16.660156 C 79.28125 19.988281 79.40625 23.78125 78.121094 27.203125 C 76.835938 30.628906 74.242188 33.398438 70.914062 34.910156 L 21.179688 57.492188 C 17.851562 59.003906 14.058594 59.128906 10.636719 57.84375 C 7.214844 56.558594 4.441406 53.96875 2.929688 50.636719 C 1.417969 47.308594 1.292969 43.515625 2.578125 40.09375 C 3.863281 36.671875 6.453125 33.898438 9.785156 32.386719 L 59.515625 9.808594 C 62.847656 8.296875 66.640625 8.167969 70.0625 9.453125 C 73.484375 10.738281 76.257812 13.332031 77.769531 16.660156 Z M 77.769531 16.660156 " clip-rule="nonzero"/></clipPath><clipPath id="33ecf22a7b"><path d="M 0.191406 0.109375 L 78 0.109375 L 78 51 L 0.191406 51 Z M 0.191406 0.109375 " clip-rule="nonzero"/></clipPath><clipPath id="f627a88fb7"><path d="M 71.070312 -3.890625 L 82.46875 21.210938 L 7.546875 55.226562 L -3.847656 30.121094 Z M 71.070312 -3.890625 " clip-rule="nonzero"/></clipPath><clipPath id="2a21fb7db9"><path d="M 76.769531 8.660156 C 78.28125 11.988281 78.40625 15.78125 77.121094 19.203125 C 75.835938 22.628906 73.242188 25.398438 69.914062 26.910156 L 20.179688 49.492188 C 16.851562 51.003906 13.058594 51.128906 9.636719 49.84375 C 6.214844 48.558594 3.441406 45.96875 1.929688 42.636719 C 0.417969 39.308594 0.292969 35.515625 1.578125 32.09375 C 2.863281 28.671875 5.453125 25.898438 8.785156 24.386719 L 58.515625 1.808594 C 61.847656 0.296875 65.640625 0.167969 69.0625 1.453125 C 72.484375 2.738281 75.257812 5.332031 76.769531 8.660156 Z M 76.769531 8.660156 " clip-rule="nonzero"/></clipPath><clipPath id="6d7190a5fd"><rect x="0" width="78" y="0" height="51"/></clipPath><clipPath id="a9ee413436"><path d="M 16 47 L 63 47 L 63 77 L 16 77 Z M 16 47 " clip-rule="nonzero"/></clipPath><clipPath id="b4a2eba7ca"><path d="M 59.078125 44.824219 L 65.089844 58.0625 L 19.738281 78.652344 L 13.726562 65.414062 Z M 59.078125 44.824219 " clip-rule="nonzero"/></clipPath><clipPath id="0136b51b2a"><path d="M 62.085938 51.445312 C 63.746094 55.097656 62.125 59.410156 58.46875 61.070312 L 26.363281 75.644531 C 22.710938 77.304688 18.398438 75.6875 16.742188 72.03125 C 15.082031 68.375 16.699219 64.066406 20.355469 62.40625 L 52.460938 47.828125 C 56.117188 46.167969 60.425781 47.789062 62.085938 51.445312 Z M 62.085938 51.445312 " clip-rule="nonzero"/></clipPath><clipPath id="0e3454d49e"><path d="M 0 0 L 47 0 L 47 30 L 0 30 Z M 0 0 " clip-rule="nonzero"/></clipPath><clipPath id="b9c6db8efb"><path d="M 43.078125 -2.175781 L 49.089844 11.0625 L 3.738281 31.652344 L -2.273438 18.414062 Z M 43.078125 -2.175781 " clip-rule="nonzero"/></clipPath><clipPath id="ffbeaf04a1"><path d="M 46.085938 4.445312 C 47.746094 8.097656 46.125 12.410156 42.46875 14.070312 L 10.363281 28.644531 C 6.710938 30.304688 2.398438 28.6875 0.742188 25.03125 C -0.917969 21.375 0.699219 17.066406 4.355469 15.40625 L 36.460938 0.828125 C 40.117188 -0.832031 44.425781 0.789062 46.085938 4.445312 Z M 46.085938 4.445312 " clip-rule="nonzero"/></clipPath><clipPath id="629b45cc26"><rect x="0" width="47" y="0" height="30"/></clipPath><clipPath id="0e0174fc0d"><path d="M 12 62 L 90 62 L 90 113 L 12 113 Z M 12 62 " clip-rule="nonzero"/></clipPath><clipPath id="1622fffe0a"><path d="M 82.992188 58.414062 L 94.34375 83.417969 L 19.429688 117.433594 L 8.078125 92.429688 Z M 82.992188 58.414062 " clip-rule="nonzero"/></clipPath><clipPath id="6bdc7a1444"><path d="M 88.667969 70.917969 C 90.171875 74.234375 90.300781 78.011719 89.019531 81.417969 C 87.738281 84.828125 85.15625 87.589844 81.84375 89.09375 L 32.007812 111.71875 C 28.691406 113.226562 24.914062 113.351562 21.507812 112.074219 C 18.097656 110.792969 15.335938 108.210938 13.832031 104.894531 C 12.324219 101.578125 12.199219 97.800781 13.480469 94.390625 C 14.757812 90.984375 17.339844 88.222656 20.65625 86.714844 L 70.488281 64.089844 C 73.804688 62.585938 77.582031 62.457031 80.992188 63.738281 C 84.402344 65.019531 87.164062 67.601562 88.667969 70.917969 Z M 88.667969 70.917969 " clip-rule="nonzero"/></clipPath><clipPath id="9c87186543"><path d="M 0.164062 0.257812 L 78 0.257812 L 78 51 L 0.164062 51 Z M 0.164062 0.257812 " clip-rule="nonzero"/></clipPath><clipPath id="771ff7e1c5"><path d="M 70.992188 -3.585938 L 82.34375 21.417969 L 7.429688 55.433594 L -3.921875 30.429688 Z M 70.992188 -3.585938 " clip-rule="nonzero"/></clipPath><clipPath id="1de24d041d"><path d="M 76.667969 8.917969 C 78.171875 12.234375 78.300781 16.011719 77.019531 19.417969 C 75.738281 22.828125 73.15625 25.589844 69.84375 27.09375 L 20.007812 49.71875 C 16.691406 51.226562 12.914062 51.351562 9.507812 50.074219 C 6.097656 48.792969 3.335938 46.210938 1.832031 42.894531 C 0.324219 39.578125 0.199219 35.800781 1.480469 32.390625 C 2.757812 28.984375 5.339844 26.222656 8.65625 24.714844 L 58.488281 2.089844 C 61.804688 0.585938 65.582031 0.457031 68.992188 1.738281 C 72.402344 3.019531 75.164062 5.601562 76.667969 8.917969 Z M 76.667969 8.917969 " clip-rule="nonzero"/></clipPath><clipPath id="02e944db6a"><rect x="0" width="78" y="0" height="51"/></clipPath><clipPath id="cf8b148c02"><path d="M 93 18 L 311.046875 18 L 311.046875 103 L 93 103 Z M 93 18 " clip-rule="nonzero"/></clipPath><clipPath id="1229ca4cbc"><rect x="0" width="219" y="0" height="85"/></clipPath></defs><g mask="url(#321979ea94)"><g transform="matrix(1, 0, 0, 1, 21, 55)"><g clip-path="url(#775effe0d5)"><g clip-path="url(#e126e84eff)"><g clip-path="url(#64336e4bf0)"><g clip-path="url(#7eb4883fab)"><g transform="matrix(1, 0, 0, 1, 2, 2)"><g clip-path="url(#912a627d26)"><g clip-path="url(#e5b0e83356)"><g clip-path="url(#c65d16141e)"><g clip-path="url(#3668523714)"><path fill="#ffffff" d="M 32.152344 -1.523438 L 36.621094 8.324219 L 2.890625 23.640625 L -1.578125 13.792969 Z M 32.152344 -1.523438 " fill-opacity="1" fill-rule="nonzero"/></g></g></g></g></g></g></g></g></g></g></g><g clip-path="url(#b904f943d0)"><g clip-path="url(#ca344bcbc1)"><g clip-path="url(#728ce3f791)"><g transform="matrix(1, 0, 0, 1, 19, 52)"><g clip-path="url(#07e59322d7)"><g clip-path="url(#1c0c53a244)"><g clip-path="url(#bd02333402)"><g clip-path="url(#9989e2569b)"><path fill="#bad4f9" d="M 37.769531 -1.503906 L 42.996094 10.007812 L 3.554688 27.914062 L -1.671875 16.402344 Z M 37.769531 -1.503906 " fill-opacity="1" fill-rule="nonzero"/></g></g></g></g></g></g></g></g><g clip-path="url(#dfc6f8b817)"><g clip-path="url(#5961d79974)"><g clip-path="url(#85b81f2402)"><g transform="matrix(1, 0, 0, 1, 1, 8)"><g clip-path="url(#6d7190a5fd)"><g clip-path="url(#33ecf22a7b)"><g clip-path="url(#f627a88fb7)"><g clip-path="url(#2a21fb7db9)"><path fill="#ffffff" d="M 71.070312 -3.890625 L 82.46875 21.210938 L 7.644531 55.183594 L -3.75 30.078125 Z M 71.070312 -3.890625 " fill-opacity="1" fill-rule="nonzero"/></g></g></g></g></g></g></g></g><g clip-path="url(#a9ee413436)"><g clip-path="url(#b4a2eba7ca)"><g clip-path="url(#0136b51b2a)"><g transform="matrix(1, 0, 0, 1, 16, 47)"><g clip-path="url(#629b45cc26)"><g clip-path="url(#0e3454d49e)"><g clip-path="url(#b9c6db8efb)"><g clip-path="url(#ffbeaf04a1)"><path fill="#ffffff" d="M 43.078125 -2.175781 L 49.089844 11.0625 L 3.738281 31.652344 L -2.273438 18.414062 Z M 43.078125 -2.175781 " fill-opacity="1" fill-rule="nonzero"/></g></g></g></g></g></g></g></g><g clip-path="url(#0e0174fc0d)"><g clip-path="url(#1622fffe0a)"><g clip-path="url(#6bdc7a1444)"><g transform="matrix(1, 0, 0, 1, 12, 62)"><g clip-path="url(#02e944db6a)"><g clip-path="url(#9c87186543)"><g clip-path="url(#771ff7e1c5)"><g clip-path="url(#1de24d041d)"><path fill="#ffffff" d="M 70.992188 -3.585938 L 82.34375 21.417969 L 7.527344 55.386719 L -3.824219 30.382812 Z M 70.992188 -3.585938 " fill-opacity="1" fill-rule="nonzero"/></g></g></g></g></g></g></g></g><g clip-path="url(#cf8b148c02)"><g transform="matrix(1, 0, 0, 1, 93, 18)"><g clip-path="url(#1229ca4cbc)"><g fill="#ffffff" fill-opacity="1"><g transform="translate(0.790788, 68.959848)"><g><path d="M 8.03125 0 L 8.03125 -27.59375 L 1.921875 -27.59375 L 1.921875 -36.203125 L 8.03125 -36.203125 L 8.03125 -36.734375 C 8.03125 -39.609375 8.59375 -42.039062 9.71875 -44.03125 C 10.84375 -46.019531 12.460938 -47.546875 14.578125 -48.609375 C 16.703125 -49.671875 19.269531 -50.203125 22.28125 -50.203125 C 22.851562 -50.203125 23.46875 -50.164062 24.125 -50.09375 C 24.789062 -50.03125 25.347656 -49.953125 25.796875 -49.859375 L 25.796875 -41.375 C 25.347656 -41.46875 24.957031 -41.523438 24.625 -41.546875 C 24.300781 -41.566406 23.960938 -41.578125 23.609375 -41.578125 C 21.753906 -41.578125 20.347656 -41.164062 19.390625 -40.34375 C 18.441406 -39.53125 17.96875 -38.328125 17.96875 -36.734375 L 17.96875 -36.203125 L 25.734375 -36.203125 L 25.734375 -27.59375 L 17.96875 -27.59375 L 17.96875 0 Z M 8.03125 0 "/></g></g></g><g fill="#ffffff" fill-opacity="1"><g transform="translate(29.302117, 68.959848)"><g><path d="M 8.03125 0 L 8.03125 -27.59375 L 1.921875 -27.59375 L 1.921875 -36.203125 L 8.03125 -36.203125 L 8.03125 -36.734375 C 8.03125 -39.609375 8.59375 -42.039062 9.71875 -44.03125 C 10.84375 -46.019531 12.460938 -47.546875 14.578125 -48.609375 C 16.703125 -49.671875 19.269531 -50.203125 22.28125 -50.203125 C 22.851562 -50.203125 23.46875 -50.164062 24.125 -50.09375 C 24.789062 -50.03125 25.347656 -49.953125 25.796875 -49.859375 L 25.796875 -41.375 C 25.347656 -41.46875 24.957031 -41.523438 24.625 -41.546875 C 24.300781 -41.566406 23.960938 -41.578125 23.609375 -41.578125 C 21.753906 -41.578125 20.347656 -41.164062 19.390625 -40.34375 C 18.441406 -39.53125 17.96875 -38.328125 17.96875 -36.734375 L 17.96875 -36.203125 L 25.734375 -36.203125 L 25.734375 -27.59375 L 17.96875 -27.59375 L 17.96875 0 Z M 8.03125 0 "/></g></g></g><g fill="#ffffff" fill-opacity="1"><g transform="translate(58.476609, 68.959848)"><g><path d="M 14.859375 0.796875 C 12.242188 0.796875 9.984375 0.378906 8.078125 -0.453125 C 6.179688 -1.296875 4.722656 -2.503906 3.703125 -4.078125 C 2.691406 -5.648438 2.1875 -7.519531 2.1875 -9.6875 C 2.1875 -11.71875 2.648438 -13.515625 3.578125 -15.078125 C 4.503906 -16.648438 5.929688 -17.96875 7.859375 -19.03125 C 9.785156 -20.09375 12.179688 -20.84375 15.046875 -21.28125 L 26.125 -23.078125 L 26.125 -15.78125 L 16.84375 -14.125 C 15.425781 -13.863281 14.34375 -13.410156 13.59375 -12.765625 C 12.84375 -12.117188 12.46875 -11.203125 12.46875 -10.015625 C 12.46875 -8.910156 12.882812 -8.046875 13.71875 -7.421875 C 14.5625 -6.804688 15.601562 -6.5 16.84375 -6.5 C 18.476562 -6.5 19.914062 -6.851562 21.15625 -7.5625 C 22.394531 -8.269531 23.351562 -9.226562 24.03125 -10.4375 C 24.71875 -11.65625 25.0625 -12.992188 25.0625 -14.453125 L 25.0625 -23.875 C 25.0625 -25.238281 24.519531 -26.382812 23.4375 -27.3125 C 22.351562 -28.25 20.882812 -28.71875 19.03125 -28.71875 C 17.257812 -28.71875 15.695312 -28.226562 14.34375 -27.25 C 13 -26.28125 12.019531 -25 11.40625 -23.40625 L 3.453125 -27.1875 C 4.160156 -29.21875 5.285156 -30.960938 6.828125 -32.421875 C 8.378906 -33.878906 10.238281 -35.003906 12.40625 -35.796875 C 14.570312 -36.597656 16.9375 -37 19.5 -37 C 22.550781 -37 25.242188 -36.445312 27.578125 -35.34375 C 29.921875 -34.238281 31.742188 -32.703125 33.046875 -30.734375 C 34.359375 -28.765625 35.015625 -26.476562 35.015625 -23.875 L 35.015625 0 L 25.734375 0 L 25.734375 -5.828125 L 27.984375 -6.234375 C 26.921875 -4.640625 25.75 -3.320312 24.46875 -2.28125 C 23.1875 -1.25 21.75 -0.476562 20.15625 0.03125 C 18.5625 0.539062 16.796875 0.796875 14.859375 0.796875 Z M 14.859375 0.796875 "/></g></g></g><g fill="#ffffff" fill-opacity="1"><g transform="translate(98.458591, 68.959848)"><g><path d="M 21.09375 0.390625 C 16.707031 0.390625 13.3125 -0.789062 10.90625 -3.15625 C 8.5 -5.519531 7.296875 -8.820312 7.296875 -13.0625 L 7.296875 -27.59375 L 1.1875 -27.59375 L 1.1875 -36.203125 L 1.53125 -36.203125 C 3.382812 -36.203125 4.804688 -36.664062 5.796875 -37.59375 C 6.796875 -38.519531 7.296875 -39.914062 7.296875 -41.78125 L 7.296875 -44.421875 L 17.234375 -44.421875 L 17.234375 -36.203125 L 25.734375 -36.203125 L 25.734375 -27.59375 L 17.234375 -27.59375 L 17.234375 -13.734375 C 17.234375 -12.492188 17.453125 -11.460938 17.890625 -10.640625 C 18.335938 -9.828125 19.023438 -9.21875 19.953125 -8.8125 C 20.890625 -8.414062 22.039062 -8.21875 23.40625 -8.21875 C 23.71875 -8.21875 24.070312 -8.238281 24.46875 -8.28125 C 24.863281 -8.332031 25.285156 -8.378906 25.734375 -8.421875 L 25.734375 0 C 25.066406 0.0820312 24.3125 0.164062 23.46875 0.25 C 22.632812 0.34375 21.84375 0.390625 21.09375 0.390625 Z M 21.09375 0.390625 "/></g></g></g><g fill="#ffffff" fill-opacity="1"><g transform="translate(128.362436, 68.959848)"><g><path d="M 21.09375 0.390625 C 16.707031 0.390625 13.3125 -0.789062 10.90625 -3.15625 C 8.5 -5.519531 7.296875 -8.820312 7.296875 -13.0625 L 7.296875 -27.59375 L 1.1875 -27.59375 L 1.1875 -36.203125 L 1.53125 -36.203125 C 3.382812 -36.203125 4.804688 -36.664062 5.796875 -37.59375 C 6.796875 -38.519531 7.296875 -39.914062 7.296875 -41.78125 L 7.296875 -44.421875 L 17.234375 -44.421875 L 17.234375 -36.203125 L 25.734375 -36.203125 L 25.734375 -27.59375 L 17.234375 -27.59375 L 17.234375 -13.734375 C 17.234375 -12.492188 17.453125 -11.460938 17.890625 -10.640625 C 18.335938 -9.828125 19.023438 -9.21875 19.953125 -8.8125 C 20.890625 -8.414062 22.039062 -8.21875 23.40625 -8.21875 C 23.71875 -8.21875 24.070312 -8.238281 24.46875 -8.28125 C 24.863281 -8.332031 25.285156 -8.378906 25.734375 -8.421875 L 25.734375 0 C 25.066406 0.0820312 24.3125 0.164062 23.46875 0.25 C 22.632812 0.34375 21.84375 0.390625 21.09375 0.390625 Z M 21.09375 0.390625 "/></g></g></g><g fill="#ffffff" fill-opacity="1"><g transform="translate(158.266282, 68.959848)"><g><path d="M 14.859375 0.796875 C 12.242188 0.796875 9.984375 0.378906 8.078125 -0.453125 C 6.179688 -1.296875 4.722656 -2.503906 3.703125 -4.078125 C 2.691406 -5.648438 2.1875 -7.519531 2.1875 -9.6875 C 2.1875 -11.71875 2.648438 -13.515625 3.578125 -15.078125 C 4.503906 -16.648438 5.929688 -17.96875 7.859375 -19.03125 C 9.785156 -20.09375 12.179688 -20.84375 15.046875 -21.28125 L 26.125 -23.078125 L 26.125 -15.78125 L 16.84375 -14.125 C 15.425781 -13.863281 14.34375 -13.410156 13.59375 -12.765625 C 12.84375 -12.117188 12.46875 -11.203125 12.46875 -10.015625 C 12.46875 -8.910156 12.882812 -8.046875 13.71875 -7.421875 C 14.5625 -6.804688 15.601562 -6.5 16.84375 -6.5 C 18.476562 -6.5 19.914062 -6.851562 21.15625 -7.5625 C 22.394531 -8.269531 23.351562 -9.226562 24.03125 -10.4375 C 24.71875 -11.65625 25.0625 -12.992188 25.0625 -14.453125 L 25.0625 -23.875 C 25.0625 -25.238281 24.519531 -26.382812 23.4375 -27.3125 C 22.351562 -28.25 20.882812 -28.71875 19.03125 -28.71875 C 17.257812 -28.71875 15.695312 -28.226562 14.34375 -27.25 C 13 -26.28125 12.019531 -25 11.40625 -23.40625 L 3.453125 -27.1875 C 4.160156 -29.21875 5.285156 -30.960938 6.828125 -32.421875 C 8.378906 -33.878906 10.238281 -35.003906 12.40625 -35.796875 C 14.570312 -36.597656 16.9375 -37 19.5 -37 C 22.550781 -37 25.242188 -36.445312 27.578125 -35.34375 C 29.921875 -34.238281 31.742188 -32.703125 33.046875 -30.734375 C 34.359375 -28.765625 35.015625 -26.476562 35.015625 -23.875 L 35.015625 0 L 25.734375 0 L 25.734375 -5.828125 L 27.984375 -6.234375 C 26.921875 -4.640625 25.75 -3.320312 24.46875 -2.28125 C 23.1875 -1.25 21.75 -0.476562 20.15625 0.03125 C 18.5625 0.539062 16.796875 0.796875 14.859375 0.796875 Z M 14.859375 0.796875 "/></g></g></g><g fill="#ffffff" fill-opacity="1"><g transform="translate(198.911428, 68.959848)"><g><path d="M 8.546875 0 L 8.546875 -9.953125 L 18.5 -9.953125 L 18.5 0 Z M 8.546875 0 "/></g></g></g></g></g></g></svg>