<svg xmlns="http://www.w3.org/2000/svg" xmlns:xlink="http://www.w3.org/1999/xlink" width="500" zoomAndPan="magnify" viewBox="0 0 375 374.999991" height="500" preserveAspectRatio="xMidYMid meet" version="1.0"><defs><filter x="0%" y="0%" width="100%" height="100%" id="dc6d3bb39f"><feColorMatrix values="0 0 0 0 1 0 0 0 0 1 0 0 0 0 1 0 0 0 1 0" color-interpolation-filters="sRGB"/></filter><mask id="86b97f4370"><g filter="url(#dc6d3bb39f)"><rect x="-37.5" width="450" fill="#000000" y="-37.499999" height="449.999989" fill-opacity="0.5"/></g></mask><clipPath id="f37f75ac64"><path d="M 6 6 L 122 6 L 122 79 L 6 79 Z M 6 6 " clip-rule="nonzero"/></clipPath><clipPath id="c4679aae0d"><path d="M 112.484375 1.035156 L 127.285156 33.628906 L 15.625 84.324219 L 0.824219 51.730469 Z M 112.484375 1.035156 " clip-rule="nonzero"/></clipPath><clipPath id="6497df03ef"><path d="M 119.882812 17.332031 C 121.847656 21.65625 122.011719 26.578125 120.34375 31.023438 C 118.675781 35.46875 115.308594 39.066406 110.988281 41.027344 L 31.941406 76.917969 C 27.621094 78.878906 22.695312 79.042969 18.25 77.375 C 13.804688 75.707031 10.207031 72.34375 8.246094 68.019531 C 6.28125 63.699219 6.117188 58.773438 7.785156 54.328125 C 9.457031 49.882812 12.820312 46.285156 17.144531 44.324219 L 96.1875 8.433594 C 100.511719 6.472656 105.433594 6.308594 109.878906 7.976562 C 114.324219 9.644531 117.921875 13.011719 119.882812 17.332031 Z M 119.882812 17.332031 " clip-rule="nonzero"/></clipPath><clipPath id="7088d833b0"><path d="M 0.078125 0.199219 L 116 0.199219 L 116 73 L 0.078125 73 Z M 0.078125 0.199219 " clip-rule="nonzero"/></clipPath><clipPath id="a379d43611"><path d="M 106.484375 -4.964844 L 121.285156 27.628906 L 9.625 78.324219 L -5.175781 45.730469 Z M 106.484375 -4.964844 " clip-rule="nonzero"/></clipPath><clipPath id="4461a60828"><path d="M 113.882812 11.332031 C 115.847656 15.65625 116.011719 20.578125 114.34375 25.023438 C 112.675781 29.46875 109.308594 33.066406 104.988281 35.027344 L 25.941406 70.917969 C 21.621094 72.878906 16.695312 73.042969 12.25 71.375 C 7.804688 69.707031 4.207031 66.34375 2.246094 62.019531 C 0.28125 57.699219 0.117188 52.773438 1.785156 48.328125 C 3.457031 43.882812 6.820312 40.285156 11.144531 38.324219 L 90.1875 2.433594 C 94.511719 0.472656 99.433594 0.308594 103.878906 1.976562 C 108.324219 3.644531 111.921875 7.011719 113.882812 11.332031 Z M 113.882812 11.332031 " clip-rule="nonzero"/></clipPath><clipPath id="cfdbf9b946"><rect x="0" width="116" y="0" height="73"/></clipPath><clipPath id="8da1ce395c"><rect x="0" width="128" y="0" height="85"/></clipPath><clipPath id="358e39484c"><path d="M 100 160 L 235 160 L 235 245 L 100 245 Z M 100 160 " clip-rule="nonzero"/></clipPath><clipPath id="9e881b719f"><path d="M 223.851562 153.558594 L 241.152344 191.664062 L 110.605469 250.9375 L 93.300781 212.828125 Z M 223.851562 153.558594 " clip-rule="nonzero"/></clipPath><clipPath id="99f4a48a8e"><path d="M 232.503906 172.609375 C 234.796875 177.664062 234.988281 183.421875 233.039062 188.617188 C 231.085938 193.8125 227.152344 198.023438 222.097656 200.316406 L 129.683594 242.277344 C 124.628906 244.570312 118.871094 244.761719 113.675781 242.8125 C 108.480469 240.859375 104.273438 236.925781 101.976562 231.871094 C 99.683594 226.820312 99.488281 221.0625 101.441406 215.867188 C 103.390625 210.667969 107.328125 206.460938 112.378906 204.167969 L 204.796875 162.207031 C 209.851562 159.914062 215.609375 159.722656 220.804688 161.671875 C 226 163.621094 230.207031 167.558594 232.503906 172.609375 Z M 232.503906 172.609375 " clip-rule="nonzero"/></clipPath><clipPath id="1bb5f4bb35"><path d="M 0 0 L 135 0 L 135 84.800781 L 0 84.800781 Z M 0 0 " clip-rule="nonzero"/></clipPath><clipPath id="bbd9d86abb"><path d="M 123.851562 -6.441406 L 141.152344 31.664062 L 10.605469 90.9375 L -6.699219 52.828125 Z M 123.851562 -6.441406 " clip-rule="nonzero"/></clipPath><clipPath id="10f209f839"><path d="M 132.503906 12.609375 C 134.796875 17.664062 134.988281 23.421875 133.039062 28.617188 C 131.085938 33.8125 127.152344 38.023438 122.097656 40.316406 L 29.683594 82.277344 C 24.628906 84.570312 18.871094 84.761719 13.675781 82.8125 C 8.480469 80.859375 4.273438 76.925781 1.976562 71.871094 C -0.316406 66.820312 -0.511719 61.0625 1.441406 55.867188 C 3.390625 50.667969 7.328125 46.460938 12.378906 44.167969 L 104.796875 2.207031 C 109.851562 -0.0859375 115.609375 -0.277344 120.804688 1.671875 C 126 3.621094 130.207031 7.558594 132.503906 12.609375 Z M 132.503906 12.609375 " clip-rule="nonzero"/></clipPath><clipPath id="b5411c0f5a"><rect x="0" width="135" y="0" height="85"/></clipPath><clipPath id="3256150ff1"><path d="M 41 14 L 298 14 L 298 181 L 41 181 Z M 41 14 " clip-rule="nonzero"/></clipPath><clipPath id="de1827b665"><path d="M 274.488281 0.00390625 L 312.21875 83.101562 L 64.21875 195.699219 L 26.488281 112.601562 Z M 274.488281 0.00390625 " clip-rule="nonzero"/></clipPath><clipPath id="2a41b25879"><path d="M 293.351562 41.550781 C 298.355469 52.570312 298.777344 65.128906 294.523438 76.457031 C 290.269531 87.789062 281.6875 96.964844 270.667969 101.964844 L 106.039062 176.710938 C 95.019531 181.714844 82.460938 182.136719 71.132812 177.882812 C 59.804688 173.628906 50.628906 165.046875 45.625 154.027344 C 40.621094 143.007812 40.199219 130.453125 44.453125 119.121094 C 48.707031 107.792969 57.289062 98.617188 68.308594 93.613281 L 232.9375 18.867188 C 243.957031 13.863281 256.515625 13.445312 267.84375 17.699219 C 279.175781 21.953125 288.351562 30.53125 293.351562 41.550781 Z M 293.351562 41.550781 " clip-rule="nonzero"/></clipPath><clipPath id="776fe30b3c"><path d="M 0 0 L 257 0 L 257 167 L 0 167 Z M 0 0 " clip-rule="nonzero"/></clipPath><clipPath id="35ba18853b"><path d="M 233.488281 -13.996094 L 271.21875 69.101562 L 23.21875 181.699219 L -14.511719 98.601562 Z M 233.488281 -13.996094 " clip-rule="nonzero"/></clipPath><clipPath id="86d0174dce"><path d="M 252.351562 27.550781 C 257.355469 38.570312 257.777344 51.128906 253.523438 62.457031 C 249.269531 73.789062 240.6875 82.964844 229.667969 87.964844 L 65.039062 162.710938 C 54.019531 167.714844 41.460938 168.136719 30.132812 163.882812 C 18.804688 159.628906 9.628906 151.046875 4.625 140.027344 C -0.378906 129.007812 -0.800781 116.453125 3.453125 105.121094 C 7.707031 93.792969 16.289062 84.617188 27.308594 79.613281 L 191.9375 4.867188 C 202.957031 -0.136719 215.515625 -0.554688 226.84375 3.699219 C 238.175781 7.953125 247.351562 16.53125 252.351562 27.550781 Z M 252.351562 27.550781 " clip-rule="nonzero"/></clipPath><clipPath id="c0d5ab3a95"><rect x="0" width="257" y="0" height="167"/></clipPath><clipPath id="c64f1059e8"><path d="M 89 142 L 244 142 L 244 239 L 89 239 Z M 89 142 " clip-rule="nonzero"/></clipPath><clipPath id="aafdd4aaf3"><path d="M 231.488281 134.777344 L 251.386719 178.601562 L 101.257812 246.761719 L 81.359375 202.941406 Z M 231.488281 134.777344 " clip-rule="nonzero"/></clipPath><clipPath id="573c6fa586"><path d="M 241.4375 156.691406 C 246.929688 168.792969 241.574219 183.054688 229.472656 188.550781 L 123.195312 236.800781 C 111.09375 242.296875 96.832031 236.941406 91.335938 224.839844 C 85.84375 212.738281 91.199219 198.472656 103.300781 192.980469 L 209.578125 144.726562 C 221.679688 139.230469 235.941406 144.589844 241.4375 156.691406 Z M 241.4375 156.691406 " clip-rule="nonzero"/></clipPath><clipPath id="0266ed1294"><path d="M 0 0 L 155 0 L 155 97 L 0 97 Z M 0 0 " clip-rule="nonzero"/></clipPath><clipPath id="e12e6651e6"><path d="M 142.488281 -7.222656 L 162.386719 36.601562 L 12.257812 104.761719 L -7.640625 60.941406 Z M 142.488281 -7.222656 " clip-rule="nonzero"/></clipPath><clipPath id="de81534f37"><path d="M 152.4375 14.691406 C 157.929688 26.792969 152.574219 41.054688 140.472656 46.550781 L 34.195312 94.800781 C 22.09375 100.296875 7.832031 94.941406 2.335938 82.839844 C -3.15625 70.738281 2.199219 56.472656 14.300781 50.980469 L 120.578125 2.726562 C 132.679688 -2.769531 146.941406 2.589844 152.4375 14.691406 Z M 152.4375 14.691406 " clip-rule="nonzero"/></clipPath><clipPath id="1d7e8817b6"><rect x="0" width="155" y="0" height="97"/></clipPath><clipPath id="7e5e1023f2"><path d="M 77 194 L 334 194 L 334 361 L 77 361 Z M 77 194 " clip-rule="nonzero"/></clipPath><clipPath id="68fbebe758"><path d="M 310.652344 179.757812 L 348.230469 262.53125 L 100.242188 375.121094 L 62.664062 292.351562 Z M 310.652344 179.757812 " clip-rule="nonzero"/></clipPath><clipPath id="871a66b141"><path d="M 329.441406 221.144531 C 334.425781 232.121094 334.84375 244.625 330.605469 255.910156 C 326.367188 267.195312 317.820312 276.335938 306.84375 281.320312 L 141.886719 356.214844 C 130.910156 361.199219 118.40625 361.617188 107.121094 357.378906 C 95.835938 353.140625 86.695312 344.59375 81.710938 333.617188 C 76.730469 322.644531 76.308594 310.136719 80.546875 298.851562 C 84.785156 287.566406 93.332031 278.425781 104.308594 273.445312 L 269.265625 198.550781 C 280.242188 193.566406 292.75 193.148438 304.035156 197.382812 C 315.316406 201.621094 324.457031 210.167969 329.441406 221.144531 Z M 329.441406 221.144531 " clip-rule="nonzero"/></clipPath><clipPath id="06350d8255"><path d="M 0 0 L 257 0 L 257 167 L 0 167 Z M 0 0 " clip-rule="nonzero"/></clipPath><clipPath id="e0af15a506"><path d="M 233.652344 -14.242188 L 271.230469 68.53125 L 23.242188 181.121094 L -14.335938 98.351562 Z M 233.652344 -14.242188 " clip-rule="nonzero"/></clipPath><clipPath id="6bd09cc712"><path d="M 252.441406 27.144531 C 257.425781 38.121094 257.84375 50.625 253.605469 61.910156 C 249.367188 73.195312 240.820312 82.335938 229.84375 87.320312 L 64.886719 162.214844 C 53.910156 167.199219 41.40625 167.617188 30.121094 163.378906 C 18.835938 159.140625 9.695312 150.59375 4.710938 139.617188 C -0.269531 128.644531 -0.691406 116.136719 3.546875 104.851562 C 7.785156 93.566406 16.332031 84.425781 27.308594 79.445312 L 192.265625 4.550781 C 203.242188 -0.433594 215.75 -0.851562 227.035156 3.382812 C 238.316406 7.621094 247.457031 16.167969 252.441406 27.144531 Z M 252.441406 27.144531 " clip-rule="nonzero"/></clipPath><clipPath id="0e65710e3e"><rect x="0" width="257" y="0" height="167"/></clipPath></defs><g mask="url(#86b97f4370)"><g transform="matrix(1, 0, 0, 1, 106, 169)"><g clip-path="url(#8da1ce395c)"><g clip-path="url(#f37f75ac64)"><g clip-path="url(#c4679aae0d)"><g clip-path="url(#6497df03ef)"><g transform="matrix(1, 0, 0, 1, 6, 6)"><g clip-path="url(#cfdbf9b946)"><g clip-path="url(#7088d833b0)"><g clip-path="url(#a379d43611)"><g clip-path="url(#4461a60828)"><path fill="#545454" d="M 106.484375 -4.964844 L 121.285156 27.628906 L 9.625 78.324219 L -5.175781 45.730469 Z M 106.484375 -4.964844 " fill-opacity="1" fill-rule="nonzero"/></g></g></g></g></g></g></g></g></g></g></g><g clip-path="url(#358e39484c)"><g clip-path="url(#9e881b719f)"><g clip-path="url(#99f4a48a8e)"><g transform="matrix(1, 0, 0, 1, 100, 160)"><g clip-path="url(#b5411c0f5a)"><g clip-path="url(#1bb5f4bb35)"><g clip-path="url(#bbd9d86abb)"><g clip-path="url(#10f209f839)"><path fill="#606060" d="M 123.851562 -6.441406 L 141.152344 31.664062 L 10.605469 90.9375 L -6.699219 52.828125 Z M 123.851562 -6.441406 " fill-opacity="1" fill-rule="nonzero"/></g></g></g></g></g></g></g></g><g clip-path="url(#3256150ff1)"><g clip-path="url(#de1827b665)"><g clip-path="url(#2a41b25879)"><g transform="matrix(1, 0, 0, 1, 41, 14)"><g clip-path="url(#c0d5ab3a95)"><g clip-path="url(#776fe30b3c)"><g clip-path="url(#35ba18853b)"><g clip-path="url(#86d0174dce)"><path fill="#000000" d="M 233.488281 -13.996094 L 271.21875 69.101562 L 23.542969 181.550781 L -14.183594 98.453125 Z M 233.488281 -13.996094 " fill-opacity="1" fill-rule="nonzero"/></g></g></g></g></g></g></g></g><g clip-path="url(#c64f1059e8)"><g clip-path="url(#aafdd4aaf3)"><g clip-path="url(#573c6fa586)"><g transform="matrix(1, 0, 0, 1, 89, 142)"><g clip-path="url(#1d7e8817b6)"><g clip-path="url(#0266ed1294)"><g clip-path="url(#e12e6651e6)"><g clip-path="url(#de81534f37)"><path fill="#000000" d="M 142.488281 -7.222656 L 162.386719 36.601562 L 12.257812 104.761719 L -7.640625 60.941406 Z M 142.488281 -7.222656 " fill-opacity="1" fill-rule="nonzero"/></g></g></g></g></g></g></g></g><g clip-path="url(#7e5e1023f2)"><g clip-path="url(#68fbebe758)"><g clip-path="url(#871a66b141)"><g transform="matrix(1, 0, 0, 1, 77, 194)"><g clip-path="url(#0e65710e3e)"><g clip-path="url(#06350d8255)"><g clip-path="url(#e0af15a506)"><g clip-path="url(#6bd09cc712)"><path fill="#000000" d="M 233.652344 -14.242188 L 271.230469 68.53125 L 23.566406 180.972656 L -14.011719 98.203125 Z M 233.652344 -14.242188 " fill-opacity="1" fill-rule="nonzero"/></g></g></g></g></g></g></g></g></svg>