<svg xmlns="http://www.w3.org/2000/svg" xmlns:xlink="http://www.w3.org/1999/xlink" width="416" zoomAndPan="magnify" viewBox="0 0 312 122.249994" height="163" preserveAspectRatio="xMidYMid meet" version="1.0"><defs><filter x="0%" y="0%" width="100%" height="100%" id="4a7060b371"><feColorMatrix values="0 0 0 0 1 0 0 0 0 1 0 0 0 0 1 0 0 0 1 0" color-interpolation-filters="sRGB"/></filter><g/><mask id="25d083edee"><g filter="url(#4a7060b371)"><rect x="-31.2" width="374.4" fill="#000000" y="-12.224999" height="146.699993" fill-opacity="0.5"/></g></mask><clipPath id="a57a86d9ec"><path d="M 2 2 L 38 2 L 38 24 L 2 24 Z M 2 2 " clip-rule="nonzero"/></clipPath><clipPath id="99fd689688"><path d="M 34.597656 0.503906 L 39.046875 10.304688 L 5.480469 25.542969 L 1.035156 15.746094 Z M 34.597656 0.503906 " clip-rule="nonzero"/></clipPath><clipPath id="68934500df"><path d="M 36.824219 5.40625 C 37.414062 6.703125 37.460938 8.183594 36.960938 9.519531 C 36.457031 10.855469 35.445312 11.9375 34.148438 12.527344 L 10.386719 23.316406 C 9.089844 23.90625 7.609375 23.953125 6.273438 23.453125 C 4.9375 22.953125 3.855469 21.941406 3.265625 20.640625 C 2.675781 19.339844 2.625 17.859375 3.125 16.523438 C 3.628906 15.1875 4.640625 14.109375 5.9375 13.519531 L 29.699219 2.730469 C 31 2.140625 32.480469 2.089844 33.816406 2.59375 C 35.152344 3.09375 36.230469 4.105469 36.824219 5.40625 Z M 36.824219 5.40625 " clip-rule="nonzero"/></clipPath><clipPath id="465b1f9f9e"><path d="M 0.613281 0.0117188 L 35.675781 0.0117188 L 35.675781 21.957031 L 0.613281 21.957031 Z M 0.613281 0.0117188 " clip-rule="nonzero"/></clipPath><clipPath id="40cd63c888"><path d="M 32.597656 -1.496094 L 37.046875 8.304688 L 3.480469 23.542969 L -0.964844 13.746094 Z M 32.597656 -1.496094 " clip-rule="nonzero"/></clipPath><clipPath id="2860aef550"><path d="M 34.824219 3.40625 C 35.414062 4.703125 35.460938 6.183594 34.960938 7.519531 C 34.457031 8.855469 33.445312 9.9375 32.148438 10.527344 L 8.386719 21.316406 C 7.089844 21.90625 5.609375 21.953125 4.273438 21.453125 C 2.9375 20.953125 1.855469 19.941406 1.265625 18.640625 C 0.675781 17.339844 0.625 15.859375 1.125 14.523438 C 1.628906 13.1875 2.640625 12.109375 3.9375 11.519531 L 27.699219 0.730469 C 29 0.140625 30.480469 0.0898438 31.816406 0.59375 C 33.152344 1.09375 34.230469 2.105469 34.824219 3.40625 Z M 34.824219 3.40625 " clip-rule="nonzero"/></clipPath><clipPath id="748896fff8"><rect x="0" width="36" y="0" height="22"/></clipPath><clipPath id="5fc9ef025e"><rect x="0" width="40" y="0" height="26"/></clipPath><clipPath id="b0a436e23e"><path d="M 20 52 L 61 52 L 61 78 L 20 78 Z M 20 52 " clip-rule="nonzero"/></clipPath><clipPath id="7a7998b880"><path d="M 57.210938 50.546875 L 62.414062 62.003906 L 23.171875 79.820312 L 17.96875 68.363281 Z M 57.210938 50.546875 " clip-rule="nonzero"/></clipPath><clipPath id="5f8b296ef0"><path d="M 59.8125 56.277344 C 60.5 57.792969 60.558594 59.523438 59.972656 61.085938 C 59.386719 62.648438 58.203125 63.914062 56.683594 64.601562 L 28.90625 77.214844 C 27.386719 77.90625 25.65625 77.964844 24.09375 77.378906 C 22.53125 76.789062 21.265625 75.609375 20.578125 74.089844 C 19.886719 72.570312 19.828125 70.839844 20.414062 69.277344 C 21.003906 67.714844 22.183594 66.449219 23.703125 65.761719 L 51.484375 53.148438 C 53.003906 52.457031 54.734375 52.402344 56.296875 52.988281 C 57.859375 53.574219 59.121094 54.757812 59.8125 56.277344 Z M 59.8125 56.277344 " clip-rule="nonzero"/></clipPath><clipPath id="cf54e728e7"><path d="M 0 0.238281 L 40.585938 0.238281 L 40.585938 26 L 0 26 Z M 0 0.238281 " clip-rule="nonzero"/></clipPath><clipPath id="1f6e88170c"><path d="M 37.210938 -1.453125 L 42.414062 10.003906 L 3.171875 27.820312 L -2.03125 16.363281 Z M 37.210938 -1.453125 " clip-rule="nonzero"/></clipPath><clipPath id="bf206facbd"><path d="M 39.8125 4.277344 C 40.5 5.792969 40.558594 7.523438 39.972656 9.085938 C 39.386719 10.648438 38.203125 11.914062 36.683594 12.601562 L 8.90625 25.214844 C 7.386719 25.90625 5.65625 25.964844 4.09375 25.378906 C 2.53125 24.789062 1.265625 23.609375 0.578125 22.089844 C -0.113281 20.570312 -0.171875 18.839844 0.414062 17.277344 C 1.003906 15.714844 2.183594 14.449219 3.703125 13.761719 L 31.484375 1.148438 C 33.003906 0.457031 34.734375 0.402344 36.296875 0.988281 C 37.859375 1.574219 39.121094 2.757812 39.8125 4.277344 Z M 39.8125 4.277344 " clip-rule="nonzero"/></clipPath><clipPath id="427c01ad22"><rect x="0" width="41" y="0" height="26"/></clipPath><clipPath id="9e60f4ba99"><path d="M 2 8 L 80 8 L 80 59 L 2 59 Z M 2 8 " clip-rule="nonzero"/></clipPath><clipPath id="8a0415b0fe"><path d="M 72.433594 4.390625 L 83.773438 29.371094 L 9.226562 63.214844 L -2.113281 38.238281 Z M 72.433594 4.390625 " clip-rule="nonzero"/></clipPath><clipPath id="d3904807c1"><path d="M 78.101562 16.878906 C 79.605469 20.191406 79.734375 23.96875 78.453125 27.371094 C 77.175781 30.777344 74.597656 33.535156 71.285156 35.039062 L 21.796875 57.507812 C 18.484375 59.011719 14.710938 59.140625 11.304688 57.859375 C 7.898438 56.582031 5.140625 54.003906 3.636719 50.691406 C 2.132812 47.378906 2.007812 43.601562 3.285156 40.199219 C 4.566406 36.792969 7.144531 34.035156 10.457031 32.53125 L 59.941406 10.0625 C 63.253906 8.558594 67.03125 8.429688 70.4375 9.710938 C 73.839844 10.988281 76.597656 13.566406 78.101562 16.878906 Z M 78.101562 16.878906 " clip-rule="nonzero"/></clipPath><clipPath id="b4d16e7176"><path d="M 0 0.347656 L 77.90625 0.347656 L 77.90625 51 L 0 51 Z M 0 0.347656 " clip-rule="nonzero"/></clipPath><clipPath id="95199c6bc4"><path d="M 70.433594 -3.609375 L 81.773438 21.371094 L 7.226562 55.214844 L -4.113281 30.238281 Z M 70.433594 -3.609375 " clip-rule="nonzero"/></clipPath><clipPath id="99bfc2f612"><path d="M 76.101562 8.878906 C 77.605469 12.191406 77.734375 15.96875 76.453125 19.371094 C 75.175781 22.777344 72.597656 25.535156 69.285156 27.039062 L 19.796875 49.507812 C 16.484375 51.011719 12.710938 51.140625 9.304688 49.859375 C 5.898438 48.582031 3.140625 46.003906 1.636719 42.691406 C 0.132812 39.378906 0.0078125 35.601562 1.285156 32.199219 C 2.566406 28.792969 5.144531 26.035156 8.457031 24.53125 L 57.941406 2.0625 C 61.253906 0.558594 65.03125 0.429688 68.4375 1.710938 C 71.839844 2.988281 74.597656 5.566406 76.101562 8.878906 Z M 76.101562 8.878906 " clip-rule="nonzero"/></clipPath><clipPath id="2c4b32ce7f"><rect x="0" width="78" y="0" height="51"/></clipPath><clipPath id="b939ceac5f"><path d="M 16 47 L 64 47 L 64 77 L 16 77 Z M 16 47 " clip-rule="nonzero"/></clipPath><clipPath id="0b1bbc3fdf"><path d="M 59.511719 44.902344 L 65.492188 58.074219 L 20.363281 78.566406 L 14.382812 65.390625 Z M 59.511719 44.902344 " clip-rule="nonzero"/></clipPath><clipPath id="2a03a392ae"><path d="M 62.5 51.488281 C 64.152344 55.128906 62.542969 59.414062 58.902344 61.066406 L 26.957031 75.570312 C 23.320312 77.222656 19.03125 75.613281 17.382812 71.976562 C 15.730469 68.335938 17.339844 64.050781 20.976562 62.398438 L 52.921875 47.894531 C 56.5625 46.242188 60.847656 47.851562 62.5 51.488281 Z M 62.5 51.488281 " clip-rule="nonzero"/></clipPath><clipPath id="26c118aeeb"><path d="M 0 0 L 48 0 L 48 30 L 0 30 Z M 0 0 " clip-rule="nonzero"/></clipPath><clipPath id="1521abe98d"><path d="M 43.511719 -2.097656 L 49.492188 11.074219 L 4.363281 31.566406 L -1.617188 18.390625 Z M 43.511719 -2.097656 " clip-rule="nonzero"/></clipPath><clipPath id="0dc5b33e4d"><path d="M 46.5 4.488281 C 48.152344 8.128906 46.542969 12.414062 42.902344 14.066406 L 10.957031 28.570312 C 7.320312 30.222656 3.03125 28.613281 1.382812 24.976562 C -0.269531 21.335938 1.339844 17.050781 4.976562 15.398438 L 36.921875 0.894531 C 40.5625 -0.757812 44.847656 0.851562 46.5 4.488281 Z M 46.5 4.488281 " clip-rule="nonzero"/></clipPath><clipPath id="539e009886"><rect x="0" width="48" y="0" height="30"/></clipPath><clipPath id="d20d1a9afc"><path d="M 13 62 L 91 62 L 91 113 L 13 113 Z M 13 62 " clip-rule="nonzero"/></clipPath><clipPath id="611e0102f9"><path d="M 83.300781 58.429688 L 94.597656 83.308594 L 20.054688 117.152344 L 8.757812 92.273438 Z M 83.300781 58.429688 " clip-rule="nonzero"/></clipPath><clipPath id="c7ea1966e5"><path d="M 88.949219 70.867188 C 90.445312 74.167969 90.574219 77.925781 89.300781 81.320312 C 88.023438 84.710938 85.457031 87.457031 82.15625 88.957031 L 32.570312 111.46875 C 29.273438 112.96875 25.511719 113.09375 22.121094 111.820312 C 18.730469 110.546875 15.980469 107.976562 14.484375 104.675781 C 12.984375 101.378906 12.859375 97.617188 14.132812 94.226562 C 15.40625 90.835938 17.976562 88.085938 21.273438 86.589844 L 70.859375 64.074219 C 74.160156 62.578125 77.917969 62.453125 81.3125 63.726562 C 84.703125 65 87.449219 67.570312 88.949219 70.867188 Z M 88.949219 70.867188 " clip-rule="nonzero"/></clipPath><clipPath id="d8524ca8c5"><path d="M 0 0.257812 L 77.640625 0.257812 L 77.640625 51 L 0 51 Z M 0 0.257812 " clip-rule="nonzero"/></clipPath><clipPath id="e9274abdc4"><path d="M 70.300781 -3.570312 L 81.597656 21.308594 L 7.054688 55.152344 L -4.242188 30.273438 Z M 70.300781 -3.570312 " clip-rule="nonzero"/></clipPath><clipPath id="34fd9cda54"><path d="M 75.949219 8.867188 C 77.445312 12.167969 77.574219 15.925781 76.300781 19.320312 C 75.023438 22.710938 72.457031 25.457031 69.15625 26.957031 L 19.570312 49.46875 C 16.273438 50.96875 12.511719 51.09375 9.121094 49.820312 C 5.730469 48.546875 2.980469 45.976562 1.484375 42.675781 C -0.015625 39.378906 -0.140625 35.617188 1.132812 32.226562 C 2.40625 28.835938 4.976562 26.085938 8.273438 24.589844 L 57.859375 2.074219 C 61.160156 0.578125 64.917969 0.453125 68.3125 1.726562 C 71.703125 3 74.449219 5.570312 75.949219 8.867188 Z M 75.949219 8.867188 " clip-rule="nonzero"/></clipPath><clipPath id="08c5112a27"><rect x="0" width="78" y="0" height="51"/></clipPath><clipPath id="c2cb7d14c4"><path d="M 93 18 L 311.046875 18 L 311.046875 102 L 93 102 Z M 93 18 " clip-rule="nonzero"/></clipPath><clipPath id="6e57b7fde6"><rect x="0" width="219" y="0" height="84"/></clipPath></defs><g mask="url(#25d083edee)"><g transform="matrix(1, 0, 0, 1, 21, 55)"><g clip-path="url(#5fc9ef025e)"><g clip-path="url(#a57a86d9ec)"><g clip-path="url(#99fd689688)"><g clip-path="url(#68934500df)"><g transform="matrix(1, 0, 0, 1, 2, 2)"><g clip-path="url(#748896fff8)"><g clip-path="url(#465b1f9f9e)"><g clip-path="url(#40cd63c888)"><g clip-path="url(#2860aef550)"><path fill="#ffffff" d="M 32.597656 -1.496094 L 37.046875 8.304688 L 3.480469 23.542969 L -0.964844 13.746094 Z M 32.597656 -1.496094 " fill-opacity="1" fill-rule="nonzero"/></g></g></g></g></g></g></g></g></g></g></g><g clip-path="url(#b0a436e23e)"><g clip-path="url(#7a7998b880)"><g clip-path="url(#5f8b296ef0)"><g transform="matrix(1, 0, 0, 1, 20, 52)"><g clip-path="url(#427c01ad22)"><g clip-path="url(#cf54e728e7)"><g clip-path="url(#1f6e88170c)"><g clip-path="url(#bf206facbd)"><path fill="#cbcbcb" d="M 37.210938 -1.453125 L 42.414062 10.003906 L 3.171875 27.820312 L -2.03125 16.363281 Z M 37.210938 -1.453125 " fill-opacity="1" fill-rule="nonzero"/></g></g></g></g></g></g></g></g><g clip-path="url(#9e60f4ba99)"><g clip-path="url(#8a0415b0fe)"><g clip-path="url(#d3904807c1)"><g transform="matrix(1, 0, 0, 1, 2, 8)"><g clip-path="url(#2c4b32ce7f)"><g clip-path="url(#b4d16e7176)"><g clip-path="url(#95199c6bc4)"><g clip-path="url(#99bfc2f612)"><path fill="#ffffff" d="M 70.433594 -3.609375 L 81.773438 21.371094 L 7.324219 55.171875 L -4.015625 30.191406 Z M 70.433594 -3.609375 " fill-opacity="1" fill-rule="nonzero"/></g></g></g></g></g></g></g></g><g clip-path="url(#b939ceac5f)"><g clip-path="url(#0b1bbc3fdf)"><g clip-path="url(#2a03a392ae)"><g transform="matrix(1, 0, 0, 1, 16, 47)"><g clip-path="url(#539e009886)"><g clip-path="url(#26c118aeeb)"><g clip-path="url(#1521abe98d)"><g clip-path="url(#0dc5b33e4d)"><path fill="#ffffff" d="M 43.511719 -2.097656 L 49.492188 11.074219 L 4.363281 31.566406 L -1.617188 18.390625 Z M 43.511719 -2.097656 " fill-opacity="1" fill-rule="nonzero"/></g></g></g></g></g></g></g></g><g clip-path="url(#d20d1a9afc)"><g clip-path="url(#611e0102f9)"><g clip-path="url(#c7ea1966e5)"><g transform="matrix(1, 0, 0, 1, 13, 62)"><g clip-path="url(#08c5112a27)"><g clip-path="url(#d8524ca8c5)"><g clip-path="url(#e9274abdc4)"><g clip-path="url(#34fd9cda54)"><path fill="#ffffff" d="M 70.300781 -3.570312 L 81.597656 21.308594 L 7.152344 55.109375 L -4.144531 30.226562 Z M 70.300781 -3.570312 " fill-opacity="1" fill-rule="nonzero"/></g></g></g></g></g></g></g></g><g clip-path="url(#c2cb7d14c4)"><g transform="matrix(1, 0, 0, 1, 93, 18)"><g clip-path="url(#6e57b7fde6)"><g fill="#ffffff" fill-opacity="1"><g transform="translate(1.046829, 68.829617)"><g><path d="M 7.984375 0 L 7.984375 -27.453125 L 1.90625 -27.453125 L 1.90625 -36.03125 L 7.984375 -36.03125 L 7.984375 -36.5625 C 7.984375 -39.414062 8.539062 -41.832031 9.65625 -43.8125 C 10.78125 -45.789062 12.398438 -47.304688 14.515625 -48.359375 C 16.628906 -49.421875 19.179688 -49.953125 22.171875 -49.953125 C 22.742188 -49.953125 23.359375 -49.914062 24.015625 -49.84375 C 24.679688 -49.78125 25.234375 -49.707031 25.671875 -49.625 L 25.671875 -41.171875 C 25.234375 -41.265625 24.847656 -41.320312 24.515625 -41.34375 C 24.179688 -41.363281 23.835938 -41.375 23.484375 -41.375 C 21.640625 -41.375 20.242188 -40.96875 19.296875 -40.15625 C 18.347656 -39.34375 17.875 -38.144531 17.875 -36.5625 L 17.875 -36.03125 L 25.609375 -36.03125 L 25.609375 -27.453125 L 17.875 -27.453125 L 17.875 0 Z M 7.984375 0 "/></g></g></g><g fill="#ffffff" fill-opacity="1"><g transform="translate(29.416481, 68.829617)"><g><path d="M 7.984375 0 L 7.984375 -27.453125 L 1.90625 -27.453125 L 1.90625 -36.03125 L 7.984375 -36.03125 L 7.984375 -36.5625 C 7.984375 -39.414062 8.539062 -41.832031 9.65625 -43.8125 C 10.78125 -45.789062 12.398438 -47.304688 14.515625 -48.359375 C 16.628906 -49.421875 19.179688 -49.953125 22.171875 -49.953125 C 22.742188 -49.953125 23.359375 -49.914062 24.015625 -49.84375 C 24.679688 -49.78125 25.234375 -49.707031 25.671875 -49.625 L 25.671875 -41.171875 C 25.234375 -41.265625 24.847656 -41.320312 24.515625 -41.34375 C 24.179688 -41.363281 23.835938 -41.375 23.484375 -41.375 C 21.640625 -41.375 20.242188 -40.96875 19.296875 -40.15625 C 18.347656 -39.34375 17.875 -38.144531 17.875 -36.5625 L 17.875 -36.03125 L 25.609375 -36.03125 L 25.609375 -27.453125 L 17.875 -27.453125 L 17.875 0 Z M 7.984375 0 "/></g></g></g><g fill="#ffffff" fill-opacity="1"><g transform="translate(58.446002, 68.829617)"><g><path d="M 14.78125 0.796875 C 12.1875 0.796875 9.941406 0.378906 8.046875 -0.453125 C 6.160156 -1.296875 4.707031 -2.5 3.6875 -4.0625 C 2.675781 -5.625 2.171875 -7.484375 2.171875 -9.640625 C 2.171875 -11.660156 2.632812 -13.453125 3.5625 -15.015625 C 4.488281 -16.578125 5.90625 -17.882812 7.8125 -18.9375 C 9.726562 -19.988281 12.117188 -20.738281 14.984375 -21.1875 L 26 -22.96875 L 26 -15.703125 L 16.765625 -14.0625 C 15.359375 -13.789062 14.28125 -13.335938 13.53125 -12.703125 C 12.78125 -12.066406 12.40625 -11.15625 12.40625 -9.96875 C 12.40625 -8.863281 12.820312 -8.003906 13.65625 -7.390625 C 14.488281 -6.773438 15.523438 -6.46875 16.765625 -6.46875 C 18.390625 -6.46875 19.816406 -6.816406 21.046875 -7.515625 C 22.273438 -8.222656 23.226562 -9.179688 23.90625 -10.390625 C 24.59375 -11.597656 24.9375 -12.929688 24.9375 -14.390625 L 24.9375 -23.75 C 24.9375 -25.113281 24.394531 -26.257812 23.3125 -27.1875 C 22.238281 -28.113281 20.78125 -28.578125 18.9375 -28.578125 C 17.175781 -28.578125 15.625 -28.09375 14.28125 -27.125 C 12.9375 -26.15625 11.957031 -24.878906 11.34375 -23.296875 L 3.4375 -27.046875 C 4.132812 -29.078125 5.253906 -30.816406 6.796875 -32.265625 C 8.335938 -33.710938 10.1875 -34.832031 12.34375 -35.625 C 14.5 -36.414062 16.851562 -36.8125 19.40625 -36.8125 C 22.4375 -36.8125 25.117188 -36.257812 27.453125 -35.15625 C 29.785156 -34.0625 31.597656 -32.535156 32.890625 -30.578125 C 34.191406 -28.617188 34.84375 -26.34375 34.84375 -23.75 L 34.84375 0 L 25.609375 0 L 25.609375 -5.8125 L 27.84375 -6.203125 C 26.789062 -4.617188 25.625 -3.304688 24.34375 -2.265625 C 23.070312 -1.234375 21.644531 -0.46875 20.0625 0.03125 C 18.476562 0.539062 16.71875 0.796875 14.78125 0.796875 Z M 14.78125 0.796875 "/></g></g></g><g fill="#ffffff" fill-opacity="1"><g transform="translate(98.229308, 68.829617)"><g><path d="M 20.984375 0.390625 C 16.628906 0.390625 13.253906 -0.785156 10.859375 -3.140625 C 8.460938 -5.492188 7.265625 -8.78125 7.265625 -13 L 7.265625 -27.453125 L 1.1875 -27.453125 L 1.1875 -36.03125 L 1.515625 -36.03125 C 3.359375 -36.03125 4.773438 -36.488281 5.765625 -37.40625 C 6.765625 -38.332031 7.265625 -39.71875 7.265625 -41.5625 L 7.265625 -44.203125 L 17.15625 -44.203125 L 17.15625 -36.03125 L 25.609375 -36.03125 L 25.609375 -27.453125 L 17.15625 -27.453125 L 17.15625 -13.65625 C 17.15625 -12.425781 17.375 -11.40625 17.8125 -10.59375 C 18.25 -9.78125 18.929688 -9.175781 19.859375 -8.78125 C 20.785156 -8.382812 21.929688 -8.1875 23.296875 -8.1875 C 23.597656 -8.1875 23.945312 -8.207031 24.34375 -8.25 C 24.738281 -8.289062 25.160156 -8.332031 25.609375 -8.375 L 25.609375 0 C 24.941406 0.0820312 24.191406 0.164062 23.359375 0.25 C 22.523438 0.34375 21.734375 0.390625 20.984375 0.390625 Z M 20.984375 0.390625 "/></g></g></g><g fill="#ffffff" fill-opacity="1"><g transform="translate(127.984556, 68.829617)"><g><path d="M 20.984375 0.390625 C 16.628906 0.390625 13.253906 -0.785156 10.859375 -3.140625 C 8.460938 -5.492188 7.265625 -8.78125 7.265625 -13 L 7.265625 -27.453125 L 1.1875 -27.453125 L 1.1875 -36.03125 L 1.515625 -36.03125 C 3.359375 -36.03125 4.773438 -36.488281 5.765625 -37.40625 C 6.765625 -38.332031 7.265625 -39.71875 7.265625 -41.5625 L 7.265625 -44.203125 L 17.15625 -44.203125 L 17.15625 -36.03125 L 25.609375 -36.03125 L 25.609375 -27.453125 L 17.15625 -27.453125 L 17.15625 -13.65625 C 17.15625 -12.425781 17.375 -11.40625 17.8125 -10.59375 C 18.25 -9.78125 18.929688 -9.175781 19.859375 -8.78125 C 20.785156 -8.382812 21.929688 -8.1875 23.296875 -8.1875 C 23.597656 -8.1875 23.945312 -8.207031 24.34375 -8.25 C 24.738281 -8.289062 25.160156 -8.332031 25.609375 -8.375 L 25.609375 0 C 24.941406 0.0820312 24.191406 0.164062 23.359375 0.25 C 22.523438 0.34375 21.734375 0.390625 20.984375 0.390625 Z M 20.984375 0.390625 "/></g></g></g><g fill="#ffffff" fill-opacity="1"><g transform="translate(157.739805, 68.829617)"><g><path d="M 14.78125 0.796875 C 12.1875 0.796875 9.941406 0.378906 8.046875 -0.453125 C 6.160156 -1.296875 4.707031 -2.5 3.6875 -4.0625 C 2.675781 -5.625 2.171875 -7.484375 2.171875 -9.640625 C 2.171875 -11.660156 2.632812 -13.453125 3.5625 -15.015625 C 4.488281 -16.578125 5.90625 -17.882812 7.8125 -18.9375 C 9.726562 -19.988281 12.117188 -20.738281 14.984375 -21.1875 L 26 -22.96875 L 26 -15.703125 L 16.765625 -14.0625 C 15.359375 -13.789062 14.28125 -13.335938 13.53125 -12.703125 C 12.78125 -12.066406 12.40625 -11.15625 12.40625 -9.96875 C 12.40625 -8.863281 12.820312 -8.003906 13.65625 -7.390625 C 14.488281 -6.773438 15.523438 -6.46875 16.765625 -6.46875 C 18.390625 -6.46875 19.816406 -6.816406 21.046875 -7.515625 C 22.273438 -8.222656 23.226562 -9.179688 23.90625 -10.390625 C 24.59375 -11.597656 24.9375 -12.929688 24.9375 -14.390625 L 24.9375 -23.75 C 24.9375 -25.113281 24.394531 -26.257812 23.3125 -27.1875 C 22.238281 -28.113281 20.78125 -28.578125 18.9375 -28.578125 C 17.175781 -28.578125 15.625 -28.09375 14.28125 -27.125 C 12.9375 -26.15625 11.957031 -24.878906 11.34375 -23.296875 L 3.4375 -27.046875 C 4.132812 -29.078125 5.253906 -30.816406 6.796875 -32.265625 C 8.335938 -33.710938 10.1875 -34.832031 12.34375 -35.625 C 14.5 -36.414062 16.851562 -36.8125 19.40625 -36.8125 C 22.4375 -36.8125 25.117188 -36.257812 27.453125 -35.15625 C 29.785156 -34.0625 31.597656 -32.535156 32.890625 -30.578125 C 34.191406 -28.617188 34.84375 -26.34375 34.84375 -23.75 L 34.84375 0 L 25.609375 0 L 25.609375 -5.8125 L 27.84375 -6.203125 C 26.789062 -4.617188 25.625 -3.304688 24.34375 -2.265625 C 23.070312 -1.234375 21.644531 -0.46875 20.0625 0.03125 C 18.476562 0.539062 16.71875 0.796875 14.78125 0.796875 Z M 14.78125 0.796875 "/></g></g></g><g fill="#ffffff" fill-opacity="1"><g transform="translate(198.18298, 68.829617)"><g><path d="M 8.515625 0 L 8.515625 -9.890625 L 18.40625 -9.890625 L 18.40625 0 Z M 8.515625 0 "/></g></g></g></g></g></g></svg>