<svg xmlns="http://www.w3.org/2000/svg" xmlns:xlink="http://www.w3.org/1999/xlink" width="500" zoomAndPan="magnify" viewBox="0 0 375 374.999991" height="500" preserveAspectRatio="xMidYMid meet" version="1.0"><defs><filter x="0%" y="0%" width="100%" height="100%" id="f035d60b55"><feColorMatrix values="0 0 0 0 1 0 0 0 0 1 0 0 0 0 1 0 0 0 1 0" color-interpolation-filters="sRGB"></feColorMatrix></filter><mask id="1931b9ec93"><g filter="url(#f035d60b55)"><rect x="-37.5" width="450" fill="#000000" y="-37.499999" height="449.999989" fill-opacity="0.5"></rect></g></mask><clipPath id="b2785d204c"><path d="M 3 3 L 71 3 L 71 46 L 3 46 Z M 3 3 " clip-rule="nonzero"></path></clipPath><clipPath id="bd819a8ef9"><path d="M 65.566406 0.3125 L 74.199219 19.324219 L 9.078125 48.890625 L 0.445312 29.878906 Z M 65.566406 0.3125 " clip-rule="nonzero"></path></clipPath><clipPath id="a43c368d0b"><path d="M 69.882812 9.816406 C 71.027344 12.339844 71.125 15.210938 70.152344 17.804688 C 69.175781 20.394531 67.214844 22.492188 64.695312 23.636719 L 18.59375 44.566406 C 16.074219 45.710938 13.203125 45.808594 10.609375 44.835938 C 8.019531 43.863281 5.917969 41.898438 4.773438 39.378906 C 3.628906 36.859375 3.535156 33.984375 4.507812 31.394531 C 5.480469 28.800781 7.441406 26.703125 9.964844 25.558594 L 56.0625 4.628906 C 58.585938 3.484375 61.457031 3.386719 64.046875 4.363281 C 66.640625 5.335938 68.738281 7.296875 69.882812 9.816406 Z M 69.882812 9.816406 " clip-rule="nonzero"></path></clipPath><clipPath id="c98d4d6c52"><path d="M 0.519531 0.238281 L 68 0.238281 L 68 42.960938 L 0.519531 42.960938 Z M 0.519531 0.238281 " clip-rule="nonzero"></path></clipPath><clipPath id="8c6b6cfd1f"><path d="M 62.566406 -2.6875 L 71.199219 16.324219 L 6.078125 45.890625 L -2.554688 26.878906 Z M 62.566406 -2.6875 " clip-rule="nonzero"></path></clipPath><clipPath id="f158605745"><path d="M 66.882812 6.816406 C 68.027344 9.339844 68.125 12.210938 67.152344 14.804688 C 66.175781 17.394531 64.214844 19.492188 61.695312 20.636719 L 15.59375 41.566406 C 13.074219 42.710938 10.203125 42.808594 7.609375 41.835938 C 5.019531 40.863281 2.917969 38.898438 1.773438 36.378906 C 0.628906 33.859375 0.535156 30.984375 1.507812 28.394531 C 2.480469 25.800781 4.441406 23.703125 6.964844 22.558594 L 53.0625 1.628906 C 55.585938 0.484375 58.457031 0.386719 61.046875 1.363281 C 63.640625 2.335938 65.738281 4.296875 66.882812 6.816406 Z M 66.882812 6.816406 " clip-rule="nonzero"></path></clipPath><clipPath id="e21b535578"><rect x="0" width="68" y="0" height="43"></rect></clipPath><clipPath id="ec7466f863"><rect x="0" width="75" y="0" height="50"></rect></clipPath><clipPath id="7b93e9a5f8"><path d="M 136 171 L 215 171 L 215 221 L 136 221 Z M 136 171 " clip-rule="nonzero"></path></clipPath><clipPath id="455e9b1679"><path d="M 208.695312 167.707031 L 218.785156 189.929688 L 142.648438 224.496094 L 132.558594 202.273438 Z M 208.695312 167.707031 " clip-rule="nonzero"></path></clipPath><clipPath id="9959a0a6d3"><path d="M 213.738281 178.816406 C 215.078125 181.765625 215.191406 185.121094 214.050781 188.152344 C 212.914062 191.183594 210.621094 193.636719 207.671875 194.976562 L 153.773438 219.445312 C 150.828125 220.785156 147.46875 220.898438 144.4375 219.757812 C 141.410156 218.621094 138.953125 216.324219 137.617188 213.378906 C 136.277344 210.433594 136.167969 207.074219 137.304688 204.042969 C 138.441406 201.011719 140.738281 198.558594 143.683594 197.222656 L 197.582031 172.75 C 200.527344 171.414062 203.886719 171.300781 206.917969 172.4375 C 209.949219 173.574219 212.402344 175.871094 213.738281 178.816406 Z M 213.738281 178.816406 " clip-rule="nonzero"></path></clipPath><clipPath id="35a53e3206"><path d="M 0.078125 0.121094 L 79 0.121094 L 79 50 L 0.078125 50 Z M 0.078125 0.121094 " clip-rule="nonzero"></path></clipPath><clipPath id="b3b9e8e368"><path d="M 72.695312 -3.292969 L 82.785156 18.929688 L 6.648438 53.496094 L -3.441406 31.273438 Z M 72.695312 -3.292969 " clip-rule="nonzero"></path></clipPath><clipPath id="df7ba93ca8"><path d="M 77.738281 7.816406 C 79.078125 10.765625 79.191406 14.121094 78.050781 17.152344 C 76.914062 20.183594 74.621094 22.636719 71.671875 23.976562 L 17.773438 48.445312 C 14.828125 49.785156 11.46875 49.898438 8.4375 48.757812 C 5.410156 47.621094 2.953125 45.324219 1.617188 42.378906 C 0.277344 39.433594 0.167969 36.074219 1.304688 33.042969 C 2.441406 30.011719 4.738281 27.558594 7.683594 26.222656 L 61.582031 1.75 C 64.527344 0.414062 67.886719 0.300781 70.917969 1.4375 C 73.949219 2.574219 76.402344 4.871094 77.738281 7.816406 Z M 77.738281 7.816406 " clip-rule="nonzero"></path></clipPath><clipPath id="0f8cbc3038"><rect x="0" width="79" y="0" height="50"></rect></clipPath><clipPath id="3f8f6ad075"><path d="M 102 86 L 252 86 L 252 184 L 102 184 Z M 102 86 " clip-rule="nonzero"></path></clipPath><clipPath id="72f1092068"><path d="M 238.226562 78.152344 L 260.230469 126.613281 L 115.597656 192.28125 L 93.59375 143.816406 Z M 238.226562 78.152344 " clip-rule="nonzero"></path></clipPath><clipPath id="92f39b4000"><path d="M 249.230469 102.382812 C 252.148438 108.808594 252.390625 116.132812 249.910156 122.738281 C 247.429688 129.347656 242.425781 134.699219 236 137.617188 L 139.988281 181.207031 C 133.558594 184.125 126.238281 184.371094 119.628906 181.890625 C 113.023438 179.410156 107.671875 174.40625 104.753906 167.976562 C 101.835938 161.550781 101.589844 154.230469 104.070312 147.621094 C 106.550781 141.015625 111.554688 135.664062 117.984375 132.746094 L 213.996094 89.152344 C 220.421875 86.234375 227.746094 85.988281 234.351562 88.472656 C 240.960938 90.953125 246.3125 95.957031 249.230469 102.382812 Z M 249.230469 102.382812 " clip-rule="nonzero"></path></clipPath><clipPath id="e37d3670c4"><path d="M 0 0 L 150 0 L 150 98 L 0 98 Z M 0 0 " clip-rule="nonzero"></path></clipPath><clipPath id="db0d54400c"><path d="M 136.226562 -7.847656 L 158.230469 40.613281 L 13.597656 106.28125 L -8.40625 57.816406 Z M 136.226562 -7.847656 " clip-rule="nonzero"></path></clipPath><clipPath id="1edb99763e"><path d="M 147.230469 16.382812 C 150.148438 22.808594 150.390625 30.132812 147.910156 36.738281 C 145.429688 43.347656 140.425781 48.699219 134 51.617188 L 37.988281 95.207031 C 31.558594 98.125 24.238281 98.371094 17.628906 95.890625 C 11.023438 93.410156 5.671875 88.40625 2.753906 81.976562 C -0.164062 75.550781 -0.410156 68.230469 2.070312 61.621094 C 4.550781 55.015625 9.554688 49.664062 15.984375 46.746094 L 111.996094 3.152344 C 118.421875 0.234375 125.746094 -0.0117188 132.351562 2.472656 C 138.960938 4.953125 144.3125 9.957031 147.230469 16.382812 Z M 147.230469 16.382812 " clip-rule="nonzero"></path></clipPath><clipPath id="112de41482"><rect x="0" width="150" y="0" height="98"></rect></clipPath><clipPath id="ab0687dd36"><path d="M 130 161 L 221 161 L 221 218 L 130 218 Z M 130 161 " clip-rule="nonzero"></path></clipPath><clipPath id="9e3175e051"><path d="M 213.152344 156.75 L 224.757812 182.308594 L 137.203125 222.058594 L 125.597656 196.5 Z M 213.152344 156.75 " clip-rule="nonzero"></path></clipPath><clipPath id="df176f6a32"><path d="M 218.957031 169.527344 C 222.160156 176.585938 219.035156 184.90625 211.980469 188.109375 L 149.996094 216.25 C 142.941406 219.453125 134.621094 216.332031 131.417969 209.273438 C 128.210938 202.214844 131.335938 193.894531 138.394531 190.691406 L 200.375 162.550781 C 207.433594 159.347656 215.75 162.472656 218.957031 169.527344 Z M 218.957031 169.527344 " clip-rule="nonzero"></path></clipPath><clipPath id="93536808f4"><path d="M 0 0 L 91 0 L 91 57 L 0 57 Z M 0 0 " clip-rule="nonzero"></path></clipPath><clipPath id="e49f4352fe"><path d="M 83.152344 -4.25 L 94.757812 21.308594 L 7.203125 61.058594 L -4.402344 35.5 Z M 83.152344 -4.25 " clip-rule="nonzero"></path></clipPath><clipPath id="3a95fc4f65"><path d="M 88.957031 8.527344 C 92.160156 15.585938 89.035156 23.90625 81.980469 27.109375 L 19.996094 55.25 C 12.941406 58.453125 4.621094 55.332031 1.417969 48.273438 C -1.789062 41.214844 1.335938 32.894531 8.394531 29.691406 L 70.375 1.550781 C 77.433594 -1.652344 85.75 1.472656 88.957031 8.527344 Z M 88.957031 8.527344 " clip-rule="nonzero"></path></clipPath><clipPath id="7071e23220"><rect x="0" width="91" y="0" height="57"></rect></clipPath><clipPath id="a314d55e10"><path d="M 123 191 L 273 191 L 273 289 L 123 289 Z M 123 191 " clip-rule="nonzero"></path></clipPath><clipPath id="3dfb835694"><path d="M 259.316406 182.984375 L 281.234375 231.257812 L 136.605469 296.921875 L 114.691406 248.648438 Z M 259.316406 182.984375 " clip-rule="nonzero"></path></clipPath><clipPath id="0dc9cb8bd5"><path d="M 270.277344 207.121094 C 273.183594 213.523438 273.425781 220.816406 270.957031 227.398438 C 268.484375 233.980469 263.5 239.308594 257.097656 242.214844 L 160.894531 285.894531 C 154.492188 288.800781 147.199219 289.042969 140.617188 286.574219 C 134.035156 284.101562 128.707031 279.117188 125.800781 272.714844 C 122.894531 266.316406 122.648438 259.023438 125.121094 252.441406 C 127.589844 245.859375 132.574219 240.527344 138.976562 237.621094 L 235.183594 193.945312 C 241.582031 191.035156 248.875 190.792969 255.457031 193.265625 C 262.039062 195.734375 267.371094 200.71875 270.277344 207.121094 Z M 270.277344 207.121094 " clip-rule="nonzero"></path></clipPath><clipPath id="41c4c171ba"><path d="M 0 0 L 150 0 L 150 98 L 0 98 Z M 0 0 " clip-rule="nonzero"></path></clipPath><clipPath id="5b528f90aa"><path d="M 136.316406 -8.015625 L 158.234375 40.257812 L 13.605469 105.921875 L -8.308594 57.648438 Z M 136.316406 -8.015625 " clip-rule="nonzero"></path></clipPath><clipPath id="0f340adf0a"><path d="M 147.277344 16.121094 C 150.183594 22.523438 150.425781 29.816406 147.957031 36.398438 C 145.484375 42.980469 140.5 48.308594 134.097656 51.214844 L 37.894531 94.894531 C 31.492188 97.800781 24.199219 98.042969 17.617188 95.574219 C 11.035156 93.101562 5.707031 88.117188 2.800781 81.714844 C -0.105469 75.316406 -0.351562 68.023438 2.121094 61.441406 C 4.589844 54.859375 9.574219 49.527344 15.976562 46.621094 L 112.183594 2.945312 C 118.582031 0.0351562 125.875 -0.207031 132.457031 2.265625 C 139.039062 4.734375 144.371094 9.71875 147.277344 16.121094 Z M 147.277344 16.121094 " clip-rule="nonzero"></path></clipPath><clipPath id="add2f34206"><rect x="0" width="150" y="0" height="98"></rect></clipPath></defs><g mask="url(#1931b9ec93)"><g transform="matrix(1, 0, 0, 1, 140, 177)"><g clip-path="url(#ec7466f863)"><g clip-path="url(#b2785d204c)"><g clip-path="url(#bd819a8ef9)"><g clip-path="url(#a43c368d0b)"><g transform="matrix(1, 0, 0, 1, 3, 3)"><g clip-path="url(#e21b535578)"><g clip-path="url(#c98d4d6c52)"><g clip-path="url(#8c6b6cfd1f)"><g clip-path="url(#f158605745)"><path fill="#bad4f9" d="M 62.566406 -2.6875 L 71.199219 16.324219 L 6.078125 45.890625 L -2.554688 26.878906 Z M 62.566406 -2.6875 " fill-opacity="1" fill-rule="nonzero"></path></g></g></g></g></g></g></g></g></g></g></g><g clip-path="url(#7b93e9a5f8)"><g clip-path="url(#455e9b1679)"><g clip-path="url(#9959a0a6d3)"><g transform="matrix(1, 0, 0, 1, 136, 171)"><g clip-path="url(#0f8cbc3038)"><g clip-path="url(#35a53e3206)"><g clip-path="url(#b3b9e8e368)"><g clip-path="url(#df7ba93ca8)"><path fill="#bad4f9" d="M 72.695312 -3.292969 L 82.785156 18.929688 L 6.648438 53.496094 L -3.441406 31.273438 Z M 72.695312 -3.292969 " fill-opacity="1" fill-rule="nonzero"></path></g></g></g></g></g></g></g></g><g clip-path="url(#3f8f6ad075)"><g clip-path="url(#72f1092068)"><g clip-path="url(#92f39b4000)"><g transform="matrix(1, 0, 0, 1, 102, 86)"><g clip-path="url(#112de41482)"><g clip-path="url(#e37d3670c4)"><g clip-path="url(#db0d54400c)"><g clip-path="url(#1edb99763e)"><path fill="#2f80ed" d="M 136.226562 -7.847656 L 158.230469 40.613281 L 13.785156 106.195312 L -8.21875 57.730469 Z M 136.226562 -7.847656 " fill-opacity="1" fill-rule="nonzero"></path></g></g></g></g></g></g></g></g><g clip-path="url(#ab0687dd36)"><g clip-path="url(#9e3175e051)"><g clip-path="url(#df176f6a32)"><g transform="matrix(1, 0, 0, 1, 130, 161)"><g clip-path="url(#7071e23220)"><g clip-path="url(#93536808f4)"><g clip-path="url(#e49f4352fe)"><g clip-path="url(#3a95fc4f65)"><path fill="#2f80ed" d="M 83.152344 -4.25 L 94.757812 21.308594 L 7.203125 61.058594 L -4.402344 35.5 Z M 83.152344 -4.25 " fill-opacity="1" fill-rule="nonzero"></path></g></g></g></g></g></g></g></g><g clip-path="url(#a314d55e10)"><g clip-path="url(#3dfb835694)"><g clip-path="url(#0dc9cb8bd5)"><g transform="matrix(1, 0, 0, 1, 123, 191)"><g clip-path="url(#add2f34206)"><g clip-path="url(#41c4c171ba)"><g clip-path="url(#5b528f90aa)"><g clip-path="url(#0f340adf0a)"><path fill="#2f80ed" d="M 136.316406 -8.015625 L 158.234375 40.257812 L 13.796875 105.835938 L -8.121094 57.5625 Z M 136.316406 -8.015625 " fill-opacity="1" fill-rule="nonzero"></path></g></g></g></g></g></g></g></g></svg>