<svg xmlns="http://www.w3.org/2000/svg" xmlns:xlink="http://www.w3.org/1999/xlink" width="416" zoomAndPan="magnify" viewBox="0 0 312 122.249994" height="163" preserveAspectRatio="xMidYMid meet" version="1.0"><defs><filter x="0%" y="0%" width="100%" height="100%" id="f29a33a185"><feColorMatrix values="0 0 0 0 1 0 0 0 0 1 0 0 0 0 1 0 0 0 1 0" color-interpolation-filters="sRGB"/></filter><g/><mask id="264643ddf9"><g filter="url(#f29a33a185)"><rect x="-31.2" width="374.4" fill="#000000" y="-12.224999" height="146.699993" fill-opacity="0.5"/></g></mask><clipPath id="a331402358"><path d="M 2 2 L 38 2 L 38 24 L 2 24 Z M 2 2 " clip-rule="nonzero"/></clipPath><clipPath id="e07a9bc785"><path d="M 34.734375 0.464844 L 39.214844 10.332031 L 5.417969 25.675781 L 0.9375 15.808594 Z M 34.734375 0.464844 " clip-rule="nonzero"/></clipPath><clipPath id="4c9965a443"><path d="M 36.972656 5.398438 C 37.566406 6.707031 37.617188 8.195312 37.113281 9.542969 C 36.609375 10.886719 35.589844 11.976562 34.28125 12.570312 L 10.355469 23.433594 C 9.046875 24.027344 7.558594 24.074219 6.210938 23.570312 C 4.867188 23.066406 3.777344 22.046875 3.183594 20.738281 C 2.589844 19.429688 2.539062 17.941406 3.046875 16.59375 C 3.550781 15.25 4.570312 14.160156 5.878906 13.566406 L 29.800781 2.703125 C 31.109375 2.109375 32.601562 2.058594 33.945312 2.566406 C 35.289062 3.070312 36.378906 4.089844 36.972656 5.398438 Z M 36.972656 5.398438 " clip-rule="nonzero"/></clipPath><clipPath id="26f427aaba"><path d="M 0.417969 0 L 35.722656 0 L 35.722656 22 L 0.417969 22 Z M 0.417969 0 " clip-rule="nonzero"/></clipPath><clipPath id="f84fb1592c"><path d="M 32.734375 -1.535156 L 37.214844 8.332031 L 3.417969 23.675781 L -1.0625 13.808594 Z M 32.734375 -1.535156 " clip-rule="nonzero"/></clipPath><clipPath id="3ff005ed1d"><path d="M 34.972656 3.398438 C 35.566406 4.707031 35.617188 6.195312 35.113281 7.542969 C 34.609375 8.886719 33.589844 9.976562 32.28125 10.570312 L 8.355469 21.433594 C 7.046875 22.027344 5.558594 22.074219 4.210938 21.570312 C 2.867188 21.066406 1.777344 20.046875 1.183594 18.738281 C 0.589844 17.429688 0.539062 15.941406 1.046875 14.59375 C 1.550781 13.25 2.570312 12.160156 3.878906 11.566406 L 27.800781 0.703125 C 29.109375 0.109375 30.601562 0.0585938 31.945312 0.566406 C 33.289062 1.070312 34.378906 2.089844 34.972656 3.398438 Z M 34.972656 3.398438 " clip-rule="nonzero"/></clipPath><clipPath id="433dfc112b"><rect x="0" width="36" y="0" height="22"/></clipPath><clipPath id="27b75e73c2"><rect x="0" width="40" y="0" height="26"/></clipPath><clipPath id="adb9249384"><path d="M 18 48 L 60 48 L 60 74 L 18 74 Z M 18 48 " clip-rule="nonzero"/></clipPath><clipPath id="a7577f7a06"><path d="M 56.355469 46.480469 L 61.59375 58.015625 L 22.082031 75.953125 L 16.84375 64.417969 Z M 56.355469 46.480469 " clip-rule="nonzero"/></clipPath><clipPath id="a98b8850a8"><path d="M 58.976562 52.246094 C 59.667969 53.777344 59.726562 55.519531 59.136719 57.089844 C 58.546875 58.664062 57.355469 59.9375 55.828125 60.632812 L 27.855469 73.332031 C 26.324219 74.027344 24.582031 74.085938 23.011719 73.496094 C 21.4375 72.902344 20.164062 71.710938 19.46875 70.183594 C 18.773438 68.652344 18.714844 66.910156 19.308594 65.339844 C 19.898438 63.765625 21.089844 62.492188 22.617188 61.796875 L 50.589844 49.097656 C 52.121094 48.402344 53.863281 48.34375 55.433594 48.9375 C 57.007812 49.527344 58.28125 50.71875 58.976562 52.246094 Z M 58.976562 52.246094 " clip-rule="nonzero"/></clipPath><clipPath id="ce948dd555"><path d="M 0.601562 0.183594 L 41.871094 0.183594 L 41.871094 26 L 0.601562 26 Z M 0.601562 0.183594 " clip-rule="nonzero"/></clipPath><clipPath id="8c467edf63"><path d="M 38.355469 -1.519531 L 43.59375 10.015625 L 4.082031 27.953125 L -1.15625 16.417969 Z M 38.355469 -1.519531 " clip-rule="nonzero"/></clipPath><clipPath id="4aff72568d"><path d="M 40.976562 4.246094 C 41.667969 5.777344 41.726562 7.519531 41.136719 9.089844 C 40.546875 10.664062 39.355469 11.9375 37.828125 12.632812 L 9.855469 25.332031 C 8.324219 26.027344 6.582031 26.085938 5.011719 25.496094 C 3.4375 24.902344 2.164062 23.710938 1.46875 22.183594 C 0.773438 20.652344 0.714844 18.910156 1.308594 17.339844 C 1.898438 15.765625 3.089844 14.492188 4.617188 13.796875 L 32.589844 1.097656 C 34.121094 0.402344 35.863281 0.34375 37.433594 0.9375 C 39.007812 1.527344 40.28125 2.71875 40.976562 4.246094 Z M 40.976562 4.246094 " clip-rule="nonzero"/></clipPath><clipPath id="6577cab108"><rect x="0" width="42" y="0" height="26"/></clipPath><clipPath id="d3bcbc26c0"><path d="M 1 4 L 79 4 L 79 55 L 1 55 Z M 1 4 " clip-rule="nonzero"/></clipPath><clipPath id="2251287e5b"><path d="M 71.679688 0 L 83.097656 25.152344 L 8.035156 59.230469 L -3.382812 34.078125 Z M 71.679688 0 " clip-rule="nonzero"/></clipPath><clipPath id="fcf1688e80"><path d="M 77.386719 12.574219 C 78.902344 15.910156 79.03125 19.710938 77.742188 23.140625 C 76.453125 26.570312 73.859375 29.347656 70.523438 30.859375 L 20.695312 53.484375 C 17.359375 55 13.558594 55.125 10.128906 53.839844 C 6.699219 52.550781 3.921875 49.953125 2.410156 46.617188 C 0.894531 43.28125 0.765625 39.480469 2.054688 36.054688 C 3.34375 32.625 5.9375 29.847656 9.273438 28.332031 L 59.101562 5.710938 C 62.4375 4.195312 66.238281 4.066406 69.667969 5.355469 C 73.097656 6.644531 75.875 9.238281 77.386719 12.574219 Z M 77.386719 12.574219 " clip-rule="nonzero"/></clipPath><clipPath id="737e098ffb"><path d="M 0 0.0546875 L 78 0.0546875 L 78 51 L 0 51 Z M 0 0.0546875 " clip-rule="nonzero"/></clipPath><clipPath id="4a647a6cf9"><path d="M 70.679688 -4 L 82.097656 21.152344 L 7.035156 55.230469 L -4.382812 30.078125 Z M 70.679688 -4 " clip-rule="nonzero"/></clipPath><clipPath id="8f67c05639"><path d="M 76.386719 8.574219 C 77.902344 11.910156 78.03125 15.710938 76.742188 19.140625 C 75.453125 22.570312 72.859375 25.347656 69.523438 26.859375 L 19.695312 49.484375 C 16.359375 51 12.558594 51.125 9.128906 49.839844 C 5.699219 48.550781 2.921875 45.953125 1.410156 42.617188 C -0.105469 39.28125 -0.234375 35.480469 1.054688 32.054688 C 2.34375 28.625 4.9375 25.847656 8.273438 24.332031 L 58.101562 1.710938 C 61.4375 0.195312 65.238281 0.0664062 68.667969 1.355469 C 72.097656 2.644531 74.875 5.238281 76.386719 8.574219 Z M 76.386719 8.574219 " clip-rule="nonzero"/></clipPath><clipPath id="769d6cae48"><rect x="0" width="78" y="0" height="51"/></clipPath><clipPath id="931e65a7f4"><path d="M 15 43 L 63 43 L 63 73 L 15 73 Z M 15 43 " clip-rule="nonzero"/></clipPath><clipPath id="26fbf8853c"><path d="M 58.664062 40.792969 L 64.6875 54.058594 L 19.25 74.6875 L 13.226562 61.425781 Z M 58.664062 40.792969 " clip-rule="nonzero"/></clipPath><clipPath id="58a957c120"><path d="M 61.675781 47.425781 C 63.339844 51.089844 61.71875 55.40625 58.054688 57.070312 L 25.890625 71.671875 C 22.226562 73.335938 17.910156 71.714844 16.246094 68.050781 C 14.582031 64.390625 16.203125 60.070312 19.867188 58.410156 L 52.035156 43.804688 C 55.695312 42.140625 60.015625 43.761719 61.675781 47.425781 Z M 61.675781 47.425781 " clip-rule="nonzero"/></clipPath><clipPath id="0f5cf7828a"><path d="M 0 0 L 48 0 L 48 30 L 0 30 Z M 0 0 " clip-rule="nonzero"/></clipPath><clipPath id="66bf0e57c2"><path d="M 43.664062 -2.207031 L 49.6875 11.058594 L 4.25 31.6875 L -1.773438 18.425781 Z M 43.664062 -2.207031 " clip-rule="nonzero"/></clipPath><clipPath id="337a931d2a"><path d="M 46.675781 4.425781 C 48.339844 8.089844 46.71875 12.40625 43.054688 14.070312 L 10.890625 28.671875 C 7.226562 30.335938 2.910156 28.714844 1.246094 25.050781 C -0.417969 21.390625 1.203125 17.070312 4.867188 15.410156 L 37.035156 0.804688 C 40.695312 -0.859375 45.015625 0.761719 46.675781 4.425781 Z M 46.675781 4.425781 " clip-rule="nonzero"/></clipPath><clipPath id="6f77d7f3db"><rect x="0" width="48" y="0" height="30"/></clipPath><clipPath id="ceaaebaaa7"><path d="M 12 58 L 90 58 L 90 110 L 12 110 Z M 12 58 " clip-rule="nonzero"/></clipPath><clipPath id="0f1e5a316a"><path d="M 82.625 54.402344 L 94 79.457031 L 18.941406 113.535156 L 7.566406 88.480469 Z M 82.625 54.402344 " clip-rule="nonzero"/></clipPath><clipPath id="59af4fc4e4"><path d="M 88.3125 66.929688 C 89.820312 70.253906 89.949219 74.039062 88.664062 77.453125 C 87.382812 80.867188 84.796875 83.636719 81.472656 85.144531 L 31.546875 107.8125 C 28.222656 109.320312 24.4375 109.445312 21.023438 108.164062 C 17.605469 106.882812 14.839844 104.292969 13.332031 100.972656 C 11.824219 97.652344 11.699219 93.867188 12.980469 90.449219 C 14.261719 87.035156 16.847656 84.269531 20.171875 82.757812 L 70.097656 60.089844 C 73.421875 58.582031 77.207031 58.457031 80.621094 59.738281 C 84.039062 61.019531 86.804688 63.609375 88.3125 66.929688 Z M 88.3125 66.929688 " clip-rule="nonzero"/></clipPath><clipPath id="1827ff2642"><path d="M 0 0.441406 L 78 0.441406 L 78 51.488281 L 0 51.488281 Z M 0 0.441406 " clip-rule="nonzero"/></clipPath><clipPath id="eb53db22b6"><path d="M 70.625 -3.597656 L 82 21.457031 L 6.941406 55.535156 L -4.433594 30.480469 Z M 70.625 -3.597656 " clip-rule="nonzero"/></clipPath><clipPath id="69d4fd0c52"><path d="M 76.3125 8.929688 C 77.820312 12.253906 77.949219 16.039062 76.664062 19.453125 C 75.382812 22.867188 72.796875 25.636719 69.472656 27.144531 L 19.546875 49.8125 C 16.222656 51.320312 12.4375 51.445312 9.023438 50.164062 C 5.605469 48.882812 2.839844 46.292969 1.332031 42.972656 C -0.175781 39.652344 -0.300781 35.867188 0.980469 32.449219 C 2.261719 29.035156 4.847656 26.269531 8.171875 24.757812 L 58.097656 2.089844 C 61.421875 0.582031 65.207031 0.457031 68.621094 1.738281 C 72.039062 3.019531 74.804688 5.609375 76.3125 8.929688 Z M 76.3125 8.929688 " clip-rule="nonzero"/></clipPath><clipPath id="61f2f6cf96"><rect x="0" width="78" y="0" height="52"/></clipPath><clipPath id="6e263144bb"><path d="M 93 14 L 311.046875 14 L 311.046875 99 L 93 99 Z M 93 14 " clip-rule="nonzero"/></clipPath><clipPath id="7541055eba"><rect x="0" width="219" y="0" height="85"/></clipPath></defs><g mask="url(#264643ddf9)"><g transform="matrix(1, 0, 0, 1, 20, 51)"><g clip-path="url(#27b75e73c2)"><g clip-path="url(#a331402358)"><g clip-path="url(#e07a9bc785)"><g clip-path="url(#4c9965a443)"><g transform="matrix(1, 0, 0, 1, 2, 2)"><g clip-path="url(#433dfc112b)"><g clip-path="url(#26f427aaba)"><g clip-path="url(#f84fb1592c)"><g clip-path="url(#3ff005ed1d)"><path fill="#545454" d="M 32.734375 -1.535156 L 37.214844 8.332031 L 3.417969 23.675781 L -1.0625 13.808594 Z M 32.734375 -1.535156 " fill-opacity="1" fill-rule="nonzero"/></g></g></g></g></g></g></g></g></g></g></g><g clip-path="url(#adb9249384)"><g clip-path="url(#a7577f7a06)"><g clip-path="url(#a98b8850a8)"><g transform="matrix(1, 0, 0, 1, 18, 48)"><g clip-path="url(#6577cab108)"><g clip-path="url(#ce948dd555)"><g clip-path="url(#8c467edf63)"><g clip-path="url(#4aff72568d)"><path fill="#606060" d="M 38.355469 -1.519531 L 43.59375 10.015625 L 4.082031 27.953125 L -1.15625 16.417969 Z M 38.355469 -1.519531 " fill-opacity="1" fill-rule="nonzero"/></g></g></g></g></g></g></g></g><g clip-path="url(#d3bcbc26c0)"><g clip-path="url(#2251287e5b)"><g clip-path="url(#fcf1688e80)"><g transform="matrix(1, 0, 0, 1, 1, 4)"><g clip-path="url(#769d6cae48)"><g clip-path="url(#737e098ffb)"><g clip-path="url(#4a647a6cf9)"><g clip-path="url(#8f67c05639)"><path fill="#000000" d="M 70.679688 -4 L 82.097656 21.152344 L 7.132812 55.1875 L -4.285156 30.035156 Z M 70.679688 -4 " fill-opacity="1" fill-rule="nonzero"/></g></g></g></g></g></g></g></g><g clip-path="url(#931e65a7f4)"><g clip-path="url(#26fbf8853c)"><g clip-path="url(#58a957c120)"><g transform="matrix(1, 0, 0, 1, 15, 43)"><g clip-path="url(#6f77d7f3db)"><g clip-path="url(#0f5cf7828a)"><g clip-path="url(#66bf0e57c2)"><g clip-path="url(#337a931d2a)"><path fill="#000000" d="M 43.664062 -2.207031 L 49.6875 11.058594 L 4.25 31.6875 L -1.773438 18.425781 Z M 43.664062 -2.207031 " fill-opacity="1" fill-rule="nonzero"/></g></g></g></g></g></g></g></g><g clip-path="url(#ceaaebaaa7)"><g clip-path="url(#0f1e5a316a)"><g clip-path="url(#59af4fc4e4)"><g transform="matrix(1, 0, 0, 1, 12, 58)"><g clip-path="url(#61f2f6cf96)"><g clip-path="url(#1827ff2642)"><g clip-path="url(#eb53db22b6)"><g clip-path="url(#69d4fd0c52)"><path fill="#000000" d="M 70.625 -3.597656 L 82 21.457031 L 7.039062 55.488281 L -4.335938 30.4375 Z M 70.625 -3.597656 " fill-opacity="1" fill-rule="nonzero"/></g></g></g></g></g></g></g></g><g clip-path="url(#6e263144bb)"><g transform="matrix(1, 0, 0, 1, 93, 14)"><g clip-path="url(#7541055eba)"><g fill="#000000" fill-opacity="1"><g transform="translate(0.445625, 69.007941)"><g><path d="M 8.03125 0 L 8.03125 -27.640625 L 1.921875 -27.640625 L 1.921875 -36.28125 L 8.03125 -36.28125 L 8.03125 -36.8125 C 8.03125 -39.6875 8.59375 -42.117188 9.71875 -44.109375 C 10.851562 -46.109375 12.484375 -47.640625 14.609375 -48.703125 C 16.742188 -49.765625 19.316406 -50.296875 22.328125 -50.296875 C 22.898438 -50.296875 23.519531 -50.257812 24.1875 -50.1875 C 24.851562 -50.125 25.40625 -50.050781 25.84375 -49.96875 L 25.84375 -41.453125 C 25.40625 -41.546875 25.019531 -41.601562 24.6875 -41.625 C 24.351562 -41.644531 24.007812 -41.65625 23.65625 -41.65625 C 21.789062 -41.65625 20.378906 -41.242188 19.421875 -40.421875 C 18.472656 -39.609375 18 -38.40625 18 -36.8125 L 18 -36.28125 L 25.78125 -36.28125 L 25.78125 -27.640625 L 18 -27.640625 L 18 0 Z M 8.03125 0 "/></g></g></g><g fill="#000000" fill-opacity="1"><g transform="translate(29.011261, 69.007941)"><g><path d="M 8.03125 0 L 8.03125 -27.640625 L 1.921875 -27.640625 L 1.921875 -36.28125 L 8.03125 -36.28125 L 8.03125 -36.8125 C 8.03125 -39.6875 8.59375 -42.117188 9.71875 -44.109375 C 10.851562 -46.109375 12.484375 -47.640625 14.609375 -48.703125 C 16.742188 -49.765625 19.316406 -50.296875 22.328125 -50.296875 C 22.898438 -50.296875 23.519531 -50.257812 24.1875 -50.1875 C 24.851562 -50.125 25.40625 -50.050781 25.84375 -49.96875 L 25.84375 -41.453125 C 25.40625 -41.546875 25.019531 -41.601562 24.6875 -41.625 C 24.351562 -41.644531 24.007812 -41.65625 23.65625 -41.65625 C 21.789062 -41.65625 20.378906 -41.242188 19.421875 -40.421875 C 18.472656 -39.609375 18 -38.40625 18 -36.8125 L 18 -36.28125 L 25.78125 -36.28125 L 25.78125 -27.640625 L 18 -27.640625 L 18 0 Z M 8.03125 0 "/></g></g></g><g fill="#000000" fill-opacity="1"><g transform="translate(58.241325, 69.007941)"><g><path d="M 14.875 0.796875 C 12.269531 0.796875 10.015625 0.371094 8.109375 -0.46875 C 6.203125 -1.3125 4.738281 -2.515625 3.71875 -4.078125 C 2.695312 -5.648438 2.1875 -7.523438 2.1875 -9.703125 C 2.1875 -11.734375 2.648438 -13.535156 3.578125 -15.109375 C 4.515625 -16.679688 5.945312 -18 7.875 -19.0625 C 9.800781 -20.125 12.203125 -20.878906 15.078125 -21.328125 L 26.171875 -23.125 L 26.171875 -15.8125 L 16.875 -14.15625 C 15.457031 -13.882812 14.367188 -13.425781 13.609375 -12.78125 C 12.859375 -12.144531 12.484375 -11.226562 12.484375 -10.03125 C 12.484375 -8.925781 12.90625 -8.0625 13.75 -7.4375 C 14.59375 -6.820312 15.632812 -6.515625 16.875 -6.515625 C 18.507812 -6.515625 19.945312 -6.867188 21.1875 -7.578125 C 22.425781 -8.285156 23.390625 -9.25 24.078125 -10.46875 C 24.765625 -11.6875 25.109375 -13.023438 25.109375 -14.484375 L 25.109375 -23.921875 C 25.109375 -25.296875 24.566406 -26.445312 23.484375 -27.375 C 22.398438 -28.300781 20.925781 -28.765625 19.0625 -28.765625 C 17.289062 -28.765625 15.726562 -28.273438 14.375 -27.296875 C 13.03125 -26.328125 12.046875 -25.046875 11.421875 -23.453125 L 3.453125 -27.234375 C 4.160156 -29.273438 5.289062 -31.023438 6.84375 -32.484375 C 8.394531 -33.953125 10.253906 -35.082031 12.421875 -35.875 C 14.585938 -36.675781 16.957031 -37.078125 19.53125 -37.078125 C 22.582031 -37.078125 25.28125 -36.519531 27.625 -35.40625 C 29.976562 -34.300781 31.804688 -32.765625 33.109375 -30.796875 C 34.421875 -28.828125 35.078125 -26.535156 35.078125 -23.921875 L 35.078125 0 L 25.78125 0 L 25.78125 -5.84375 L 28.03125 -6.25 C 26.96875 -4.65625 25.796875 -3.335938 24.515625 -2.296875 C 23.234375 -1.253906 21.796875 -0.476562 20.203125 0.03125 C 18.609375 0.539062 16.832031 0.796875 14.875 0.796875 Z M 14.875 0.796875 "/></g></g></g><g fill="#000000" fill-opacity="1"><g transform="translate(98.299463, 69.007941)"><g><path d="M 21.125 0.40625 C 16.738281 0.40625 13.335938 -0.773438 10.921875 -3.140625 C 8.515625 -5.515625 7.3125 -8.832031 7.3125 -13.09375 L 7.3125 -27.640625 L 1.203125 -27.640625 L 1.203125 -36.28125 L 1.53125 -36.28125 C 3.382812 -36.28125 4.8125 -36.742188 5.8125 -37.671875 C 6.8125 -38.597656 7.3125 -39.992188 7.3125 -41.859375 L 7.3125 -44.515625 L 17.28125 -44.515625 L 17.28125 -36.28125 L 25.78125 -36.28125 L 25.78125 -27.640625 L 17.28125 -27.640625 L 17.28125 -13.75 C 17.28125 -12.507812 17.5 -11.476562 17.9375 -10.65625 C 18.382812 -9.84375 19.070312 -9.234375 20 -8.828125 C 20.925781 -8.429688 22.078125 -8.234375 23.453125 -8.234375 C 23.765625 -8.234375 24.117188 -8.253906 24.515625 -8.296875 C 24.910156 -8.347656 25.332031 -8.394531 25.78125 -8.4375 L 25.78125 0 C 25.113281 0.09375 24.359375 0.179688 23.515625 0.265625 C 22.671875 0.359375 21.875 0.40625 21.125 0.40625 Z M 21.125 0.40625 "/></g></g></g><g fill="#000000" fill-opacity="1"><g transform="translate(128.260268, 69.007941)"><g><path d="M 21.125 0.40625 C 16.738281 0.40625 13.335938 -0.773438 10.921875 -3.140625 C 8.515625 -5.515625 7.3125 -8.832031 7.3125 -13.09375 L 7.3125 -27.640625 L 1.203125 -27.640625 L 1.203125 -36.28125 L 1.53125 -36.28125 C 3.382812 -36.28125 4.8125 -36.742188 5.8125 -37.671875 C 6.8125 -38.597656 7.3125 -39.992188 7.3125 -41.859375 L 7.3125 -44.515625 L 17.28125 -44.515625 L 17.28125 -36.28125 L 25.78125 -36.28125 L 25.78125 -27.640625 L 17.28125 -27.640625 L 17.28125 -13.75 C 17.28125 -12.507812 17.5 -11.476562 17.9375 -10.65625 C 18.382812 -9.84375 19.070312 -9.234375 20 -8.828125 C 20.925781 -8.429688 22.078125 -8.234375 23.453125 -8.234375 C 23.765625 -8.234375 24.117188 -8.253906 24.515625 -8.296875 C 24.910156 -8.347656 25.332031 -8.394531 25.78125 -8.4375 L 25.78125 0 C 25.113281 0.09375 24.359375 0.179688 23.515625 0.265625 C 22.671875 0.359375 21.875 0.40625 21.125 0.40625 Z M 21.125 0.40625 "/></g></g></g><g fill="#000000" fill-opacity="1"><g transform="translate(158.221073, 69.007941)"><g><path d="M 14.875 0.796875 C 12.269531 0.796875 10.015625 0.371094 8.109375 -0.46875 C 6.203125 -1.3125 4.738281 -2.515625 3.71875 -4.078125 C 2.695312 -5.648438 2.1875 -7.523438 2.1875 -9.703125 C 2.1875 -11.734375 2.648438 -13.535156 3.578125 -15.109375 C 4.515625 -16.679688 5.945312 -18 7.875 -19.0625 C 9.800781 -20.125 12.203125 -20.878906 15.078125 -21.328125 L 26.171875 -23.125 L 26.171875 -15.8125 L 16.875 -14.15625 C 15.457031 -13.882812 14.367188 -13.425781 13.609375 -12.78125 C 12.859375 -12.144531 12.484375 -11.226562 12.484375 -10.03125 C 12.484375 -8.925781 12.90625 -8.0625 13.75 -7.4375 C 14.59375 -6.820312 15.632812 -6.515625 16.875 -6.515625 C 18.507812 -6.515625 19.945312 -6.867188 21.1875 -7.578125 C 22.425781 -8.285156 23.390625 -9.25 24.078125 -10.46875 C 24.765625 -11.6875 25.109375 -13.023438 25.109375 -14.484375 L 25.109375 -23.921875 C 25.109375 -25.296875 24.566406 -26.445312 23.484375 -27.375 C 22.398438 -28.300781 20.925781 -28.765625 19.0625 -28.765625 C 17.289062 -28.765625 15.726562 -28.273438 14.375 -27.296875 C 13.03125 -26.328125 12.046875 -25.046875 11.421875 -23.453125 L 3.453125 -27.234375 C 4.160156 -29.273438 5.289062 -31.023438 6.84375 -32.484375 C 8.394531 -33.953125 10.253906 -35.082031 12.421875 -35.875 C 14.585938 -36.675781 16.957031 -37.078125 19.53125 -37.078125 C 22.582031 -37.078125 25.28125 -36.519531 27.625 -35.40625 C 29.976562 -34.300781 31.804688 -32.765625 33.109375 -30.796875 C 34.421875 -28.828125 35.078125 -26.535156 35.078125 -23.921875 L 35.078125 0 L 25.78125 0 L 25.78125 -5.84375 L 28.03125 -6.25 C 26.96875 -4.65625 25.796875 -3.335938 24.515625 -2.296875 C 23.234375 -1.253906 21.796875 -0.476562 20.203125 0.03125 C 18.609375 0.539062 16.832031 0.796875 14.875 0.796875 Z M 14.875 0.796875 "/></g></g></g><g fill="#000000" fill-opacity="1"><g transform="translate(198.943639, 69.007941)"><g><path d="M 8.578125 0 L 8.578125 -9.96875 L 18.53125 -9.96875 L 18.53125 0 Z M 8.578125 0 "/></g></g></g></g></g></g></svg>