<svg xmlns="http://www.w3.org/2000/svg" xmlns:xlink="http://www.w3.org/1999/xlink" width="416" zoomAndPan="magnify" viewBox="0 0 312 122.249994" height="163" preserveAspectRatio="xMidYMid meet" version="1.0"><defs><filter x="0%" y="0%" width="100%" height="100%" id="d8a2d90f02"><feColorMatrix values="0 0 0 0 1 0 0 0 0 1 0 0 0 0 1 0 0 0 1 0" color-interpolation-filters="sRGB"/></filter><g/><mask id="063bc67567"><g filter="url(#d8a2d90f02)"><rect x="-31.2" width="374.4" fill="#000000" y="-12.224999" height="146.699993" fill-opacity="0.5"/></g></mask><clipPath id="366859ca2d"><path d="M 2 2 L 38 2 L 38 24 L 2 24 Z M 2 2 " clip-rule="nonzero"/></clipPath><clipPath id="c9d26bae41"><path d="M 34.777344 0.464844 L 39.253906 10.332031 L 5.453125 25.679688 L 0.972656 15.8125 Z M 34.777344 0.464844 " clip-rule="nonzero"/></clipPath><clipPath id="764231abd3"><path d="M 37.015625 5.398438 C 37.609375 6.707031 37.660156 8.199219 37.15625 9.542969 C 36.648438 10.886719 35.628906 11.976562 34.320312 12.570312 L 10.394531 23.433594 C 9.085938 24.03125 7.59375 24.078125 6.25 23.574219 C 4.902344 23.070312 3.816406 22.050781 3.21875 20.742188 C 2.625 19.433594 2.578125 17.941406 3.082031 16.597656 C 3.585938 15.253906 4.605469 14.164062 5.914062 13.570312 L 29.84375 2.703125 C 31.152344 2.109375 32.640625 2.0625 33.988281 2.566406 C 35.332031 3.070312 36.421875 4.089844 37.015625 5.398438 Z M 37.015625 5.398438 " clip-rule="nonzero"/></clipPath><clipPath id="916829b2ef"><path d="M 0.417969 0.0117188 L 35.722656 0.0117188 L 35.722656 22 L 0.417969 22 Z M 0.417969 0.0117188 " clip-rule="nonzero"/></clipPath><clipPath id="d301b8b3c4"><path d="M 32.777344 -1.535156 L 37.253906 8.332031 L 3.453125 23.679688 L -1.027344 13.8125 Z M 32.777344 -1.535156 " clip-rule="nonzero"/></clipPath><clipPath id="d800bdf9e3"><path d="M 35.015625 3.398438 C 35.609375 4.707031 35.660156 6.199219 35.15625 7.542969 C 34.648438 8.886719 33.628906 9.976562 32.320312 10.570312 L 8.394531 21.433594 C 7.085938 22.03125 5.59375 22.078125 4.25 21.574219 C 2.902344 21.070312 1.816406 20.050781 1.21875 18.742188 C 0.625 17.433594 0.578125 15.941406 1.082031 14.597656 C 1.585938 13.253906 2.605469 12.164062 3.914062 11.570312 L 27.84375 0.703125 C 29.152344 0.109375 30.640625 0.0625 31.988281 0.566406 C 33.332031 1.070312 34.421875 2.089844 35.015625 3.398438 Z M 35.015625 3.398438 " clip-rule="nonzero"/></clipPath><clipPath id="170fe34183"><rect x="0" width="36" y="0" height="22"/></clipPath><clipPath id="51e2bc581f"><rect x="0" width="40" y="0" height="26"/></clipPath><clipPath id="b69fc86d83"><path d="M 18 52 L 60 52 L 60 78 L 18 78 Z M 18 52 " clip-rule="nonzero"/></clipPath><clipPath id="c1303d6e87"><path d="M 56.398438 50.480469 L 61.636719 62.015625 L 22.117188 79.957031 L 16.878906 68.421875 Z M 56.398438 50.480469 " clip-rule="nonzero"/></clipPath><clipPath id="fe1ff19a82"><path d="M 59.015625 56.246094 C 59.710938 57.777344 59.769531 59.519531 59.179688 61.09375 C 58.589844 62.664062 57.398438 63.9375 55.867188 64.632812 L 27.890625 77.335938 C 26.363281 78.03125 24.617188 78.089844 23.046875 77.496094 C 21.472656 76.90625 20.199219 75.714844 19.503906 74.1875 C 18.808594 72.65625 18.75 70.914062 19.34375 69.339844 C 19.933594 67.769531 21.125 66.492188 22.652344 65.800781 L 50.628906 53.097656 C 52.160156 52.402344 53.902344 52.34375 55.476562 52.933594 C 57.046875 53.527344 58.320312 54.71875 59.015625 56.246094 Z M 59.015625 56.246094 " clip-rule="nonzero"/></clipPath><clipPath id="4b5e4afa76"><path d="M 0.601562 0.238281 L 41.871094 0.238281 L 41.871094 26 L 0.601562 26 Z M 0.601562 0.238281 " clip-rule="nonzero"/></clipPath><clipPath id="be1907c139"><path d="M 38.398438 -1.519531 L 43.636719 10.015625 L 4.117188 27.957031 L -1.121094 16.421875 Z M 38.398438 -1.519531 " clip-rule="nonzero"/></clipPath><clipPath id="7d31e7529f"><path d="M 41.015625 4.246094 C 41.710938 5.777344 41.769531 7.519531 41.179688 9.09375 C 40.589844 10.664062 39.398438 11.9375 37.867188 12.632812 L 9.890625 25.335938 C 8.363281 26.03125 6.617188 26.089844 5.046875 25.496094 C 3.472656 24.90625 2.199219 23.714844 1.503906 22.1875 C 0.808594 20.65625 0.75 18.914062 1.34375 17.339844 C 1.933594 15.769531 3.125 14.492188 4.652344 13.800781 L 32.628906 1.097656 C 34.160156 0.402344 35.902344 0.34375 37.476562 0.933594 C 39.046875 1.527344 40.320312 2.71875 41.015625 4.246094 Z M 41.015625 4.246094 " clip-rule="nonzero"/></clipPath><clipPath id="532fa7cef3"><rect x="0" width="42" y="0" height="26"/></clipPath><clipPath id="b7ed251175"><path d="M 1 8 L 79 8 L 79 59 L 1 59 Z M 1 8 " clip-rule="nonzero"/></clipPath><clipPath id="166f5468e7"><path d="M 71.730469 3.996094 L 83.152344 29.152344 L 8.078125 63.238281 L -3.34375 38.082031 Z M 71.730469 3.996094 " clip-rule="nonzero"/></clipPath><clipPath id="25f8dfe84f"><path d="M 77.441406 16.574219 C 78.953125 19.910156 79.082031 23.710938 77.792969 27.140625 C 76.507812 30.570312 73.910156 33.347656 70.574219 34.863281 L 20.738281 57.492188 C 17.402344 59.003906 13.601562 59.132812 10.171875 57.84375 C 6.742188 56.558594 3.964844 53.960938 2.449219 50.625 C 0.933594 47.289062 0.808594 43.488281 2.09375 40.058594 C 3.382812 36.628906 5.980469 33.851562 9.316406 32.335938 L 59.152344 9.707031 C 62.488281 8.195312 66.289062 8.066406 69.71875 9.355469 C 73.148438 10.640625 75.925781 13.238281 77.441406 16.574219 Z M 77.441406 16.574219 " clip-rule="nonzero"/></clipPath><clipPath id="5cd9846357"><path d="M 0 0 L 78 0 L 78 51 L 0 51 Z M 0 0 " clip-rule="nonzero"/></clipPath><clipPath id="3fb010709c"><path d="M 70.730469 -4.003906 L 82.152344 21.152344 L 7.078125 55.238281 L -4.34375 30.082031 Z M 70.730469 -4.003906 " clip-rule="nonzero"/></clipPath><clipPath id="e46d4b2f49"><path d="M 76.441406 8.574219 C 77.953125 11.910156 78.082031 15.710938 76.792969 19.140625 C 75.507812 22.570312 72.910156 25.347656 69.574219 26.863281 L 19.738281 49.492188 C 16.402344 51.003906 12.601562 51.132812 9.171875 49.84375 C 5.742188 48.558594 2.964844 45.960938 1.449219 42.625 C -0.0664062 39.289062 -0.191406 35.488281 1.09375 32.058594 C 2.382812 28.628906 4.980469 25.851562 8.316406 24.335938 L 58.152344 1.707031 C 61.488281 0.195312 65.289062 0.0664062 68.71875 1.355469 C 72.148438 2.640625 74.925781 5.238281 76.441406 8.574219 Z M 76.441406 8.574219 " clip-rule="nonzero"/></clipPath><clipPath id="e68bee417e"><rect x="0" width="78" y="0" height="51"/></clipPath><clipPath id="f1de9717d4"><path d="M 15 47 L 63 47 L 63 77 L 15 77 Z M 15 47 " clip-rule="nonzero"/></clipPath><clipPath id="fae2843cad"><path d="M 58.710938 44.796875 L 64.734375 58.0625 L 19.289062 78.695312 L 13.265625 65.429688 Z M 58.710938 44.796875 " clip-rule="nonzero"/></clipPath><clipPath id="49b56a7cc9"><path d="M 61.722656 51.429688 C 63.386719 55.089844 61.765625 59.410156 58.101562 61.074219 L 25.929688 75.679688 C 22.265625 77.34375 17.949219 75.722656 16.285156 72.058594 C 14.621094 68.394531 16.246094 64.078125 19.90625 62.414062 L 52.078125 47.808594 C 55.742188 46.144531 60.0625 47.765625 61.722656 51.429688 Z M 61.722656 51.429688 " clip-rule="nonzero"/></clipPath><clipPath id="911bcc2706"><path d="M 0 0 L 48 0 L 48 30 L 0 30 Z M 0 0 " clip-rule="nonzero"/></clipPath><clipPath id="9174e00f7e"><path d="M 43.710938 -2.203125 L 49.734375 11.0625 L 4.289062 31.695312 L -1.734375 18.429688 Z M 43.710938 -2.203125 " clip-rule="nonzero"/></clipPath><clipPath id="9e1cc34f79"><path d="M 46.722656 4.429688 C 48.386719 8.089844 46.765625 12.410156 43.101562 14.074219 L 10.929688 28.679688 C 7.265625 30.34375 2.949219 28.722656 1.285156 25.058594 C -0.378906 21.394531 1.246094 17.078125 4.90625 15.414062 L 37.078125 0.808594 C 40.742188 -0.855469 45.0625 0.765625 46.722656 4.429688 Z M 46.722656 4.429688 " clip-rule="nonzero"/></clipPath><clipPath id="42fa587764"><rect x="0" width="48" y="0" height="30"/></clipPath><clipPath id="ba55d7179c"><path d="M 12 62 L 90 62 L 90 114 L 12 114 Z M 12 62 " clip-rule="nonzero"/></clipPath><clipPath id="5aecb416a6"><path d="M 82.679688 58.410156 L 94.054688 83.464844 L 18.984375 117.550781 L 7.609375 92.492188 Z M 82.679688 58.410156 " clip-rule="nonzero"/></clipPath><clipPath id="880324c14a"><path d="M 88.367188 70.9375 C 89.875 74.261719 90 78.046875 88.71875 81.464844 C 87.4375 84.878906 84.847656 87.644531 81.527344 89.15625 L 31.589844 111.824219 C 28.269531 113.335938 24.480469 113.460938 21.066406 112.179688 C 17.648438 110.894531 14.882812 108.308594 13.375 104.984375 C 11.867188 101.664062 11.738281 97.878906 13.023438 94.460938 C 14.304688 91.046875 16.890625 88.277344 20.214844 86.769531 L 70.148438 64.097656 C 73.472656 62.589844 77.257812 62.464844 80.675781 63.746094 C 84.089844 65.027344 86.855469 67.617188 88.367188 70.9375 Z M 88.367188 70.9375 " clip-rule="nonzero"/></clipPath><clipPath id="a097ac7c79"><path d="M 0 0.257812 L 78 0.257812 L 78 51.542969 L 0 51.542969 Z M 0 0.257812 " clip-rule="nonzero"/></clipPath><clipPath id="5f1370b14e"><path d="M 70.679688 -3.589844 L 82.054688 21.464844 L 6.984375 55.550781 L -4.390625 30.492188 Z M 70.679688 -3.589844 " clip-rule="nonzero"/></clipPath><clipPath id="46e2b9007b"><path d="M 76.367188 8.9375 C 77.875 12.261719 78 16.046875 76.71875 19.464844 C 75.4375 22.878906 72.847656 25.644531 69.527344 27.15625 L 19.589844 49.824219 C 16.269531 51.335938 12.480469 51.460938 9.066406 50.179688 C 5.648438 48.894531 2.882812 46.308594 1.375 42.984375 C -0.132812 39.664062 -0.261719 35.878906 1.023438 32.460938 C 2.304688 29.046875 4.890625 26.277344 8.214844 24.769531 L 58.148438 2.097656 C 61.472656 0.589844 65.257812 0.464844 68.675781 1.746094 C 72.089844 3.027344 74.855469 5.617188 76.367188 8.9375 Z M 76.367188 8.9375 " clip-rule="nonzero"/></clipPath><clipPath id="3d63b1cbe2"><rect x="0" width="78" y="0" height="52"/></clipPath><clipPath id="4e147bf6a7"><path d="M 93 18 L 311.046875 18 L 311.046875 103 L 93 103 Z M 93 18 " clip-rule="nonzero"/></clipPath><clipPath id="f5a4749999"><rect x="0" width="219" y="0" height="85"/></clipPath></defs><g mask="url(#063bc67567)"><g transform="matrix(1, 0, 0, 1, 20, 55)"><g clip-path="url(#51e2bc581f)"><g clip-path="url(#366859ca2d)"><g clip-path="url(#c9d26bae41)"><g clip-path="url(#764231abd3)"><g transform="matrix(1, 0, 0, 1, 2, 2)"><g clip-path="url(#170fe34183)"><g clip-path="url(#916829b2ef)"><g clip-path="url(#d301b8b3c4)"><g clip-path="url(#d800bdf9e3)"><path fill="#bad4f9" d="M 32.777344 -1.535156 L 37.253906 8.332031 L 3.453125 23.679688 L -1.027344 13.8125 Z M 32.777344 -1.535156 " fill-opacity="1" fill-rule="nonzero"/></g></g></g></g></g></g></g></g></g></g></g><g clip-path="url(#b69fc86d83)"><g clip-path="url(#c1303d6e87)"><g clip-path="url(#fe1ff19a82)"><g transform="matrix(1, 0, 0, 1, 18, 52)"><g clip-path="url(#532fa7cef3)"><g clip-path="url(#4b5e4afa76)"><g clip-path="url(#be1907c139)"><g clip-path="url(#7d31e7529f)"><path fill="#bad4f9" d="M 38.398438 -1.519531 L 43.636719 10.015625 L 4.117188 27.957031 L -1.121094 16.421875 Z M 38.398438 -1.519531 " fill-opacity="1" fill-rule="nonzero"/></g></g></g></g></g></g></g></g><g clip-path="url(#b7ed251175)"><g clip-path="url(#166f5468e7)"><g clip-path="url(#25f8dfe84f)"><g transform="matrix(1, 0, 0, 1, 1, 8)"><g clip-path="url(#e68bee417e)"><g clip-path="url(#5cd9846357)"><g clip-path="url(#3fb010709c)"><g clip-path="url(#e46d4b2f49)"><path fill="#2f80ed" d="M 70.730469 -4.003906 L 82.152344 21.152344 L 7.175781 55.195312 L -4.246094 30.039062 Z M 70.730469 -4.003906 " fill-opacity="1" fill-rule="nonzero"/></g></g></g></g></g></g></g></g><g clip-path="url(#f1de9717d4)"><g clip-path="url(#fae2843cad)"><g clip-path="url(#49b56a7cc9)"><g transform="matrix(1, 0, 0, 1, 15, 47)"><g clip-path="url(#42fa587764)"><g clip-path="url(#911bcc2706)"><g clip-path="url(#9174e00f7e)"><g clip-path="url(#9e1cc34f79)"><path fill="#2f80ed" d="M 43.710938 -2.203125 L 49.734375 11.0625 L 4.289062 31.695312 L -1.734375 18.429688 Z M 43.710938 -2.203125 " fill-opacity="1" fill-rule="nonzero"/></g></g></g></g></g></g></g></g><g clip-path="url(#ba55d7179c)"><g clip-path="url(#5aecb416a6)"><g clip-path="url(#880324c14a)"><g transform="matrix(1, 0, 0, 1, 12, 62)"><g clip-path="url(#3d63b1cbe2)"><g clip-path="url(#a097ac7c79)"><g clip-path="url(#5f1370b14e)"><g clip-path="url(#46e2b9007b)"><path fill="#2f80ed" d="M 70.679688 -3.589844 L 82.054688 21.464844 L 7.082031 55.503906 L -4.292969 30.449219 Z M 70.679688 -3.589844 " fill-opacity="1" fill-rule="nonzero"/></g></g></g></g></g></g></g></g><g clip-path="url(#4e147bf6a7)"><g transform="matrix(1, 0, 0, 1, 93, 18)"><g clip-path="url(#f5a4749999)"><g fill="#2f80ed" fill-opacity="1"><g transform="translate(0.495994, 69.013761)"><g><path d="M 8.046875 0 L 8.046875 -27.640625 L 1.921875 -27.640625 L 1.921875 -36.28125 L 8.046875 -36.28125 L 8.046875 -36.8125 C 8.046875 -39.695312 8.609375 -42.132812 9.734375 -44.125 C 10.867188 -46.113281 12.5 -47.640625 14.625 -48.703125 C 16.75 -49.773438 19.316406 -50.3125 22.328125 -50.3125 C 22.898438 -50.3125 23.519531 -50.273438 24.1875 -50.203125 C 24.851562 -50.140625 25.40625 -50.0625 25.84375 -49.96875 L 25.84375 -41.46875 C 25.40625 -41.550781 25.019531 -41.601562 24.6875 -41.625 C 24.351562 -41.65625 24.007812 -41.671875 23.65625 -41.671875 C 21.789062 -41.671875 20.382812 -41.257812 19.4375 -40.4375 C 18.488281 -39.613281 18.015625 -38.40625 18.015625 -36.8125 L 18.015625 -36.28125 L 25.78125 -36.28125 L 25.78125 -27.640625 L 18.015625 -27.640625 L 18.015625 0 Z M 8.046875 0 "/></g></g></g><g fill="#2f80ed" fill-opacity="1"><g transform="translate(29.065968, 69.013761)"><g><path d="M 8.046875 0 L 8.046875 -27.640625 L 1.921875 -27.640625 L 1.921875 -36.28125 L 8.046875 -36.28125 L 8.046875 -36.8125 C 8.046875 -39.695312 8.609375 -42.132812 9.734375 -44.125 C 10.867188 -46.113281 12.5 -47.640625 14.625 -48.703125 C 16.75 -49.773438 19.316406 -50.3125 22.328125 -50.3125 C 22.898438 -50.3125 23.519531 -50.273438 24.1875 -50.203125 C 24.851562 -50.140625 25.40625 -50.0625 25.84375 -49.96875 L 25.84375 -41.46875 C 25.40625 -41.550781 25.019531 -41.601562 24.6875 -41.625 C 24.351562 -41.65625 24.007812 -41.671875 23.65625 -41.671875 C 21.789062 -41.671875 20.382812 -41.257812 19.4375 -40.4375 C 18.488281 -39.613281 18.015625 -38.40625 18.015625 -36.8125 L 18.015625 -36.28125 L 25.78125 -36.28125 L 25.78125 -27.640625 L 18.015625 -27.640625 L 18.015625 0 Z M 8.046875 0 "/></g></g></g><g fill="#2f80ed" fill-opacity="1"><g transform="translate(58.300469, 69.013761)"><g><path d="M 14.890625 0.796875 C 12.273438 0.796875 10.015625 0.371094 8.109375 -0.46875 C 6.203125 -1.3125 4.738281 -2.519531 3.71875 -4.09375 C 2.695312 -5.664062 2.1875 -7.535156 2.1875 -9.703125 C 2.1875 -11.742188 2.648438 -13.550781 3.578125 -15.125 C 4.515625 -16.695312 5.945312 -18.015625 7.875 -19.078125 C 9.800781 -20.140625 12.203125 -20.890625 15.078125 -21.328125 L 26.1875 -23.125 L 26.1875 -15.8125 L 16.875 -14.15625 C 15.457031 -13.882812 14.375 -13.425781 13.625 -12.78125 C 12.875 -12.144531 12.5 -11.226562 12.5 -10.03125 C 12.5 -8.925781 12.914062 -8.0625 13.75 -7.4375 C 14.59375 -6.820312 15.632812 -6.515625 16.875 -6.515625 C 18.519531 -6.515625 19.960938 -6.867188 21.203125 -7.578125 C 22.441406 -8.285156 23.40625 -9.25 24.09375 -10.46875 C 24.78125 -11.6875 25.125 -13.023438 25.125 -14.484375 L 25.125 -23.921875 C 25.125 -25.296875 24.578125 -26.445312 23.484375 -27.375 C 22.398438 -28.3125 20.929688 -28.78125 19.078125 -28.78125 C 17.296875 -28.78125 15.726562 -28.289062 14.375 -27.3125 C 13.03125 -26.332031 12.050781 -25.046875 11.4375 -23.453125 L 3.453125 -27.25 C 4.160156 -29.28125 5.289062 -31.023438 6.84375 -32.484375 C 8.394531 -33.953125 10.253906 -35.082031 12.421875 -35.875 C 14.597656 -36.675781 16.96875 -37.078125 19.53125 -37.078125 C 22.59375 -37.078125 25.296875 -36.523438 27.640625 -35.421875 C 29.992188 -34.316406 31.820312 -32.773438 33.125 -30.796875 C 34.4375 -28.828125 35.09375 -26.535156 35.09375 -23.921875 L 35.09375 0 L 25.78125 0 L 25.78125 -5.84375 L 28.046875 -6.25 C 26.984375 -4.65625 25.804688 -3.335938 24.515625 -2.296875 C 23.234375 -1.253906 21.796875 -0.476562 20.203125 0.03125 C 18.609375 0.539062 16.835938 0.796875 14.890625 0.796875 Z M 14.890625 0.796875 "/></g></g></g><g fill="#2f80ed" fill-opacity="1"><g transform="translate(98.36469, 69.013761)"><g><path d="M 21.125 0.40625 C 16.738281 0.40625 13.335938 -0.78125 10.921875 -3.15625 C 8.515625 -5.53125 7.3125 -8.84375 7.3125 -13.09375 L 7.3125 -27.640625 L 1.203125 -27.640625 L 1.203125 -36.28125 L 1.53125 -36.28125 C 3.382812 -36.28125 4.8125 -36.742188 5.8125 -37.671875 C 6.8125 -38.609375 7.3125 -40.003906 7.3125 -41.859375 L 7.3125 -44.53125 L 17.28125 -44.53125 L 17.28125 -36.28125 L 25.78125 -36.28125 L 25.78125 -27.640625 L 17.28125 -27.640625 L 17.28125 -13.75 C 17.28125 -12.507812 17.5 -11.476562 17.9375 -10.65625 C 18.382812 -9.84375 19.070312 -9.234375 20 -8.828125 C 20.925781 -8.429688 22.078125 -8.234375 23.453125 -8.234375 C 23.765625 -8.234375 24.117188 -8.253906 24.515625 -8.296875 C 24.921875 -8.347656 25.34375 -8.394531 25.78125 -8.4375 L 25.78125 0 C 25.113281 0.09375 24.359375 0.179688 23.515625 0.265625 C 22.679688 0.359375 21.882812 0.40625 21.125 0.40625 Z M 21.125 0.40625 "/></g></g></g><g fill="#2f80ed" fill-opacity="1"><g transform="translate(128.330044, 69.013761)"><g><path d="M 21.125 0.40625 C 16.738281 0.40625 13.335938 -0.78125 10.921875 -3.15625 C 8.515625 -5.53125 7.3125 -8.84375 7.3125 -13.09375 L 7.3125 -27.640625 L 1.203125 -27.640625 L 1.203125 -36.28125 L 1.53125 -36.28125 C 3.382812 -36.28125 4.8125 -36.742188 5.8125 -37.671875 C 6.8125 -38.609375 7.3125 -40.003906 7.3125 -41.859375 L 7.3125 -44.53125 L 17.28125 -44.53125 L 17.28125 -36.28125 L 25.78125 -36.28125 L 25.78125 -27.640625 L 17.28125 -27.640625 L 17.28125 -13.75 C 17.28125 -12.507812 17.5 -11.476562 17.9375 -10.65625 C 18.382812 -9.84375 19.070312 -9.234375 20 -8.828125 C 20.925781 -8.429688 22.078125 -8.234375 23.453125 -8.234375 C 23.765625 -8.234375 24.117188 -8.253906 24.515625 -8.296875 C 24.921875 -8.347656 25.34375 -8.394531 25.78125 -8.4375 L 25.78125 0 C 25.113281 0.09375 24.359375 0.179688 23.515625 0.265625 C 22.679688 0.359375 21.882812 0.40625 21.125 0.40625 Z M 21.125 0.40625 "/></g></g></g><g fill="#2f80ed" fill-opacity="1"><g transform="translate(158.295398, 69.013761)"><g><path d="M 14.890625 0.796875 C 12.273438 0.796875 10.015625 0.371094 8.109375 -0.46875 C 6.203125 -1.3125 4.738281 -2.519531 3.71875 -4.09375 C 2.695312 -5.664062 2.1875 -7.535156 2.1875 -9.703125 C 2.1875 -11.742188 2.648438 -13.550781 3.578125 -15.125 C 4.515625 -16.695312 5.945312 -18.015625 7.875 -19.078125 C 9.800781 -20.140625 12.203125 -20.890625 15.078125 -21.328125 L 26.1875 -23.125 L 26.1875 -15.8125 L 16.875 -14.15625 C 15.457031 -13.882812 14.375 -13.425781 13.625 -12.78125 C 12.875 -12.144531 12.5 -11.226562 12.5 -10.03125 C 12.5 -8.925781 12.914062 -8.0625 13.75 -7.4375 C 14.59375 -6.820312 15.632812 -6.515625 16.875 -6.515625 C 18.519531 -6.515625 19.960938 -6.867188 21.203125 -7.578125 C 22.441406 -8.285156 23.40625 -9.25 24.09375 -10.46875 C 24.78125 -11.6875 25.125 -13.023438 25.125 -14.484375 L 25.125 -23.921875 C 25.125 -25.296875 24.578125 -26.445312 23.484375 -27.375 C 22.398438 -28.3125 20.929688 -28.78125 19.078125 -28.78125 C 17.296875 -28.78125 15.726562 -28.289062 14.375 -27.3125 C 13.03125 -26.332031 12.050781 -25.046875 11.4375 -23.453125 L 3.453125 -27.25 C 4.160156 -29.28125 5.289062 -31.023438 6.84375 -32.484375 C 8.394531 -33.953125 10.253906 -35.082031 12.421875 -35.875 C 14.597656 -36.675781 16.96875 -37.078125 19.53125 -37.078125 C 22.59375 -37.078125 25.296875 -36.523438 27.640625 -35.421875 C 29.992188 -34.316406 31.820312 -32.773438 33.125 -30.796875 C 34.4375 -28.828125 35.09375 -26.535156 35.09375 -23.921875 L 35.09375 0 L 25.78125 0 L 25.78125 -5.84375 L 28.046875 -6.25 C 26.984375 -4.65625 25.804688 -3.335938 24.515625 -2.296875 C 23.234375 -1.253906 21.796875 -0.476562 20.203125 0.03125 C 18.609375 0.539062 16.835938 0.796875 14.890625 0.796875 Z M 14.890625 0.796875 "/></g></g></g><g fill="#2f80ed" fill-opacity="1"><g transform="translate(199.024147, 69.013761)"><g><path d="M 8.578125 0 L 8.578125 -9.96875 L 18.546875 -9.96875 L 18.546875 0 Z M 8.578125 0 "/></g></g></g></g></g></g></svg>