<svg xmlns="http://www.w3.org/2000/svg" xmlns:xlink="http://www.w3.org/1999/xlink" width="416" zoomAndPan="magnify" viewBox="0 0 312 122.249994" height="163" preserveAspectRatio="xMidYMid meet" version="1.0"><defs><filter x="0%" y="0%" width="100%" height="100%" id="aa37fa6e46"><feColorMatrix values="0 0 0 0 1 0 0 0 0 1 0 0 0 0 1 0 0 0 1 0" color-interpolation-filters="sRGB"/></filter><g/><mask id="e7a50f3557"><g filter="url(#aa37fa6e46)"><rect x="-31.2" width="374.4" fill="#000000" y="-12.224999" height="146.699993" fill-opacity="0.5"/></g></mask><clipPath id="a4f8114f9a"><path d="M 2 1 L 38 1 L 38 24 L 2 24 Z M 2 1 " clip-rule="nonzero"/></clipPath><clipPath id="c703992ab5"><path d="M 34.523438 0.238281 L 38.980469 10.0625 L 5.332031 25.339844 L 0.875 15.515625 Z M 34.523438 0.238281 " clip-rule="nonzero"/></clipPath><clipPath id="57aabf6e9f"><path d="M 36.75 5.148438 C 37.34375 6.453125 37.394531 7.9375 36.890625 9.277344 C 36.386719 10.617188 35.371094 11.699219 34.070312 12.292969 L 10.25 23.105469 C 8.949219 23.699219 7.464844 23.746094 6.125 23.246094 C 4.785156 22.742188 3.699219 21.726562 3.109375 20.425781 C 2.519531 19.121094 2.46875 17.636719 2.972656 16.300781 C 3.472656 14.960938 4.488281 13.875 5.789062 13.285156 L 29.609375 2.46875 C 30.914062 1.878906 32.398438 1.828125 33.738281 2.332031 C 35.074219 2.832031 36.160156 3.847656 36.75 5.148438 Z M 36.75 5.148438 " clip-rule="nonzero"/></clipPath><clipPath id="3c76cca422"><path d="M 0.375 0.714844 L 35.4375 0.714844 L 35.4375 22.902344 L 0.375 22.902344 Z M 0.375 0.714844 " clip-rule="nonzero"/></clipPath><clipPath id="d1d03b9f49"><path d="M 32.523438 -0.761719 L 36.980469 9.0625 L 3.332031 24.339844 L -1.125 14.515625 Z M 32.523438 -0.761719 " clip-rule="nonzero"/></clipPath><clipPath id="e37771f471"><path d="M 34.75 4.148438 C 35.34375 5.453125 35.394531 6.9375 34.890625 8.277344 C 34.386719 9.617188 33.371094 10.699219 32.070312 11.292969 L 8.25 22.105469 C 6.949219 22.699219 5.464844 22.746094 4.125 22.246094 C 2.785156 21.742188 1.699219 20.726562 1.109375 19.425781 C 0.519531 18.121094 0.46875 16.636719 0.972656 15.300781 C 1.472656 13.960938 2.488281 12.875 3.789062 12.285156 L 27.609375 1.46875 C 28.914062 0.878906 30.398438 0.828125 31.738281 1.332031 C 33.074219 1.832031 34.160156 2.847656 34.75 4.148438 Z M 34.75 4.148438 " clip-rule="nonzero"/></clipPath><clipPath id="0a3fa04380"><rect x="0" width="36" y="0" height="23"/></clipPath><clipPath id="5d49f7326f"><rect x="0" width="40" y="0" height="26"/></clipPath><clipPath id="cb245f74b3"><path d="M 19 48 L 61 48 L 61 74 L 19 74 Z M 19 48 " clip-rule="nonzero"/></clipPath><clipPath id="011f8263f6"><path d="M 57.132812 46.273438 L 62.347656 57.757812 L 23.007812 75.621094 L 17.792969 64.136719 Z M 57.132812 46.273438 " clip-rule="nonzero"/></clipPath><clipPath id="c2723a1b7d"><path d="M 59.738281 52.015625 C 60.429688 53.539062 60.488281 55.273438 59.902344 56.839844 C 59.3125 58.40625 58.128906 59.675781 56.605469 60.367188 L 28.753906 73.011719 C 27.234375 73.703125 25.496094 73.757812 23.933594 73.171875 C 22.367188 72.582031 21.097656 71.398438 20.40625 69.875 C 19.714844 68.351562 19.65625 66.617188 20.246094 65.050781 C 20.832031 63.484375 22.019531 62.21875 23.542969 61.527344 L 51.390625 48.882812 C 52.914062 48.191406 54.648438 48.132812 56.214844 48.71875 C 57.78125 49.308594 59.046875 50.496094 59.738281 52.015625 Z M 59.738281 52.015625 " clip-rule="nonzero"/></clipPath><clipPath id="00ff549bd1"><path d="M 0.558594 0 L 41.585938 0 L 41.585938 25.945312 L 0.558594 25.945312 Z M 0.558594 0 " clip-rule="nonzero"/></clipPath><clipPath id="d74ed6a49c"><path d="M 38.132812 -1.726562 L 43.347656 9.757812 L 4.007812 27.621094 L -1.207031 16.136719 Z M 38.132812 -1.726562 " clip-rule="nonzero"/></clipPath><clipPath id="c2753b94de"><path d="M 40.738281 4.015625 C 41.429688 5.539062 41.488281 7.273438 40.902344 8.839844 C 40.3125 10.40625 39.128906 11.675781 37.605469 12.367188 L 9.753906 25.011719 C 8.234375 25.703125 6.496094 25.757812 4.933594 25.171875 C 3.367188 24.582031 2.097656 23.398438 1.40625 21.875 C 0.714844 20.351562 0.65625 18.617188 1.246094 17.050781 C 1.832031 15.484375 3.019531 14.21875 4.542969 13.527344 L 32.390625 0.882812 C 33.914062 0.191406 35.648438 0.132812 37.214844 0.71875 C 38.78125 1.308594 40.046875 2.496094 40.738281 4.015625 Z M 40.738281 4.015625 " clip-rule="nonzero"/></clipPath><clipPath id="d5d80a5a70"><rect x="0" width="42" y="0" height="26"/></clipPath><clipPath id="e9450bf7c5"><path d="M 2 4 L 80 4 L 80 55 L 2 55 Z M 2 4 " clip-rule="nonzero"/></clipPath><clipPath id="831a37742b"><path d="M 72.398438 0 L 83.769531 25.042969 L 9.035156 58.972656 L -2.335938 33.929688 Z M 72.398438 0 " clip-rule="nonzero"/></clipPath><clipPath id="22865d5a0d"><path d="M 78.082031 12.523438 C 79.589844 15.84375 79.71875 19.625 78.4375 23.039062 C 77.152344 26.453125 74.566406 29.21875 71.246094 30.726562 L 21.636719 53.25 C 18.316406 54.757812 14.53125 54.886719 11.117188 53.605469 C 7.703125 52.320312 4.9375 49.734375 3.429688 46.414062 C 1.921875 43.09375 1.796875 39.3125 3.078125 35.898438 C 4.359375 32.484375 6.945312 29.71875 10.265625 28.210938 L 59.878906 5.6875 C 63.199219 4.179688 66.980469 4.050781 70.394531 5.332031 C 73.8125 6.613281 76.574219 9.199219 78.082031 12.523438 Z M 78.082031 12.523438 " clip-rule="nonzero"/></clipPath><clipPath id="32268d1f33"><path d="M 0 0 L 77.90625 0 L 77.90625 51 L 0 51 Z M 0 0 " clip-rule="nonzero"/></clipPath><clipPath id="c1887eb1b3"><path d="M 70.398438 -4 L 81.769531 21.042969 L 7.035156 54.972656 L -4.335938 29.929688 Z M 70.398438 -4 " clip-rule="nonzero"/></clipPath><clipPath id="7fab343a05"><path d="M 76.082031 8.523438 C 77.589844 11.84375 77.71875 15.625 76.4375 19.039062 C 75.152344 22.453125 72.566406 25.21875 69.246094 26.726562 L 19.636719 49.25 C 16.316406 50.757812 12.53125 50.886719 9.117188 49.605469 C 5.703125 48.320312 2.9375 45.734375 1.429688 42.414062 C -0.078125 39.09375 -0.203125 35.3125 1.078125 31.898438 C 2.359375 28.484375 4.945312 25.71875 8.265625 24.210938 L 57.878906 1.6875 C 61.199219 0.179688 64.980469 0.0507812 68.394531 1.332031 C 71.8125 2.613281 74.574219 5.199219 76.082031 8.523438 Z M 76.082031 8.523438 " clip-rule="nonzero"/></clipPath><clipPath id="01d4a1ac19"><rect x="0" width="78" y="0" height="51"/></clipPath><clipPath id="25e45f39d5"><path d="M 16 42 L 64 42 L 64 73 L 16 73 Z M 16 42 " clip-rule="nonzero"/></clipPath><clipPath id="ce15743618"><path d="M 59.441406 40.617188 L 65.4375 53.820312 L 20.199219 74.363281 L 14.203125 61.15625 Z M 59.441406 40.617188 " clip-rule="nonzero"/></clipPath><clipPath id="1b5a7ff172"><path d="M 62.441406 47.21875 C 64.097656 50.863281 62.480469 55.164062 58.835938 56.820312 L 26.808594 71.359375 C 23.160156 73.015625 18.863281 71.402344 17.207031 67.753906 C 15.550781 64.109375 17.167969 59.808594 20.8125 58.152344 L 52.839844 43.613281 C 56.484375 41.957031 60.785156 43.570312 62.441406 47.21875 Z M 62.441406 47.21875 " clip-rule="nonzero"/></clipPath><clipPath id="0300101bda"><path d="M 0 0 L 48 0 L 48 31 L 0 31 Z M 0 0 " clip-rule="nonzero"/></clipPath><clipPath id="13e1368de5"><path d="M 43.441406 -1.382812 L 49.4375 11.820312 L 4.199219 32.363281 L -1.796875 19.15625 Z M 43.441406 -1.382812 " clip-rule="nonzero"/></clipPath><clipPath id="195917514e"><path d="M 46.441406 5.21875 C 48.097656 8.863281 46.480469 13.164062 42.835938 14.820312 L 10.808594 29.359375 C 7.160156 31.015625 2.863281 29.402344 1.207031 25.753906 C -0.449219 22.109375 1.167969 17.808594 4.8125 16.152344 L 36.839844 1.613281 C 40.484375 -0.0429688 44.785156 1.570312 46.441406 5.21875 Z M 46.441406 5.21875 " clip-rule="nonzero"/></clipPath><clipPath id="03d7970695"><rect x="0" width="48" y="0" height="31"/></clipPath><clipPath id="742827ba55"><path d="M 13 58 L 91 58 L 91 109 L 13 109 Z M 13 58 " clip-rule="nonzero"/></clipPath><clipPath id="2f3b6b7dd7"><path d="M 83.292969 54.171875 L 94.617188 79.117188 L 19.886719 113.042969 L 8.5625 88.101562 Z M 83.292969 54.171875 " clip-rule="nonzero"/></clipPath><clipPath id="5b187c20de"><path d="M 88.957031 66.644531 C 90.457031 69.953125 90.585938 73.71875 89.308594 77.121094 C 88.03125 80.523438 85.453125 83.277344 82.148438 84.777344 L 32.4375 107.347656 C 29.128906 108.847656 25.359375 108.976562 21.960938 107.699219 C 18.558594 106.421875 15.804688 103.84375 14.304688 100.539062 C 12.800781 97.230469 12.675781 93.460938 13.953125 90.0625 C 15.230469 86.660156 17.804688 83.90625 21.113281 82.40625 L 70.824219 59.835938 C 74.128906 58.332031 77.898438 58.207031 81.300781 59.484375 C 84.699219 60.761719 87.453125 63.335938 88.957031 66.644531 Z M 88.957031 66.644531 " clip-rule="nonzero"/></clipPath><clipPath id="a971f3a7c6"><path d="M 0 0.203125 L 77.640625 0.203125 L 77.640625 51 L 0 51 Z M 0 0.203125 " clip-rule="nonzero"/></clipPath><clipPath id="731cf55481"><path d="M 70.292969 -3.828125 L 81.617188 21.117188 L 6.886719 55.042969 L -4.4375 30.101562 Z M 70.292969 -3.828125 " clip-rule="nonzero"/></clipPath><clipPath id="3ce69d46d6"><path d="M 75.957031 8.644531 C 77.457031 11.953125 77.585938 15.71875 76.308594 19.121094 C 75.03125 22.523438 72.453125 25.277344 69.148438 26.777344 L 19.4375 49.347656 C 16.128906 50.847656 12.359375 50.976562 8.960938 49.699219 C 5.558594 48.421875 2.804688 45.84375 1.304688 42.539062 C -0.199219 39.230469 -0.324219 35.460938 0.953125 32.0625 C 2.230469 28.660156 4.804688 25.90625 8.113281 24.40625 L 57.824219 1.835938 C 61.128906 0.332031 64.898438 0.207031 68.300781 1.484375 C 71.699219 2.761719 74.453125 5.335938 75.957031 8.644531 Z M 75.957031 8.644531 " clip-rule="nonzero"/></clipPath><clipPath id="7b14ff091a"><rect x="0" width="78" y="0" height="51"/></clipPath><clipPath id="fa3ba35bf3"><path d="M 93 14 L 311.046875 14 L 311.046875 98 L 93 98 Z M 93 14 " clip-rule="nonzero"/></clipPath><clipPath id="9ca46ebbb4"><rect x="0" width="219" y="0" height="84"/></clipPath><mask id="a309871d9c"><g filter="url(#aa37fa6e46)"><rect x="-31.2" width="374.4" fill="#000000" y="-12.224999" height="146.699993" fill-opacity="0.5"/></g></mask><clipPath id="de028a1818"><path d="M 0.898438 0.496094 L 157.140625 0.496094 L 157.140625 22.441406 L 0.898438 22.441406 Z M 0.898438 0.496094 " clip-rule="nonzero"/></clipPath><clipPath id="8fd8594577"><rect x="0" width="158" y="0" height="23"/></clipPath><clipPath id="4ecd5097fa"><rect x="0" width="158" y="0" height="23"/></clipPath></defs><g mask="url(#e7a50f3557)"><g transform="matrix(1, 0, 0, 1, 21, 51)"><g clip-path="url(#5d49f7326f)"><g clip-path="url(#a4f8114f9a)"><g clip-path="url(#c703992ab5)"><g clip-path="url(#57aabf6e9f)"><g transform="matrix(1, 0, 0, 1, 2, 1)"><g clip-path="url(#0a3fa04380)"><g clip-path="url(#3c76cca422)"><g clip-path="url(#d1d03b9f49)"><g clip-path="url(#e37771f471)"><path fill="#ffffff" d="M 32.523438 -0.761719 L 36.980469 9.0625 L 3.332031 24.339844 L -1.125 14.515625 Z M 32.523438 -0.761719 " fill-opacity="1" fill-rule="nonzero"/></g></g></g></g></g></g></g></g></g></g></g><g clip-path="url(#cb245f74b3)"><g clip-path="url(#011f8263f6)"><g clip-path="url(#c2723a1b7d)"><g transform="matrix(1, 0, 0, 1, 19, 48)"><g clip-path="url(#d5d80a5a70)"><g clip-path="url(#00ff549bd1)"><g clip-path="url(#d74ed6a49c)"><g clip-path="url(#c2753b94de)"><path fill="#cbcbcb" d="M 38.132812 -1.726562 L 43.347656 9.757812 L 4.007812 27.621094 L -1.207031 16.136719 Z M 38.132812 -1.726562 " fill-opacity="1" fill-rule="nonzero"/></g></g></g></g></g></g></g></g><g clip-path="url(#e9450bf7c5)"><g clip-path="url(#831a37742b)"><g clip-path="url(#22865d5a0d)"><g transform="matrix(1, 0, 0, 1, 2, 4)"><g clip-path="url(#01d4a1ac19)"><g clip-path="url(#32268d1f33)"><g clip-path="url(#c1887eb1b3)"><g clip-path="url(#7fab343a05)"><path fill="#ffffff" d="M 70.398438 -4 L 81.769531 21.042969 L 7.132812 54.929688 L -4.238281 29.886719 Z M 70.398438 -4 " fill-opacity="1" fill-rule="nonzero"/></g></g></g></g></g></g></g></g><g clip-path="url(#25e45f39d5)"><g clip-path="url(#ce15743618)"><g clip-path="url(#1b5a7ff172)"><g transform="matrix(1, 0, 0, 1, 16, 42)"><g clip-path="url(#03d7970695)"><g clip-path="url(#0300101bda)"><g clip-path="url(#13e1368de5)"><g clip-path="url(#195917514e)"><path fill="#ffffff" d="M 43.441406 -1.382812 L 49.4375 11.820312 L 4.199219 32.363281 L -1.796875 19.15625 Z M 43.441406 -1.382812 " fill-opacity="1" fill-rule="nonzero"/></g></g></g></g></g></g></g></g><g clip-path="url(#742827ba55)"><g clip-path="url(#2f3b6b7dd7)"><g clip-path="url(#5b187c20de)"><g transform="matrix(1, 0, 0, 1, 13, 58)"><g clip-path="url(#7b14ff091a)"><g clip-path="url(#a971f3a7c6)"><g clip-path="url(#731cf55481)"><g clip-path="url(#3ce69d46d6)"><path fill="#ffffff" d="M 70.292969 -3.828125 L 81.617188 21.117188 L 6.984375 55 L -4.339844 30.058594 Z M 70.292969 -3.828125 " fill-opacity="1" fill-rule="nonzero"/></g></g></g></g></g></g></g></g><g clip-path="url(#fa3ba35bf3)"><g transform="matrix(1, 0, 0, 1, 93, 14)"><g clip-path="url(#9ca46ebbb4)"><g fill="#ffffff" fill-opacity="1"><g transform="translate(1.064487, 68.645135)"><g><path d="M 8 0 L 8 -27.515625 L 1.921875 -27.515625 L 1.921875 -36.125 L 8 -36.125 L 8 -36.65625 C 8 -39.519531 8.5625 -41.941406 9.6875 -43.921875 C 10.8125 -45.910156 12.429688 -47.429688 14.546875 -48.484375 C 16.671875 -49.546875 19.234375 -50.078125 22.234375 -50.078125 C 22.804688 -50.078125 23.421875 -50.039062 24.078125 -49.96875 C 24.742188 -49.90625 25.296875 -49.832031 25.734375 -49.75 L 25.734375 -41.28125 C 25.296875 -41.363281 24.910156 -41.414062 24.578125 -41.4375 C 24.242188 -41.46875 23.898438 -41.484375 23.546875 -41.484375 C 21.691406 -41.484375 20.289062 -41.070312 19.34375 -40.25 C 18.394531 -39.4375 17.921875 -38.238281 17.921875 -36.65625 L 17.921875 -36.125 L 25.671875 -36.125 L 25.671875 -27.515625 L 17.921875 -27.515625 L 17.921875 0 Z M 8 0 "/></g></g></g><g fill="#ffffff" fill-opacity="1"><g transform="translate(29.505272, 68.645135)"><g><path d="M 8 0 L 8 -27.515625 L 1.921875 -27.515625 L 1.921875 -36.125 L 8 -36.125 L 8 -36.65625 C 8 -39.519531 8.5625 -41.941406 9.6875 -43.921875 C 10.8125 -45.910156 12.429688 -47.429688 14.546875 -48.484375 C 16.671875 -49.546875 19.234375 -50.078125 22.234375 -50.078125 C 22.804688 -50.078125 23.421875 -50.039062 24.078125 -49.96875 C 24.742188 -49.90625 25.296875 -49.832031 25.734375 -49.75 L 25.734375 -41.28125 C 25.296875 -41.363281 24.910156 -41.414062 24.578125 -41.4375 C 24.242188 -41.46875 23.898438 -41.484375 23.546875 -41.484375 C 21.691406 -41.484375 20.289062 -41.070312 19.34375 -40.25 C 18.394531 -39.4375 17.921875 -38.238281 17.921875 -36.65625 L 17.921875 -36.125 L 25.671875 -36.125 L 25.671875 -27.515625 L 17.921875 -27.515625 L 17.921875 0 Z M 8 0 "/></g></g></g><g fill="#ffffff" fill-opacity="1"><g transform="translate(58.60758, 68.645135)"><g><path d="M 14.8125 0.796875 C 12.21875 0.796875 9.96875 0.378906 8.0625 -0.453125 C 6.164062 -1.296875 4.710938 -2.5 3.703125 -4.0625 C 2.691406 -5.632812 2.1875 -7.5 2.1875 -9.65625 C 2.1875 -11.6875 2.648438 -13.484375 3.578125 -15.046875 C 4.503906 -16.617188 5.925781 -17.929688 7.84375 -18.984375 C 9.757812 -20.046875 12.148438 -20.796875 15.015625 -21.234375 L 26.0625 -23.015625 L 26.0625 -15.75 L 16.796875 -14.09375 C 15.390625 -13.820312 14.3125 -13.367188 13.5625 -12.734375 C 12.8125 -12.097656 12.4375 -11.179688 12.4375 -9.984375 C 12.4375 -8.878906 12.851562 -8.019531 13.6875 -7.40625 C 14.53125 -6.789062 15.566406 -6.484375 16.796875 -6.484375 C 18.429688 -6.484375 19.863281 -6.832031 21.09375 -7.53125 C 22.332031 -8.238281 23.289062 -9.195312 23.96875 -10.40625 C 24.65625 -11.625 25 -12.960938 25 -14.421875 L 25 -23.8125 C 25 -25.175781 24.457031 -26.320312 23.375 -27.25 C 22.300781 -28.175781 20.835938 -28.640625 18.984375 -28.640625 C 17.222656 -28.640625 15.671875 -28.15625 14.328125 -27.1875 C 12.984375 -26.21875 12 -24.941406 11.375 -23.359375 L 3.4375 -27.125 C 4.144531 -29.15625 5.269531 -30.894531 6.8125 -32.34375 C 8.351562 -33.800781 10.203125 -34.925781 12.359375 -35.71875 C 14.523438 -36.519531 16.890625 -36.921875 19.453125 -36.921875 C 22.492188 -36.921875 25.179688 -36.367188 27.515625 -35.265625 C 29.859375 -34.160156 31.679688 -32.625 32.984375 -30.65625 C 34.285156 -28.695312 34.9375 -26.414062 34.9375 -23.8125 L 34.9375 0 L 25.671875 0 L 25.671875 -5.828125 L 27.921875 -6.21875 C 26.859375 -4.632812 25.6875 -3.320312 24.40625 -2.28125 C 23.132812 -1.25 21.703125 -0.476562 20.109375 0.03125 C 18.523438 0.539062 16.757812 0.796875 14.8125 0.796875 Z M 14.8125 0.796875 "/></g></g></g><g fill="#ffffff" fill-opacity="1"><g transform="translate(98.490637, 68.645135)"><g><path d="M 21.03125 0.390625 C 16.664062 0.390625 13.28125 -0.785156 10.875 -3.140625 C 8.476562 -5.503906 7.28125 -8.800781 7.28125 -13.03125 L 7.28125 -27.515625 L 1.1875 -27.515625 L 1.1875 -36.125 L 1.515625 -36.125 C 3.367188 -36.125 4.789062 -36.585938 5.78125 -37.515625 C 6.78125 -38.441406 7.28125 -39.828125 7.28125 -41.671875 L 7.28125 -44.328125 L 17.203125 -44.328125 L 17.203125 -36.125 L 25.671875 -36.125 L 25.671875 -27.515625 L 17.203125 -27.515625 L 17.203125 -13.6875 C 17.203125 -12.457031 17.421875 -11.429688 17.859375 -10.609375 C 18.304688 -9.796875 18.988281 -9.191406 19.90625 -8.796875 C 20.832031 -8.398438 21.984375 -8.203125 23.359375 -8.203125 C 23.660156 -8.203125 24.007812 -8.222656 24.40625 -8.265625 C 24.800781 -8.304688 25.222656 -8.351562 25.671875 -8.40625 L 25.671875 0 C 25.003906 0.0820312 24.25 0.164062 23.40625 0.25 C 22.570312 0.34375 21.78125 0.390625 21.03125 0.390625 Z M 21.03125 0.390625 "/></g></g></g><g fill="#ffffff" fill-opacity="1"><g transform="translate(128.320493, 68.645135)"><g><path d="M 21.03125 0.390625 C 16.664062 0.390625 13.28125 -0.785156 10.875 -3.140625 C 8.476562 -5.503906 7.28125 -8.800781 7.28125 -13.03125 L 7.28125 -27.515625 L 1.1875 -27.515625 L 1.1875 -36.125 L 1.515625 -36.125 C 3.367188 -36.125 4.789062 -36.585938 5.78125 -37.515625 C 6.78125 -38.441406 7.28125 -39.828125 7.28125 -41.671875 L 7.28125 -44.328125 L 17.203125 -44.328125 L 17.203125 -36.125 L 25.671875 -36.125 L 25.671875 -27.515625 L 17.203125 -27.515625 L 17.203125 -13.6875 C 17.203125 -12.457031 17.421875 -11.429688 17.859375 -10.609375 C 18.304688 -9.796875 18.988281 -9.191406 19.90625 -8.796875 C 20.832031 -8.398438 21.984375 -8.203125 23.359375 -8.203125 C 23.660156 -8.203125 24.007812 -8.222656 24.40625 -8.265625 C 24.800781 -8.304688 25.222656 -8.351562 25.671875 -8.40625 L 25.671875 0 C 25.003906 0.0820312 24.25 0.164062 23.40625 0.25 C 22.570312 0.34375 21.78125 0.390625 21.03125 0.390625 Z M 21.03125 0.390625 "/></g></g></g><g fill="#ffffff" fill-opacity="1"><g transform="translate(158.150349, 68.645135)"><g><path d="M 14.8125 0.796875 C 12.21875 0.796875 9.96875 0.378906 8.0625 -0.453125 C 6.164062 -1.296875 4.710938 -2.5 3.703125 -4.0625 C 2.691406 -5.632812 2.1875 -7.5 2.1875 -9.65625 C 2.1875 -11.6875 2.648438 -13.484375 3.578125 -15.046875 C 4.503906 -16.617188 5.925781 -17.929688 7.84375 -18.984375 C 9.757812 -20.046875 12.148438 -20.796875 15.015625 -21.234375 L 26.0625 -23.015625 L 26.0625 -15.75 L 16.796875 -14.09375 C 15.390625 -13.820312 14.3125 -13.367188 13.5625 -12.734375 C 12.8125 -12.097656 12.4375 -11.179688 12.4375 -9.984375 C 12.4375 -8.878906 12.851562 -8.019531 13.6875 -7.40625 C 14.53125 -6.789062 15.566406 -6.484375 16.796875 -6.484375 C 18.429688 -6.484375 19.863281 -6.832031 21.09375 -7.53125 C 22.332031 -8.238281 23.289062 -9.195312 23.96875 -10.40625 C 24.65625 -11.625 25 -12.960938 25 -14.421875 L 25 -23.8125 C 25 -25.175781 24.457031 -26.320312 23.375 -27.25 C 22.300781 -28.175781 20.835938 -28.640625 18.984375 -28.640625 C 17.222656 -28.640625 15.671875 -28.15625 14.328125 -27.1875 C 12.984375 -26.21875 12 -24.941406 11.375 -23.359375 L 3.4375 -27.125 C 4.144531 -29.15625 5.269531 -30.894531 6.8125 -32.34375 C 8.351562 -33.800781 10.203125 -34.925781 12.359375 -35.71875 C 14.523438 -36.519531 16.890625 -36.921875 19.453125 -36.921875 C 22.492188 -36.921875 25.179688 -36.367188 27.515625 -35.265625 C 29.859375 -34.160156 31.679688 -32.625 32.984375 -30.65625 C 34.285156 -28.695312 34.9375 -26.414062 34.9375 -23.8125 L 34.9375 0 L 25.671875 0 L 25.671875 -5.828125 L 27.921875 -6.21875 C 26.859375 -4.632812 25.6875 -3.320312 24.40625 -2.28125 C 23.132812 -1.25 21.703125 -0.476562 20.109375 0.03125 C 18.523438 0.539062 16.757812 0.796875 14.8125 0.796875 Z M 14.8125 0.796875 "/></g></g></g><g fill="#ffffff" fill-opacity="1"><g transform="translate(198.694929, 68.645135)"><g><path d="M 8.53125 0 L 8.53125 -9.921875 L 18.453125 -9.921875 L 18.453125 0 Z M 8.53125 0 "/></g></g></g></g></g></g><g mask="url(#a309871d9c)"><g transform="matrix(1, 0, 0, 1, 100, 88)"><g clip-path="url(#4ecd5097fa)"><g clip-path="url(#de028a1818)"><g><g clip-path="url(#8fd8594577)"><g fill="#ffffff" fill-opacity="1"><g transform="translate(0.954646, 18.541418)"><g><path d="M 0.9375 0 L 0.9375 -12.90625 L 3.5 -12.90625 L 3.5 0 Z M 0.9375 0 "/></g></g></g><g fill="#ffffff" fill-opacity="1"><g transform="translate(5.897862, 18.541418)"><g><path d="M 3.8125 0.203125 C 3.144531 0.203125 2.566406 0.0976562 2.078125 -0.109375 C 1.585938 -0.328125 1.210938 -0.640625 0.953125 -1.046875 C 0.691406 -1.453125 0.5625 -1.929688 0.5625 -2.484375 C 0.5625 -3.003906 0.679688 -3.46875 0.921875 -3.875 C 1.160156 -4.28125 1.523438 -4.617188 2.015625 -4.890625 C 2.515625 -5.160156 3.132812 -5.351562 3.875 -5.46875 L 6.71875 -5.9375 L 6.71875 -4.0625 L 4.328125 -3.625 C 3.960938 -3.5625 3.679688 -3.445312 3.484375 -3.28125 C 3.296875 -3.113281 3.203125 -2.878906 3.203125 -2.578125 C 3.203125 -2.285156 3.3125 -2.0625 3.53125 -1.90625 C 3.75 -1.75 4.015625 -1.671875 4.328125 -1.671875 C 4.742188 -1.671875 5.113281 -1.757812 5.4375 -1.9375 C 5.757812 -2.125 6.003906 -2.375 6.171875 -2.6875 C 6.347656 -3 6.4375 -3.34375 6.4375 -3.71875 L 6.4375 -6.140625 C 6.4375 -6.492188 6.296875 -6.785156 6.015625 -7.015625 C 5.742188 -7.253906 5.367188 -7.375 4.890625 -7.375 C 4.429688 -7.375 4.03125 -7.25 3.6875 -7 C 3.34375 -6.75 3.09375 -6.421875 2.9375 -6.015625 L 0.890625 -6.984375 C 1.066406 -7.503906 1.351562 -7.953125 1.75 -8.328125 C 2.15625 -8.710938 2.632812 -9.003906 3.1875 -9.203125 C 3.738281 -9.410156 4.347656 -9.515625 5.015625 -9.515625 C 5.796875 -9.515625 6.488281 -9.367188 7.09375 -9.078125 C 7.695312 -8.796875 8.164062 -8.398438 8.5 -7.890625 C 8.832031 -7.390625 9 -6.804688 9 -6.140625 L 9 0 L 6.609375 0 L 6.609375 -1.5 L 7.1875 -1.609375 C 6.914062 -1.191406 6.613281 -0.847656 6.28125 -0.578125 C 5.957031 -0.316406 5.585938 -0.125 5.171875 0 C 4.765625 0.132812 4.3125 0.203125 3.8125 0.203125 Z M 3.8125 0.203125 "/></g></g></g><g fill="#ffffff" fill-opacity="1"><g transform="translate(16.346572, 18.541418)"><g/></g></g><g fill="#ffffff" fill-opacity="1"><g transform="translate(19.926187, 18.541418)"><g><path d="M 2.0625 0 L 2.0625 -7.09375 L 0.5 -7.09375 L 0.5 -9.3125 L 2.0625 -9.3125 L 2.0625 -9.4375 C 2.0625 -10.175781 2.207031 -10.800781 2.5 -11.3125 C 2.789062 -11.832031 3.207031 -12.226562 3.75 -12.5 C 4.289062 -12.769531 4.953125 -12.90625 5.734375 -12.90625 C 5.878906 -12.90625 6.035156 -12.894531 6.203125 -12.875 C 6.367188 -12.863281 6.507812 -12.84375 6.625 -12.8125 L 6.625 -10.640625 C 6.507812 -10.660156 6.410156 -10.671875 6.328125 -10.671875 C 6.242188 -10.679688 6.15625 -10.6875 6.0625 -10.6875 C 5.59375 -10.6875 5.234375 -10.582031 4.984375 -10.375 C 4.742188 -10.164062 4.625 -9.851562 4.625 -9.4375 L 4.625 -9.3125 L 6.609375 -9.3125 L 6.609375 -7.09375 L 4.625 -7.09375 L 4.625 0 Z M 2.0625 0 "/></g></g></g><g fill="#ffffff" fill-opacity="1"><g transform="translate(27.426131, 18.541418)"><g><path d="M 3.8125 0.203125 C 3.144531 0.203125 2.566406 0.0976562 2.078125 -0.109375 C 1.585938 -0.328125 1.210938 -0.640625 0.953125 -1.046875 C 0.691406 -1.453125 0.5625 -1.929688 0.5625 -2.484375 C 0.5625 -3.003906 0.679688 -3.46875 0.921875 -3.875 C 1.160156 -4.28125 1.523438 -4.617188 2.015625 -4.890625 C 2.515625 -5.160156 3.132812 -5.351562 3.875 -5.46875 L 6.71875 -5.9375 L 6.71875 -4.0625 L 4.328125 -3.625 C 3.960938 -3.5625 3.679688 -3.445312 3.484375 -3.28125 C 3.296875 -3.113281 3.203125 -2.878906 3.203125 -2.578125 C 3.203125 -2.285156 3.3125 -2.0625 3.53125 -1.90625 C 3.75 -1.75 4.015625 -1.671875 4.328125 -1.671875 C 4.742188 -1.671875 5.113281 -1.757812 5.4375 -1.9375 C 5.757812 -2.125 6.003906 -2.375 6.171875 -2.6875 C 6.347656 -3 6.4375 -3.34375 6.4375 -3.71875 L 6.4375 -6.140625 C 6.4375 -6.492188 6.296875 -6.785156 6.015625 -7.015625 C 5.742188 -7.253906 5.367188 -7.375 4.890625 -7.375 C 4.429688 -7.375 4.03125 -7.25 3.6875 -7 C 3.34375 -6.75 3.09375 -6.421875 2.9375 -6.015625 L 0.890625 -6.984375 C 1.066406 -7.503906 1.351562 -7.953125 1.75 -8.328125 C 2.15625 -8.710938 2.632812 -9.003906 3.1875 -9.203125 C 3.738281 -9.410156 4.347656 -9.515625 5.015625 -9.515625 C 5.796875 -9.515625 6.488281 -9.367188 7.09375 -9.078125 C 7.695312 -8.796875 8.164062 -8.398438 8.5 -7.890625 C 8.832031 -7.390625 9 -6.804688 9 -6.140625 L 9 0 L 6.609375 0 L 6.609375 -1.5 L 7.1875 -1.609375 C 6.914062 -1.191406 6.613281 -0.847656 6.28125 -0.578125 C 5.957031 -0.316406 5.585938 -0.125 5.171875 0 C 4.765625 0.132812 4.3125 0.203125 3.8125 0.203125 Z M 3.8125 0.203125 "/></g></g></g><g fill="#ffffff" fill-opacity="1"><g transform="translate(37.874841, 18.541418)"><g><path d="M 5.5 0.203125 C 4.570312 0.203125 3.734375 -0.0078125 2.984375 -0.4375 C 2.242188 -0.863281 1.65625 -1.445312 1.21875 -2.1875 C 0.78125 -2.925781 0.5625 -3.753906 0.5625 -4.671875 C 0.5625 -5.585938 0.773438 -6.410156 1.203125 -7.140625 C 1.640625 -7.878906 2.234375 -8.457031 2.984375 -8.875 C 3.734375 -9.300781 4.570312 -9.515625 5.5 -9.515625 C 6.195312 -9.515625 6.835938 -9.394531 7.421875 -9.15625 C 8.015625 -8.914062 8.519531 -8.582031 8.9375 -8.15625 C 9.363281 -7.726562 9.671875 -7.222656 9.859375 -6.640625 L 7.640625 -5.6875 C 7.472656 -6.15625 7.195312 -6.523438 6.8125 -6.796875 C 6.4375 -7.066406 6 -7.203125 5.5 -7.203125 C 5.0625 -7.203125 4.664062 -7.09375 4.3125 -6.875 C 3.96875 -6.664062 3.695312 -6.367188 3.5 -5.984375 C 3.300781 -5.597656 3.203125 -5.15625 3.203125 -4.65625 C 3.203125 -4.15625 3.300781 -3.710938 3.5 -3.328125 C 3.695312 -2.941406 3.96875 -2.640625 4.3125 -2.421875 C 4.664062 -2.203125 5.0625 -2.09375 5.5 -2.09375 C 6.007812 -2.09375 6.453125 -2.226562 6.828125 -2.5 C 7.203125 -2.78125 7.472656 -3.148438 7.640625 -3.609375 L 9.859375 -2.640625 C 9.679688 -2.097656 9.382812 -1.609375 8.96875 -1.171875 C 8.550781 -0.742188 8.046875 -0.40625 7.453125 -0.15625 C 6.859375 0.0820312 6.207031 0.203125 5.5 0.203125 Z M 5.5 0.203125 "/></g></g></g><g fill="#ffffff" fill-opacity="1"><g transform="translate(48.800806, 18.541418)"><g><path d="M 5.5 0.203125 C 4.570312 0.203125 3.734375 -0.0078125 2.984375 -0.4375 C 2.242188 -0.863281 1.65625 -1.445312 1.21875 -2.1875 C 0.78125 -2.925781 0.5625 -3.753906 0.5625 -4.671875 C 0.5625 -5.585938 0.773438 -6.410156 1.203125 -7.140625 C 1.640625 -7.878906 2.234375 -8.457031 2.984375 -8.875 C 3.734375 -9.300781 4.570312 -9.515625 5.5 -9.515625 C 6.195312 -9.515625 6.835938 -9.394531 7.421875 -9.15625 C 8.015625 -8.914062 8.519531 -8.582031 8.9375 -8.15625 C 9.363281 -7.726562 9.671875 -7.222656 9.859375 -6.640625 L 7.640625 -5.6875 C 7.472656 -6.15625 7.195312 -6.523438 6.8125 -6.796875 C 6.4375 -7.066406 6 -7.203125 5.5 -7.203125 C 5.0625 -7.203125 4.664062 -7.09375 4.3125 -6.875 C 3.96875 -6.664062 3.695312 -6.367188 3.5 -5.984375 C 3.300781 -5.597656 3.203125 -5.15625 3.203125 -4.65625 C 3.203125 -4.15625 3.300781 -3.710938 3.5 -3.328125 C 3.695312 -2.941406 3.96875 -2.640625 4.3125 -2.421875 C 4.664062 -2.203125 5.0625 -2.09375 5.5 -2.09375 C 6.007812 -2.09375 6.453125 -2.226562 6.828125 -2.5 C 7.203125 -2.78125 7.472656 -3.148438 7.640625 -3.609375 L 9.859375 -2.640625 C 9.679688 -2.097656 9.382812 -1.609375 8.96875 -1.171875 C 8.550781 -0.742188 8.046875 -0.40625 7.453125 -0.15625 C 6.859375 0.0820312 6.207031 0.203125 5.5 0.203125 Z M 5.5 0.203125 "/></g></g></g><g fill="#ffffff" fill-opacity="1"><g transform="translate(59.726771, 18.541418)"><g><path d="M 0.9375 0 L 0.9375 -9.3125 L 3.5 -9.3125 L 3.5 0 Z M 0.9375 -10.140625 L 0.9375 -12.703125 L 3.5 -12.703125 L 3.5 -10.140625 Z M 0.9375 -10.140625 "/></g></g></g><g fill="#ffffff" fill-opacity="1"><g transform="translate(64.669987, 18.541418)"><g><path d="M 3.8125 0.203125 C 3.144531 0.203125 2.566406 0.0976562 2.078125 -0.109375 C 1.585938 -0.328125 1.210938 -0.640625 0.953125 -1.046875 C 0.691406 -1.453125 0.5625 -1.929688 0.5625 -2.484375 C 0.5625 -3.003906 0.679688 -3.46875 0.921875 -3.875 C 1.160156 -4.28125 1.523438 -4.617188 2.015625 -4.890625 C 2.515625 -5.160156 3.132812 -5.351562 3.875 -5.46875 L 6.71875 -5.9375 L 6.71875 -4.0625 L 4.328125 -3.625 C 3.960938 -3.5625 3.679688 -3.445312 3.484375 -3.28125 C 3.296875 -3.113281 3.203125 -2.878906 3.203125 -2.578125 C 3.203125 -2.285156 3.3125 -2.0625 3.53125 -1.90625 C 3.75 -1.75 4.015625 -1.671875 4.328125 -1.671875 C 4.742188 -1.671875 5.113281 -1.757812 5.4375 -1.9375 C 5.757812 -2.125 6.003906 -2.375 6.171875 -2.6875 C 6.347656 -3 6.4375 -3.34375 6.4375 -3.71875 L 6.4375 -6.140625 C 6.4375 -6.492188 6.296875 -6.785156 6.015625 -7.015625 C 5.742188 -7.253906 5.367188 -7.375 4.890625 -7.375 C 4.429688 -7.375 4.03125 -7.25 3.6875 -7 C 3.34375 -6.75 3.09375 -6.421875 2.9375 -6.015625 L 0.890625 -6.984375 C 1.066406 -7.503906 1.351562 -7.953125 1.75 -8.328125 C 2.15625 -8.710938 2.632812 -9.003906 3.1875 -9.203125 C 3.738281 -9.410156 4.347656 -9.515625 5.015625 -9.515625 C 5.796875 -9.515625 6.488281 -9.367188 7.09375 -9.078125 C 7.695312 -8.796875 8.164062 -8.398438 8.5 -7.890625 C 8.832031 -7.390625 9 -6.804688 9 -6.140625 L 9 0 L 6.609375 0 L 6.609375 -1.5 L 7.1875 -1.609375 C 6.914062 -1.191406 6.613281 -0.847656 6.28125 -0.578125 C 5.957031 -0.316406 5.585938 -0.125 5.171875 0 C 4.765625 0.132812 4.3125 0.203125 3.8125 0.203125 Z M 3.8125 0.203125 "/></g></g></g><g fill="#ffffff" fill-opacity="1"><g transform="translate(75.118697, 18.541418)"><g><path d="M 0.9375 0 L 0.9375 -9.3125 L 3.328125 -9.3125 L 3.328125 -7.046875 L 3.0625 -7.421875 C 3.195312 -8.128906 3.523438 -8.65625 4.046875 -9 C 4.578125 -9.34375 5.207031 -9.515625 5.9375 -9.515625 C 6.707031 -9.515625 7.382812 -9.316406 7.96875 -8.921875 C 8.550781 -8.535156 8.914062 -8.007812 9.0625 -7.34375 L 8.34375 -7.28125 C 8.644531 -8.039062 9.078125 -8.601562 9.640625 -8.96875 C 10.210938 -9.332031 10.878906 -9.515625 11.640625 -9.515625 C 12.316406 -9.515625 12.910156 -9.363281 13.421875 -9.0625 C 13.941406 -8.769531 14.347656 -8.359375 14.640625 -7.828125 C 14.941406 -7.304688 15.09375 -6.691406 15.09375 -5.984375 L 15.09375 0 L 12.53125 0 L 12.53125 -5.4375 C 12.53125 -5.800781 12.460938 -6.113281 12.328125 -6.375 C 12.203125 -6.632812 12.019531 -6.835938 11.78125 -6.984375 C 11.539062 -7.128906 11.25 -7.203125 10.90625 -7.203125 C 10.582031 -7.203125 10.296875 -7.128906 10.046875 -6.984375 C 9.804688 -6.835938 9.617188 -6.632812 9.484375 -6.375 C 9.359375 -6.113281 9.296875 -5.800781 9.296875 -5.4375 L 9.296875 0 L 6.734375 0 L 6.734375 -5.4375 C 6.734375 -5.800781 6.664062 -6.113281 6.53125 -6.375 C 6.40625 -6.632812 6.222656 -6.835938 5.984375 -6.984375 C 5.742188 -7.128906 5.453125 -7.203125 5.109375 -7.203125 C 4.785156 -7.203125 4.5 -7.128906 4.25 -6.984375 C 4.007812 -6.835938 3.820312 -6.632812 3.6875 -6.375 C 3.5625 -6.113281 3.5 -5.800781 3.5 -5.4375 L 3.5 0 Z M 0.9375 0 "/></g></g></g><g fill="#ffffff" fill-opacity="1"><g transform="translate(91.464937, 18.541418)"><g><path d="M 5.5625 0.203125 C 4.632812 0.203125 3.789062 -0.00390625 3.03125 -0.421875 C 2.28125 -0.847656 1.679688 -1.425781 1.234375 -2.15625 C 0.785156 -2.882812 0.5625 -3.71875 0.5625 -4.65625 C 0.5625 -5.59375 0.785156 -6.425781 1.234375 -7.15625 C 1.679688 -7.882812 2.28125 -8.457031 3.03125 -8.875 C 3.789062 -9.300781 4.632812 -9.515625 5.5625 -9.515625 C 6.476562 -9.515625 7.3125 -9.300781 8.0625 -8.875 C 8.8125 -8.457031 9.410156 -7.882812 9.859375 -7.15625 C 10.304688 -6.425781 10.53125 -5.59375 10.53125 -4.65625 C 10.53125 -3.71875 10.304688 -2.882812 9.859375 -2.15625 C 9.410156 -1.425781 8.8125 -0.847656 8.0625 -0.421875 C 7.3125 -0.00390625 6.476562 0.203125 5.5625 0.203125 Z M 5.5625 -2.09375 C 6.019531 -2.09375 6.421875 -2.203125 6.765625 -2.421875 C 7.117188 -2.640625 7.394531 -2.941406 7.59375 -3.328125 C 7.789062 -3.710938 7.890625 -4.15625 7.890625 -4.65625 C 7.890625 -5.15625 7.789062 -5.59375 7.59375 -5.96875 C 7.394531 -6.351562 7.117188 -6.65625 6.765625 -6.875 C 6.421875 -7.09375 6.019531 -7.203125 5.5625 -7.203125 C 5.09375 -7.203125 4.679688 -7.09375 4.328125 -6.875 C 3.972656 -6.65625 3.695312 -6.351562 3.5 -5.96875 C 3.300781 -5.59375 3.203125 -5.15625 3.203125 -4.65625 C 3.203125 -4.15625 3.300781 -3.710938 3.5 -3.328125 C 3.695312 -2.941406 3.972656 -2.640625 4.328125 -2.421875 C 4.679688 -2.203125 5.09375 -2.09375 5.5625 -2.09375 Z M 5.5625 -2.09375 "/></g></g></g><g fill="#ffffff" fill-opacity="1"><g transform="translate(103.072703, 18.541418)"><g/></g></g><g fill="#ffffff" fill-opacity="1"><g transform="translate(106.652317, 18.541418)"><g><path d="M 2.0625 0 L 2.0625 -7.09375 L 0.5 -7.09375 L 0.5 -9.3125 L 2.0625 -9.3125 L 2.0625 -9.4375 C 2.0625 -10.175781 2.207031 -10.800781 2.5 -11.3125 C 2.789062 -11.832031 3.207031 -12.226562 3.75 -12.5 C 4.289062 -12.769531 4.953125 -12.90625 5.734375 -12.90625 C 5.878906 -12.90625 6.035156 -12.894531 6.203125 -12.875 C 6.367188 -12.863281 6.507812 -12.84375 6.625 -12.8125 L 6.625 -10.640625 C 6.507812 -10.660156 6.410156 -10.671875 6.328125 -10.671875 C 6.242188 -10.679688 6.15625 -10.6875 6.0625 -10.6875 C 5.59375 -10.6875 5.234375 -10.582031 4.984375 -10.375 C 4.742188 -10.164062 4.625 -9.851562 4.625 -9.4375 L 4.625 -9.3125 L 6.609375 -9.3125 L 6.609375 -7.09375 L 4.625 -7.09375 L 4.625 0 Z M 2.0625 0 "/></g></g></g><g fill="#ffffff" fill-opacity="1"><g transform="translate(114.152262, 18.541418)"><g><path d="M 3.8125 0.203125 C 3.144531 0.203125 2.566406 0.0976562 2.078125 -0.109375 C 1.585938 -0.328125 1.210938 -0.640625 0.953125 -1.046875 C 0.691406 -1.453125 0.5625 -1.929688 0.5625 -2.484375 C 0.5625 -3.003906 0.679688 -3.46875 0.921875 -3.875 C 1.160156 -4.28125 1.523438 -4.617188 2.015625 -4.890625 C 2.515625 -5.160156 3.132812 -5.351562 3.875 -5.46875 L 6.71875 -5.9375 L 6.71875 -4.0625 L 4.328125 -3.625 C 3.960938 -3.5625 3.679688 -3.445312 3.484375 -3.28125 C 3.296875 -3.113281 3.203125 -2.878906 3.203125 -2.578125 C 3.203125 -2.285156 3.3125 -2.0625 3.53125 -1.90625 C 3.75 -1.75 4.015625 -1.671875 4.328125 -1.671875 C 4.742188 -1.671875 5.113281 -1.757812 5.4375 -1.9375 C 5.757812 -2.125 6.003906 -2.375 6.171875 -2.6875 C 6.347656 -3 6.4375 -3.34375 6.4375 -3.71875 L 6.4375 -6.140625 C 6.4375 -6.492188 6.296875 -6.785156 6.015625 -7.015625 C 5.742188 -7.253906 5.367188 -7.375 4.890625 -7.375 C 4.429688 -7.375 4.03125 -7.25 3.6875 -7 C 3.34375 -6.75 3.09375 -6.421875 2.9375 -6.015625 L 0.890625 -6.984375 C 1.066406 -7.503906 1.351562 -7.953125 1.75 -8.328125 C 2.15625 -8.710938 2.632812 -9.003906 3.1875 -9.203125 C 3.738281 -9.410156 4.347656 -9.515625 5.015625 -9.515625 C 5.796875 -9.515625 6.488281 -9.367188 7.09375 -9.078125 C 7.695312 -8.796875 8.164062 -8.398438 8.5 -7.890625 C 8.832031 -7.390625 9 -6.804688 9 -6.140625 L 9 0 L 6.609375 0 L 6.609375 -1.5 L 7.1875 -1.609375 C 6.914062 -1.191406 6.613281 -0.847656 6.28125 -0.578125 C 5.957031 -0.316406 5.585938 -0.125 5.171875 0 C 4.765625 0.132812 4.3125 0.203125 3.8125 0.203125 Z M 3.8125 0.203125 "/></g></g></g><g fill="#ffffff" fill-opacity="1"><g transform="translate(124.600972, 18.541418)"><g><path d="M 5.5 0.203125 C 4.570312 0.203125 3.734375 -0.0078125 2.984375 -0.4375 C 2.242188 -0.863281 1.65625 -1.445312 1.21875 -2.1875 C 0.78125 -2.925781 0.5625 -3.753906 0.5625 -4.671875 C 0.5625 -5.585938 0.773438 -6.410156 1.203125 -7.140625 C 1.640625 -7.878906 2.234375 -8.457031 2.984375 -8.875 C 3.734375 -9.300781 4.570312 -9.515625 5.5 -9.515625 C 6.195312 -9.515625 6.835938 -9.394531 7.421875 -9.15625 C 8.015625 -8.914062 8.519531 -8.582031 8.9375 -8.15625 C 9.363281 -7.726562 9.671875 -7.222656 9.859375 -6.640625 L 7.640625 -5.6875 C 7.472656 -6.15625 7.195312 -6.523438 6.8125 -6.796875 C 6.4375 -7.066406 6 -7.203125 5.5 -7.203125 C 5.0625 -7.203125 4.664062 -7.09375 4.3125 -6.875 C 3.96875 -6.664062 3.695312 -6.367188 3.5 -5.984375 C 3.300781 -5.597656 3.203125 -5.15625 3.203125 -4.65625 C 3.203125 -4.15625 3.300781 -3.710938 3.5 -3.328125 C 3.695312 -2.941406 3.96875 -2.640625 4.3125 -2.421875 C 4.664062 -2.203125 5.0625 -2.09375 5.5 -2.09375 C 6.007812 -2.09375 6.453125 -2.226562 6.828125 -2.5 C 7.203125 -2.78125 7.472656 -3.148438 7.640625 -3.609375 L 9.859375 -2.640625 C 9.679688 -2.097656 9.382812 -1.609375 8.96875 -1.171875 C 8.550781 -0.742188 8.046875 -0.40625 7.453125 -0.15625 C 6.859375 0.0820312 6.207031 0.203125 5.5 0.203125 Z M 5.5 0.203125 "/></g></g></g><g fill="#ffffff" fill-opacity="1"><g transform="translate(135.526937, 18.541418)"><g><path d="M 0.9375 0 L 0.9375 -9.3125 L 3.5 -9.3125 L 3.5 0 Z M 0.9375 -10.140625 L 0.9375 -12.703125 L 3.5 -12.703125 L 3.5 -10.140625 Z M 0.9375 -10.140625 "/></g></g></g><g fill="#ffffff" fill-opacity="1"><g transform="translate(140.470153, 18.541418)"><g><path d="M 0.9375 0 L 0.9375 -12.90625 L 3.5 -12.90625 L 3.5 0 Z M 0.9375 0 "/></g></g></g><g fill="#ffffff" fill-opacity="1"><g transform="translate(145.413369, 18.541418)"><g><path d="M 5.421875 0.203125 C 4.429688 0.203125 3.570312 -0.015625 2.84375 -0.453125 C 2.113281 -0.890625 1.550781 -1.476562 1.15625 -2.21875 C 0.757812 -2.957031 0.5625 -3.773438 0.5625 -4.671875 C 0.5625 -5.597656 0.769531 -6.425781 1.1875 -7.15625 C 1.601562 -7.882812 2.160156 -8.457031 2.859375 -8.875 C 3.566406 -9.300781 4.363281 -9.515625 5.25 -9.515625 C 5.988281 -9.515625 6.640625 -9.394531 7.203125 -9.15625 C 7.773438 -8.925781 8.253906 -8.597656 8.640625 -8.171875 C 9.035156 -7.753906 9.335938 -7.269531 9.546875 -6.71875 C 9.753906 -6.164062 9.859375 -5.566406 9.859375 -4.921875 C 9.859375 -4.742188 9.847656 -4.566406 9.828125 -4.390625 C 9.804688 -4.210938 9.773438 -4.0625 9.734375 -3.9375 L 2.765625 -3.9375 L 2.765625 -5.8125 L 8.28125 -5.8125 L 7.078125 -4.921875 C 7.191406 -5.410156 7.1875 -5.84375 7.0625 -6.21875 C 6.9375 -6.601562 6.71875 -6.90625 6.40625 -7.125 C 6.09375 -7.351562 5.707031 -7.46875 5.25 -7.46875 C 4.800781 -7.46875 4.414062 -7.359375 4.09375 -7.140625 C 3.78125 -6.921875 3.546875 -6.601562 3.390625 -6.1875 C 3.234375 -5.769531 3.171875 -5.257812 3.203125 -4.65625 C 3.160156 -4.132812 3.222656 -3.671875 3.390625 -3.265625 C 3.554688 -2.867188 3.816406 -2.5625 4.171875 -2.34375 C 4.523438 -2.125 4.953125 -2.015625 5.453125 -2.015625 C 5.910156 -2.015625 6.300781 -2.101562 6.625 -2.28125 C 6.945312 -2.46875 7.195312 -2.71875 7.375 -3.03125 L 9.421875 -2.0625 C 9.242188 -1.601562 8.957031 -1.203125 8.5625 -0.859375 C 8.175781 -0.523438 7.710938 -0.265625 7.171875 -0.078125 C 6.640625 0.105469 6.054688 0.203125 5.421875 0.203125 Z M 5.421875 0.203125 "/></g></g></g></g></g></g></g></g></g></svg>