<svg xmlns="http://www.w3.org/2000/svg" xmlns:xlink="http://www.w3.org/1999/xlink" width="500" zoomAndPan="magnify" viewBox="0 0 375 374.999991" height="500" preserveAspectRatio="xMidYMid meet" version="1.0"><defs><filter x="0%" y="0%" width="100%" height="100%" id="8e43146a1e"><feColorMatrix values="0 0 0 0 1 0 0 0 0 1 0 0 0 0 1 0 0 0 1 0" color-interpolation-filters="sRGB"></feColorMatrix></filter><g></g><mask id="117396b2e9"><g filter="url(#8e43146a1e)"><rect x="-37.5" width="450" fill="#000000" y="-37.499999" height="449.999989" fill-opacity="0.5"></rect></g></mask><clipPath id="35ec6458a3"><path d="M 1 2 L 26 2 L 26 17 L 1 17 Z M 1 2 " clip-rule="nonzero"></path></clipPath><clipPath id="53191fa22b"><path d="M 23.363281 0.925781 L 26.394531 7.597656 L 3.527344 17.980469 L 0.5 11.304688 Z M 23.363281 0.925781 " clip-rule="nonzero"></path></clipPath><clipPath id="d3271c639f"><path d="M 24.878906 4.261719 C 25.28125 5.148438 25.316406 6.15625 24.972656 7.066406 C 24.632812 7.976562 23.941406 8.710938 23.058594 9.113281 L 6.871094 16.464844 C 5.984375 16.863281 4.976562 16.898438 4.066406 16.558594 C 3.15625 16.214844 2.417969 15.527344 2.019531 14.640625 C 1.617188 13.757812 1.582031 12.746094 1.925781 11.835938 C 2.265625 10.925781 2.953125 10.191406 3.839844 9.789062 L 20.027344 2.441406 C 20.910156 2.039062 21.921875 2.003906 22.832031 2.347656 C 23.742188 2.6875 24.476562 3.375 24.878906 4.261719 Z M 24.878906 4.261719 " clip-rule="nonzero"></path></clipPath><clipPath id="fd63945388"><path d="M 0.519531 0 L 24.519531 0 L 24.519531 14.921875 L 0.519531 14.921875 Z M 0.519531 0 " clip-rule="nonzero"></path></clipPath><clipPath id="39fd31f2ee"><path d="M 22.363281 -1.074219 L 25.394531 5.597656 L 2.527344 15.980469 L -0.5 9.304688 Z M 22.363281 -1.074219 " clip-rule="nonzero"></path></clipPath><clipPath id="efb8353941"><path d="M 23.878906 2.261719 C 24.28125 3.148438 24.316406 4.15625 23.972656 5.066406 C 23.632812 5.976562 22.941406 6.710938 22.058594 7.113281 L 5.871094 14.464844 C 4.984375 14.863281 3.976562 14.898438 3.066406 14.558594 C 2.15625 14.214844 1.417969 13.527344 1.019531 12.640625 C 0.617188 11.757812 0.582031 10.746094 0.925781 9.835938 C 1.265625 8.925781 1.953125 8.191406 2.839844 7.789062 L 19.027344 0.441406 C 19.910156 0.0390625 20.921875 0.00390625 21.832031 0.347656 C 22.742188 0.6875 23.476562 1.375 23.878906 2.261719 Z M 23.878906 2.261719 " clip-rule="nonzero"></path></clipPath><clipPath id="47d926b595"><rect x="0" width="25" y="0" height="15"></rect></clipPath><clipPath id="720b1c3200"><rect x="0" width="27" y="0" height="19"></rect></clipPath><clipPath id="2d8cc29cdb"><path d="M 93 181 L 121 181 L 121 200 L 93 200 Z M 93 181 " clip-rule="nonzero"></path></clipPath><clipPath id="a900e3ba10"><path d="M 118.460938 180.546875 L 122.003906 188.351562 L 95.269531 200.488281 L 91.726562 192.683594 Z M 118.460938 180.546875 " clip-rule="nonzero"></path></clipPath><clipPath id="432d4553c4"><path d="M 120.230469 184.449219 C 120.703125 185.484375 120.742188 186.664062 120.34375 187.726562 C 119.941406 188.792969 119.136719 189.652344 118.101562 190.121094 L 99.175781 198.714844 C 98.140625 199.183594 96.964844 199.222656 95.898438 198.824219 C 94.835938 198.425781 93.972656 197.621094 93.503906 196.585938 C 93.035156 195.550781 92.996094 194.371094 93.394531 193.308594 C 93.792969 192.242188 94.597656 191.382812 95.632812 190.910156 L 114.558594 182.320312 C 115.59375 181.847656 116.773438 181.808594 117.835938 182.210938 C 118.902344 182.609375 119.761719 183.414062 120.230469 184.449219 Z M 120.230469 184.449219 " clip-rule="nonzero"></path></clipPath><clipPath id="17405819ea"><path d="M 0 0.679688 L 27.960938 0.679688 L 27.960938 18.441406 L 0 18.441406 Z M 0 0.679688 " clip-rule="nonzero"></path></clipPath><clipPath id="d4cb3e46f0"><path d="M 25.460938 -0.453125 L 29.003906 7.351562 L 2.269531 19.488281 L -1.273438 11.683594 Z M 25.460938 -0.453125 " clip-rule="nonzero"></path></clipPath><clipPath id="135cd998de"><path d="M 27.230469 3.449219 C 27.703125 4.484375 27.742188 5.664062 27.34375 6.726562 C 26.941406 7.792969 26.136719 8.652344 25.101562 9.121094 L 6.175781 17.714844 C 5.140625 18.183594 3.964844 18.222656 2.898438 17.824219 C 1.835938 17.425781 0.972656 16.621094 0.503906 15.585938 C 0.0351562 14.550781 -0.00390625 13.371094 0.394531 12.308594 C 0.792969 11.242188 1.597656 10.382812 2.632812 9.910156 L 21.558594 1.320312 C 22.59375 0.847656 23.773438 0.808594 24.835938 1.210938 C 25.902344 1.609375 26.761719 2.414062 27.230469 3.449219 Z M 27.230469 3.449219 " clip-rule="nonzero"></path></clipPath><clipPath id="2bbe0256da"><rect x="0" width="28" y="0" height="19"></rect></clipPath><clipPath id="a01aacd1e0"><path d="M 81 152 L 134 152 L 134 187 L 81 187 Z M 81 152 " clip-rule="nonzero"></path></clipPath><clipPath id="edc46bf9e8"><path d="M 128.832031 149.109375 L 136.558594 166.125 L 85.773438 189.183594 L 78.046875 172.164062 Z M 128.832031 149.109375 " clip-rule="nonzero"></path></clipPath><clipPath id="f83b7093a0"><path d="M 132.695312 157.617188 C 133.71875 159.871094 133.804688 162.445312 132.933594 164.765625 C 132.0625 167.085938 130.308594 168.964844 128.050781 169.988281 L 94.339844 185.292969 C 92.082031 186.316406 89.511719 186.40625 87.191406 185.53125 C 84.871094 184.660156 82.992188 182.90625 81.96875 180.648438 C 80.941406 178.390625 80.855469 175.820312 81.726562 173.5 C 82.597656 171.179688 84.355469 169.300781 86.613281 168.277344 L 120.324219 152.972656 C 122.582031 151.945312 125.152344 151.859375 127.472656 152.730469 C 129.792969 153.601562 131.671875 155.359375 132.695312 157.617188 Z M 132.695312 157.617188 " clip-rule="nonzero"></path></clipPath><clipPath id="1da7b1b77f"><path d="M 0 0 L 52.921875 0 L 52.921875 34.480469 L 0 34.480469 Z M 0 0 " clip-rule="nonzero"></path></clipPath><clipPath id="83dce87bd6"><path d="M 47.832031 -2.890625 L 55.558594 14.125 L 4.773438 37.183594 L -2.953125 20.164062 Z M 47.832031 -2.890625 " clip-rule="nonzero"></path></clipPath><clipPath id="4016797dd5"><path d="M 51.695312 5.617188 C 52.71875 7.871094 52.804688 10.445312 51.933594 12.765625 C 51.0625 15.085938 49.308594 16.964844 47.050781 17.988281 L 13.339844 33.292969 C 11.082031 34.316406 8.511719 34.40625 6.191406 33.53125 C 3.871094 32.660156 1.992188 30.90625 0.96875 28.648438 C -0.0585938 26.390625 -0.144531 23.820312 0.726562 21.5 C 1.597656 19.179688 3.355469 17.300781 5.613281 16.277344 L 39.324219 0.972656 C 41.582031 -0.0546875 44.152344 -0.140625 46.472656 0.730469 C 48.792969 1.601562 50.671875 3.359375 51.695312 5.617188 Z M 51.695312 5.617188 " clip-rule="nonzero"></path></clipPath><clipPath id="2ebb7a2540"><rect x="0" width="53" y="0" height="35"></rect></clipPath><clipPath id="77117fcf7b"><path d="M 90 178 L 123 178 L 123 199 L 90 199 Z M 90 178 " clip-rule="nonzero"></path></clipPath><clipPath id="e65f897476"><path d="M 120.027344 176.703125 L 124.101562 185.675781 L 93.359375 199.632812 L 89.285156 190.660156 Z M 120.027344 176.703125 " clip-rule="nonzero"></path></clipPath><clipPath id="a1ecc2cb41"><path d="M 122.066406 181.1875 C 123.191406 183.667969 122.09375 186.585938 119.617188 187.710938 L 97.851562 197.59375 C 95.375 198.71875 92.453125 197.621094 91.328125 195.144531 C 90.203125 192.664062 91.300781 189.746094 93.777344 188.621094 L 115.542969 178.738281 C 118.019531 177.613281 120.941406 178.710938 122.066406 181.1875 Z M 122.066406 181.1875 " clip-rule="nonzero"></path></clipPath><clipPath id="ebe31671f1"><path d="M 0 0 L 33 0 L 33 20.71875 L 0 20.71875 Z M 0 0 " clip-rule="nonzero"></path></clipPath><clipPath id="b0bae91396"><path d="M 30.027344 -1.296875 L 34.101562 7.675781 L 3.359375 21.632812 L -0.714844 12.660156 Z M 30.027344 -1.296875 " clip-rule="nonzero"></path></clipPath><clipPath id="599ffa88f8"><path d="M 32.066406 3.1875 C 33.191406 5.667969 32.09375 8.585938 29.617188 9.710938 L 7.851562 19.59375 C 5.375 20.71875 2.453125 19.621094 1.328125 17.144531 C 0.203125 14.664062 1.300781 11.746094 3.777344 10.621094 L 25.542969 0.738281 C 28.019531 -0.386719 30.941406 0.710938 32.066406 3.1875 Z M 32.066406 3.1875 " clip-rule="nonzero"></path></clipPath><clipPath id="934301ee64"><rect x="0" width="33" y="0" height="21"></rect></clipPath><clipPath id="d297fa72f3"><path d="M 88 188 L 141 188 L 141 223 L 88 223 Z M 88 188 " clip-rule="nonzero"></path></clipPath><clipPath id="e1a6d60ff1"><path d="M 136.238281 185.914062 L 143.933594 202.867188 L 93.152344 225.921875 L 85.457031 208.972656 Z M 136.238281 185.914062 " clip-rule="nonzero"></path></clipPath><clipPath id="51031276f4"><path d="M 140.085938 194.390625 C 141.109375 196.636719 141.191406 199.199219 140.324219 201.511719 C 139.457031 203.820312 137.707031 205.691406 135.460938 206.714844 L 101.679688 222.050781 C 99.433594 223.070312 96.871094 223.15625 94.5625 222.289062 C 92.25 221.421875 90.378906 219.671875 89.359375 217.421875 C 88.335938 215.175781 88.25 212.613281 89.121094 210.304688 C 89.988281 207.992188 91.738281 206.121094 93.984375 205.101562 L 127.765625 189.761719 C 130.011719 188.742188 132.574219 188.65625 134.882812 189.523438 C 137.195312 190.394531 139.066406 192.144531 140.085938 194.390625 Z M 140.085938 194.390625 " clip-rule="nonzero"></path></clipPath><clipPath id="ad28e171c2"><path d="M 0.078125 0.640625 L 53 0.640625 L 53 35 L 0.078125 35 Z M 0.078125 0.640625 " clip-rule="nonzero"></path></clipPath><clipPath id="2532345090"><path d="M 48.238281 -2.085938 L 55.933594 14.867188 L 5.152344 37.921875 L -2.542969 20.972656 Z M 48.238281 -2.085938 " clip-rule="nonzero"></path></clipPath><clipPath id="54cf8cdfdd"><path d="M 52.085938 6.390625 C 53.109375 8.636719 53.191406 11.199219 52.324219 13.511719 C 51.457031 15.820312 49.707031 17.691406 47.460938 18.714844 L 13.679688 34.050781 C 11.433594 35.070312 8.871094 35.15625 6.5625 34.289062 C 4.25 33.421875 2.378906 31.671875 1.359375 29.421875 C 0.335938 27.175781 0.25 24.613281 1.121094 22.304688 C 1.988281 19.992188 3.738281 18.121094 5.984375 17.101562 L 39.765625 1.761719 C 42.011719 0.742188 44.574219 0.65625 46.882812 1.523438 C 49.195312 2.394531 51.066406 4.144531 52.085938 6.390625 Z M 52.085938 6.390625 " clip-rule="nonzero"></path></clipPath><clipPath id="647f6e361b"><rect x="0" width="53" y="0" height="35"></rect></clipPath><clipPath id="209795f7ed"><rect x="0" width="155" y="0" height="58"></rect></clipPath><mask id="10488e0c25"><g filter="url(#8e43146a1e)"><rect x="-37.5" width="450" fill="#000000" y="-37.499999" height="449.999989" fill-opacity="0.5"></rect></g></mask><clipPath id="371b063ccc"><path d="M 0.078125 0.28125 L 106.398438 0.28125 L 106.398438 15.160156 L 0.078125 15.160156 Z M 0.078125 0.28125 " clip-rule="nonzero"></path></clipPath><clipPath id="6c6508ab47"><path d="M 0.078125 3 L 3 3 L 3 13 L 0.078125 13 Z M 0.078125 3 " clip-rule="nonzero"></path></clipPath><clipPath id="3c610a7ea7"><rect x="0" width="107" y="0" height="16"></rect></clipPath><clipPath id="486fd0cf27"><rect x="0" width="107" y="0" height="16"></rect></clipPath></defs><g mask="url(#117396b2e9)"><g transform="matrix(1, 0, 0, 1, 94, 183)"><g clip-path="url(#720b1c3200)"><g clip-path="url(#35ec6458a3)"><g clip-path="url(#53191fa22b)"><g clip-path="url(#d3271c639f)"><g transform="matrix(1, 0, 0, 1, 1, 2)"><g clip-path="url(#47d926b595)"><g clip-path="url(#fd63945388)"><g clip-path="url(#39fd31f2ee)"><g clip-path="url(#efb8353941)"><path fill="#bad4f9" d="M 22.363281 -1.074219 L 25.394531 5.597656 L 2.527344 15.980469 L -0.5 9.304688 Z M 22.363281 -1.074219 " fill-opacity="1" fill-rule="nonzero"></path></g></g></g></g></g></g></g></g></g></g></g><g clip-path="url(#2d8cc29cdb)"><g clip-path="url(#a900e3ba10)"><g clip-path="url(#432d4553c4)"><g transform="matrix(1, 0, 0, 1, 93, 181)"><g clip-path="url(#2bbe0256da)"><g clip-path="url(#17405819ea)"><g clip-path="url(#d4cb3e46f0)"><g clip-path="url(#135cd998de)"><path fill="#bad4f9" d="M 25.460938 -0.453125 L 29.003906 7.351562 L 2.269531 19.488281 L -1.273438 11.683594 Z M 25.460938 -0.453125 " fill-opacity="1" fill-rule="nonzero"></path></g></g></g></g></g></g></g></g><g clip-path="url(#a01aacd1e0)"><g clip-path="url(#edc46bf9e8)"><g clip-path="url(#f83b7093a0)"><g transform="matrix(1, 0, 0, 1, 81, 152)"><g clip-path="url(#2ebb7a2540)"><g clip-path="url(#1da7b1b77f)"><g clip-path="url(#83dce87bd6)"><g clip-path="url(#4016797dd5)"><path fill="#2f80ed" d="M 47.832031 -2.890625 L 55.558594 14.125 L 4.839844 37.152344 L -2.886719 20.136719 Z M 47.832031 -2.890625 " fill-opacity="1" fill-rule="nonzero"></path></g></g></g></g></g></g></g></g><g clip-path="url(#77117fcf7b)"><g clip-path="url(#e65f897476)"><g clip-path="url(#a1ecc2cb41)"><g transform="matrix(1, 0, 0, 1, 90, 178)"><g clip-path="url(#934301ee64)"><g clip-path="url(#ebe31671f1)"><g clip-path="url(#b0bae91396)"><g clip-path="url(#599ffa88f8)"><path fill="#2f80ed" d="M 30.027344 -1.296875 L 34.101562 7.675781 L 3.359375 21.632812 L -0.714844 12.660156 Z M 30.027344 -1.296875 " fill-opacity="1" fill-rule="nonzero"></path></g></g></g></g></g></g></g></g><g clip-path="url(#d297fa72f3)"><g clip-path="url(#e1a6d60ff1)"><g clip-path="url(#51031276f4)"><g transform="matrix(1, 0, 0, 1, 88, 188)"><g clip-path="url(#647f6e361b)"><g clip-path="url(#ad28e171c2)"><g clip-path="url(#2532345090)"><g clip-path="url(#54cf8cdfdd)"><path fill="#2f80ed" d="M 48.238281 -2.085938 L 55.933594 14.867188 L 5.21875 37.890625 L -2.476562 20.941406 Z M 48.238281 -2.085938 " fill-opacity="1" fill-rule="nonzero"></path></g></g></g></g></g></g></g></g><g transform="matrix(1, 0, 0, 1, 143, 158)"><g clip-path="url(#209795f7ed)"><g fill="#2f80ed" fill-opacity="1"><g transform="translate(0.558286, 47.264975)"><g><path d="M 5.4375 0 L 5.4375 -18.703125 L 1.296875 -18.703125 L 1.296875 -24.546875 L 5.4375 -24.546875 L 5.4375 -24.90625 C 5.4375 -26.851562 5.816406 -28.5 6.578125 -29.84375 C 7.347656 -31.195312 8.453125 -32.234375 9.890625 -32.953125 C 11.328125 -33.671875 13.066406 -34.03125 15.109375 -34.03125 C 15.492188 -34.03125 15.910156 -34.003906 16.359375 -33.953125 C 16.804688 -33.910156 17.179688 -33.863281 17.484375 -33.8125 L 17.484375 -28.046875 C 17.179688 -28.109375 16.914062 -28.144531 16.6875 -28.15625 C 16.46875 -28.175781 16.238281 -28.1875 16 -28.1875 C 14.738281 -28.1875 13.785156 -27.90625 13.140625 -27.34375 C 12.503906 -26.789062 12.1875 -25.976562 12.1875 -24.90625 L 12.1875 -24.546875 L 17.4375 -24.546875 L 17.4375 -18.703125 L 12.1875 -18.703125 L 12.1875 0 Z M 5.4375 0 "></path></g></g></g><g fill="#2f80ed" fill-opacity="1"><g transform="translate(19.884895, 47.264975)"><g><path d="M 5.4375 0 L 5.4375 -18.703125 L 1.296875 -18.703125 L 1.296875 -24.546875 L 5.4375 -24.546875 L 5.4375 -24.90625 C 5.4375 -26.851562 5.816406 -28.5 6.578125 -29.84375 C 7.347656 -31.195312 8.453125 -32.234375 9.890625 -32.953125 C 11.328125 -33.671875 13.066406 -34.03125 15.109375 -34.03125 C 15.492188 -34.03125 15.910156 -34.003906 16.359375 -33.953125 C 16.804688 -33.910156 17.179688 -33.863281 17.484375 -33.8125 L 17.484375 -28.046875 C 17.179688 -28.109375 16.914062 -28.144531 16.6875 -28.15625 C 16.46875 -28.175781 16.238281 -28.1875 16 -28.1875 C 14.738281 -28.1875 13.785156 -27.90625 13.140625 -27.34375 C 12.503906 -26.789062 12.1875 -25.976562 12.1875 -24.90625 L 12.1875 -24.546875 L 17.4375 -24.546875 L 17.4375 -18.703125 L 12.1875 -18.703125 L 12.1875 0 Z M 5.4375 0 "></path></g></g></g><g fill="#2f80ed" fill-opacity="1"><g transform="translate(39.661034, 47.264975)"><g><path d="M 10.0625 0.546875 C 8.300781 0.546875 6.773438 0.257812 5.484375 -0.3125 C 4.191406 -0.882812 3.203125 -1.703125 2.515625 -2.765625 C 1.828125 -3.828125 1.484375 -5.09375 1.484375 -6.5625 C 1.484375 -7.9375 1.796875 -9.15625 2.421875 -10.21875 C 3.054688 -11.289062 4.023438 -12.1875 5.328125 -12.90625 C 6.628906 -13.625 8.253906 -14.132812 10.203125 -14.4375 L 17.71875 -15.640625 L 17.71875 -10.703125 L 11.421875 -9.578125 C 10.460938 -9.398438 9.726562 -9.09375 9.21875 -8.65625 C 8.707031 -8.21875 8.453125 -7.59375 8.453125 -6.78125 C 8.453125 -6.039062 8.734375 -5.457031 9.296875 -5.03125 C 9.867188 -4.613281 10.578125 -4.40625 11.421875 -4.40625 C 12.523438 -4.40625 13.492188 -4.644531 14.328125 -5.125 C 15.171875 -5.601562 15.828125 -6.253906 16.296875 -7.078125 C 16.765625 -7.898438 17 -8.804688 17 -9.796875 L 17 -16.1875 C 17 -17.113281 16.628906 -17.890625 15.890625 -18.515625 C 15.160156 -19.148438 14.164062 -19.46875 12.90625 -19.46875 C 11.707031 -19.46875 10.648438 -19.132812 9.734375 -18.46875 C 8.816406 -17.8125 8.148438 -16.945312 7.734375 -15.875 L 2.34375 -18.4375 C 2.820312 -19.8125 3.582031 -20.992188 4.625 -21.984375 C 5.675781 -22.972656 6.9375 -23.734375 8.40625 -24.265625 C 9.875 -24.804688 11.476562 -25.078125 13.21875 -25.078125 C 15.28125 -25.078125 17.101562 -24.703125 18.6875 -23.953125 C 20.28125 -23.210938 21.519531 -22.171875 22.40625 -20.828125 C 23.289062 -19.492188 23.734375 -17.945312 23.734375 -16.1875 L 23.734375 0 L 17.4375 0 L 17.4375 -3.953125 L 18.96875 -4.21875 C 18.25 -3.144531 17.453125 -2.253906 16.578125 -1.546875 C 15.710938 -0.847656 14.738281 -0.328125 13.65625 0.015625 C 12.582031 0.367188 11.382812 0.546875 10.0625 0.546875 Z M 10.0625 0.546875 "></path></g></g></g><g fill="#2f80ed" fill-opacity="1"><g transform="translate(66.763108, 47.264975)"><g><path d="M 14.296875 0.265625 C 11.328125 0.265625 9.023438 -0.535156 7.390625 -2.140625 C 5.753906 -3.742188 4.9375 -5.984375 4.9375 -8.859375 L 4.9375 -18.703125 L 0.8125 -18.703125 L 0.8125 -24.546875 L 1.03125 -24.546875 C 2.289062 -24.546875 3.253906 -24.859375 3.921875 -25.484375 C 4.597656 -26.117188 4.9375 -27.066406 4.9375 -28.328125 L 4.9375 -30.125 L 11.6875 -30.125 L 11.6875 -24.546875 L 17.4375 -24.546875 L 17.4375 -18.703125 L 11.6875 -18.703125 L 11.6875 -9.3125 C 11.6875 -8.46875 11.835938 -7.769531 12.140625 -7.21875 C 12.441406 -6.664062 12.90625 -6.253906 13.53125 -5.984375 C 14.15625 -5.710938 14.9375 -5.578125 15.875 -5.578125 C 16.082031 -5.578125 16.320312 -5.59375 16.59375 -5.625 C 16.863281 -5.65625 17.144531 -5.679688 17.4375 -5.703125 L 17.4375 0 C 16.988281 0.0625 16.476562 0.117188 15.90625 0.171875 C 15.34375 0.234375 14.804688 0.265625 14.296875 0.265625 Z M 14.296875 0.265625 "></path></g></g></g><g fill="#2f80ed" fill-opacity="1"><g transform="translate(87.033645, 47.264975)"><g><path d="M 14.296875 0.265625 C 11.328125 0.265625 9.023438 -0.535156 7.390625 -2.140625 C 5.753906 -3.742188 4.9375 -5.984375 4.9375 -8.859375 L 4.9375 -18.703125 L 0.8125 -18.703125 L 0.8125 -24.546875 L 1.03125 -24.546875 C 2.289062 -24.546875 3.253906 -24.859375 3.921875 -25.484375 C 4.597656 -26.117188 4.9375 -27.066406 4.9375 -28.328125 L 4.9375 -30.125 L 11.6875 -30.125 L 11.6875 -24.546875 L 17.4375 -24.546875 L 17.4375 -18.703125 L 11.6875 -18.703125 L 11.6875 -9.3125 C 11.6875 -8.46875 11.835938 -7.769531 12.140625 -7.21875 C 12.441406 -6.664062 12.90625 -6.253906 13.53125 -5.984375 C 14.15625 -5.710938 14.9375 -5.578125 15.875 -5.578125 C 16.082031 -5.578125 16.320312 -5.59375 16.59375 -5.625 C 16.863281 -5.65625 17.144531 -5.679688 17.4375 -5.703125 L 17.4375 0 C 16.988281 0.0625 16.476562 0.117188 15.90625 0.171875 C 15.34375 0.234375 14.804688 0.265625 14.296875 0.265625 Z M 14.296875 0.265625 "></path></g></g></g><g fill="#2f80ed" fill-opacity="1"><g transform="translate(107.304181, 47.264975)"><g><path d="M 10.0625 0.546875 C 8.300781 0.546875 6.773438 0.257812 5.484375 -0.3125 C 4.191406 -0.882812 3.203125 -1.703125 2.515625 -2.765625 C 1.828125 -3.828125 1.484375 -5.09375 1.484375 -6.5625 C 1.484375 -7.9375 1.796875 -9.15625 2.421875 -10.21875 C 3.054688 -11.289062 4.023438 -12.1875 5.328125 -12.90625 C 6.628906 -13.625 8.253906 -14.132812 10.203125 -14.4375 L 17.71875 -15.640625 L 17.71875 -10.703125 L 11.421875 -9.578125 C 10.460938 -9.398438 9.726562 -9.09375 9.21875 -8.65625 C 8.707031 -8.21875 8.453125 -7.59375 8.453125 -6.78125 C 8.453125 -6.039062 8.734375 -5.457031 9.296875 -5.03125 C 9.867188 -4.613281 10.578125 -4.40625 11.421875 -4.40625 C 12.523438 -4.40625 13.492188 -4.644531 14.328125 -5.125 C 15.171875 -5.601562 15.828125 -6.253906 16.296875 -7.078125 C 16.765625 -7.898438 17 -8.804688 17 -9.796875 L 17 -16.1875 C 17 -17.113281 16.628906 -17.890625 15.890625 -18.515625 C 15.160156 -19.148438 14.164062 -19.46875 12.90625 -19.46875 C 11.707031 -19.46875 10.648438 -19.132812 9.734375 -18.46875 C 8.816406 -17.8125 8.148438 -16.945312 7.734375 -15.875 L 2.34375 -18.4375 C 2.820312 -19.8125 3.582031 -20.992188 4.625 -21.984375 C 5.675781 -22.972656 6.9375 -23.734375 8.40625 -24.265625 C 9.875 -24.804688 11.476562 -25.078125 13.21875 -25.078125 C 15.28125 -25.078125 17.101562 -24.703125 18.6875 -23.953125 C 20.28125 -23.210938 21.519531 -22.171875 22.40625 -20.828125 C 23.289062 -19.492188 23.734375 -17.945312 23.734375 -16.1875 L 23.734375 0 L 17.4375 0 L 17.4375 -3.953125 L 18.96875 -4.21875 C 18.25 -3.144531 17.453125 -2.253906 16.578125 -1.546875 C 15.710938 -0.847656 14.738281 -0.328125 13.65625 0.015625 C 12.582031 0.367188 11.382812 0.546875 10.0625 0.546875 Z M 10.0625 0.546875 "></path></g></g></g><g fill="#2f80ed" fill-opacity="1"><g transform="translate(134.855786, 47.264975)"><g><path d="M 5.796875 0 L 5.796875 -6.75 L 12.546875 -6.75 L 12.546875 0 Z M 5.796875 0 "></path></g></g></g></g></g><g mask="url(#10488e0c25)"><g transform="matrix(1, 0, 0, 1, 148, 209)"><g clip-path="url(#486fd0cf27)"><g clip-path="url(#371b063ccc)"><g><g clip-path="url(#3c610a7ea7)"><g clip-path="url(#6c6508ab47)"><g fill="#2f80ed" fill-opacity="1"><g transform="translate(0.24041, 12.503434)"><g><path d="M 0.640625 0 L 0.640625 -8.765625 L 2.375 -8.765625 L 2.375 0 Z M 0.640625 0 "></path></g></g></g></g><g fill="#2f80ed" fill-opacity="1"><g transform="translate(3.599516, 12.503434)"><g><path d="M 2.59375 0.140625 C 2.132812 0.140625 1.738281 0.0664062 1.40625 -0.078125 C 1.082031 -0.222656 0.828125 -0.429688 0.640625 -0.703125 C 0.460938 -0.984375 0.375 -1.3125 0.375 -1.6875 C 0.375 -2.039062 0.457031 -2.351562 0.625 -2.625 C 0.789062 -2.90625 1.039062 -3.132812 1.375 -3.3125 C 1.707031 -3.5 2.125 -3.632812 2.625 -3.71875 L 4.5625 -4.03125 L 4.5625 -2.75 L 2.9375 -2.46875 C 2.695312 -2.414062 2.507812 -2.332031 2.375 -2.21875 C 2.238281 -2.113281 2.171875 -1.957031 2.171875 -1.75 C 2.171875 -1.550781 2.242188 -1.398438 2.390625 -1.296875 C 2.535156 -1.191406 2.71875 -1.140625 2.9375 -1.140625 C 3.226562 -1.140625 3.476562 -1.195312 3.6875 -1.3125 C 3.90625 -1.4375 4.070312 -1.601562 4.1875 -1.8125 C 4.3125 -2.03125 4.375 -2.269531 4.375 -2.53125 L 4.375 -4.171875 C 4.375 -4.410156 4.28125 -4.609375 4.09375 -4.765625 C 3.90625 -4.929688 3.648438 -5.015625 3.328125 -5.015625 C 3.015625 -5.015625 2.738281 -4.925781 2.5 -4.75 C 2.269531 -4.582031 2.097656 -4.363281 1.984375 -4.09375 L 0.609375 -4.75 C 0.722656 -5.101562 0.914062 -5.40625 1.1875 -5.65625 C 1.457031 -5.914062 1.78125 -6.113281 2.15625 -6.25 C 2.539062 -6.382812 2.957031 -6.453125 3.40625 -6.453125 C 3.9375 -6.453125 4.40625 -6.351562 4.8125 -6.15625 C 5.226562 -5.96875 5.546875 -5.703125 5.765625 -5.359375 C 5.992188 -5.015625 6.109375 -4.617188 6.109375 -4.171875 L 6.109375 0 L 4.5 0 L 4.5 -1.015625 L 4.890625 -1.09375 C 4.703125 -0.8125 4.492188 -0.578125 4.265625 -0.390625 C 4.046875 -0.210938 3.796875 -0.0820312 3.515625 0 C 3.242188 0.09375 2.9375 0.140625 2.59375 0.140625 Z M 2.59375 0.140625 "></path></g></g></g><g fill="#2f80ed" fill-opacity="1"><g transform="translate(10.699819, 12.503434)"><g></g></g></g><g fill="#2f80ed" fill-opacity="1"><g transform="translate(13.132305, 12.503434)"><g><path d="M 1.40625 0 L 1.40625 -4.8125 L 0.328125 -4.8125 L 0.328125 -6.328125 L 1.40625 -6.328125 L 1.40625 -6.421875 C 1.40625 -6.921875 1.5 -7.34375 1.6875 -7.6875 C 1.882812 -8.03125 2.171875 -8.296875 2.546875 -8.484375 C 2.921875 -8.671875 3.367188 -8.765625 3.890625 -8.765625 C 3.992188 -8.765625 4.101562 -8.757812 4.21875 -8.75 C 4.332031 -8.738281 4.425781 -8.722656 4.5 -8.703125 L 4.5 -7.21875 C 4.425781 -7.238281 4.359375 -7.25 4.296875 -7.25 C 4.242188 -7.257812 4.1875 -7.265625 4.125 -7.265625 C 3.800781 -7.265625 3.554688 -7.191406 3.390625 -7.046875 C 3.222656 -6.898438 3.140625 -6.691406 3.140625 -6.421875 L 3.140625 -6.328125 L 4.5 -6.328125 L 4.5 -4.8125 L 3.140625 -4.8125 L 3.140625 0 Z M 1.40625 0 "></path></g></g></g><g fill="#2f80ed" fill-opacity="1"><g transform="translate(18.228808, 12.503434)"><g><path d="M 2.59375 0.140625 C 2.132812 0.140625 1.738281 0.0664062 1.40625 -0.078125 C 1.082031 -0.222656 0.828125 -0.429688 0.640625 -0.703125 C 0.460938 -0.984375 0.375 -1.3125 0.375 -1.6875 C 0.375 -2.039062 0.457031 -2.351562 0.625 -2.625 C 0.789062 -2.90625 1.039062 -3.132812 1.375 -3.3125 C 1.707031 -3.5 2.125 -3.632812 2.625 -3.71875 L 4.5625 -4.03125 L 4.5625 -2.75 L 2.9375 -2.46875 C 2.695312 -2.414062 2.507812 -2.332031 2.375 -2.21875 C 2.238281 -2.113281 2.171875 -1.957031 2.171875 -1.75 C 2.171875 -1.550781 2.242188 -1.398438 2.390625 -1.296875 C 2.535156 -1.191406 2.71875 -1.140625 2.9375 -1.140625 C 3.226562 -1.140625 3.476562 -1.195312 3.6875 -1.3125 C 3.90625 -1.4375 4.070312 -1.601562 4.1875 -1.8125 C 4.3125 -2.03125 4.375 -2.269531 4.375 -2.53125 L 4.375 -4.171875 C 4.375 -4.410156 4.28125 -4.609375 4.09375 -4.765625 C 3.90625 -4.929688 3.648438 -5.015625 3.328125 -5.015625 C 3.015625 -5.015625 2.738281 -4.925781 2.5 -4.75 C 2.269531 -4.582031 2.097656 -4.363281 1.984375 -4.09375 L 0.609375 -4.75 C 0.722656 -5.101562 0.914062 -5.40625 1.1875 -5.65625 C 1.457031 -5.914062 1.78125 -6.113281 2.15625 -6.25 C 2.539062 -6.382812 2.957031 -6.453125 3.40625 -6.453125 C 3.9375 -6.453125 4.40625 -6.351562 4.8125 -6.15625 C 5.226562 -5.96875 5.546875 -5.703125 5.765625 -5.359375 C 5.992188 -5.015625 6.109375 -4.617188 6.109375 -4.171875 L 6.109375 0 L 4.5 0 L 4.5 -1.015625 L 4.890625 -1.09375 C 4.703125 -0.8125 4.492188 -0.578125 4.265625 -0.390625 C 4.046875 -0.210938 3.796875 -0.0820312 3.515625 0 C 3.242188 0.09375 2.9375 0.140625 2.59375 0.140625 Z M 2.59375 0.140625 "></path></g></g></g><g fill="#2f80ed" fill-opacity="1"><g transform="translate(25.32911, 12.503434)"><g><path d="M 3.734375 0.140625 C 3.109375 0.140625 2.539062 -0.00390625 2.03125 -0.296875 C 1.53125 -0.585938 1.128906 -0.984375 0.828125 -1.484375 C 0.523438 -1.984375 0.375 -2.546875 0.375 -3.171875 C 0.375 -3.796875 0.519531 -4.359375 0.8125 -4.859375 C 1.113281 -5.359375 1.519531 -5.75 2.03125 -6.03125 C 2.539062 -6.3125 3.109375 -6.453125 3.734375 -6.453125 C 4.210938 -6.453125 4.648438 -6.367188 5.046875 -6.203125 C 5.453125 -6.046875 5.796875 -5.820312 6.078125 -5.53125 C 6.359375 -5.25 6.5625 -4.910156 6.6875 -4.515625 L 5.1875 -3.859375 C 5.082031 -4.179688 4.898438 -4.429688 4.640625 -4.609375 C 4.378906 -4.796875 4.078125 -4.890625 3.734375 -4.890625 C 3.429688 -4.890625 3.160156 -4.816406 2.921875 -4.671875 C 2.691406 -4.523438 2.507812 -4.320312 2.375 -4.0625 C 2.238281 -3.800781 2.171875 -3.5 2.171875 -3.15625 C 2.171875 -2.820312 2.238281 -2.519531 2.375 -2.25 C 2.507812 -1.988281 2.691406 -1.785156 2.921875 -1.640625 C 3.160156 -1.492188 3.429688 -1.421875 3.734375 -1.421875 C 4.085938 -1.421875 4.390625 -1.515625 4.640625 -1.703125 C 4.898438 -1.890625 5.082031 -2.140625 5.1875 -2.453125 L 6.6875 -1.796875 C 6.570312 -1.421875 6.367188 -1.085938 6.078125 -0.796875 C 5.796875 -0.503906 5.453125 -0.273438 5.046875 -0.109375 C 4.648438 0.0546875 4.210938 0.140625 3.734375 0.140625 Z M 3.734375 0.140625 "></path></g></g></g><g fill="#2f80ed" fill-opacity="1"><g transform="translate(32.753725, 12.503434)"><g><path d="M 3.734375 0.140625 C 3.109375 0.140625 2.539062 -0.00390625 2.03125 -0.296875 C 1.53125 -0.585938 1.128906 -0.984375 0.828125 -1.484375 C 0.523438 -1.984375 0.375 -2.546875 0.375 -3.171875 C 0.375 -3.796875 0.519531 -4.359375 0.8125 -4.859375 C 1.113281 -5.359375 1.519531 -5.75 2.03125 -6.03125 C 2.539062 -6.3125 3.109375 -6.453125 3.734375 -6.453125 C 4.210938 -6.453125 4.648438 -6.367188 5.046875 -6.203125 C 5.453125 -6.046875 5.796875 -5.820312 6.078125 -5.53125 C 6.359375 -5.25 6.5625 -4.910156 6.6875 -4.515625 L 5.1875 -3.859375 C 5.082031 -4.179688 4.898438 -4.429688 4.640625 -4.609375 C 4.378906 -4.796875 4.078125 -4.890625 3.734375 -4.890625 C 3.429688 -4.890625 3.160156 -4.816406 2.921875 -4.671875 C 2.691406 -4.523438 2.507812 -4.320312 2.375 -4.0625 C 2.238281 -3.800781 2.171875 -3.5 2.171875 -3.15625 C 2.171875 -2.820312 2.238281 -2.519531 2.375 -2.25 C 2.507812 -1.988281 2.691406 -1.785156 2.921875 -1.640625 C 3.160156 -1.492188 3.429688 -1.421875 3.734375 -1.421875 C 4.085938 -1.421875 4.390625 -1.515625 4.640625 -1.703125 C 4.898438 -1.890625 5.082031 -2.140625 5.1875 -2.453125 L 6.6875 -1.796875 C 6.570312 -1.421875 6.367188 -1.085938 6.078125 -0.796875 C 5.796875 -0.503906 5.453125 -0.273438 5.046875 -0.109375 C 4.648438 0.0546875 4.210938 0.140625 3.734375 0.140625 Z M 3.734375 0.140625 "></path></g></g></g><g fill="#2f80ed" fill-opacity="1"><g transform="translate(40.178341, 12.503434)"><g><path d="M 0.640625 0 L 0.640625 -6.328125 L 2.375 -6.328125 L 2.375 0 Z M 0.640625 -6.890625 L 0.640625 -8.625 L 2.375 -8.625 L 2.375 -6.890625 Z M 0.640625 -6.890625 "></path></g></g></g><g fill="#2f80ed" fill-opacity="1"><g transform="translate(43.537447, 12.503434)"><g><path d="M 2.59375 0.140625 C 2.132812 0.140625 1.738281 0.0664062 1.40625 -0.078125 C 1.082031 -0.222656 0.828125 -0.429688 0.640625 -0.703125 C 0.460938 -0.984375 0.375 -1.3125 0.375 -1.6875 C 0.375 -2.039062 0.457031 -2.351562 0.625 -2.625 C 0.789062 -2.90625 1.039062 -3.132812 1.375 -3.3125 C 1.707031 -3.5 2.125 -3.632812 2.625 -3.71875 L 4.5625 -4.03125 L 4.5625 -2.75 L 2.9375 -2.46875 C 2.695312 -2.414062 2.507812 -2.332031 2.375 -2.21875 C 2.238281 -2.113281 2.171875 -1.957031 2.171875 -1.75 C 2.171875 -1.550781 2.242188 -1.398438 2.390625 -1.296875 C 2.535156 -1.191406 2.71875 -1.140625 2.9375 -1.140625 C 3.226562 -1.140625 3.476562 -1.195312 3.6875 -1.3125 C 3.90625 -1.4375 4.070312 -1.601562 4.1875 -1.8125 C 4.3125 -2.03125 4.375 -2.269531 4.375 -2.53125 L 4.375 -4.171875 C 4.375 -4.410156 4.28125 -4.609375 4.09375 -4.765625 C 3.90625 -4.929688 3.648438 -5.015625 3.328125 -5.015625 C 3.015625 -5.015625 2.738281 -4.925781 2.5 -4.75 C 2.269531 -4.582031 2.097656 -4.363281 1.984375 -4.09375 L 0.609375 -4.75 C 0.722656 -5.101562 0.914062 -5.40625 1.1875 -5.65625 C 1.457031 -5.914062 1.78125 -6.113281 2.15625 -6.25 C 2.539062 -6.382812 2.957031 -6.453125 3.40625 -6.453125 C 3.9375 -6.453125 4.40625 -6.351562 4.8125 -6.15625 C 5.226562 -5.96875 5.546875 -5.703125 5.765625 -5.359375 C 5.992188 -5.015625 6.109375 -4.617188 6.109375 -4.171875 L 6.109375 0 L 4.5 0 L 4.5 -1.015625 L 4.890625 -1.09375 C 4.703125 -0.8125 4.492188 -0.578125 4.265625 -0.390625 C 4.046875 -0.210938 3.796875 -0.0820312 3.515625 0 C 3.242188 0.09375 2.9375 0.140625 2.59375 0.140625 Z M 2.59375 0.140625 "></path></g></g></g><g fill="#2f80ed" fill-opacity="1"><g transform="translate(50.63775, 12.503434)"><g><path d="M 0.640625 0 L 0.640625 -6.328125 L 2.25 -6.328125 L 2.25 -4.78125 L 2.078125 -5.03125 C 2.171875 -5.519531 2.394531 -5.878906 2.75 -6.109375 C 3.101562 -6.335938 3.53125 -6.453125 4.03125 -6.453125 C 4.550781 -6.453125 5.007812 -6.316406 5.40625 -6.046875 C 5.8125 -5.785156 6.0625 -5.429688 6.15625 -4.984375 L 5.65625 -4.9375 C 5.863281 -5.457031 6.160156 -5.835938 6.546875 -6.078125 C 6.929688 -6.328125 7.382812 -6.453125 7.90625 -6.453125 C 8.363281 -6.453125 8.765625 -6.351562 9.109375 -6.15625 C 9.460938 -5.957031 9.738281 -5.675781 9.9375 -5.3125 C 10.144531 -4.957031 10.25 -4.539062 10.25 -4.0625 L 10.25 0 L 8.515625 0 L 8.515625 -3.6875 C 8.515625 -3.9375 8.46875 -4.148438 8.375 -4.328125 C 8.289062 -4.503906 8.164062 -4.640625 8 -4.734375 C 7.832031 -4.835938 7.632812 -4.890625 7.40625 -4.890625 C 7.1875 -4.890625 6.992188 -4.835938 6.828125 -4.734375 C 6.660156 -4.640625 6.53125 -4.503906 6.4375 -4.328125 C 6.351562 -4.148438 6.3125 -3.9375 6.3125 -3.6875 L 6.3125 0 L 4.578125 0 L 4.578125 -3.6875 C 4.578125 -3.9375 4.53125 -4.148438 4.4375 -4.328125 C 4.351562 -4.503906 4.226562 -4.640625 4.0625 -4.734375 C 3.90625 -4.835938 3.707031 -4.890625 3.46875 -4.890625 C 3.25 -4.890625 3.054688 -4.835938 2.890625 -4.734375 C 2.722656 -4.640625 2.59375 -4.503906 2.5 -4.328125 C 2.414062 -4.148438 2.375 -3.9375 2.375 -3.6875 L 2.375 0 Z M 0.640625 0 "></path></g></g></g><g fill="#2f80ed" fill-opacity="1"><g transform="translate(61.745652, 12.503434)"><g><path d="M 3.78125 0.140625 C 3.15625 0.140625 2.582031 0 2.0625 -0.28125 C 1.550781 -0.570312 1.140625 -0.96875 0.828125 -1.46875 C 0.523438 -1.96875 0.375 -2.53125 0.375 -3.15625 C 0.375 -3.800781 0.523438 -4.367188 0.828125 -4.859375 C 1.140625 -5.359375 1.550781 -5.75 2.0625 -6.03125 C 2.582031 -6.3125 3.15625 -6.453125 3.78125 -6.453125 C 4.40625 -6.453125 4.96875 -6.3125 5.46875 -6.03125 C 5.976562 -5.75 6.382812 -5.359375 6.6875 -4.859375 C 7 -4.367188 7.15625 -3.800781 7.15625 -3.15625 C 7.15625 -2.53125 7 -1.96875 6.6875 -1.46875 C 6.382812 -0.96875 5.976562 -0.570312 5.46875 -0.28125 C 4.96875 0 4.40625 0.140625 3.78125 0.140625 Z M 3.78125 -1.421875 C 4.09375 -1.421875 4.363281 -1.492188 4.59375 -1.640625 C 4.832031 -1.785156 5.019531 -1.988281 5.15625 -2.25 C 5.289062 -2.519531 5.359375 -2.820312 5.359375 -3.15625 C 5.359375 -3.5 5.289062 -3.800781 5.15625 -4.0625 C 5.019531 -4.320312 4.832031 -4.523438 4.59375 -4.671875 C 4.363281 -4.816406 4.09375 -4.890625 3.78125 -4.890625 C 3.457031 -4.890625 3.175781 -4.816406 2.9375 -4.671875 C 2.695312 -4.523438 2.507812 -4.320312 2.375 -4.0625 C 2.238281 -3.800781 2.171875 -3.5 2.171875 -3.15625 C 2.171875 -2.820312 2.238281 -2.519531 2.375 -2.25 C 2.507812 -1.988281 2.695312 -1.785156 2.9375 -1.640625 C 3.175781 -1.492188 3.457031 -1.421875 3.78125 -1.421875 Z M 3.78125 -1.421875 "></path></g></g></g><g fill="#2f80ed" fill-opacity="1"><g transform="translate(69.633577, 12.503434)"><g></g></g></g><g fill="#2f80ed" fill-opacity="1"><g transform="translate(72.066064, 12.503434)"><g><path d="M 1.40625 0 L 1.40625 -4.8125 L 0.328125 -4.8125 L 0.328125 -6.328125 L 1.40625 -6.328125 L 1.40625 -6.421875 C 1.40625 -6.921875 1.5 -7.34375 1.6875 -7.6875 C 1.882812 -8.03125 2.171875 -8.296875 2.546875 -8.484375 C 2.921875 -8.671875 3.367188 -8.765625 3.890625 -8.765625 C 3.992188 -8.765625 4.101562 -8.757812 4.21875 -8.75 C 4.332031 -8.738281 4.425781 -8.722656 4.5 -8.703125 L 4.5 -7.21875 C 4.425781 -7.238281 4.359375 -7.25 4.296875 -7.25 C 4.242188 -7.257812 4.1875 -7.265625 4.125 -7.265625 C 3.800781 -7.265625 3.554688 -7.191406 3.390625 -7.046875 C 3.222656 -6.898438 3.140625 -6.691406 3.140625 -6.421875 L 3.140625 -6.328125 L 4.5 -6.328125 L 4.5 -4.8125 L 3.140625 -4.8125 L 3.140625 0 Z M 1.40625 0 "></path></g></g></g><g fill="#2f80ed" fill-opacity="1"><g transform="translate(77.162566, 12.503434)"><g><path d="M 2.59375 0.140625 C 2.132812 0.140625 1.738281 0.0664062 1.40625 -0.078125 C 1.082031 -0.222656 0.828125 -0.429688 0.640625 -0.703125 C 0.460938 -0.984375 0.375 -1.3125 0.375 -1.6875 C 0.375 -2.039062 0.457031 -2.351562 0.625 -2.625 C 0.789062 -2.90625 1.039062 -3.132812 1.375 -3.3125 C 1.707031 -3.5 2.125 -3.632812 2.625 -3.71875 L 4.5625 -4.03125 L 4.5625 -2.75 L 2.9375 -2.46875 C 2.695312 -2.414062 2.507812 -2.332031 2.375 -2.21875 C 2.238281 -2.113281 2.171875 -1.957031 2.171875 -1.75 C 2.171875 -1.550781 2.242188 -1.398438 2.390625 -1.296875 C 2.535156 -1.191406 2.71875 -1.140625 2.9375 -1.140625 C 3.226562 -1.140625 3.476562 -1.195312 3.6875 -1.3125 C 3.90625 -1.4375 4.070312 -1.601562 4.1875 -1.8125 C 4.3125 -2.03125 4.375 -2.269531 4.375 -2.53125 L 4.375 -4.171875 C 4.375 -4.410156 4.28125 -4.609375 4.09375 -4.765625 C 3.90625 -4.929688 3.648438 -5.015625 3.328125 -5.015625 C 3.015625 -5.015625 2.738281 -4.925781 2.5 -4.75 C 2.269531 -4.582031 2.097656 -4.363281 1.984375 -4.09375 L 0.609375 -4.75 C 0.722656 -5.101562 0.914062 -5.40625 1.1875 -5.65625 C 1.457031 -5.914062 1.78125 -6.113281 2.15625 -6.25 C 2.539062 -6.382812 2.957031 -6.453125 3.40625 -6.453125 C 3.9375 -6.453125 4.40625 -6.351562 4.8125 -6.15625 C 5.226562 -5.96875 5.546875 -5.703125 5.765625 -5.359375 C 5.992188 -5.015625 6.109375 -4.617188 6.109375 -4.171875 L 6.109375 0 L 4.5 0 L 4.5 -1.015625 L 4.890625 -1.09375 C 4.703125 -0.8125 4.492188 -0.578125 4.265625 -0.390625 C 4.046875 -0.210938 3.796875 -0.0820312 3.515625 0 C 3.242188 0.09375 2.9375 0.140625 2.59375 0.140625 Z M 2.59375 0.140625 "></path></g></g></g><g fill="#2f80ed" fill-opacity="1"><g transform="translate(84.262869, 12.503434)"><g><path d="M 3.734375 0.140625 C 3.109375 0.140625 2.539062 -0.00390625 2.03125 -0.296875 C 1.53125 -0.585938 1.128906 -0.984375 0.828125 -1.484375 C 0.523438 -1.984375 0.375 -2.546875 0.375 -3.171875 C 0.375 -3.796875 0.519531 -4.359375 0.8125 -4.859375 C 1.113281 -5.359375 1.519531 -5.75 2.03125 -6.03125 C 2.539062 -6.3125 3.109375 -6.453125 3.734375 -6.453125 C 4.210938 -6.453125 4.648438 -6.367188 5.046875 -6.203125 C 5.453125 -6.046875 5.796875 -5.820312 6.078125 -5.53125 C 6.359375 -5.25 6.5625 -4.910156 6.6875 -4.515625 L 5.1875 -3.859375 C 5.082031 -4.179688 4.898438 -4.429688 4.640625 -4.609375 C 4.378906 -4.796875 4.078125 -4.890625 3.734375 -4.890625 C 3.429688 -4.890625 3.160156 -4.816406 2.921875 -4.671875 C 2.691406 -4.523438 2.507812 -4.320312 2.375 -4.0625 C 2.238281 -3.800781 2.171875 -3.5 2.171875 -3.15625 C 2.171875 -2.820312 2.238281 -2.519531 2.375 -2.25 C 2.507812 -1.988281 2.691406 -1.785156 2.921875 -1.640625 C 3.160156 -1.492188 3.429688 -1.421875 3.734375 -1.421875 C 4.085938 -1.421875 4.390625 -1.515625 4.640625 -1.703125 C 4.898438 -1.890625 5.082031 -2.140625 5.1875 -2.453125 L 6.6875 -1.796875 C 6.570312 -1.421875 6.367188 -1.085938 6.078125 -0.796875 C 5.796875 -0.503906 5.453125 -0.273438 5.046875 -0.109375 C 4.648438 0.0546875 4.210938 0.140625 3.734375 0.140625 Z M 3.734375 0.140625 "></path></g></g></g><g fill="#2f80ed" fill-opacity="1"><g transform="translate(91.687484, 12.503434)"><g><path d="M 0.640625 0 L 0.640625 -6.328125 L 2.375 -6.328125 L 2.375 0 Z M 0.640625 -6.890625 L 0.640625 -8.625 L 2.375 -8.625 L 2.375 -6.890625 Z M 0.640625 -6.890625 "></path></g></g></g><g fill="#2f80ed" fill-opacity="1"><g transform="translate(95.046591, 12.503434)"><g><path d="M 0.640625 0 L 0.640625 -8.765625 L 2.375 -8.765625 L 2.375 0 Z M 0.640625 0 "></path></g></g></g><g fill="#2f80ed" fill-opacity="1"><g transform="translate(98.405697, 12.503434)"><g><path d="M 3.6875 0.140625 C 3.007812 0.140625 2.421875 -0.00390625 1.921875 -0.296875 C 1.429688 -0.597656 1.050781 -1 0.78125 -1.5 C 0.507812 -2 0.375 -2.554688 0.375 -3.171875 C 0.375 -3.804688 0.515625 -4.367188 0.796875 -4.859375 C 1.085938 -5.359375 1.46875 -5.75 1.9375 -6.03125 C 2.414062 -6.3125 2.957031 -6.453125 3.5625 -6.453125 C 4.0625 -6.453125 4.503906 -6.375 4.890625 -6.21875 C 5.273438 -6.0625 5.601562 -5.835938 5.875 -5.546875 C 6.144531 -5.265625 6.347656 -4.9375 6.484375 -4.5625 C 6.617188 -4.1875 6.6875 -3.78125 6.6875 -3.34375 C 6.6875 -3.21875 6.679688 -3.09375 6.671875 -2.96875 C 6.660156 -2.851562 6.640625 -2.753906 6.609375 -2.671875 L 1.875 -2.671875 L 1.875 -3.953125 L 5.625 -3.953125 L 4.8125 -3.34375 C 4.882812 -3.675781 4.878906 -3.972656 4.796875 -4.234375 C 4.710938 -4.492188 4.5625 -4.695312 4.34375 -4.84375 C 4.132812 -5 3.875 -5.078125 3.5625 -5.078125 C 3.257812 -5.078125 3 -5 2.78125 -4.84375 C 2.570312 -4.695312 2.410156 -4.484375 2.296875 -4.203125 C 2.191406 -3.921875 2.148438 -3.570312 2.171875 -3.15625 C 2.140625 -2.800781 2.179688 -2.488281 2.296875 -2.21875 C 2.421875 -1.945312 2.601562 -1.734375 2.84375 -1.578125 C 3.082031 -1.429688 3.367188 -1.359375 3.703125 -1.359375 C 4.015625 -1.359375 4.28125 -1.421875 4.5 -1.546875 C 4.71875 -1.671875 4.890625 -1.84375 5.015625 -2.0625 L 6.40625 -1.40625 C 6.28125 -1.09375 6.082031 -0.820312 5.8125 -0.59375 C 5.550781 -0.363281 5.238281 -0.179688 4.875 -0.046875 C 4.507812 0.078125 4.113281 0.140625 3.6875 0.140625 Z M 3.6875 0.140625 "></path></g></g></g></g></g></g></g></g></g></svg>