<svg xmlns="http://www.w3.org/2000/svg" xmlns:xlink="http://www.w3.org/1999/xlink" width="416" zoomAndPan="magnify" viewBox="0 0 312 122.249994" height="163" preserveAspectRatio="xMidYMid meet" version="1.0"><defs><filter x="0%" y="0%" width="100%" height="100%" id="750bf5ceb7"><feColorMatrix values="0 0 0 0 1 0 0 0 0 1 0 0 0 0 1 0 0 0 1 0" color-interpolation-filters="sRGB"/></filter><g/><mask id="4b0edad347"><g filter="url(#750bf5ceb7)"><rect x="-31.2" width="374.4" fill="#000000" y="-12.224999" height="146.699993" fill-opacity="0.5"/></g></mask><clipPath id="4113d474ef"><path d="M 2 2 L 38 2 L 38 24 L 2 24 Z M 2 2 " clip-rule="nonzero"/></clipPath><clipPath id="8c4d3669a8"><path d="M 34.714844 0.464844 L 39.195312 10.335938 L 5.378906 25.691406 L 0.898438 15.820312 Z M 34.714844 0.464844 " clip-rule="nonzero"/></clipPath><clipPath id="8aecdded1b"><path d="M 36.957031 5.402344 C 37.550781 6.710938 37.597656 8.203125 37.09375 9.546875 C 36.589844 10.894531 35.570312 11.984375 34.261719 12.578125 L 10.320312 23.449219 C 9.011719 24.042969 7.519531 24.09375 6.175781 23.585938 C 4.828125 23.082031 3.738281 22.0625 3.144531 20.753906 C 2.550781 19.445312 2.5 17.953125 3.003906 16.605469 C 3.511719 15.261719 4.53125 14.171875 5.839844 13.578125 L 29.777344 2.707031 C 31.085938 2.113281 32.578125 2.0625 33.925781 2.570312 C 35.269531 3.074219 36.359375 4.09375 36.957031 5.402344 Z M 36.957031 5.402344 " clip-rule="nonzero"/></clipPath><clipPath id="764a571289"><path d="M 0.417969 0.0117188 L 35.722656 0.0117188 L 35.722656 22 L 0.417969 22 Z M 0.417969 0.0117188 " clip-rule="nonzero"/></clipPath><clipPath id="cf8bde483f"><path d="M 32.714844 -1.535156 L 37.195312 8.335938 L 3.378906 23.691406 L -1.101562 13.820312 Z M 32.714844 -1.535156 " clip-rule="nonzero"/></clipPath><clipPath id="d43ac51ffd"><path d="M 34.957031 3.402344 C 35.550781 4.710938 35.597656 6.203125 35.09375 7.546875 C 34.589844 8.894531 33.570312 9.984375 32.261719 10.578125 L 8.320312 21.449219 C 7.011719 22.042969 5.519531 22.09375 4.175781 21.585938 C 2.828125 21.082031 1.738281 20.0625 1.144531 18.753906 C 0.550781 17.445312 0.5 15.953125 1.003906 14.605469 C 1.511719 13.261719 2.53125 12.171875 3.839844 11.578125 L 27.777344 0.707031 C 29.085938 0.113281 30.578125 0.0625 31.925781 0.570312 C 33.269531 1.074219 34.359375 2.09375 34.957031 3.402344 Z M 34.957031 3.402344 " clip-rule="nonzero"/></clipPath><clipPath id="0010448ec9"><rect x="0" width="36" y="0" height="22"/></clipPath><clipPath id="45bc6c639a"><rect x="0" width="40" y="0" height="26"/></clipPath><clipPath id="51ce036f80"><path d="M 18 52 L 60 52 L 60 78 L 18 78 Z M 18 52 " clip-rule="nonzero"/></clipPath><clipPath id="a18a0b96cc"><path d="M 56.339844 50.472656 L 61.578125 62.011719 L 22.042969 79.964844 L 16.800781 68.421875 Z M 56.339844 50.472656 " clip-rule="nonzero"/></clipPath><clipPath id="9a657c3451"><path d="M 58.960938 56.242188 C 59.652344 57.773438 59.710938 59.515625 59.121094 61.089844 C 58.53125 62.664062 57.339844 63.9375 55.808594 64.632812 L 27.820312 77.339844 C 26.289062 78.035156 24.546875 78.09375 22.972656 77.503906 C 21.398438 76.914062 20.125 75.722656 19.429688 74.191406 C 18.734375 72.660156 18.675781 70.917969 19.265625 69.34375 C 19.855469 67.769531 21.046875 66.496094 22.578125 65.800781 L 50.570312 53.09375 C 52.097656 52.398438 53.84375 52.339844 55.417969 52.929688 C 56.988281 53.519531 58.265625 54.710938 58.960938 56.242188 Z M 58.960938 56.242188 " clip-rule="nonzero"/></clipPath><clipPath id="b3804b340a"><path d="M 0.601562 0.238281 L 41.871094 0.238281 L 41.871094 26 L 0.601562 26 Z M 0.601562 0.238281 " clip-rule="nonzero"/></clipPath><clipPath id="3864a4bf80"><path d="M 38.339844 -1.527344 L 43.578125 10.011719 L 4.042969 27.964844 L -1.199219 16.421875 Z M 38.339844 -1.527344 " clip-rule="nonzero"/></clipPath><clipPath id="c05fd48dae"><path d="M 40.960938 4.242188 C 41.652344 5.773438 41.710938 7.515625 41.121094 9.089844 C 40.53125 10.664062 39.339844 11.9375 37.808594 12.632812 L 9.820312 25.339844 C 8.289062 26.035156 6.546875 26.09375 4.972656 25.503906 C 3.398438 24.914062 2.125 23.722656 1.429688 22.191406 C 0.734375 20.660156 0.675781 18.917969 1.265625 17.34375 C 1.855469 15.769531 3.046875 14.496094 4.578125 13.800781 L 32.570312 1.09375 C 34.097656 0.398438 35.84375 0.339844 37.417969 0.929688 C 38.988281 1.519531 40.265625 2.710938 40.960938 4.242188 Z M 40.960938 4.242188 " clip-rule="nonzero"/></clipPath><clipPath id="0a7f94464c"><rect x="0" width="42" y="0" height="26"/></clipPath><clipPath id="253ab0e60b"><path d="M 1 8 L 79 8 L 79 59 L 1 59 Z M 1 8 " clip-rule="nonzero"/></clipPath><clipPath id="5d16ba61dd"><path d="M 71.675781 3.964844 L 83.101562 29.132812 L 7.996094 63.234375 L -3.433594 38.066406 Z M 71.675781 3.964844 " clip-rule="nonzero"/></clipPath><clipPath id="1153ee712c"><path d="M 77.390625 16.550781 C 78.90625 19.886719 79.03125 23.6875 77.742188 27.121094 C 76.457031 30.550781 73.855469 33.332031 70.519531 34.847656 L 20.660156 57.484375 C 17.320312 59 13.519531 59.125 10.089844 57.835938 C 6.65625 56.550781 3.878906 53.949219 2.363281 50.613281 C 0.847656 47.273438 0.71875 43.472656 2.007812 40.042969 C 3.296875 36.609375 5.894531 33.832031 9.234375 32.316406 L 59.09375 9.679688 C 62.429688 8.164062 66.234375 8.035156 69.664062 9.324219 C 73.09375 10.613281 75.875 13.210938 77.390625 16.550781 Z M 77.390625 16.550781 " clip-rule="nonzero"/></clipPath><clipPath id="b7a0848e1d"><path d="M 0 0 L 78 0 L 78 51 L 0 51 Z M 0 0 " clip-rule="nonzero"/></clipPath><clipPath id="0b75b40781"><path d="M 70.675781 -4.035156 L 82.101562 21.132812 L 6.996094 55.234375 L -4.433594 30.066406 Z M 70.675781 -4.035156 " clip-rule="nonzero"/></clipPath><clipPath id="0c26356a78"><path d="M 76.390625 8.550781 C 77.90625 11.886719 78.03125 15.6875 76.742188 19.121094 C 75.457031 22.550781 72.855469 25.332031 69.519531 26.847656 L 19.660156 49.484375 C 16.320312 51 12.519531 51.125 9.089844 49.835938 C 5.65625 48.550781 2.878906 45.949219 1.363281 42.613281 C -0.152344 39.273438 -0.28125 35.472656 1.007812 32.042969 C 2.296875 28.609375 4.894531 25.832031 8.234375 24.316406 L 58.09375 1.679688 C 61.429688 0.164062 65.234375 0.0351562 68.664062 1.324219 C 72.09375 2.613281 74.875 5.210938 76.390625 8.550781 Z M 76.390625 8.550781 " clip-rule="nonzero"/></clipPath><clipPath id="b741917318"><rect x="0" width="78" y="0" height="51"/></clipPath><clipPath id="61f451064a"><path d="M 15 47 L 63 47 L 63 77 L 15 77 Z M 15 47 " clip-rule="nonzero"/></clipPath><clipPath id="7591dd64a0"><path d="M 58.652344 44.785156 L 64.679688 58.058594 L 19.210938 78.699219 L 13.183594 65.429688 Z M 58.652344 44.785156 " clip-rule="nonzero"/></clipPath><clipPath id="eee3671535"><path d="M 61.664062 51.421875 C 63.328125 55.085938 61.707031 59.40625 58.042969 61.070312 L 25.855469 75.683594 C 22.191406 77.347656 17.871094 75.726562 16.207031 72.0625 C 14.542969 68.394531 16.164062 64.074219 19.828125 62.410156 L 52.015625 47.796875 C 55.683594 46.132812 60 47.757812 61.664062 51.421875 Z M 61.664062 51.421875 " clip-rule="nonzero"/></clipPath><clipPath id="e9ca0157a9"><path d="M 0 0 L 48 0 L 48 30 L 0 30 Z M 0 0 " clip-rule="nonzero"/></clipPath><clipPath id="532f0d239d"><path d="M 43.652344 -2.214844 L 49.679688 11.058594 L 4.210938 31.699219 L -1.816406 18.429688 Z M 43.652344 -2.214844 " clip-rule="nonzero"/></clipPath><clipPath id="0f8e86c003"><path d="M 46.664062 4.421875 C 48.328125 8.085938 46.707031 12.40625 43.042969 14.070312 L 10.855469 28.683594 C 7.191406 30.347656 2.871094 28.726562 1.207031 25.0625 C -0.457031 21.394531 1.164062 17.074219 4.828125 15.410156 L 37.015625 0.796875 C 40.683594 -0.867188 45 0.757812 46.664062 4.421875 Z M 46.664062 4.421875 " clip-rule="nonzero"/></clipPath><clipPath id="e5af2a5bde"><rect x="0" width="48" y="0" height="30"/></clipPath><clipPath id="994b384998"><path d="M 12 62 L 90 62 L 90 114 L 12 114 Z M 12 62 " clip-rule="nonzero"/></clipPath><clipPath id="9627e578d3"><path d="M 82.625 58.410156 L 94.007812 83.476562 L 18.902344 117.574219 L 7.519531 92.507812 Z M 82.625 58.410156 " clip-rule="nonzero"/></clipPath><clipPath id="ac6f940c8d"><path d="M 88.316406 70.941406 C 89.828125 74.265625 89.953125 78.054688 88.667969 81.472656 C 87.386719 84.890625 84.796875 87.65625 81.472656 89.167969 L 31.515625 111.851562 C 28.191406 113.359375 24.402344 113.484375 20.984375 112.203125 C 17.566406 110.917969 14.800781 108.332031 13.289062 105.007812 C 11.78125 101.683594 11.652344 97.894531 12.9375 94.476562 C 14.222656 91.058594 16.808594 88.292969 20.132812 86.78125 L 70.09375 64.097656 C 73.417969 62.589844 77.203125 62.464844 80.621094 63.746094 C 84.039062 65.03125 86.808594 67.617188 88.316406 70.941406 Z M 88.316406 70.941406 " clip-rule="nonzero"/></clipPath><clipPath id="922ac9cee3"><path d="M 0 0.257812 L 78 0.257812 L 78 51.542969 L 0 51.542969 Z M 0 0.257812 " clip-rule="nonzero"/></clipPath><clipPath id="f87cfaa735"><path d="M 70.625 -3.589844 L 82.007812 21.476562 L 6.902344 55.574219 L -4.480469 30.507812 Z M 70.625 -3.589844 " clip-rule="nonzero"/></clipPath><clipPath id="845d875b2e"><path d="M 76.316406 8.941406 C 77.828125 12.265625 77.953125 16.054688 76.667969 19.472656 C 75.386719 22.890625 72.796875 25.65625 69.472656 27.167969 L 19.515625 49.851562 C 16.191406 51.359375 12.402344 51.484375 8.984375 50.203125 C 5.566406 48.917969 2.800781 46.332031 1.289062 43.007812 C -0.21875 39.683594 -0.347656 35.894531 0.9375 32.476562 C 2.222656 29.058594 4.808594 26.292969 8.132812 24.78125 L 58.09375 2.097656 C 61.417969 0.589844 65.203125 0.464844 68.621094 1.746094 C 72.039062 3.03125 74.808594 5.617188 76.316406 8.941406 Z M 76.316406 8.941406 " clip-rule="nonzero"/></clipPath><clipPath id="2e2527d2d8"><rect x="0" width="78" y="0" height="52"/></clipPath><clipPath id="d15cffee1a"><path d="M 93 18 L 311.046875 18 L 311.046875 103 L 93 103 Z M 93 18 " clip-rule="nonzero"/></clipPath><clipPath id="8d6a352ee4"><rect x="0" width="219" y="0" height="85"/></clipPath><mask id="24aa39821a"><g filter="url(#750bf5ceb7)"><rect x="-31.2" width="374.4" fill="#000000" y="-12.224999" height="146.699993" fill-opacity="0.5"/></g></mask><clipPath id="5f19b03a0d"><path d="M 0.183594 0.0273438 L 157.378906 0.0273438 L 157.378906 21.976562 L 0.183594 21.976562 Z M 0.183594 0.0273438 " clip-rule="nonzero"/></clipPath><clipPath id="80a28495a8"><rect x="0" width="158" y="0" height="22"/></clipPath><clipPath id="4640005098"><rect x="0" width="158" y="0" height="22"/></clipPath></defs><g mask="url(#4b0edad347)"><g transform="matrix(1, 0, 0, 1, 20, 55)"><g clip-path="url(#45bc6c639a)"><g clip-path="url(#4113d474ef)"><g clip-path="url(#8c4d3669a8)"><g clip-path="url(#8aecdded1b)"><g transform="matrix(1, 0, 0, 1, 2, 2)"><g clip-path="url(#0010448ec9)"><g clip-path="url(#764a571289)"><g clip-path="url(#cf8bde483f)"><g clip-path="url(#d43ac51ffd)"><path fill="#545454" d="M 32.714844 -1.535156 L 37.195312 8.335938 L 3.378906 23.691406 L -1.101562 13.820312 Z M 32.714844 -1.535156 " fill-opacity="1" fill-rule="nonzero"/></g></g></g></g></g></g></g></g></g></g></g><g clip-path="url(#51ce036f80)"><g clip-path="url(#a18a0b96cc)"><g clip-path="url(#9a657c3451)"><g transform="matrix(1, 0, 0, 1, 18, 52)"><g clip-path="url(#0a7f94464c)"><g clip-path="url(#b3804b340a)"><g clip-path="url(#3864a4bf80)"><g clip-path="url(#c05fd48dae)"><path fill="#606060" d="M 38.339844 -1.527344 L 43.578125 10.011719 L 4.042969 27.964844 L -1.199219 16.421875 Z M 38.339844 -1.527344 " fill-opacity="1" fill-rule="nonzero"/></g></g></g></g></g></g></g></g><g clip-path="url(#253ab0e60b)"><g clip-path="url(#5d16ba61dd)"><g clip-path="url(#1153ee712c)"><g transform="matrix(1, 0, 0, 1, 1, 8)"><g clip-path="url(#b741917318)"><g clip-path="url(#b7a0848e1d)"><g clip-path="url(#0b75b40781)"><g clip-path="url(#0c26356a78)"><path fill="#000000" d="M 70.675781 -4.035156 L 82.101562 21.132812 L 7.09375 55.1875 L -4.332031 30.023438 Z M 70.675781 -4.035156 " fill-opacity="1" fill-rule="nonzero"/></g></g></g></g></g></g></g></g><g clip-path="url(#61f451064a)"><g clip-path="url(#7591dd64a0)"><g clip-path="url(#eee3671535)"><g transform="matrix(1, 0, 0, 1, 15, 47)"><g clip-path="url(#e5af2a5bde)"><g clip-path="url(#e9ca0157a9)"><g clip-path="url(#532f0d239d)"><g clip-path="url(#0f8e86c003)"><path fill="#000000" d="M 43.652344 -2.214844 L 49.679688 11.058594 L 4.210938 31.699219 L -1.816406 18.429688 Z M 43.652344 -2.214844 " fill-opacity="1" fill-rule="nonzero"/></g></g></g></g></g></g></g></g><g clip-path="url(#994b384998)"><g clip-path="url(#9627e578d3)"><g clip-path="url(#ac6f940c8d)"><g transform="matrix(1, 0, 0, 1, 12, 62)"><g clip-path="url(#2e2527d2d8)"><g clip-path="url(#922ac9cee3)"><g clip-path="url(#f87cfaa735)"><g clip-path="url(#845d875b2e)"><path fill="#000000" d="M 70.625 -3.589844 L 82.007812 21.476562 L 7 55.53125 L -4.378906 30.464844 Z M 70.625 -3.589844 " fill-opacity="1" fill-rule="nonzero"/></g></g></g></g></g></g></g></g><g clip-path="url(#d15cffee1a)"><g transform="matrix(1, 0, 0, 1, 93, 18)"><g clip-path="url(#8d6a352ee4)"><g fill="#000000" fill-opacity="1"><g transform="translate(0.451937, 69.026196)"><g><path d="M 8.046875 0 L 8.046875 -27.65625 L 1.921875 -27.65625 L 1.921875 -36.296875 L 8.046875 -36.296875 L 8.046875 -36.828125 C 8.046875 -39.710938 8.609375 -42.148438 9.734375 -44.140625 C 10.867188 -46.140625 12.5 -47.671875 14.625 -48.734375 C 16.75 -49.796875 19.320312 -50.328125 22.34375 -50.328125 C 22.914062 -50.328125 23.535156 -50.289062 24.203125 -50.21875 C 24.867188 -50.15625 25.421875 -50.082031 25.859375 -50 L 25.859375 -41.484375 C 25.421875 -41.578125 25.035156 -41.632812 24.703125 -41.65625 C 24.367188 -41.675781 24.023438 -41.6875 23.671875 -41.6875 C 21.804688 -41.6875 20.394531 -41.273438 19.4375 -40.453125 C 18.488281 -39.628906 18.015625 -38.421875 18.015625 -36.828125 L 18.015625 -36.296875 L 25.796875 -36.296875 L 25.796875 -27.65625 L 18.015625 -27.65625 L 18.015625 0 Z M 8.046875 0 "/></g></g></g><g fill="#000000" fill-opacity="1"><g transform="translate(29.035443, 69.026196)"><g><path d="M 8.046875 0 L 8.046875 -27.65625 L 1.921875 -27.65625 L 1.921875 -36.296875 L 8.046875 -36.296875 L 8.046875 -36.828125 C 8.046875 -39.710938 8.609375 -42.148438 9.734375 -44.140625 C 10.867188 -46.140625 12.5 -47.671875 14.625 -48.734375 C 16.75 -49.796875 19.320312 -50.328125 22.34375 -50.328125 C 22.914062 -50.328125 23.535156 -50.289062 24.203125 -50.21875 C 24.867188 -50.15625 25.421875 -50.082031 25.859375 -50 L 25.859375 -41.484375 C 25.421875 -41.578125 25.035156 -41.632812 24.703125 -41.65625 C 24.367188 -41.675781 24.023438 -41.6875 23.671875 -41.6875 C 21.804688 -41.6875 20.394531 -41.273438 19.4375 -40.453125 C 18.488281 -39.628906 18.015625 -38.421875 18.015625 -36.828125 L 18.015625 -36.296875 L 25.796875 -36.296875 L 25.796875 -27.65625 L 18.015625 -27.65625 L 18.015625 0 Z M 8.046875 0 "/></g></g></g><g fill="#000000" fill-opacity="1"><g transform="translate(58.283791, 69.026196)"><g><path d="M 14.890625 0.796875 C 12.273438 0.796875 10.015625 0.371094 8.109375 -0.46875 C 6.203125 -1.3125 4.738281 -2.519531 3.71875 -4.09375 C 2.695312 -5.664062 2.1875 -7.535156 2.1875 -9.703125 C 2.1875 -11.742188 2.648438 -13.550781 3.578125 -15.125 C 4.515625 -16.695312 5.945312 -18.015625 7.875 -19.078125 C 9.800781 -20.140625 12.207031 -20.894531 15.09375 -21.34375 L 26.1875 -23.140625 L 26.1875 -15.828125 L 16.890625 -14.15625 C 15.472656 -13.894531 14.382812 -13.441406 13.625 -12.796875 C 12.875 -12.148438 12.5 -11.234375 12.5 -10.046875 C 12.5 -8.929688 12.921875 -8.0625 13.765625 -7.4375 C 14.609375 -6.820312 15.648438 -6.515625 16.890625 -6.515625 C 18.523438 -6.515625 19.960938 -6.867188 21.203125 -7.578125 C 22.441406 -8.285156 23.40625 -9.25 24.09375 -10.46875 C 24.78125 -11.6875 25.125 -13.03125 25.125 -14.5 L 25.125 -23.9375 C 25.125 -25.3125 24.582031 -26.460938 23.5 -27.390625 C 22.414062 -28.316406 20.941406 -28.78125 19.078125 -28.78125 C 17.304688 -28.78125 15.742188 -28.289062 14.390625 -27.3125 C 13.035156 -26.34375 12.050781 -25.0625 11.4375 -23.46875 L 3.453125 -27.265625 C 4.160156 -29.296875 5.289062 -31.039062 6.84375 -32.5 C 8.394531 -33.96875 10.253906 -35.097656 12.421875 -35.890625 C 14.597656 -36.691406 16.972656 -37.09375 19.546875 -37.09375 C 22.609375 -37.09375 25.3125 -36.539062 27.65625 -35.4375 C 30.007812 -34.332031 31.835938 -32.789062 33.140625 -30.8125 C 34.453125 -28.84375 35.109375 -26.550781 35.109375 -23.9375 L 35.109375 0 L 25.796875 0 L 25.796875 -5.84375 L 28.0625 -6.25 C 26.988281 -4.65625 25.8125 -3.335938 24.53125 -2.296875 C 23.25 -1.253906 21.804688 -0.476562 20.203125 0.03125 C 18.609375 0.539062 16.835938 0.796875 14.890625 0.796875 Z M 14.890625 0.796875 "/></g></g></g><g fill="#000000" fill-opacity="1"><g transform="translate(98.366988, 69.026196)"><g><path d="M 21.140625 0.40625 C 16.753906 0.40625 13.351562 -0.78125 10.9375 -3.15625 C 8.519531 -5.53125 7.3125 -8.84375 7.3125 -13.09375 L 7.3125 -27.65625 L 1.203125 -27.65625 L 1.203125 -36.296875 L 1.53125 -36.296875 C 3.394531 -36.296875 4.820312 -36.757812 5.8125 -37.6875 C 6.8125 -38.625 7.3125 -40.023438 7.3125 -41.890625 L 7.3125 -44.546875 L 17.28125 -44.546875 L 17.28125 -36.296875 L 25.796875 -36.296875 L 25.796875 -27.65625 L 17.28125 -27.65625 L 17.28125 -13.765625 C 17.28125 -12.523438 17.5 -11.492188 17.9375 -10.671875 C 18.382812 -9.847656 19.070312 -9.238281 20 -8.84375 C 20.9375 -8.445312 22.09375 -8.25 23.46875 -8.25 C 23.78125 -8.25 24.132812 -8.269531 24.53125 -8.3125 C 24.925781 -8.351562 25.347656 -8.394531 25.796875 -8.4375 L 25.796875 0 C 25.128906 0.09375 24.375 0.179688 23.53125 0.265625 C 22.6875 0.359375 21.890625 0.40625 21.140625 0.40625 Z M 21.140625 0.40625 "/></g></g></g><g fill="#000000" fill-opacity="1"><g transform="translate(128.346535, 69.026196)"><g><path d="M 21.140625 0.40625 C 16.753906 0.40625 13.351562 -0.78125 10.9375 -3.15625 C 8.519531 -5.53125 7.3125 -8.84375 7.3125 -13.09375 L 7.3125 -27.65625 L 1.203125 -27.65625 L 1.203125 -36.296875 L 1.53125 -36.296875 C 3.394531 -36.296875 4.820312 -36.757812 5.8125 -37.6875 C 6.8125 -38.625 7.3125 -40.023438 7.3125 -41.890625 L 7.3125 -44.546875 L 17.28125 -44.546875 L 17.28125 -36.296875 L 25.796875 -36.296875 L 25.796875 -27.65625 L 17.28125 -27.65625 L 17.28125 -13.765625 C 17.28125 -12.523438 17.5 -11.492188 17.9375 -10.671875 C 18.382812 -9.847656 19.070312 -9.238281 20 -8.84375 C 20.9375 -8.445312 22.09375 -8.25 23.46875 -8.25 C 23.78125 -8.25 24.132812 -8.269531 24.53125 -8.3125 C 24.925781 -8.351562 25.347656 -8.394531 25.796875 -8.4375 L 25.796875 0 C 25.128906 0.09375 24.375 0.179688 23.53125 0.265625 C 22.6875 0.359375 21.890625 0.40625 21.140625 0.40625 Z M 21.140625 0.40625 "/></g></g></g><g fill="#000000" fill-opacity="1"><g transform="translate(158.326082, 69.026196)"><g><path d="M 14.890625 0.796875 C 12.273438 0.796875 10.015625 0.371094 8.109375 -0.46875 C 6.203125 -1.3125 4.738281 -2.519531 3.71875 -4.09375 C 2.695312 -5.664062 2.1875 -7.535156 2.1875 -9.703125 C 2.1875 -11.742188 2.648438 -13.550781 3.578125 -15.125 C 4.515625 -16.695312 5.945312 -18.015625 7.875 -19.078125 C 9.800781 -20.140625 12.207031 -20.894531 15.09375 -21.34375 L 26.1875 -23.140625 L 26.1875 -15.828125 L 16.890625 -14.15625 C 15.472656 -13.894531 14.382812 -13.441406 13.625 -12.796875 C 12.875 -12.148438 12.5 -11.234375 12.5 -10.046875 C 12.5 -8.929688 12.921875 -8.0625 13.765625 -7.4375 C 14.609375 -6.820312 15.648438 -6.515625 16.890625 -6.515625 C 18.523438 -6.515625 19.960938 -6.867188 21.203125 -7.578125 C 22.441406 -8.285156 23.40625 -9.25 24.09375 -10.46875 C 24.78125 -11.6875 25.125 -13.03125 25.125 -14.5 L 25.125 -23.9375 C 25.125 -25.3125 24.582031 -26.460938 23.5 -27.390625 C 22.414062 -28.316406 20.941406 -28.78125 19.078125 -28.78125 C 17.304688 -28.78125 15.742188 -28.289062 14.390625 -27.3125 C 13.035156 -26.34375 12.050781 -25.0625 11.4375 -23.46875 L 3.453125 -27.265625 C 4.160156 -29.296875 5.289062 -31.039062 6.84375 -32.5 C 8.394531 -33.96875 10.253906 -35.097656 12.421875 -35.890625 C 14.597656 -36.691406 16.972656 -37.09375 19.546875 -37.09375 C 22.609375 -37.09375 25.3125 -36.539062 27.65625 -35.4375 C 30.007812 -34.332031 31.835938 -32.789062 33.140625 -30.8125 C 34.453125 -28.84375 35.109375 -26.550781 35.109375 -23.9375 L 35.109375 0 L 25.796875 0 L 25.796875 -5.84375 L 28.0625 -6.25 C 26.988281 -4.65625 25.8125 -3.335938 24.53125 -2.296875 C 23.25 -1.253906 21.804688 -0.476562 20.203125 0.03125 C 18.609375 0.539062 16.835938 0.796875 14.890625 0.796875 Z M 14.890625 0.796875 "/></g></g></g><g fill="#000000" fill-opacity="1"><g transform="translate(199.074121, 69.026196)"><g><path d="M 8.578125 0 L 8.578125 -9.96875 L 18.546875 -9.96875 L 18.546875 0 Z M 8.578125 0 "/></g></g></g></g></g></g><g mask="url(#24aa39821a)"><g transform="matrix(1, 0, 0, 1, 100, 93)"><g clip-path="url(#4640005098)"><g clip-path="url(#5f19b03a0d)"><g><g clip-path="url(#80a28495a8)"><g fill="#000000" fill-opacity="1"><g transform="translate(0.376678, 18.042393)"><g><path d="M 0.9375 0 L 0.9375 -12.96875 L 3.515625 -12.96875 L 3.515625 0 Z M 0.9375 0 "/></g></g></g><g fill="#000000" fill-opacity="1"><g transform="translate(5.3447, 18.042393)"><g><path d="M 3.84375 0.203125 C 3.164062 0.203125 2.582031 0.0898438 2.09375 -0.125 C 1.601562 -0.34375 1.222656 -0.648438 0.953125 -1.046875 C 0.691406 -1.453125 0.5625 -1.9375 0.5625 -2.5 C 0.5625 -3.03125 0.679688 -3.5 0.921875 -3.90625 C 1.160156 -4.3125 1.53125 -4.648438 2.03125 -4.921875 C 2.53125 -5.191406 3.148438 -5.382812 3.890625 -5.5 L 6.75 -5.96875 L 6.75 -4.078125 L 4.359375 -3.65625 C 3.992188 -3.582031 3.710938 -3.460938 3.515625 -3.296875 C 3.316406 -3.128906 3.21875 -2.894531 3.21875 -2.59375 C 3.21875 -2.300781 3.328125 -2.078125 3.546875 -1.921875 C 3.765625 -1.765625 4.035156 -1.6875 4.359375 -1.6875 C 4.773438 -1.6875 5.144531 -1.773438 5.46875 -1.953125 C 5.789062 -2.140625 6.039062 -2.390625 6.21875 -2.703125 C 6.394531 -3.015625 6.484375 -3.359375 6.484375 -3.734375 L 6.484375 -6.171875 C 6.484375 -6.523438 6.34375 -6.820312 6.0625 -7.0625 C 5.78125 -7.300781 5.398438 -7.421875 4.921875 -7.421875 C 4.460938 -7.421875 4.054688 -7.296875 3.703125 -7.046875 C 3.359375 -6.796875 3.109375 -6.460938 2.953125 -6.046875 L 0.890625 -7.03125 C 1.078125 -7.550781 1.367188 -8 1.765625 -8.375 C 2.160156 -8.757812 2.640625 -9.050781 3.203125 -9.25 C 3.765625 -9.457031 4.378906 -9.5625 5.046875 -9.5625 C 5.828125 -9.5625 6.519531 -9.414062 7.125 -9.125 C 7.726562 -8.84375 8.195312 -8.445312 8.53125 -7.9375 C 8.875 -7.4375 9.046875 -6.847656 9.046875 -6.171875 L 9.046875 0 L 6.65625 0 L 6.65625 -1.515625 L 7.234375 -1.609375 C 6.960938 -1.203125 6.660156 -0.863281 6.328125 -0.59375 C 5.992188 -0.320312 5.617188 -0.125 5.203125 0 C 4.796875 0.132812 4.34375 0.203125 3.84375 0.203125 Z M 3.84375 0.203125 "/></g></g></g><g fill="#000000" fill-opacity="1"><g transform="translate(15.845844, 18.042393)"><g/></g></g><g fill="#000000" fill-opacity="1"><g transform="translate(19.443422, 18.042393)"><g><path d="M 2.078125 0 L 2.078125 -7.125 L 0.5 -7.125 L 0.5 -9.359375 L 2.078125 -9.359375 L 2.078125 -9.5 C 2.078125 -10.238281 2.222656 -10.863281 2.515625 -11.375 C 2.804688 -11.894531 3.222656 -12.289062 3.765625 -12.5625 C 4.316406 -12.832031 4.984375 -12.96875 5.765625 -12.96875 C 5.910156 -12.96875 6.066406 -12.957031 6.234375 -12.9375 C 6.410156 -12.925781 6.554688 -12.910156 6.671875 -12.890625 L 6.671875 -10.703125 C 6.554688 -10.722656 6.453125 -10.734375 6.359375 -10.734375 C 6.273438 -10.742188 6.191406 -10.75 6.109375 -10.75 C 5.617188 -10.75 5.25 -10.640625 5 -10.421875 C 4.757812 -10.210938 4.640625 -9.90625 4.640625 -9.5 L 4.640625 -9.359375 L 6.65625 -9.359375 L 6.65625 -7.125 L 4.640625 -7.125 L 4.640625 0 Z M 2.078125 0 "/></g></g></g><g fill="#000000" fill-opacity="1"><g transform="translate(26.981002, 18.042393)"><g><path d="M 3.84375 0.203125 C 3.164062 0.203125 2.582031 0.0898438 2.09375 -0.125 C 1.601562 -0.34375 1.222656 -0.648438 0.953125 -1.046875 C 0.691406 -1.453125 0.5625 -1.9375 0.5625 -2.5 C 0.5625 -3.03125 0.679688 -3.5 0.921875 -3.90625 C 1.160156 -4.3125 1.53125 -4.648438 2.03125 -4.921875 C 2.53125 -5.191406 3.148438 -5.382812 3.890625 -5.5 L 6.75 -5.96875 L 6.75 -4.078125 L 4.359375 -3.65625 C 3.992188 -3.582031 3.710938 -3.460938 3.515625 -3.296875 C 3.316406 -3.128906 3.21875 -2.894531 3.21875 -2.59375 C 3.21875 -2.300781 3.328125 -2.078125 3.546875 -1.921875 C 3.765625 -1.765625 4.035156 -1.6875 4.359375 -1.6875 C 4.773438 -1.6875 5.144531 -1.773438 5.46875 -1.953125 C 5.789062 -2.140625 6.039062 -2.390625 6.21875 -2.703125 C 6.394531 -3.015625 6.484375 -3.359375 6.484375 -3.734375 L 6.484375 -6.171875 C 6.484375 -6.523438 6.34375 -6.820312 6.0625 -7.0625 C 5.78125 -7.300781 5.398438 -7.421875 4.921875 -7.421875 C 4.460938 -7.421875 4.054688 -7.296875 3.703125 -7.046875 C 3.359375 -6.796875 3.109375 -6.460938 2.953125 -6.046875 L 0.890625 -7.03125 C 1.078125 -7.550781 1.367188 -8 1.765625 -8.375 C 2.160156 -8.757812 2.640625 -9.050781 3.203125 -9.25 C 3.765625 -9.457031 4.378906 -9.5625 5.046875 -9.5625 C 5.828125 -9.5625 6.519531 -9.414062 7.125 -9.125 C 7.726562 -8.84375 8.195312 -8.445312 8.53125 -7.9375 C 8.875 -7.4375 9.046875 -6.847656 9.046875 -6.171875 L 9.046875 0 L 6.65625 0 L 6.65625 -1.515625 L 7.234375 -1.609375 C 6.960938 -1.203125 6.660156 -0.863281 6.328125 -0.59375 C 5.992188 -0.320312 5.617188 -0.125 5.203125 0 C 4.796875 0.132812 4.34375 0.203125 3.84375 0.203125 Z M 3.84375 0.203125 "/></g></g></g><g fill="#000000" fill-opacity="1"><g transform="translate(37.482146, 18.042393)"><g><path d="M 5.53125 0.203125 C 4.59375 0.203125 3.75 -0.0078125 3 -0.4375 C 2.257812 -0.863281 1.664062 -1.445312 1.21875 -2.1875 C 0.78125 -2.9375 0.5625 -3.773438 0.5625 -4.703125 C 0.5625 -5.617188 0.78125 -6.445312 1.21875 -7.1875 C 1.65625 -7.925781 2.25 -8.503906 3 -8.921875 C 3.75 -9.347656 4.59375 -9.5625 5.53125 -9.5625 C 6.226562 -9.5625 6.875 -9.441406 7.46875 -9.203125 C 8.0625 -8.960938 8.570312 -8.628906 9 -8.203125 C 9.425781 -7.773438 9.726562 -7.269531 9.90625 -6.6875 L 7.671875 -5.71875 C 7.515625 -6.1875 7.242188 -6.554688 6.859375 -6.828125 C 6.484375 -7.109375 6.039062 -7.25 5.53125 -7.25 C 5.09375 -7.25 4.695312 -7.140625 4.34375 -6.921875 C 4 -6.703125 3.722656 -6.398438 3.515625 -6.015625 C 3.316406 -5.628906 3.21875 -5.179688 3.21875 -4.671875 C 3.21875 -4.171875 3.316406 -3.726562 3.515625 -3.34375 C 3.722656 -2.957031 4 -2.65625 4.34375 -2.4375 C 4.695312 -2.21875 5.09375 -2.109375 5.53125 -2.109375 C 6.050781 -2.109375 6.5 -2.242188 6.875 -2.515625 C 7.25 -2.796875 7.515625 -3.171875 7.671875 -3.640625 L 9.90625 -2.65625 C 9.738281 -2.101562 9.441406 -1.609375 9.015625 -1.171875 C 8.585938 -0.742188 8.078125 -0.40625 7.484375 -0.15625 C 6.890625 0.0820312 6.238281 0.203125 5.53125 0.203125 Z M 5.53125 0.203125 "/></g></g></g><g fill="#000000" fill-opacity="1"><g transform="translate(48.462939, 18.042393)"><g><path d="M 5.53125 0.203125 C 4.59375 0.203125 3.75 -0.0078125 3 -0.4375 C 2.257812 -0.863281 1.664062 -1.445312 1.21875 -2.1875 C 0.78125 -2.9375 0.5625 -3.773438 0.5625 -4.703125 C 0.5625 -5.617188 0.78125 -6.445312 1.21875 -7.1875 C 1.65625 -7.925781 2.25 -8.503906 3 -8.921875 C 3.75 -9.347656 4.59375 -9.5625 5.53125 -9.5625 C 6.226562 -9.5625 6.875 -9.441406 7.46875 -9.203125 C 8.0625 -8.960938 8.570312 -8.628906 9 -8.203125 C 9.425781 -7.773438 9.726562 -7.269531 9.90625 -6.6875 L 7.671875 -5.71875 C 7.515625 -6.1875 7.242188 -6.554688 6.859375 -6.828125 C 6.484375 -7.109375 6.039062 -7.25 5.53125 -7.25 C 5.09375 -7.25 4.695312 -7.140625 4.34375 -6.921875 C 4 -6.703125 3.722656 -6.398438 3.515625 -6.015625 C 3.316406 -5.628906 3.21875 -5.179688 3.21875 -4.671875 C 3.21875 -4.171875 3.316406 -3.726562 3.515625 -3.34375 C 3.722656 -2.957031 4 -2.65625 4.34375 -2.4375 C 4.695312 -2.21875 5.09375 -2.109375 5.53125 -2.109375 C 6.050781 -2.109375 6.5 -2.242188 6.875 -2.515625 C 7.25 -2.796875 7.515625 -3.171875 7.671875 -3.640625 L 9.90625 -2.65625 C 9.738281 -2.101562 9.441406 -1.609375 9.015625 -1.171875 C 8.585938 -0.742188 8.078125 -0.40625 7.484375 -0.15625 C 6.890625 0.0820312 6.238281 0.203125 5.53125 0.203125 Z M 5.53125 0.203125 "/></g></g></g><g fill="#000000" fill-opacity="1"><g transform="translate(59.443732, 18.042393)"><g><path d="M 0.9375 0 L 0.9375 -9.359375 L 3.515625 -9.359375 L 3.515625 0 Z M 0.9375 -10.203125 L 0.9375 -12.765625 L 3.515625 -12.765625 L 3.515625 -10.203125 Z M 0.9375 -10.203125 "/></g></g></g><g fill="#000000" fill-opacity="1"><g transform="translate(64.411754, 18.042393)"><g><path d="M 3.84375 0.203125 C 3.164062 0.203125 2.582031 0.0898438 2.09375 -0.125 C 1.601562 -0.34375 1.222656 -0.648438 0.953125 -1.046875 C 0.691406 -1.453125 0.5625 -1.9375 0.5625 -2.5 C 0.5625 -3.03125 0.679688 -3.5 0.921875 -3.90625 C 1.160156 -4.3125 1.53125 -4.648438 2.03125 -4.921875 C 2.53125 -5.191406 3.148438 -5.382812 3.890625 -5.5 L 6.75 -5.96875 L 6.75 -4.078125 L 4.359375 -3.65625 C 3.992188 -3.582031 3.710938 -3.460938 3.515625 -3.296875 C 3.316406 -3.128906 3.21875 -2.894531 3.21875 -2.59375 C 3.21875 -2.300781 3.328125 -2.078125 3.546875 -1.921875 C 3.765625 -1.765625 4.035156 -1.6875 4.359375 -1.6875 C 4.773438 -1.6875 5.144531 -1.773438 5.46875 -1.953125 C 5.789062 -2.140625 6.039062 -2.390625 6.21875 -2.703125 C 6.394531 -3.015625 6.484375 -3.359375 6.484375 -3.734375 L 6.484375 -6.171875 C 6.484375 -6.523438 6.34375 -6.820312 6.0625 -7.0625 C 5.78125 -7.300781 5.398438 -7.421875 4.921875 -7.421875 C 4.460938 -7.421875 4.054688 -7.296875 3.703125 -7.046875 C 3.359375 -6.796875 3.109375 -6.460938 2.953125 -6.046875 L 0.890625 -7.03125 C 1.078125 -7.550781 1.367188 -8 1.765625 -8.375 C 2.160156 -8.757812 2.640625 -9.050781 3.203125 -9.25 C 3.765625 -9.457031 4.378906 -9.5625 5.046875 -9.5625 C 5.828125 -9.5625 6.519531 -9.414062 7.125 -9.125 C 7.726562 -8.84375 8.195312 -8.445312 8.53125 -7.9375 C 8.875 -7.4375 9.046875 -6.847656 9.046875 -6.171875 L 9.046875 0 L 6.65625 0 L 6.65625 -1.515625 L 7.234375 -1.609375 C 6.960938 -1.203125 6.660156 -0.863281 6.328125 -0.59375 C 5.992188 -0.320312 5.617188 -0.125 5.203125 0 C 4.796875 0.132812 4.34375 0.203125 3.84375 0.203125 Z M 3.84375 0.203125 "/></g></g></g><g fill="#000000" fill-opacity="1"><g transform="translate(74.912898, 18.042393)"><g><path d="M 0.9375 0 L 0.9375 -9.359375 L 3.34375 -9.359375 L 3.34375 -7.078125 L 3.078125 -7.453125 C 3.222656 -8.171875 3.554688 -8.703125 4.078125 -9.046875 C 4.609375 -9.390625 5.238281 -9.5625 5.96875 -9.5625 C 6.738281 -9.5625 7.414062 -9.363281 8 -8.96875 C 8.59375 -8.570312 8.96875 -8.046875 9.125 -7.390625 L 8.375 -7.3125 C 8.6875 -8.082031 9.128906 -8.648438 9.703125 -9.015625 C 10.273438 -9.378906 10.941406 -9.5625 11.703125 -9.5625 C 12.378906 -9.5625 12.976562 -9.410156 13.5 -9.109375 C 14.019531 -8.816406 14.425781 -8.40625 14.71875 -7.875 C 15.019531 -7.34375 15.171875 -6.722656 15.171875 -6.015625 L 15.171875 0 L 12.59375 0 L 12.59375 -5.46875 C 12.59375 -5.832031 12.523438 -6.144531 12.390625 -6.40625 C 12.265625 -6.675781 12.082031 -6.882812 11.84375 -7.03125 C 11.601562 -7.175781 11.3125 -7.25 10.96875 -7.25 C 10.632812 -7.25 10.34375 -7.175781 10.09375 -7.03125 C 9.851562 -6.882812 9.664062 -6.675781 9.53125 -6.40625 C 9.40625 -6.144531 9.34375 -5.832031 9.34375 -5.46875 L 9.34375 0 L 6.765625 0 L 6.765625 -5.46875 C 6.765625 -5.832031 6.695312 -6.144531 6.5625 -6.40625 C 6.4375 -6.675781 6.253906 -6.882812 6.015625 -7.03125 C 5.773438 -7.175781 5.484375 -7.25 5.140625 -7.25 C 4.804688 -7.25 4.515625 -7.175781 4.265625 -7.03125 C 4.023438 -6.882812 3.835938 -6.675781 3.703125 -6.40625 C 3.578125 -6.144531 3.515625 -5.832031 3.515625 -5.46875 L 3.515625 0 Z M 0.9375 0 "/></g></g></g><g fill="#000000" fill-opacity="1"><g transform="translate(91.341167, 18.042393)"><g><path d="M 5.59375 0.203125 C 4.664062 0.203125 3.820312 -0.00390625 3.0625 -0.421875 C 2.300781 -0.847656 1.691406 -1.429688 1.234375 -2.171875 C 0.785156 -2.910156 0.5625 -3.742188 0.5625 -4.671875 C 0.5625 -5.628906 0.785156 -6.472656 1.234375 -7.203125 C 1.691406 -7.929688 2.300781 -8.503906 3.0625 -8.921875 C 3.820312 -9.347656 4.664062 -9.5625 5.59375 -9.5625 C 6.507812 -9.5625 7.34375 -9.347656 8.09375 -8.921875 C 8.851562 -8.503906 9.457031 -7.929688 9.90625 -7.203125 C 10.363281 -6.472656 10.59375 -5.628906 10.59375 -4.671875 C 10.59375 -3.742188 10.363281 -2.910156 9.90625 -2.171875 C 9.457031 -1.429688 8.851562 -0.847656 8.09375 -0.421875 C 7.34375 -0.00390625 6.507812 0.203125 5.59375 0.203125 Z M 5.59375 -2.109375 C 6.0625 -2.109375 6.46875 -2.21875 6.8125 -2.4375 C 7.164062 -2.65625 7.441406 -2.957031 7.640625 -3.34375 C 7.835938 -3.726562 7.9375 -4.171875 7.9375 -4.671875 C 7.9375 -5.179688 7.835938 -5.625 7.640625 -6 C 7.441406 -6.382812 7.164062 -6.6875 6.8125 -6.90625 C 6.46875 -7.132812 6.0625 -7.25 5.59375 -7.25 C 5.125 -7.25 4.710938 -7.132812 4.359375 -6.90625 C 4.003906 -6.6875 3.722656 -6.382812 3.515625 -6 C 3.316406 -5.625 3.21875 -5.179688 3.21875 -4.671875 C 3.21875 -4.171875 3.316406 -3.726562 3.515625 -3.34375 C 3.722656 -2.957031 4.003906 -2.65625 4.359375 -2.4375 C 4.710938 -2.21875 5.125 -2.109375 5.59375 -2.109375 Z M 5.59375 -2.109375 "/></g></g></g><g fill="#000000" fill-opacity="1"><g transform="translate(103.007182, 18.042393)"><g/></g></g><g fill="#000000" fill-opacity="1"><g transform="translate(106.60476, 18.042393)"><g><path d="M 2.078125 0 L 2.078125 -7.125 L 0.5 -7.125 L 0.5 -9.359375 L 2.078125 -9.359375 L 2.078125 -9.5 C 2.078125 -10.238281 2.222656 -10.863281 2.515625 -11.375 C 2.804688 -11.894531 3.222656 -12.289062 3.765625 -12.5625 C 4.316406 -12.832031 4.984375 -12.96875 5.765625 -12.96875 C 5.910156 -12.96875 6.066406 -12.957031 6.234375 -12.9375 C 6.410156 -12.925781 6.554688 -12.910156 6.671875 -12.890625 L 6.671875 -10.703125 C 6.554688 -10.722656 6.453125 -10.734375 6.359375 -10.734375 C 6.273438 -10.742188 6.191406 -10.75 6.109375 -10.75 C 5.617188 -10.75 5.25 -10.640625 5 -10.421875 C 4.757812 -10.210938 4.640625 -9.90625 4.640625 -9.5 L 4.640625 -9.359375 L 6.65625 -9.359375 L 6.65625 -7.125 L 4.640625 -7.125 L 4.640625 0 Z M 2.078125 0 "/></g></g></g><g fill="#000000" fill-opacity="1"><g transform="translate(114.142341, 18.042393)"><g><path d="M 3.84375 0.203125 C 3.164062 0.203125 2.582031 0.0898438 2.09375 -0.125 C 1.601562 -0.34375 1.222656 -0.648438 0.953125 -1.046875 C 0.691406 -1.453125 0.5625 -1.9375 0.5625 -2.5 C 0.5625 -3.03125 0.679688 -3.5 0.921875 -3.90625 C 1.160156 -4.3125 1.53125 -4.648438 2.03125 -4.921875 C 2.53125 -5.191406 3.148438 -5.382812 3.890625 -5.5 L 6.75 -5.96875 L 6.75 -4.078125 L 4.359375 -3.65625 C 3.992188 -3.582031 3.710938 -3.460938 3.515625 -3.296875 C 3.316406 -3.128906 3.21875 -2.894531 3.21875 -2.59375 C 3.21875 -2.300781 3.328125 -2.078125 3.546875 -1.921875 C 3.765625 -1.765625 4.035156 -1.6875 4.359375 -1.6875 C 4.773438 -1.6875 5.144531 -1.773438 5.46875 -1.953125 C 5.789062 -2.140625 6.039062 -2.390625 6.21875 -2.703125 C 6.394531 -3.015625 6.484375 -3.359375 6.484375 -3.734375 L 6.484375 -6.171875 C 6.484375 -6.523438 6.34375 -6.820312 6.0625 -7.0625 C 5.78125 -7.300781 5.398438 -7.421875 4.921875 -7.421875 C 4.460938 -7.421875 4.054688 -7.296875 3.703125 -7.046875 C 3.359375 -6.796875 3.109375 -6.460938 2.953125 -6.046875 L 0.890625 -7.03125 C 1.078125 -7.550781 1.367188 -8 1.765625 -8.375 C 2.160156 -8.757812 2.640625 -9.050781 3.203125 -9.25 C 3.765625 -9.457031 4.378906 -9.5625 5.046875 -9.5625 C 5.828125 -9.5625 6.519531 -9.414062 7.125 -9.125 C 7.726562 -8.84375 8.195312 -8.445312 8.53125 -7.9375 C 8.875 -7.4375 9.046875 -6.847656 9.046875 -6.171875 L 9.046875 0 L 6.65625 0 L 6.65625 -1.515625 L 7.234375 -1.609375 C 6.960938 -1.203125 6.660156 -0.863281 6.328125 -0.59375 C 5.992188 -0.320312 5.617188 -0.125 5.203125 0 C 4.796875 0.132812 4.34375 0.203125 3.84375 0.203125 Z M 3.84375 0.203125 "/></g></g></g><g fill="#000000" fill-opacity="1"><g transform="translate(124.643484, 18.042393)"><g><path d="M 5.53125 0.203125 C 4.59375 0.203125 3.75 -0.0078125 3 -0.4375 C 2.257812 -0.863281 1.664062 -1.445312 1.21875 -2.1875 C 0.78125 -2.9375 0.5625 -3.773438 0.5625 -4.703125 C 0.5625 -5.617188 0.78125 -6.445312 1.21875 -7.1875 C 1.65625 -7.925781 2.25 -8.503906 3 -8.921875 C 3.75 -9.347656 4.59375 -9.5625 5.53125 -9.5625 C 6.226562 -9.5625 6.875 -9.441406 7.46875 -9.203125 C 8.0625 -8.960938 8.570312 -8.628906 9 -8.203125 C 9.425781 -7.773438 9.726562 -7.269531 9.90625 -6.6875 L 7.671875 -5.71875 C 7.515625 -6.1875 7.242188 -6.554688 6.859375 -6.828125 C 6.484375 -7.109375 6.039062 -7.25 5.53125 -7.25 C 5.09375 -7.25 4.695312 -7.140625 4.34375 -6.921875 C 4 -6.703125 3.722656 -6.398438 3.515625 -6.015625 C 3.316406 -5.628906 3.21875 -5.179688 3.21875 -4.671875 C 3.21875 -4.171875 3.316406 -3.726562 3.515625 -3.34375 C 3.722656 -2.957031 4 -2.65625 4.34375 -2.4375 C 4.695312 -2.21875 5.09375 -2.109375 5.53125 -2.109375 C 6.050781 -2.109375 6.5 -2.242188 6.875 -2.515625 C 7.25 -2.796875 7.515625 -3.171875 7.671875 -3.640625 L 9.90625 -2.65625 C 9.738281 -2.101562 9.441406 -1.609375 9.015625 -1.171875 C 8.585938 -0.742188 8.078125 -0.40625 7.484375 -0.15625 C 6.890625 0.0820312 6.238281 0.203125 5.53125 0.203125 Z M 5.53125 0.203125 "/></g></g></g><g fill="#000000" fill-opacity="1"><g transform="translate(135.624277, 18.042393)"><g><path d="M 0.9375 0 L 0.9375 -9.359375 L 3.515625 -9.359375 L 3.515625 0 Z M 0.9375 -10.203125 L 0.9375 -12.765625 L 3.515625 -12.765625 L 3.515625 -10.203125 Z M 0.9375 -10.203125 "/></g></g></g><g fill="#000000" fill-opacity="1"><g transform="translate(140.5923, 18.042393)"><g><path d="M 0.9375 0 L 0.9375 -12.96875 L 3.515625 -12.96875 L 3.515625 0 Z M 0.9375 0 "/></g></g></g><g fill="#000000" fill-opacity="1"><g transform="translate(145.560322, 18.042393)"><g><path d="M 5.453125 0.203125 C 4.453125 0.203125 3.585938 -0.015625 2.859375 -0.453125 C 2.128906 -0.890625 1.5625 -1.476562 1.15625 -2.21875 C 0.757812 -2.96875 0.5625 -3.796875 0.5625 -4.703125 C 0.5625 -5.640625 0.769531 -6.472656 1.1875 -7.203125 C 1.601562 -7.929688 2.164062 -8.503906 2.875 -8.921875 C 3.582031 -9.347656 4.382812 -9.5625 5.28125 -9.5625 C 6.019531 -9.5625 6.675781 -9.441406 7.25 -9.203125 C 7.820312 -8.972656 8.304688 -8.644531 8.703125 -8.21875 C 9.097656 -7.800781 9.394531 -7.316406 9.59375 -6.765625 C 9.800781 -6.210938 9.90625 -5.609375 9.90625 -4.953125 C 9.90625 -4.765625 9.894531 -4.582031 9.875 -4.40625 C 9.863281 -4.226562 9.832031 -4.078125 9.78125 -3.953125 L 2.78125 -3.953125 L 2.78125 -5.84375 L 8.328125 -5.84375 L 7.109375 -4.953125 C 7.222656 -5.441406 7.21875 -5.878906 7.09375 -6.265625 C 6.96875 -6.648438 6.75 -6.953125 6.4375 -7.171875 C 6.125 -7.390625 5.738281 -7.5 5.28125 -7.5 C 4.832031 -7.5 4.445312 -7.390625 4.125 -7.171875 C 3.8125 -6.960938 3.570312 -6.644531 3.40625 -6.21875 C 3.25 -5.800781 3.1875 -5.285156 3.21875 -4.671875 C 3.175781 -4.148438 3.238281 -3.6875 3.40625 -3.28125 C 3.582031 -2.882812 3.847656 -2.570312 4.203125 -2.34375 C 4.554688 -2.125 4.984375 -2.015625 5.484375 -2.015625 C 5.941406 -2.015625 6.332031 -2.109375 6.65625 -2.296875 C 6.976562 -2.484375 7.234375 -2.734375 7.421875 -3.046875 L 9.484375 -2.078125 C 9.296875 -1.617188 9.003906 -1.21875 8.609375 -0.875 C 8.210938 -0.53125 7.742188 -0.265625 7.203125 -0.078125 C 6.671875 0.105469 6.085938 0.203125 5.453125 0.203125 Z M 5.453125 0.203125 "/></g></g></g></g></g></g></g></g></g></svg>