<svg xmlns="http://www.w3.org/2000/svg" xmlns:xlink="http://www.w3.org/1999/xlink" width="416" zoomAndPan="magnify" viewBox="0 0 312 122.249994" height="163" preserveAspectRatio="xMidYMid meet" version="1.0"><defs><filter x="0%" y="0%" width="100%" height="100%" id="0356fbf31e"><feColorMatrix values="0 0 0 0 1 0 0 0 0 1 0 0 0 0 1 0 0 0 1 0" color-interpolation-filters="sRGB"/></filter><g/><mask id="f79004de5f"><g filter="url(#0356fbf31e)"><rect x="-31.2" width="374.4" fill="#000000" y="-12.224999" height="146.699993" fill-opacity="0.5"/></g></mask><clipPath id="c19bff3b1c"><path d="M 2 2 L 38 2 L 38 24 L 2 24 Z M 2 2 " clip-rule="nonzero"/></clipPath><clipPath id="27e22d8e68"><path d="M 34.785156 0.464844 L 39.265625 10.335938 L 5.453125 25.6875 L 0.972656 15.816406 Z M 34.785156 0.464844 " clip-rule="nonzero"/></clipPath><clipPath id="f03b9b9245"><path d="M 37.027344 5.398438 C 37.621094 6.707031 37.671875 8.199219 37.164062 9.546875 C 36.660156 10.890625 35.640625 11.980469 34.332031 12.574219 L 10.394531 23.441406 C 9.085938 24.039062 7.59375 24.085938 6.25 23.582031 C 4.902344 23.078125 3.8125 22.058594 3.21875 20.75 C 2.625 19.441406 2.574219 17.949219 3.078125 16.601562 C 3.585938 15.257812 4.605469 14.167969 5.914062 13.574219 L 29.851562 2.703125 C 31.160156 2.109375 32.652344 2.0625 33.996094 2.566406 C 35.34375 3.070312 36.433594 4.089844 37.027344 5.398438 Z M 37.027344 5.398438 " clip-rule="nonzero"/></clipPath><clipPath id="78323df29d"><path d="M 0.417969 0.0117188 L 35.722656 0.0117188 L 35.722656 22 L 0.417969 22 Z M 0.417969 0.0117188 " clip-rule="nonzero"/></clipPath><clipPath id="c007be27ba"><path d="M 32.785156 -1.535156 L 37.265625 8.335938 L 3.453125 23.6875 L -1.027344 13.816406 Z M 32.785156 -1.535156 " clip-rule="nonzero"/></clipPath><clipPath id="c9e06cf739"><path d="M 35.027344 3.398438 C 35.621094 4.707031 35.671875 6.199219 35.164062 7.546875 C 34.660156 8.890625 33.640625 9.980469 32.332031 10.574219 L 8.394531 21.441406 C 7.085938 22.039062 5.59375 22.085938 4.25 21.582031 C 2.902344 21.078125 1.8125 20.058594 1.21875 18.75 C 0.625 17.441406 0.574219 15.949219 1.078125 14.601562 C 1.585938 13.257812 2.605469 12.167969 3.914062 11.574219 L 27.851562 0.703125 C 29.160156 0.109375 30.652344 0.0625 31.996094 0.566406 C 33.34375 1.070312 34.433594 2.089844 35.027344 3.398438 Z M 35.027344 3.398438 " clip-rule="nonzero"/></clipPath><clipPath id="18cbbfdb73"><rect x="0" width="36" y="0" height="22"/></clipPath><clipPath id="d28564c24e"><rect x="0" width="40" y="0" height="26"/></clipPath><clipPath id="244a74ef1c"><path d="M 18 52 L 60 52 L 60 78 L 18 78 Z M 18 52 " clip-rule="nonzero"/></clipPath><clipPath id="9b29e99213"><path d="M 56.414062 50.472656 L 61.65625 62.015625 L 22.121094 79.964844 L 16.882812 68.421875 Z M 56.414062 50.472656 " clip-rule="nonzero"/></clipPath><clipPath id="676b45c832"><path d="M 59.035156 56.242188 C 59.730469 57.773438 59.789062 59.519531 59.199219 61.089844 C 58.605469 62.664062 57.414062 63.9375 55.886719 64.632812 L 27.898438 77.339844 C 26.367188 78.035156 24.625 78.09375 23.050781 77.503906 C 21.476562 76.910156 20.203125 75.71875 19.507812 74.191406 C 18.8125 72.660156 18.753906 70.914062 19.347656 69.34375 C 19.9375 67.769531 21.128906 66.496094 22.660156 65.800781 L 50.644531 53.09375 C 52.175781 52.398438 53.917969 52.339844 55.492188 52.929688 C 57.066406 53.523438 58.339844 54.714844 59.035156 56.242188 Z M 59.035156 56.242188 " clip-rule="nonzero"/></clipPath><clipPath id="d43b054ba1"><path d="M 0.601562 0.238281 L 41.871094 0.238281 L 41.871094 26 L 0.601562 26 Z M 0.601562 0.238281 " clip-rule="nonzero"/></clipPath><clipPath id="9d41e9babd"><path d="M 38.414062 -1.527344 L 43.65625 10.015625 L 4.121094 27.964844 L -1.117188 16.421875 Z M 38.414062 -1.527344 " clip-rule="nonzero"/></clipPath><clipPath id="9ff6464c25"><path d="M 41.035156 4.242188 C 41.730469 5.773438 41.789062 7.519531 41.199219 9.089844 C 40.605469 10.664062 39.414062 11.9375 37.886719 12.632812 L 9.898438 25.339844 C 8.367188 26.035156 6.625 26.09375 5.050781 25.503906 C 3.476562 24.910156 2.203125 23.71875 1.507812 22.191406 C 0.8125 20.660156 0.753906 18.914062 1.347656 17.34375 C 1.9375 15.769531 3.128906 14.496094 4.660156 13.800781 L 32.644531 1.09375 C 34.175781 0.398438 35.917969 0.339844 37.492188 0.929688 C 39.066406 1.523438 40.339844 2.714844 41.035156 4.242188 Z M 41.035156 4.242188 " clip-rule="nonzero"/></clipPath><clipPath id="dd5d473a79"><rect x="0" width="42" y="0" height="26"/></clipPath><clipPath id="375ba35159"><path d="M 1 8 L 79 8 L 79 59 L 1 59 Z M 1 8 " clip-rule="nonzero"/></clipPath><clipPath id="028e94b5f1"><path d="M 71.746094 3.972656 L 83.171875 29.136719 L 8.070312 63.234375 L -3.355469 38.070312 Z M 71.746094 3.972656 " clip-rule="nonzero"/></clipPath><clipPath id="73f0283111"><path d="M 77.457031 16.554688 C 78.972656 19.894531 79.101562 23.695312 77.8125 27.125 C 76.523438 30.558594 73.925781 33.335938 70.585938 34.851562 L 20.734375 57.488281 C 17.394531 59 13.59375 59.128906 10.164062 57.839844 C 6.730469 56.550781 3.953125 53.953125 2.4375 50.617188 C 0.921875 47.28125 0.796875 43.476562 2.082031 40.046875 C 3.371094 36.617188 5.96875 33.835938 9.308594 32.320312 L 59.164062 9.6875 C 62.5 8.171875 66.300781 8.042969 69.734375 9.332031 C 73.164062 10.621094 75.941406 13.21875 77.457031 16.554688 Z M 77.457031 16.554688 " clip-rule="nonzero"/></clipPath><clipPath id="24f7bdbc7f"><path d="M 0 0 L 78 0 L 78 51 L 0 51 Z M 0 0 " clip-rule="nonzero"/></clipPath><clipPath id="5d2681cde7"><path d="M 70.746094 -4.027344 L 82.171875 21.136719 L 7.070312 55.234375 L -4.355469 30.070312 Z M 70.746094 -4.027344 " clip-rule="nonzero"/></clipPath><clipPath id="baa96da3e1"><path d="M 76.457031 8.554688 C 77.972656 11.894531 78.101562 15.695312 76.8125 19.125 C 75.523438 22.558594 72.925781 25.335938 69.585938 26.851562 L 19.734375 49.488281 C 16.394531 51 12.59375 51.128906 9.164062 49.839844 C 5.730469 48.550781 2.953125 45.953125 1.4375 42.617188 C -0.078125 39.28125 -0.203125 35.476562 1.082031 32.046875 C 2.371094 28.617188 4.96875 25.835938 8.308594 24.320312 L 58.164062 1.6875 C 61.5 0.171875 65.300781 0.0429688 68.734375 1.332031 C 72.164062 2.621094 74.941406 5.21875 76.457031 8.554688 Z M 76.457031 8.554688 " clip-rule="nonzero"/></clipPath><clipPath id="92ba758cf1"><rect x="0" width="78" y="0" height="51"/></clipPath><clipPath id="d0ef54ad33"><path d="M 15 47 L 63 47 L 63 77 L 15 77 Z M 15 47 " clip-rule="nonzero"/></clipPath><clipPath id="4ce5167a0b"><path d="M 58.730469 44.789062 L 64.753906 58.058594 L 19.292969 78.699219 L 13.265625 65.429688 Z M 58.730469 44.789062 " clip-rule="nonzero"/></clipPath><clipPath id="28a88a9696"><path d="M 61.742188 51.421875 C 63.40625 55.089844 61.785156 59.40625 58.121094 61.070312 L 25.9375 75.683594 C 22.269531 77.347656 17.953125 75.726562 16.289062 72.0625 C 14.625 68.394531 16.246094 64.078125 19.910156 62.414062 L 52.09375 47.800781 C 55.757812 46.136719 60.078125 47.757812 61.742188 51.421875 Z M 61.742188 51.421875 " clip-rule="nonzero"/></clipPath><clipPath id="fa59971faa"><path d="M 0 0 L 48 0 L 48 30 L 0 30 Z M 0 0 " clip-rule="nonzero"/></clipPath><clipPath id="ca5dd2f535"><path d="M 43.730469 -2.210938 L 49.753906 11.058594 L 4.292969 31.699219 L -1.734375 18.429688 Z M 43.730469 -2.210938 " clip-rule="nonzero"/></clipPath><clipPath id="30e5ec6387"><path d="M 46.742188 4.421875 C 48.40625 8.089844 46.785156 12.40625 43.121094 14.070312 L 10.9375 28.683594 C 7.269531 30.347656 2.953125 28.726562 1.289062 25.0625 C -0.375 21.394531 1.246094 17.078125 4.910156 15.414062 L 37.09375 0.800781 C 40.757812 -0.863281 45.078125 0.757812 46.742188 4.421875 Z M 46.742188 4.421875 " clip-rule="nonzero"/></clipPath><clipPath id="3c21b2eb8b"><rect x="0" width="48" y="0" height="30"/></clipPath><clipPath id="19510cd1a6"><path d="M 12 62 L 90 62 L 90 114 L 12 114 Z M 12 62 " clip-rule="nonzero"/></clipPath><clipPath id="f2a5473083"><path d="M 82.699219 58.40625 L 94.078125 83.472656 L 18.980469 117.566406 L 7.601562 92.503906 Z M 82.699219 58.40625 " clip-rule="nonzero"/></clipPath><clipPath id="e3f1f4a21a"><path d="M 88.386719 70.941406 C 89.898438 74.261719 90.023438 78.050781 88.742188 81.46875 C 87.457031 84.886719 84.867188 87.652344 81.546875 89.164062 L 31.589844 111.84375 C 28.265625 113.351562 24.480469 113.480469 21.0625 112.195312 C 17.644531 110.914062 14.878906 108.324219 13.367188 105 C 11.859375 101.675781 11.730469 97.890625 13.015625 94.472656 C 14.296875 91.054688 16.886719 88.285156 20.210938 86.777344 L 70.164062 64.097656 C 73.488281 62.585938 77.277344 62.460938 80.691406 63.746094 C 84.109375 65.027344 86.878906 67.617188 88.386719 70.941406 Z M 88.386719 70.941406 " clip-rule="nonzero"/></clipPath><clipPath id="81b9360f76"><path d="M 0 0.257812 L 78 0.257812 L 78 51.542969 L 0 51.542969 Z M 0 0.257812 " clip-rule="nonzero"/></clipPath><clipPath id="6c1ce6063a"><path d="M 70.699219 -3.59375 L 82.078125 21.472656 L 6.980469 55.566406 L -4.398438 30.503906 Z M 70.699219 -3.59375 " clip-rule="nonzero"/></clipPath><clipPath id="3acc4de0a2"><path d="M 76.386719 8.941406 C 77.898438 12.261719 78.023438 16.050781 76.742188 19.46875 C 75.457031 22.886719 72.867188 25.652344 69.546875 27.164062 L 19.589844 49.84375 C 16.265625 51.351562 12.480469 51.480469 9.0625 50.195312 C 5.644531 48.914062 2.878906 46.324219 1.367188 43 C -0.140625 39.675781 -0.269531 35.890625 1.015625 32.472656 C 2.296875 29.054688 4.886719 26.285156 8.210938 24.777344 L 58.164062 2.097656 C 61.488281 0.585938 65.277344 0.460938 68.691406 1.746094 C 72.109375 3.027344 74.878906 5.617188 76.386719 8.941406 Z M 76.386719 8.941406 " clip-rule="nonzero"/></clipPath><clipPath id="5872a72b56"><rect x="0" width="78" y="0" height="52"/></clipPath><clipPath id="02dfb843dc"><path d="M 93 18 L 311.046875 18 L 311.046875 103 L 93 103 Z M 93 18 " clip-rule="nonzero"/></clipPath><clipPath id="cb4fd826dd"><rect x="0" width="219" y="0" height="85"/></clipPath><mask id="f8429595c9"><g filter="url(#0356fbf31e)"><rect x="-31.2" width="374.4" fill="#000000" y="-12.224999" height="146.699993" fill-opacity="0.5"/></g></mask><clipPath id="0e253c2bb1"><path d="M 0.421875 0.0273438 L 157.378906 0.0273438 L 157.378906 21.976562 L 0.421875 21.976562 Z M 0.421875 0.0273438 " clip-rule="nonzero"/></clipPath><clipPath id="a7990432c8"><rect x="0" width="158" y="0" height="22"/></clipPath><clipPath id="86c27b8b79"><rect x="0" width="158" y="0" height="22"/></clipPath></defs><g mask="url(#f79004de5f)"><g transform="matrix(1, 0, 0, 1, 20, 55)"><g clip-path="url(#d28564c24e)"><g clip-path="url(#c19bff3b1c)"><g clip-path="url(#27e22d8e68)"><g clip-path="url(#f03b9b9245)"><g transform="matrix(1, 0, 0, 1, 2, 2)"><g clip-path="url(#18cbbfdb73)"><g clip-path="url(#78323df29d)"><g clip-path="url(#c007be27ba)"><g clip-path="url(#c9e06cf739)"><path fill="#bad4f9" d="M 32.785156 -1.535156 L 37.265625 8.335938 L 3.453125 23.6875 L -1.027344 13.816406 Z M 32.785156 -1.535156 " fill-opacity="1" fill-rule="nonzero"/></g></g></g></g></g></g></g></g></g></g></g><g clip-path="url(#244a74ef1c)"><g clip-path="url(#9b29e99213)"><g clip-path="url(#676b45c832)"><g transform="matrix(1, 0, 0, 1, 18, 52)"><g clip-path="url(#dd5d473a79)"><g clip-path="url(#d43b054ba1)"><g clip-path="url(#9d41e9babd)"><g clip-path="url(#9ff6464c25)"><path fill="#bad4f9" d="M 38.414062 -1.527344 L 43.65625 10.015625 L 4.121094 27.964844 L -1.117188 16.421875 Z M 38.414062 -1.527344 " fill-opacity="1" fill-rule="nonzero"/></g></g></g></g></g></g></g></g><g clip-path="url(#375ba35159)"><g clip-path="url(#028e94b5f1)"><g clip-path="url(#73f0283111)"><g transform="matrix(1, 0, 0, 1, 1, 8)"><g clip-path="url(#92ba758cf1)"><g clip-path="url(#24f7bdbc7f)"><g clip-path="url(#5d2681cde7)"><g clip-path="url(#baa96da3e1)"><path fill="#2f80ed" d="M 70.746094 -4.027344 L 82.171875 21.136719 L 7.167969 55.191406 L -4.257812 30.027344 Z M 70.746094 -4.027344 " fill-opacity="1" fill-rule="nonzero"/></g></g></g></g></g></g></g></g><g clip-path="url(#d0ef54ad33)"><g clip-path="url(#4ce5167a0b)"><g clip-path="url(#28a88a9696)"><g transform="matrix(1, 0, 0, 1, 15, 47)"><g clip-path="url(#3c21b2eb8b)"><g clip-path="url(#fa59971faa)"><g clip-path="url(#ca5dd2f535)"><g clip-path="url(#30e5ec6387)"><path fill="#2f80ed" d="M 43.730469 -2.210938 L 49.753906 11.058594 L 4.292969 31.699219 L -1.734375 18.429688 Z M 43.730469 -2.210938 " fill-opacity="1" fill-rule="nonzero"/></g></g></g></g></g></g></g></g><g clip-path="url(#19510cd1a6)"><g clip-path="url(#f2a5473083)"><g clip-path="url(#e3f1f4a21a)"><g transform="matrix(1, 0, 0, 1, 12, 62)"><g clip-path="url(#5872a72b56)"><g clip-path="url(#81b9360f76)"><g clip-path="url(#6c1ce6063a)"><g clip-path="url(#3acc4de0a2)"><path fill="#2f80ed" d="M 70.699219 -3.59375 L 82.078125 21.472656 L 7.078125 55.523438 L -4.300781 30.457031 Z M 70.699219 -3.59375 " fill-opacity="1" fill-rule="nonzero"/></g></g></g></g></g></g></g></g><g clip-path="url(#02dfb843dc)"><g transform="matrix(1, 0, 0, 1, 93, 18)"><g clip-path="url(#cb4fd826dd)"><g fill="#2f80ed" fill-opacity="1"><g transform="translate(0.522861, 69.02367)"><g><path d="M 8.046875 0 L 8.046875 -27.65625 L 1.921875 -27.65625 L 1.921875 -36.296875 L 8.046875 -36.296875 L 8.046875 -36.828125 C 8.046875 -39.710938 8.609375 -42.148438 9.734375 -44.140625 C 10.867188 -46.140625 12.5 -47.671875 14.625 -48.734375 C 16.75 -49.796875 19.320312 -50.328125 22.34375 -50.328125 C 22.914062 -50.328125 23.535156 -50.289062 24.203125 -50.21875 C 24.867188 -50.15625 25.421875 -50.082031 25.859375 -50 L 25.859375 -41.484375 C 25.421875 -41.578125 25.035156 -41.632812 24.703125 -41.65625 C 24.367188 -41.675781 24.023438 -41.6875 23.671875 -41.6875 C 21.804688 -41.6875 20.394531 -41.273438 19.4375 -40.453125 C 18.488281 -39.628906 18.015625 -38.421875 18.015625 -36.828125 L 18.015625 -36.296875 L 25.796875 -36.296875 L 25.796875 -27.65625 L 18.015625 -27.65625 L 18.015625 0 Z M 8.046875 0 "/></g></g></g><g fill="#2f80ed" fill-opacity="1"><g transform="translate(29.103622, 69.02367)"><g><path d="M 8.046875 0 L 8.046875 -27.65625 L 1.921875 -27.65625 L 1.921875 -36.296875 L 8.046875 -36.296875 L 8.046875 -36.828125 C 8.046875 -39.710938 8.609375 -42.148438 9.734375 -44.140625 C 10.867188 -46.140625 12.5 -47.671875 14.625 -48.734375 C 16.75 -49.796875 19.320312 -50.328125 22.34375 -50.328125 C 22.914062 -50.328125 23.535156 -50.289062 24.203125 -50.21875 C 24.867188 -50.15625 25.421875 -50.082031 25.859375 -50 L 25.859375 -41.484375 C 25.421875 -41.578125 25.035156 -41.632812 24.703125 -41.65625 C 24.367188 -41.675781 24.023438 -41.6875 23.671875 -41.6875 C 21.804688 -41.6875 20.394531 -41.273438 19.4375 -40.453125 C 18.488281 -39.628906 18.015625 -38.421875 18.015625 -36.828125 L 18.015625 -36.296875 L 25.796875 -36.296875 L 25.796875 -27.65625 L 18.015625 -27.65625 L 18.015625 0 Z M 8.046875 0 "/></g></g></g><g fill="#2f80ed" fill-opacity="1"><g transform="translate(58.349162, 69.02367)"><g><path d="M 14.890625 0.796875 C 12.273438 0.796875 10.015625 0.371094 8.109375 -0.46875 C 6.203125 -1.3125 4.738281 -2.519531 3.71875 -4.09375 C 2.695312 -5.664062 2.1875 -7.535156 2.1875 -9.703125 C 2.1875 -11.742188 2.648438 -13.550781 3.578125 -15.125 C 4.515625 -16.695312 5.945312 -18.015625 7.875 -19.078125 C 9.800781 -20.140625 12.207031 -20.894531 15.09375 -21.34375 L 26.1875 -23.140625 L 26.1875 -15.828125 L 16.890625 -14.15625 C 15.472656 -13.894531 14.382812 -13.441406 13.625 -12.796875 C 12.875 -12.148438 12.5 -11.234375 12.5 -10.046875 C 12.5 -8.929688 12.921875 -8.0625 13.765625 -7.4375 C 14.609375 -6.820312 15.648438 -6.515625 16.890625 -6.515625 C 18.523438 -6.515625 19.960938 -6.867188 21.203125 -7.578125 C 22.441406 -8.285156 23.40625 -9.25 24.09375 -10.46875 C 24.78125 -11.6875 25.125 -13.03125 25.125 -14.5 L 25.125 -23.9375 C 25.125 -25.3125 24.582031 -26.460938 23.5 -27.390625 C 22.414062 -28.316406 20.941406 -28.78125 19.078125 -28.78125 C 17.304688 -28.78125 15.742188 -28.289062 14.390625 -27.3125 C 13.035156 -26.34375 12.050781 -25.0625 11.4375 -23.46875 L 3.453125 -27.265625 C 4.160156 -29.296875 5.289062 -31.039062 6.84375 -32.5 C 8.394531 -33.96875 10.253906 -35.097656 12.421875 -35.890625 C 14.597656 -36.691406 16.972656 -37.09375 19.546875 -37.09375 C 22.609375 -37.09375 25.3125 -36.539062 27.65625 -35.4375 C 30.007812 -34.332031 31.835938 -32.789062 33.140625 -30.8125 C 34.453125 -28.84375 35.109375 -26.550781 35.109375 -23.9375 L 35.109375 0 L 25.796875 0 L 25.796875 -5.84375 L 28.0625 -6.25 C 26.988281 -4.65625 25.8125 -3.335938 24.53125 -2.296875 C 23.25 -1.253906 21.804688 -0.476562 20.203125 0.03125 C 18.609375 0.539062 16.835938 0.796875 14.890625 0.796875 Z M 14.890625 0.796875 "/></g></g></g><g fill="#2f80ed" fill-opacity="1"><g transform="translate(98.42851, 69.02367)"><g><path d="M 21.140625 0.40625 C 16.753906 0.40625 13.351562 -0.78125 10.9375 -3.15625 C 8.519531 -5.53125 7.3125 -8.84375 7.3125 -13.09375 L 7.3125 -27.65625 L 1.203125 -27.65625 L 1.203125 -36.296875 L 1.53125 -36.296875 C 3.394531 -36.296875 4.820312 -36.757812 5.8125 -37.6875 C 6.8125 -38.625 7.3125 -40.023438 7.3125 -41.890625 L 7.3125 -44.546875 L 17.28125 -44.546875 L 17.28125 -36.296875 L 25.796875 -36.296875 L 25.796875 -27.65625 L 17.28125 -27.65625 L 17.28125 -13.765625 C 17.28125 -12.523438 17.5 -11.492188 17.9375 -10.671875 C 18.382812 -9.847656 19.070312 -9.238281 20 -8.84375 C 20.9375 -8.445312 22.09375 -8.25 23.46875 -8.25 C 23.78125 -8.25 24.132812 -8.269531 24.53125 -8.3125 C 24.925781 -8.351562 25.347656 -8.394531 25.796875 -8.4375 L 25.796875 0 C 25.128906 0.09375 24.375 0.179688 23.53125 0.265625 C 22.6875 0.359375 21.890625 0.40625 21.140625 0.40625 Z M 21.140625 0.40625 "/></g></g></g><g fill="#2f80ed" fill-opacity="1"><g transform="translate(128.405178, 69.02367)"><g><path d="M 21.140625 0.40625 C 16.753906 0.40625 13.351562 -0.78125 10.9375 -3.15625 C 8.519531 -5.53125 7.3125 -8.84375 7.3125 -13.09375 L 7.3125 -27.65625 L 1.203125 -27.65625 L 1.203125 -36.296875 L 1.53125 -36.296875 C 3.394531 -36.296875 4.820312 -36.757812 5.8125 -37.6875 C 6.8125 -38.625 7.3125 -40.023438 7.3125 -41.890625 L 7.3125 -44.546875 L 17.28125 -44.546875 L 17.28125 -36.296875 L 25.796875 -36.296875 L 25.796875 -27.65625 L 17.28125 -27.65625 L 17.28125 -13.765625 C 17.28125 -12.523438 17.5 -11.492188 17.9375 -10.671875 C 18.382812 -9.847656 19.070312 -9.238281 20 -8.84375 C 20.9375 -8.445312 22.09375 -8.25 23.46875 -8.25 C 23.78125 -8.25 24.132812 -8.269531 24.53125 -8.3125 C 24.925781 -8.351562 25.347656 -8.394531 25.796875 -8.4375 L 25.796875 0 C 25.128906 0.09375 24.375 0.179688 23.53125 0.265625 C 22.6875 0.359375 21.890625 0.40625 21.140625 0.40625 Z M 21.140625 0.40625 "/></g></g></g><g fill="#2f80ed" fill-opacity="1"><g transform="translate(158.381846, 69.02367)"><g><path d="M 14.890625 0.796875 C 12.273438 0.796875 10.015625 0.371094 8.109375 -0.46875 C 6.203125 -1.3125 4.738281 -2.519531 3.71875 -4.09375 C 2.695312 -5.664062 2.1875 -7.535156 2.1875 -9.703125 C 2.1875 -11.742188 2.648438 -13.550781 3.578125 -15.125 C 4.515625 -16.695312 5.945312 -18.015625 7.875 -19.078125 C 9.800781 -20.140625 12.207031 -20.894531 15.09375 -21.34375 L 26.1875 -23.140625 L 26.1875 -15.828125 L 16.890625 -14.15625 C 15.472656 -13.894531 14.382812 -13.441406 13.625 -12.796875 C 12.875 -12.148438 12.5 -11.234375 12.5 -10.046875 C 12.5 -8.929688 12.921875 -8.0625 13.765625 -7.4375 C 14.609375 -6.820312 15.648438 -6.515625 16.890625 -6.515625 C 18.523438 -6.515625 19.960938 -6.867188 21.203125 -7.578125 C 22.441406 -8.285156 23.40625 -9.25 24.09375 -10.46875 C 24.78125 -11.6875 25.125 -13.03125 25.125 -14.5 L 25.125 -23.9375 C 25.125 -25.3125 24.582031 -26.460938 23.5 -27.390625 C 22.414062 -28.316406 20.941406 -28.78125 19.078125 -28.78125 C 17.304688 -28.78125 15.742188 -28.289062 14.390625 -27.3125 C 13.035156 -26.34375 12.050781 -25.0625 11.4375 -23.46875 L 3.453125 -27.265625 C 4.160156 -29.296875 5.289062 -31.039062 6.84375 -32.5 C 8.394531 -33.96875 10.253906 -35.097656 12.421875 -35.890625 C 14.597656 -36.691406 16.972656 -37.09375 19.546875 -37.09375 C 22.609375 -37.09375 25.3125 -36.539062 27.65625 -35.4375 C 30.007812 -34.332031 31.835938 -32.789062 33.140625 -30.8125 C 34.453125 -28.84375 35.109375 -26.550781 35.109375 -23.9375 L 35.109375 0 L 25.796875 0 L 25.796875 -5.84375 L 28.0625 -6.25 C 26.988281 -4.65625 25.8125 -3.335938 24.53125 -2.296875 C 23.25 -1.253906 21.804688 -0.476562 20.203125 0.03125 C 18.609375 0.539062 16.835938 0.796875 14.890625 0.796875 Z M 14.890625 0.796875 "/></g></g></g><g fill="#2f80ed" fill-opacity="1"><g transform="translate(199.125973, 69.02367)"><g><path d="M 8.578125 0 L 8.578125 -9.96875 L 18.546875 -9.96875 L 18.546875 0 Z M 8.578125 0 "/></g></g></g></g></g></g><g mask="url(#f8429595c9)"><g transform="matrix(1, 0, 0, 1, 100, 93)"><g clip-path="url(#86c27b8b79)"><g clip-path="url(#0e253c2bb1)"><g><g clip-path="url(#a7990432c8)"><g fill="#2f80ed" fill-opacity="1"><g transform="translate(0.44694, 18.037573)"><g><path d="M 0.9375 0 L 0.9375 -12.96875 L 3.515625 -12.96875 L 3.515625 0 Z M 0.9375 0 "/></g></g></g><g fill="#2f80ed" fill-opacity="1"><g transform="translate(5.414486, 18.037573)"><g><path d="M 3.84375 0.203125 C 3.164062 0.203125 2.582031 0.0976562 2.09375 -0.109375 C 1.601562 -0.328125 1.222656 -0.640625 0.953125 -1.046875 C 0.691406 -1.453125 0.5625 -1.9375 0.5625 -2.5 C 0.5625 -3.019531 0.679688 -3.484375 0.921875 -3.890625 C 1.160156 -4.296875 1.53125 -4.632812 2.03125 -4.90625 C 2.53125 -5.1875 3.148438 -5.382812 3.890625 -5.5 L 6.75 -5.953125 L 6.75 -4.078125 L 4.34375 -3.640625 C 3.976562 -3.578125 3.695312 -3.460938 3.5 -3.296875 C 3.3125 -3.128906 3.21875 -2.890625 3.21875 -2.578125 C 3.21875 -2.296875 3.328125 -2.070312 3.546875 -1.90625 C 3.765625 -1.75 4.03125 -1.671875 4.34375 -1.671875 C 4.769531 -1.671875 5.140625 -1.757812 5.453125 -1.9375 C 5.773438 -2.125 6.023438 -2.375 6.203125 -2.6875 C 6.378906 -3.007812 6.46875 -3.359375 6.46875 -3.734375 L 6.46875 -6.171875 C 6.46875 -6.523438 6.328125 -6.820312 6.046875 -7.0625 C 5.773438 -7.300781 5.398438 -7.421875 4.921875 -7.421875 C 4.460938 -7.421875 4.054688 -7.289062 3.703125 -7.03125 C 3.359375 -6.78125 3.109375 -6.453125 2.953125 -6.046875 L 0.890625 -7.015625 C 1.078125 -7.546875 1.367188 -8 1.765625 -8.375 C 2.160156 -8.75 2.640625 -9.039062 3.203125 -9.25 C 3.765625 -9.457031 4.375 -9.5625 5.03125 -9.5625 C 5.820312 -9.5625 6.519531 -9.414062 7.125 -9.125 C 7.726562 -8.84375 8.195312 -8.445312 8.53125 -7.9375 C 8.875 -7.425781 9.046875 -6.835938 9.046875 -6.171875 L 9.046875 0 L 6.640625 0 L 6.640625 -1.5 L 7.234375 -1.609375 C 6.953125 -1.203125 6.644531 -0.863281 6.3125 -0.59375 C 5.988281 -0.320312 5.617188 -0.125 5.203125 0 C 4.796875 0.132812 4.34375 0.203125 3.84375 0.203125 Z M 3.84375 0.203125 "/></g></g></g><g fill="#2f80ed" fill-opacity="1"><g transform="translate(15.914622, 18.037573)"><g/></g></g><g fill="#2f80ed" fill-opacity="1"><g transform="translate(19.511855, 18.037573)"><g><path d="M 2.078125 0 L 2.078125 -7.125 L 0.5 -7.125 L 0.5 -9.34375 L 2.078125 -9.34375 L 2.078125 -9.484375 C 2.078125 -10.222656 2.222656 -10.847656 2.515625 -11.359375 C 2.804688 -11.878906 3.222656 -12.273438 3.765625 -12.546875 C 4.316406 -12.828125 4.976562 -12.96875 5.75 -12.96875 C 5.90625 -12.96875 6.066406 -12.957031 6.234375 -12.9375 C 6.398438 -12.914062 6.539062 -12.894531 6.65625 -12.875 L 6.65625 -10.6875 C 6.539062 -10.707031 6.441406 -10.71875 6.359375 -10.71875 C 6.273438 -10.726562 6.1875 -10.734375 6.09375 -10.734375 C 5.613281 -10.734375 5.25 -10.628906 5 -10.421875 C 4.757812 -10.210938 4.640625 -9.898438 4.640625 -9.484375 L 4.640625 -9.34375 L 6.640625 -9.34375 L 6.640625 -7.125 L 4.640625 -7.125 L 4.640625 0 Z M 2.078125 0 "/></g></g></g><g fill="#2f80ed" fill-opacity="1"><g transform="translate(27.048713, 18.037573)"><g><path d="M 3.84375 0.203125 C 3.164062 0.203125 2.582031 0.0976562 2.09375 -0.109375 C 1.601562 -0.328125 1.222656 -0.640625 0.953125 -1.046875 C 0.691406 -1.453125 0.5625 -1.9375 0.5625 -2.5 C 0.5625 -3.019531 0.679688 -3.484375 0.921875 -3.890625 C 1.160156 -4.296875 1.53125 -4.632812 2.03125 -4.90625 C 2.53125 -5.1875 3.148438 -5.382812 3.890625 -5.5 L 6.75 -5.953125 L 6.75 -4.078125 L 4.34375 -3.640625 C 3.976562 -3.578125 3.695312 -3.460938 3.5 -3.296875 C 3.3125 -3.128906 3.21875 -2.890625 3.21875 -2.578125 C 3.21875 -2.296875 3.328125 -2.070312 3.546875 -1.90625 C 3.765625 -1.75 4.03125 -1.671875 4.34375 -1.671875 C 4.769531 -1.671875 5.140625 -1.757812 5.453125 -1.9375 C 5.773438 -2.125 6.023438 -2.375 6.203125 -2.6875 C 6.378906 -3.007812 6.46875 -3.359375 6.46875 -3.734375 L 6.46875 -6.171875 C 6.46875 -6.523438 6.328125 -6.820312 6.046875 -7.0625 C 5.773438 -7.300781 5.398438 -7.421875 4.921875 -7.421875 C 4.460938 -7.421875 4.054688 -7.289062 3.703125 -7.03125 C 3.359375 -6.78125 3.109375 -6.453125 2.953125 -6.046875 L 0.890625 -7.015625 C 1.078125 -7.546875 1.367188 -8 1.765625 -8.375 C 2.160156 -8.75 2.640625 -9.039062 3.203125 -9.25 C 3.765625 -9.457031 4.375 -9.5625 5.03125 -9.5625 C 5.820312 -9.5625 6.519531 -9.414062 7.125 -9.125 C 7.726562 -8.84375 8.195312 -8.445312 8.53125 -7.9375 C 8.875 -7.425781 9.046875 -6.835938 9.046875 -6.171875 L 9.046875 0 L 6.640625 0 L 6.640625 -1.5 L 7.234375 -1.609375 C 6.953125 -1.203125 6.644531 -0.863281 6.3125 -0.59375 C 5.988281 -0.320312 5.617188 -0.125 5.203125 0 C 4.796875 0.132812 4.34375 0.203125 3.84375 0.203125 Z M 3.84375 0.203125 "/></g></g></g><g fill="#2f80ed" fill-opacity="1"><g transform="translate(37.548849, 18.037573)"><g><path d="M 5.53125 0.203125 C 4.59375 0.203125 3.75 -0.0078125 3 -0.4375 C 2.257812 -0.863281 1.664062 -1.445312 1.21875 -2.1875 C 0.78125 -2.9375 0.5625 -3.769531 0.5625 -4.6875 C 0.5625 -5.613281 0.773438 -6.441406 1.203125 -7.171875 C 1.640625 -7.910156 2.234375 -8.492188 2.984375 -8.921875 C 3.742188 -9.347656 4.59375 -9.5625 5.53125 -9.5625 C 6.226562 -9.5625 6.875 -9.441406 7.46875 -9.203125 C 8.0625 -8.960938 8.566406 -8.625 8.984375 -8.1875 C 9.410156 -7.757812 9.710938 -7.253906 9.890625 -6.671875 L 7.671875 -5.71875 C 7.515625 -6.1875 7.242188 -6.554688 6.859375 -6.828125 C 6.472656 -7.109375 6.03125 -7.25 5.53125 -7.25 C 5.082031 -7.25 4.679688 -7.140625 4.328125 -6.921875 C 3.984375 -6.703125 3.710938 -6.394531 3.515625 -6 C 3.316406 -5.613281 3.21875 -5.171875 3.21875 -4.671875 C 3.21875 -4.171875 3.316406 -3.722656 3.515625 -3.328125 C 3.710938 -2.941406 3.984375 -2.640625 4.328125 -2.421875 C 4.679688 -2.210938 5.082031 -2.109375 5.53125 -2.109375 C 6.039062 -2.109375 6.484375 -2.242188 6.859375 -2.515625 C 7.242188 -2.785156 7.515625 -3.15625 7.671875 -3.625 L 9.890625 -2.65625 C 9.722656 -2.101562 9.425781 -1.609375 9 -1.171875 C 8.582031 -0.742188 8.078125 -0.40625 7.484375 -0.15625 C 6.890625 0.0820312 6.238281 0.203125 5.53125 0.203125 Z M 5.53125 0.203125 "/></g></g></g><g fill="#2f80ed" fill-opacity="1"><g transform="translate(48.528588, 18.037573)"><g><path d="M 5.53125 0.203125 C 4.59375 0.203125 3.75 -0.0078125 3 -0.4375 C 2.257812 -0.863281 1.664062 -1.445312 1.21875 -2.1875 C 0.78125 -2.9375 0.5625 -3.769531 0.5625 -4.6875 C 0.5625 -5.613281 0.773438 -6.441406 1.203125 -7.171875 C 1.640625 -7.910156 2.234375 -8.492188 2.984375 -8.921875 C 3.742188 -9.347656 4.59375 -9.5625 5.53125 -9.5625 C 6.226562 -9.5625 6.875 -9.441406 7.46875 -9.203125 C 8.0625 -8.960938 8.566406 -8.625 8.984375 -8.1875 C 9.410156 -7.757812 9.710938 -7.253906 9.890625 -6.671875 L 7.671875 -5.71875 C 7.515625 -6.1875 7.242188 -6.554688 6.859375 -6.828125 C 6.472656 -7.109375 6.03125 -7.25 5.53125 -7.25 C 5.082031 -7.25 4.679688 -7.140625 4.328125 -6.921875 C 3.984375 -6.703125 3.710938 -6.394531 3.515625 -6 C 3.316406 -5.613281 3.21875 -5.171875 3.21875 -4.671875 C 3.21875 -4.171875 3.316406 -3.722656 3.515625 -3.328125 C 3.710938 -2.941406 3.984375 -2.640625 4.328125 -2.421875 C 4.679688 -2.210938 5.082031 -2.109375 5.53125 -2.109375 C 6.039062 -2.109375 6.484375 -2.242188 6.859375 -2.515625 C 7.242188 -2.785156 7.515625 -3.15625 7.671875 -3.625 L 9.890625 -2.65625 C 9.722656 -2.101562 9.425781 -1.609375 9 -1.171875 C 8.582031 -0.742188 8.078125 -0.40625 7.484375 -0.15625 C 6.890625 0.0820312 6.238281 0.203125 5.53125 0.203125 Z M 5.53125 0.203125 "/></g></g></g><g fill="#2f80ed" fill-opacity="1"><g transform="translate(59.508328, 18.037573)"><g><path d="M 0.9375 0 L 0.9375 -9.34375 L 3.515625 -9.34375 L 3.515625 0 Z M 0.9375 -10.1875 L 0.9375 -12.765625 L 3.515625 -12.765625 L 3.515625 -10.1875 Z M 0.9375 -10.1875 "/></g></g></g><g fill="#2f80ed" fill-opacity="1"><g transform="translate(64.475874, 18.037573)"><g><path d="M 3.84375 0.203125 C 3.164062 0.203125 2.582031 0.0976562 2.09375 -0.109375 C 1.601562 -0.328125 1.222656 -0.640625 0.953125 -1.046875 C 0.691406 -1.453125 0.5625 -1.9375 0.5625 -2.5 C 0.5625 -3.019531 0.679688 -3.484375 0.921875 -3.890625 C 1.160156 -4.296875 1.53125 -4.632812 2.03125 -4.90625 C 2.53125 -5.1875 3.148438 -5.382812 3.890625 -5.5 L 6.75 -5.953125 L 6.75 -4.078125 L 4.34375 -3.640625 C 3.976562 -3.578125 3.695312 -3.460938 3.5 -3.296875 C 3.3125 -3.128906 3.21875 -2.890625 3.21875 -2.578125 C 3.21875 -2.296875 3.328125 -2.070312 3.546875 -1.90625 C 3.765625 -1.75 4.03125 -1.671875 4.34375 -1.671875 C 4.769531 -1.671875 5.140625 -1.757812 5.453125 -1.9375 C 5.773438 -2.125 6.023438 -2.375 6.203125 -2.6875 C 6.378906 -3.007812 6.46875 -3.359375 6.46875 -3.734375 L 6.46875 -6.171875 C 6.46875 -6.523438 6.328125 -6.820312 6.046875 -7.0625 C 5.773438 -7.300781 5.398438 -7.421875 4.921875 -7.421875 C 4.460938 -7.421875 4.054688 -7.289062 3.703125 -7.03125 C 3.359375 -6.78125 3.109375 -6.453125 2.953125 -6.046875 L 0.890625 -7.015625 C 1.078125 -7.546875 1.367188 -8 1.765625 -8.375 C 2.160156 -8.75 2.640625 -9.039062 3.203125 -9.25 C 3.765625 -9.457031 4.375 -9.5625 5.03125 -9.5625 C 5.820312 -9.5625 6.519531 -9.414062 7.125 -9.125 C 7.726562 -8.84375 8.195312 -8.445312 8.53125 -7.9375 C 8.875 -7.425781 9.046875 -6.835938 9.046875 -6.171875 L 9.046875 0 L 6.640625 0 L 6.640625 -1.5 L 7.234375 -1.609375 C 6.953125 -1.203125 6.644531 -0.863281 6.3125 -0.59375 C 5.988281 -0.320312 5.617188 -0.125 5.203125 0 C 4.796875 0.132812 4.34375 0.203125 3.84375 0.203125 Z M 3.84375 0.203125 "/></g></g></g><g fill="#2f80ed" fill-opacity="1"><g transform="translate(74.97601, 18.037573)"><g><path d="M 0.9375 0 L 0.9375 -9.34375 L 3.34375 -9.34375 L 3.34375 -7.078125 L 3.078125 -7.453125 C 3.210938 -8.171875 3.539062 -8.703125 4.0625 -9.046875 C 4.59375 -9.390625 5.222656 -9.5625 5.953125 -9.5625 C 6.734375 -9.5625 7.414062 -9.363281 8 -8.96875 C 8.59375 -8.570312 8.960938 -8.039062 9.109375 -7.375 L 8.375 -7.3125 C 8.6875 -8.070312 9.125 -8.632812 9.6875 -9 C 10.257812 -9.375 10.929688 -9.5625 11.703125 -9.5625 C 12.367188 -9.5625 12.960938 -9.410156 13.484375 -9.109375 C 14.003906 -8.816406 14.410156 -8.40625 14.703125 -7.875 C 15.003906 -7.34375 15.15625 -6.722656 15.15625 -6.015625 L 15.15625 0 L 12.59375 0 L 12.59375 -5.46875 C 12.59375 -5.832031 12.523438 -6.144531 12.390625 -6.40625 C 12.253906 -6.664062 12.066406 -6.867188 11.828125 -7.015625 C 11.585938 -7.171875 11.296875 -7.25 10.953125 -7.25 C 10.628906 -7.25 10.34375 -7.171875 10.09375 -7.015625 C 9.851562 -6.867188 9.664062 -6.664062 9.53125 -6.40625 C 9.394531 -6.144531 9.328125 -5.832031 9.328125 -5.46875 L 9.328125 0 L 6.765625 0 L 6.765625 -5.46875 C 6.765625 -5.832031 6.695312 -6.144531 6.5625 -6.40625 C 6.4375 -6.664062 6.253906 -6.867188 6.015625 -7.015625 C 5.773438 -7.171875 5.484375 -7.25 5.140625 -7.25 C 4.804688 -7.25 4.515625 -7.171875 4.265625 -7.015625 C 4.023438 -6.867188 3.835938 -6.664062 3.703125 -6.40625 C 3.578125 -6.144531 3.515625 -5.832031 3.515625 -5.46875 L 3.515625 0 Z M 0.9375 0 "/></g></g></g><g fill="#2f80ed" fill-opacity="1"><g transform="translate(91.402703, 18.037573)"><g><path d="M 5.578125 0.203125 C 4.660156 0.203125 3.820312 -0.00390625 3.0625 -0.421875 C 2.300781 -0.847656 1.691406 -1.425781 1.234375 -2.15625 C 0.785156 -2.894531 0.5625 -3.734375 0.5625 -4.671875 C 0.5625 -5.617188 0.785156 -6.457031 1.234375 -7.1875 C 1.691406 -7.914062 2.300781 -8.492188 3.0625 -8.921875 C 3.820312 -9.347656 4.660156 -9.5625 5.578125 -9.5625 C 6.503906 -9.5625 7.34375 -9.347656 8.09375 -8.921875 C 8.851562 -8.492188 9.457031 -7.914062 9.90625 -7.1875 C 10.351562 -6.457031 10.578125 -5.617188 10.578125 -4.671875 C 10.578125 -3.734375 10.351562 -2.894531 9.90625 -2.15625 C 9.457031 -1.425781 8.851562 -0.847656 8.09375 -0.421875 C 7.34375 -0.00390625 6.503906 0.203125 5.578125 0.203125 Z M 5.578125 -2.109375 C 6.046875 -2.109375 6.453125 -2.210938 6.796875 -2.421875 C 7.148438 -2.640625 7.425781 -2.941406 7.625 -3.328125 C 7.820312 -3.722656 7.921875 -4.171875 7.921875 -4.671875 C 7.921875 -5.171875 7.820312 -5.613281 7.625 -6 C 7.425781 -6.382812 7.148438 -6.6875 6.796875 -6.90625 C 6.453125 -7.132812 6.046875 -7.25 5.578125 -7.25 C 5.109375 -7.25 4.695312 -7.132812 4.34375 -6.90625 C 3.988281 -6.6875 3.710938 -6.382812 3.515625 -6 C 3.316406 -5.613281 3.21875 -5.171875 3.21875 -4.671875 C 3.21875 -4.171875 3.316406 -3.722656 3.515625 -3.328125 C 3.710938 -2.941406 3.988281 -2.640625 4.34375 -2.421875 C 4.695312 -2.210938 5.109375 -2.109375 5.578125 -2.109375 Z M 5.578125 -2.109375 "/></g></g></g><g fill="#2f80ed" fill-opacity="1"><g transform="translate(103.067599, 18.037573)"><g/></g></g><g fill="#2f80ed" fill-opacity="1"><g transform="translate(106.664832, 18.037573)"><g><path d="M 2.078125 0 L 2.078125 -7.125 L 0.5 -7.125 L 0.5 -9.34375 L 2.078125 -9.34375 L 2.078125 -9.484375 C 2.078125 -10.222656 2.222656 -10.847656 2.515625 -11.359375 C 2.804688 -11.878906 3.222656 -12.273438 3.765625 -12.546875 C 4.316406 -12.828125 4.976562 -12.96875 5.75 -12.96875 C 5.90625 -12.96875 6.066406 -12.957031 6.234375 -12.9375 C 6.398438 -12.914062 6.539062 -12.894531 6.65625 -12.875 L 6.65625 -10.6875 C 6.539062 -10.707031 6.441406 -10.71875 6.359375 -10.71875 C 6.273438 -10.726562 6.1875 -10.734375 6.09375 -10.734375 C 5.613281 -10.734375 5.25 -10.628906 5 -10.421875 C 4.757812 -10.210938 4.640625 -9.898438 4.640625 -9.484375 L 4.640625 -9.34375 L 6.640625 -9.34375 L 6.640625 -7.125 L 4.640625 -7.125 L 4.640625 0 Z M 2.078125 0 "/></g></g></g><g fill="#2f80ed" fill-opacity="1"><g transform="translate(114.201689, 18.037573)"><g><path d="M 3.84375 0.203125 C 3.164062 0.203125 2.582031 0.0976562 2.09375 -0.109375 C 1.601562 -0.328125 1.222656 -0.640625 0.953125 -1.046875 C 0.691406 -1.453125 0.5625 -1.9375 0.5625 -2.5 C 0.5625 -3.019531 0.679688 -3.484375 0.921875 -3.890625 C 1.160156 -4.296875 1.53125 -4.632812 2.03125 -4.90625 C 2.53125 -5.1875 3.148438 -5.382812 3.890625 -5.5 L 6.75 -5.953125 L 6.75 -4.078125 L 4.34375 -3.640625 C 3.976562 -3.578125 3.695312 -3.460938 3.5 -3.296875 C 3.3125 -3.128906 3.21875 -2.890625 3.21875 -2.578125 C 3.21875 -2.296875 3.328125 -2.070312 3.546875 -1.90625 C 3.765625 -1.75 4.03125 -1.671875 4.34375 -1.671875 C 4.769531 -1.671875 5.140625 -1.757812 5.453125 -1.9375 C 5.773438 -2.125 6.023438 -2.375 6.203125 -2.6875 C 6.378906 -3.007812 6.46875 -3.359375 6.46875 -3.734375 L 6.46875 -6.171875 C 6.46875 -6.523438 6.328125 -6.820312 6.046875 -7.0625 C 5.773438 -7.300781 5.398438 -7.421875 4.921875 -7.421875 C 4.460938 -7.421875 4.054688 -7.289062 3.703125 -7.03125 C 3.359375 -6.78125 3.109375 -6.453125 2.953125 -6.046875 L 0.890625 -7.015625 C 1.078125 -7.546875 1.367188 -8 1.765625 -8.375 C 2.160156 -8.75 2.640625 -9.039062 3.203125 -9.25 C 3.765625 -9.457031 4.375 -9.5625 5.03125 -9.5625 C 5.820312 -9.5625 6.519531 -9.414062 7.125 -9.125 C 7.726562 -8.84375 8.195312 -8.445312 8.53125 -7.9375 C 8.875 -7.425781 9.046875 -6.835938 9.046875 -6.171875 L 9.046875 0 L 6.640625 0 L 6.640625 -1.5 L 7.234375 -1.609375 C 6.953125 -1.203125 6.644531 -0.863281 6.3125 -0.59375 C 5.988281 -0.320312 5.617188 -0.125 5.203125 0 C 4.796875 0.132812 4.34375 0.203125 3.84375 0.203125 Z M 3.84375 0.203125 "/></g></g></g><g fill="#2f80ed" fill-opacity="1"><g transform="translate(124.701826, 18.037573)"><g><path d="M 5.53125 0.203125 C 4.59375 0.203125 3.75 -0.0078125 3 -0.4375 C 2.257812 -0.863281 1.664062 -1.445312 1.21875 -2.1875 C 0.78125 -2.9375 0.5625 -3.769531 0.5625 -4.6875 C 0.5625 -5.613281 0.773438 -6.441406 1.203125 -7.171875 C 1.640625 -7.910156 2.234375 -8.492188 2.984375 -8.921875 C 3.742188 -9.347656 4.59375 -9.5625 5.53125 -9.5625 C 6.226562 -9.5625 6.875 -9.441406 7.46875 -9.203125 C 8.0625 -8.960938 8.566406 -8.625 8.984375 -8.1875 C 9.410156 -7.757812 9.710938 -7.253906 9.890625 -6.671875 L 7.671875 -5.71875 C 7.515625 -6.1875 7.242188 -6.554688 6.859375 -6.828125 C 6.472656 -7.109375 6.03125 -7.25 5.53125 -7.25 C 5.082031 -7.25 4.679688 -7.140625 4.328125 -6.921875 C 3.984375 -6.703125 3.710938 -6.394531 3.515625 -6 C 3.316406 -5.613281 3.21875 -5.171875 3.21875 -4.671875 C 3.21875 -4.171875 3.316406 -3.722656 3.515625 -3.328125 C 3.710938 -2.941406 3.984375 -2.640625 4.328125 -2.421875 C 4.679688 -2.210938 5.082031 -2.109375 5.53125 -2.109375 C 6.039062 -2.109375 6.484375 -2.242188 6.859375 -2.515625 C 7.242188 -2.785156 7.515625 -3.15625 7.671875 -3.625 L 9.890625 -2.65625 C 9.722656 -2.101562 9.425781 -1.609375 9 -1.171875 C 8.582031 -0.742188 8.078125 -0.40625 7.484375 -0.15625 C 6.890625 0.0820312 6.238281 0.203125 5.53125 0.203125 Z M 5.53125 0.203125 "/></g></g></g><g fill="#2f80ed" fill-opacity="1"><g transform="translate(135.681565, 18.037573)"><g><path d="M 0.9375 0 L 0.9375 -9.34375 L 3.515625 -9.34375 L 3.515625 0 Z M 0.9375 -10.1875 L 0.9375 -12.765625 L 3.515625 -12.765625 L 3.515625 -10.1875 Z M 0.9375 -10.1875 "/></g></g></g><g fill="#2f80ed" fill-opacity="1"><g transform="translate(140.649111, 18.037573)"><g><path d="M 0.9375 0 L 0.9375 -12.96875 L 3.515625 -12.96875 L 3.515625 0 Z M 0.9375 0 "/></g></g></g><g fill="#2f80ed" fill-opacity="1"><g transform="translate(145.616657, 18.037573)"><g><path d="M 5.453125 0.203125 C 4.453125 0.203125 3.585938 -0.015625 2.859375 -0.453125 C 2.128906 -0.890625 1.5625 -1.476562 1.15625 -2.21875 C 0.757812 -2.96875 0.5625 -3.789062 0.5625 -4.6875 C 0.5625 -5.625 0.769531 -6.457031 1.1875 -7.1875 C 1.601562 -7.914062 2.164062 -8.492188 2.875 -8.921875 C 3.582031 -9.347656 4.382812 -9.5625 5.28125 -9.5625 C 6.019531 -9.5625 6.671875 -9.441406 7.234375 -9.203125 C 7.804688 -8.972656 8.289062 -8.644531 8.6875 -8.21875 C 9.082031 -7.800781 9.378906 -7.3125 9.578125 -6.75 C 9.785156 -6.195312 9.890625 -5.597656 9.890625 -4.953125 C 9.890625 -4.765625 9.878906 -4.582031 9.859375 -4.40625 C 9.847656 -4.226562 9.820312 -4.078125 9.78125 -3.953125 L 2.78125 -3.953125 L 2.78125 -5.84375 L 8.328125 -5.84375 L 7.109375 -4.953125 C 7.222656 -5.441406 7.21875 -5.875 7.09375 -6.25 C 6.96875 -6.632812 6.742188 -6.9375 6.421875 -7.15625 C 6.109375 -7.382812 5.726562 -7.5 5.28125 -7.5 C 4.832031 -7.5 4.445312 -7.390625 4.125 -7.171875 C 3.800781 -6.953125 3.5625 -6.628906 3.40625 -6.203125 C 3.25 -5.785156 3.1875 -5.273438 3.21875 -4.671875 C 3.175781 -4.148438 3.238281 -3.6875 3.40625 -3.28125 C 3.582031 -2.882812 3.84375 -2.570312 4.1875 -2.34375 C 4.539062 -2.125 4.972656 -2.015625 5.484375 -2.015625 C 5.941406 -2.015625 6.332031 -2.101562 6.65625 -2.28125 C 6.976562 -2.46875 7.234375 -2.722656 7.421875 -3.046875 L 9.46875 -2.078125 C 9.289062 -1.617188 9.003906 -1.21875 8.609375 -0.875 C 8.210938 -0.53125 7.742188 -0.265625 7.203125 -0.078125 C 6.671875 0.105469 6.085938 0.203125 5.453125 0.203125 Z M 5.453125 0.203125 "/></g></g></g></g></g></g></g></g></g></svg>